%TF.GenerationSoftware,KiCad,Pcbnew,(5.1.7)-1*%
%TF.CreationDate,2021-01-07T21:57:37+01:00*%
%TF.ProjectId,potencia,706f7465-6e63-4696-912e-6b696361645f,rev?*%
%TF.SameCoordinates,Original*%
%TF.FileFunction,Legend,Top*%
%TF.FilePolarity,Positive*%
%FSLAX46Y46*%
G04 Gerber Fmt 4.6, Leading zero omitted, Abs format (unit mm)*
G04 Created by KiCad (PCBNEW (5.1.7)-1) date 2021-01-07 21:57:37*
%MOMM*%
%LPD*%
G01*
G04 APERTURE LIST*
%ADD10C,0.150000*%
%ADD11C,0.300000*%
%ADD12C,0.120000*%
%ADD13C,0.010000*%
G04 APERTURE END LIST*
D10*
X130613491Y-96670761D02*
X130750395Y-96718380D01*
X130988491Y-96718380D01*
X131089681Y-96670761D01*
X131143252Y-96623142D01*
X131202776Y-96527904D01*
X131214681Y-96432666D01*
X131178967Y-96337428D01*
X131137300Y-96289809D01*
X131048014Y-96242190D01*
X130863491Y-96194571D01*
X130774205Y-96146952D01*
X130732538Y-96099333D01*
X130696824Y-96004095D01*
X130708729Y-95908857D01*
X130768252Y-95813619D01*
X130821824Y-95766000D01*
X130923014Y-95718380D01*
X131161110Y-95718380D01*
X131298014Y-95766000D01*
X131607538Y-96718380D02*
X131732538Y-95718380D01*
X132083729Y-96718380D02*
X132208729Y-95718380D01*
X132655157Y-96718380D01*
X132780157Y-95718380D01*
X133893252Y-96718380D02*
X134018252Y-95718380D01*
X134399205Y-95718380D01*
X134488491Y-95766000D01*
X134530157Y-95813619D01*
X134565872Y-95908857D01*
X134548014Y-96051714D01*
X134488491Y-96146952D01*
X134434919Y-96194571D01*
X134333729Y-96242190D01*
X133952776Y-96242190D01*
X135208729Y-95718380D02*
X135399205Y-95718380D01*
X135488491Y-95766000D01*
X135571824Y-95861238D01*
X135595633Y-96051714D01*
X135553967Y-96385047D01*
X135482538Y-96575523D01*
X135375395Y-96670761D01*
X135274205Y-96718380D01*
X135083729Y-96718380D01*
X134994443Y-96670761D01*
X134911110Y-96575523D01*
X134887300Y-96385047D01*
X134928967Y-96051714D01*
X135000395Y-95861238D01*
X135107538Y-95766000D01*
X135208729Y-95718380D01*
X135899205Y-96670761D02*
X136036110Y-96718380D01*
X136274205Y-96718380D01*
X136375395Y-96670761D01*
X136428967Y-96623142D01*
X136488491Y-96527904D01*
X136500395Y-96432666D01*
X136464681Y-96337428D01*
X136423014Y-96289809D01*
X136333729Y-96242190D01*
X136149205Y-96194571D01*
X136059919Y-96146952D01*
X136018252Y-96099333D01*
X135982538Y-96004095D01*
X135994443Y-95908857D01*
X136053967Y-95813619D01*
X136107538Y-95766000D01*
X136208729Y-95718380D01*
X136446824Y-95718380D01*
X136583729Y-95766000D01*
X136881348Y-96432666D02*
X137357538Y-96432666D01*
X136750395Y-96718380D02*
X137208729Y-95718380D01*
X137417062Y-96718380D01*
X137732538Y-95718380D02*
X137940872Y-96718380D01*
X138399205Y-95718380D01*
X138595633Y-96432666D02*
X139071824Y-96432666D01*
X138464681Y-96718380D02*
X138923014Y-95718380D01*
X139131348Y-96718380D01*
X139423014Y-96670761D02*
X139559919Y-96718380D01*
X139798014Y-96718380D01*
X139899205Y-96670761D01*
X139952776Y-96623142D01*
X140012300Y-96527904D01*
X140024205Y-96432666D01*
X139988491Y-96337428D01*
X139946824Y-96289809D01*
X139857538Y-96242190D01*
X139673014Y-96194571D01*
X139583729Y-96146952D01*
X139542062Y-96099333D01*
X139506348Y-96004095D01*
X139518252Y-95908857D01*
X139577776Y-95813619D01*
X139631348Y-95766000D01*
X139732538Y-95718380D01*
X139970633Y-95718380D01*
X140107538Y-95766000D01*
X140732538Y-95718380D02*
X140923014Y-95718380D01*
X141012300Y-95766000D01*
X141095633Y-95861238D01*
X141119443Y-96051714D01*
X141077776Y-96385047D01*
X141006348Y-96575523D01*
X140899205Y-96670761D01*
X140798014Y-96718380D01*
X140607538Y-96718380D01*
X140518252Y-96670761D01*
X140434919Y-96575523D01*
X140411110Y-96385047D01*
X140452776Y-96051714D01*
X140524205Y-95861238D01*
X140631348Y-95766000D01*
X140732538Y-95718380D01*
X141423014Y-96670761D02*
X141559919Y-96718380D01*
X141798014Y-96718380D01*
X141899205Y-96670761D01*
X141952776Y-96623142D01*
X142012300Y-96527904D01*
X142024205Y-96432666D01*
X141988491Y-96337428D01*
X141946824Y-96289809D01*
X141857538Y-96242190D01*
X141673014Y-96194571D01*
X141583729Y-96146952D01*
X141542062Y-96099333D01*
X141506348Y-96004095D01*
X141518252Y-95908857D01*
X141577776Y-95813619D01*
X141631348Y-95766000D01*
X141732538Y-95718380D01*
X141970633Y-95718380D01*
X142107538Y-95766000D01*
D11*
X128809942Y-128921771D02*
X128809942Y-130136057D01*
X128881371Y-130278914D01*
X128952800Y-130350342D01*
X129095657Y-130421771D01*
X129381371Y-130421771D01*
X129524228Y-130350342D01*
X129595657Y-130278914D01*
X129667085Y-130136057D01*
X129667085Y-128921771D01*
X130309942Y-129993200D02*
X131024228Y-129993200D01*
X130167085Y-130421771D02*
X130667085Y-128921771D01*
X131167085Y-130421771D01*
X131667085Y-130421771D02*
X131667085Y-128921771D01*
X131667085Y-129636057D02*
X132524228Y-129636057D01*
X132524228Y-130421771D02*
X132524228Y-128921771D01*
X135238514Y-130421771D02*
X134738514Y-129707485D01*
X134381371Y-130421771D02*
X134381371Y-128921771D01*
X134952800Y-128921771D01*
X135095657Y-128993200D01*
X135167085Y-129064628D01*
X135238514Y-129207485D01*
X135238514Y-129421771D01*
X135167085Y-129564628D01*
X135095657Y-129636057D01*
X134952800Y-129707485D01*
X134381371Y-129707485D01*
X136167085Y-128921771D02*
X136452800Y-128921771D01*
X136595657Y-128993200D01*
X136738514Y-129136057D01*
X136809942Y-129421771D01*
X136809942Y-129921771D01*
X136738514Y-130207485D01*
X136595657Y-130350342D01*
X136452800Y-130421771D01*
X136167085Y-130421771D01*
X136024228Y-130350342D01*
X135881371Y-130207485D01*
X135809942Y-129921771D01*
X135809942Y-129421771D01*
X135881371Y-129136057D01*
X136024228Y-128993200D01*
X136167085Y-128921771D01*
X137952800Y-129636057D02*
X138167085Y-129707485D01*
X138238514Y-129778914D01*
X138309942Y-129921771D01*
X138309942Y-130136057D01*
X138238514Y-130278914D01*
X138167085Y-130350342D01*
X138024228Y-130421771D01*
X137452800Y-130421771D01*
X137452800Y-128921771D01*
X137952800Y-128921771D01*
X138095657Y-128993200D01*
X138167085Y-129064628D01*
X138238514Y-129207485D01*
X138238514Y-129350342D01*
X138167085Y-129493200D01*
X138095657Y-129564628D01*
X137952800Y-129636057D01*
X137452800Y-129636057D01*
X139238514Y-128921771D02*
X139524228Y-128921771D01*
X139667085Y-128993200D01*
X139809942Y-129136057D01*
X139881371Y-129421771D01*
X139881371Y-129921771D01*
X139809942Y-130207485D01*
X139667085Y-130350342D01*
X139524228Y-130421771D01*
X139238514Y-130421771D01*
X139095657Y-130350342D01*
X138952800Y-130207485D01*
X138881371Y-129921771D01*
X138881371Y-129421771D01*
X138952800Y-129136057D01*
X139095657Y-128993200D01*
X139238514Y-128921771D01*
X140309942Y-128921771D02*
X141167085Y-128921771D01*
X140738514Y-130421771D02*
X140738514Y-128921771D01*
X141667085Y-130421771D02*
X141667085Y-128921771D01*
X143238514Y-130278914D02*
X143167085Y-130350342D01*
X142952800Y-130421771D01*
X142809942Y-130421771D01*
X142595657Y-130350342D01*
X142452800Y-130207485D01*
X142381371Y-130064628D01*
X142309942Y-129778914D01*
X142309942Y-129564628D01*
X142381371Y-129278914D01*
X142452800Y-129136057D01*
X142595657Y-128993200D01*
X142809942Y-128921771D01*
X142952800Y-128921771D01*
X143167085Y-128993200D01*
X143238514Y-129064628D01*
X143809942Y-130350342D02*
X144024228Y-130421771D01*
X144381371Y-130421771D01*
X144524228Y-130350342D01*
X144595657Y-130278914D01*
X144667085Y-130136057D01*
X144667085Y-129993200D01*
X144595657Y-129850342D01*
X144524228Y-129778914D01*
X144381371Y-129707485D01*
X144095657Y-129636057D01*
X143952800Y-129564628D01*
X143881371Y-129493200D01*
X143809942Y-129350342D01*
X143809942Y-129207485D01*
X143881371Y-129064628D01*
X143952800Y-128993200D01*
X144095657Y-128921771D01*
X144452800Y-128921771D01*
X144667085Y-128993200D01*
D10*
X180197333Y-158932571D02*
X180530666Y-158932571D01*
X180673523Y-159456380D02*
X180197333Y-159456380D01*
X180197333Y-158456380D01*
X180673523Y-158456380D01*
X181006857Y-159456380D02*
X181530666Y-158789714D01*
X181006857Y-158789714D02*
X181530666Y-159456380D01*
X181768761Y-158789714D02*
X182149714Y-158789714D01*
X181911619Y-158456380D02*
X181911619Y-159313523D01*
X181959238Y-159408761D01*
X182054476Y-159456380D01*
X182149714Y-159456380D01*
X182483047Y-159456380D02*
X182483047Y-158789714D01*
X182483047Y-158980190D02*
X182530666Y-158884952D01*
X182578285Y-158837333D01*
X182673523Y-158789714D01*
X182768761Y-158789714D01*
X183530666Y-159456380D02*
X183530666Y-158932571D01*
X183483047Y-158837333D01*
X183387809Y-158789714D01*
X183197333Y-158789714D01*
X183102095Y-158837333D01*
X183530666Y-159408761D02*
X183435428Y-159456380D01*
X183197333Y-159456380D01*
X183102095Y-159408761D01*
X183054476Y-159313523D01*
X183054476Y-159218285D01*
X183102095Y-159123047D01*
X183197333Y-159075428D01*
X183435428Y-159075428D01*
X183530666Y-159027809D01*
X152289142Y-159408761D02*
X152432000Y-159456380D01*
X152670095Y-159456380D01*
X152765333Y-159408761D01*
X152812952Y-159361142D01*
X152860571Y-159265904D01*
X152860571Y-159170666D01*
X152812952Y-159075428D01*
X152765333Y-159027809D01*
X152670095Y-158980190D01*
X152479619Y-158932571D01*
X152384380Y-158884952D01*
X152336761Y-158837333D01*
X152289142Y-158742095D01*
X152289142Y-158646857D01*
X152336761Y-158551619D01*
X152384380Y-158504000D01*
X152479619Y-158456380D01*
X152717714Y-158456380D01*
X152860571Y-158504000D01*
X153717714Y-159456380D02*
X153717714Y-158932571D01*
X153670095Y-158837333D01*
X153574857Y-158789714D01*
X153384380Y-158789714D01*
X153289142Y-158837333D01*
X153717714Y-159408761D02*
X153622476Y-159456380D01*
X153384380Y-159456380D01*
X153289142Y-159408761D01*
X153241523Y-159313523D01*
X153241523Y-159218285D01*
X153289142Y-159123047D01*
X153384380Y-159075428D01*
X153622476Y-159075428D01*
X153717714Y-159027809D01*
X154336761Y-159456380D02*
X154241523Y-159408761D01*
X154193904Y-159313523D01*
X154193904Y-158456380D01*
X154717714Y-159456380D02*
X154717714Y-158789714D01*
X154717714Y-158456380D02*
X154670095Y-158504000D01*
X154717714Y-158551619D01*
X154765333Y-158504000D01*
X154717714Y-158456380D01*
X154717714Y-158551619D01*
X155622476Y-159456380D02*
X155622476Y-158456380D01*
X155622476Y-159408761D02*
X155527238Y-159456380D01*
X155336761Y-159456380D01*
X155241523Y-159408761D01*
X155193904Y-159361142D01*
X155146285Y-159265904D01*
X155146285Y-158980190D01*
X155193904Y-158884952D01*
X155241523Y-158837333D01*
X155336761Y-158789714D01*
X155527238Y-158789714D01*
X155622476Y-158837333D01*
X156527238Y-159456380D02*
X156527238Y-158932571D01*
X156479619Y-158837333D01*
X156384380Y-158789714D01*
X156193904Y-158789714D01*
X156098666Y-158837333D01*
X156527238Y-159408761D02*
X156432000Y-159456380D01*
X156193904Y-159456380D01*
X156098666Y-159408761D01*
X156051047Y-159313523D01*
X156051047Y-159218285D01*
X156098666Y-159123047D01*
X156193904Y-159075428D01*
X156432000Y-159075428D01*
X156527238Y-159027809D01*
X121388761Y-159170666D02*
X121864952Y-159170666D01*
X121293523Y-159456380D02*
X121626857Y-158456380D01*
X121960190Y-159456380D01*
X122436380Y-159456380D02*
X122341142Y-159408761D01*
X122293523Y-159313523D01*
X122293523Y-158456380D01*
X122817333Y-159456380D02*
X122817333Y-158789714D01*
X122817333Y-158456380D02*
X122769714Y-158504000D01*
X122817333Y-158551619D01*
X122864952Y-158504000D01*
X122817333Y-158456380D01*
X122817333Y-158551619D01*
X123293523Y-159456380D02*
X123293523Y-158789714D01*
X123293523Y-158884952D02*
X123341142Y-158837333D01*
X123436380Y-158789714D01*
X123579238Y-158789714D01*
X123674476Y-158837333D01*
X123722095Y-158932571D01*
X123722095Y-159456380D01*
X123722095Y-158932571D02*
X123769714Y-158837333D01*
X123864952Y-158789714D01*
X124007809Y-158789714D01*
X124103047Y-158837333D01*
X124150666Y-158932571D01*
X124150666Y-159456380D01*
X125007809Y-159408761D02*
X124912571Y-159456380D01*
X124722095Y-159456380D01*
X124626857Y-159408761D01*
X124579238Y-159313523D01*
X124579238Y-158932571D01*
X124626857Y-158837333D01*
X124722095Y-158789714D01*
X124912571Y-158789714D01*
X125007809Y-158837333D01*
X125055428Y-158932571D01*
X125055428Y-159027809D01*
X124579238Y-159123047D01*
X125484000Y-158789714D02*
X125484000Y-159456380D01*
X125484000Y-158884952D02*
X125531619Y-158837333D01*
X125626857Y-158789714D01*
X125769714Y-158789714D01*
X125864952Y-158837333D01*
X125912571Y-158932571D01*
X125912571Y-159456380D01*
X126245904Y-158789714D02*
X126626857Y-158789714D01*
X126388761Y-158456380D02*
X126388761Y-159313523D01*
X126436380Y-159408761D01*
X126531619Y-159456380D01*
X126626857Y-159456380D01*
X127388761Y-159456380D02*
X127388761Y-158932571D01*
X127341142Y-158837333D01*
X127245904Y-158789714D01*
X127055428Y-158789714D01*
X126960190Y-158837333D01*
X127388761Y-159408761D02*
X127293523Y-159456380D01*
X127055428Y-159456380D01*
X126960190Y-159408761D01*
X126912571Y-159313523D01*
X126912571Y-159218285D01*
X126960190Y-159123047D01*
X127055428Y-159075428D01*
X127293523Y-159075428D01*
X127388761Y-159027809D01*
X128293523Y-159408761D02*
X128198285Y-159456380D01*
X128007809Y-159456380D01*
X127912571Y-159408761D01*
X127864952Y-159361142D01*
X127817333Y-159265904D01*
X127817333Y-158980190D01*
X127864952Y-158884952D01*
X127912571Y-158837333D01*
X128007809Y-158789714D01*
X128198285Y-158789714D01*
X128293523Y-158837333D01*
X128722095Y-159456380D02*
X128722095Y-158789714D01*
X128722095Y-158456380D02*
X128674476Y-158504000D01*
X128722095Y-158551619D01*
X128769714Y-158504000D01*
X128722095Y-158456380D01*
X128722095Y-158551619D01*
X129341142Y-159456380D02*
X129245904Y-159408761D01*
X129198285Y-159361142D01*
X129150666Y-159265904D01*
X129150666Y-158980190D01*
X129198285Y-158884952D01*
X129245904Y-158837333D01*
X129341142Y-158789714D01*
X129484000Y-158789714D01*
X129579238Y-158837333D01*
X129626857Y-158884952D01*
X129674476Y-158980190D01*
X129674476Y-159265904D01*
X129626857Y-159361142D01*
X129579238Y-159408761D01*
X129484000Y-159456380D01*
X129341142Y-159456380D01*
X130103047Y-158789714D02*
X130103047Y-159456380D01*
X130103047Y-158884952D02*
X130150666Y-158837333D01*
X130245904Y-158789714D01*
X130388761Y-158789714D01*
X130484000Y-158837333D01*
X130531619Y-158932571D01*
X130531619Y-159456380D01*
D12*
%TO.C,GND    5V    12V    GND*%
X170950000Y-149899500D02*
X172950000Y-149899500D01*
X170950000Y-151149500D02*
X170950000Y-149899500D01*
X190730000Y-156899500D02*
X189980000Y-156899500D01*
X190730000Y-152599500D02*
X190730000Y-156899500D01*
X189980000Y-152599500D02*
X190730000Y-152599500D01*
X189980000Y-152249500D02*
X189980000Y-152599500D01*
X190480000Y-152249500D02*
X189980000Y-152249500D01*
X190730000Y-151249500D02*
X190480000Y-152249500D01*
X187730000Y-151249500D02*
X190730000Y-151249500D01*
X187980000Y-152249500D02*
X187730000Y-151249500D01*
X188480000Y-152249500D02*
X187980000Y-152249500D01*
X188480000Y-152599500D02*
X188480000Y-152249500D01*
X187730000Y-152599500D02*
X188480000Y-152599500D01*
X187730000Y-156899500D02*
X187730000Y-152599500D01*
X188480000Y-156899500D02*
X187730000Y-156899500D01*
X185650000Y-156899500D02*
X184900000Y-156899500D01*
X185650000Y-152599500D02*
X185650000Y-156899500D01*
X184900000Y-152599500D02*
X185650000Y-152599500D01*
X184900000Y-152249500D02*
X184900000Y-152599500D01*
X185400000Y-152249500D02*
X184900000Y-152249500D01*
X185650000Y-151249500D02*
X185400000Y-152249500D01*
X182650000Y-151249500D02*
X185650000Y-151249500D01*
X182900000Y-152249500D02*
X182650000Y-151249500D01*
X183400000Y-152249500D02*
X182900000Y-152249500D01*
X183400000Y-152599500D02*
X183400000Y-152249500D01*
X182650000Y-152599500D02*
X183400000Y-152599500D01*
X182650000Y-156899500D02*
X182650000Y-152599500D01*
X183400000Y-156899500D02*
X182650000Y-156899500D01*
X180570000Y-156899500D02*
X179820000Y-156899500D01*
X180570000Y-152599500D02*
X180570000Y-156899500D01*
X179820000Y-152599500D02*
X180570000Y-152599500D01*
X179820000Y-152249500D02*
X179820000Y-152599500D01*
X180320000Y-152249500D02*
X179820000Y-152249500D01*
X180570000Y-151249500D02*
X180320000Y-152249500D01*
X177570000Y-151249500D02*
X180570000Y-151249500D01*
X177820000Y-152249500D02*
X177570000Y-151249500D01*
X178320000Y-152249500D02*
X177820000Y-152249500D01*
X178320000Y-152599500D02*
X178320000Y-152249500D01*
X177570000Y-152599500D02*
X178320000Y-152599500D01*
X177570000Y-156899500D02*
X177570000Y-152599500D01*
X178320000Y-156899500D02*
X177570000Y-156899500D01*
X175490000Y-156899500D02*
X174740000Y-156899500D01*
X175490000Y-152599500D02*
X175490000Y-156899500D01*
X174740000Y-152599500D02*
X175490000Y-152599500D01*
X174740000Y-152249500D02*
X174740000Y-152599500D01*
X175240000Y-152249500D02*
X174740000Y-152249500D01*
X175490000Y-151249500D02*
X175240000Y-152249500D01*
X172490000Y-151249500D02*
X175490000Y-151249500D01*
X172740000Y-152249500D02*
X172490000Y-151249500D01*
X173240000Y-152249500D02*
X172740000Y-152249500D01*
X173240000Y-152599500D02*
X173240000Y-152249500D01*
X172490000Y-152599500D02*
X173240000Y-152599500D01*
X172490000Y-156899500D02*
X172490000Y-152599500D01*
X173240000Y-156899500D02*
X172490000Y-156899500D01*
X191880000Y-150289500D02*
X171340000Y-150289500D01*
X191880000Y-157759500D02*
X191880000Y-150289500D01*
X171340000Y-157759500D02*
X191880000Y-157759500D01*
X171340000Y-150289500D02*
X171340000Y-157759500D01*
X189979647Y-156899345D02*
G75*
G03*
X188480000Y-156899500I-749647J-1700155D01*
G01*
X184899647Y-156899345D02*
G75*
G03*
X183400000Y-156899500I-749647J-1700155D01*
G01*
X179819647Y-156899345D02*
G75*
G03*
X178320000Y-156899500I-749647J-1700155D01*
G01*
X174739647Y-156899345D02*
G75*
G03*
X173240000Y-156899500I-749647J-1700155D01*
G01*
%TO.C,GND   GND   BAT   SETA*%
X115019200Y-150039200D02*
X117019200Y-150039200D01*
X115019200Y-151289200D02*
X115019200Y-150039200D01*
X134799200Y-157039200D02*
X134049200Y-157039200D01*
X134799200Y-152739200D02*
X134799200Y-157039200D01*
X134049200Y-152739200D02*
X134799200Y-152739200D01*
X134049200Y-152389200D02*
X134049200Y-152739200D01*
X134549200Y-152389200D02*
X134049200Y-152389200D01*
X134799200Y-151389200D02*
X134549200Y-152389200D01*
X131799200Y-151389200D02*
X134799200Y-151389200D01*
X132049200Y-152389200D02*
X131799200Y-151389200D01*
X132549200Y-152389200D02*
X132049200Y-152389200D01*
X132549200Y-152739200D02*
X132549200Y-152389200D01*
X131799200Y-152739200D02*
X132549200Y-152739200D01*
X131799200Y-157039200D02*
X131799200Y-152739200D01*
X132549200Y-157039200D02*
X131799200Y-157039200D01*
X129719200Y-157039200D02*
X128969200Y-157039200D01*
X129719200Y-152739200D02*
X129719200Y-157039200D01*
X128969200Y-152739200D02*
X129719200Y-152739200D01*
X128969200Y-152389200D02*
X128969200Y-152739200D01*
X129469200Y-152389200D02*
X128969200Y-152389200D01*
X129719200Y-151389200D02*
X129469200Y-152389200D01*
X126719200Y-151389200D02*
X129719200Y-151389200D01*
X126969200Y-152389200D02*
X126719200Y-151389200D01*
X127469200Y-152389200D02*
X126969200Y-152389200D01*
X127469200Y-152739200D02*
X127469200Y-152389200D01*
X126719200Y-152739200D02*
X127469200Y-152739200D01*
X126719200Y-157039200D02*
X126719200Y-152739200D01*
X127469200Y-157039200D02*
X126719200Y-157039200D01*
X124639200Y-157039200D02*
X123889200Y-157039200D01*
X124639200Y-152739200D02*
X124639200Y-157039200D01*
X123889200Y-152739200D02*
X124639200Y-152739200D01*
X123889200Y-152389200D02*
X123889200Y-152739200D01*
X124389200Y-152389200D02*
X123889200Y-152389200D01*
X124639200Y-151389200D02*
X124389200Y-152389200D01*
X121639200Y-151389200D02*
X124639200Y-151389200D01*
X121889200Y-152389200D02*
X121639200Y-151389200D01*
X122389200Y-152389200D02*
X121889200Y-152389200D01*
X122389200Y-152739200D02*
X122389200Y-152389200D01*
X121639200Y-152739200D02*
X122389200Y-152739200D01*
X121639200Y-157039200D02*
X121639200Y-152739200D01*
X122389200Y-157039200D02*
X121639200Y-157039200D01*
X119559200Y-157039200D02*
X118809200Y-157039200D01*
X119559200Y-152739200D02*
X119559200Y-157039200D01*
X118809200Y-152739200D02*
X119559200Y-152739200D01*
X118809200Y-152389200D02*
X118809200Y-152739200D01*
X119309200Y-152389200D02*
X118809200Y-152389200D01*
X119559200Y-151389200D02*
X119309200Y-152389200D01*
X116559200Y-151389200D02*
X119559200Y-151389200D01*
X116809200Y-152389200D02*
X116559200Y-151389200D01*
X117309200Y-152389200D02*
X116809200Y-152389200D01*
X117309200Y-152739200D02*
X117309200Y-152389200D01*
X116559200Y-152739200D02*
X117309200Y-152739200D01*
X116559200Y-157039200D02*
X116559200Y-152739200D01*
X117309200Y-157039200D02*
X116559200Y-157039200D01*
X135949200Y-150429200D02*
X115409200Y-150429200D01*
X135949200Y-157899200D02*
X135949200Y-150429200D01*
X115409200Y-157899200D02*
X135949200Y-157899200D01*
X115409200Y-150429200D02*
X115409200Y-157899200D01*
X134048847Y-157039045D02*
G75*
G03*
X132549200Y-157039200I-749647J-1700155D01*
G01*
X128968847Y-157039045D02*
G75*
G03*
X127469200Y-157039200I-749647J-1700155D01*
G01*
X123888847Y-157039045D02*
G75*
G03*
X122389200Y-157039200I-749647J-1700155D01*
G01*
X118808847Y-157039045D02*
G75*
G03*
X117309200Y-157039200I-749647J-1700155D01*
G01*
%TO.C,5V    5V    5V    GND    12V    12V*%
X137930000Y-149886800D02*
X139930000Y-149886800D01*
X137930000Y-151136800D02*
X137930000Y-149886800D01*
X167870000Y-156886800D02*
X167120000Y-156886800D01*
X167870000Y-152586800D02*
X167870000Y-156886800D01*
X167120000Y-152586800D02*
X167870000Y-152586800D01*
X167120000Y-152236800D02*
X167120000Y-152586800D01*
X167620000Y-152236800D02*
X167120000Y-152236800D01*
X167870000Y-151236800D02*
X167620000Y-152236800D01*
X164870000Y-151236800D02*
X167870000Y-151236800D01*
X165120000Y-152236800D02*
X164870000Y-151236800D01*
X165620000Y-152236800D02*
X165120000Y-152236800D01*
X165620000Y-152586800D02*
X165620000Y-152236800D01*
X164870000Y-152586800D02*
X165620000Y-152586800D01*
X164870000Y-156886800D02*
X164870000Y-152586800D01*
X165620000Y-156886800D02*
X164870000Y-156886800D01*
X162790000Y-156886800D02*
X162040000Y-156886800D01*
X162790000Y-152586800D02*
X162790000Y-156886800D01*
X162040000Y-152586800D02*
X162790000Y-152586800D01*
X162040000Y-152236800D02*
X162040000Y-152586800D01*
X162540000Y-152236800D02*
X162040000Y-152236800D01*
X162790000Y-151236800D02*
X162540000Y-152236800D01*
X159790000Y-151236800D02*
X162790000Y-151236800D01*
X160040000Y-152236800D02*
X159790000Y-151236800D01*
X160540000Y-152236800D02*
X160040000Y-152236800D01*
X160540000Y-152586800D02*
X160540000Y-152236800D01*
X159790000Y-152586800D02*
X160540000Y-152586800D01*
X159790000Y-156886800D02*
X159790000Y-152586800D01*
X160540000Y-156886800D02*
X159790000Y-156886800D01*
X157710000Y-156886800D02*
X156960000Y-156886800D01*
X157710000Y-152586800D02*
X157710000Y-156886800D01*
X156960000Y-152586800D02*
X157710000Y-152586800D01*
X156960000Y-152236800D02*
X156960000Y-152586800D01*
X157460000Y-152236800D02*
X156960000Y-152236800D01*
X157710000Y-151236800D02*
X157460000Y-152236800D01*
X154710000Y-151236800D02*
X157710000Y-151236800D01*
X154960000Y-152236800D02*
X154710000Y-151236800D01*
X155460000Y-152236800D02*
X154960000Y-152236800D01*
X155460000Y-152586800D02*
X155460000Y-152236800D01*
X154710000Y-152586800D02*
X155460000Y-152586800D01*
X154710000Y-156886800D02*
X154710000Y-152586800D01*
X155460000Y-156886800D02*
X154710000Y-156886800D01*
X152630000Y-156886800D02*
X151880000Y-156886800D01*
X152630000Y-152586800D02*
X152630000Y-156886800D01*
X151880000Y-152586800D02*
X152630000Y-152586800D01*
X151880000Y-152236800D02*
X151880000Y-152586800D01*
X152380000Y-152236800D02*
X151880000Y-152236800D01*
X152630000Y-151236800D02*
X152380000Y-152236800D01*
X149630000Y-151236800D02*
X152630000Y-151236800D01*
X149880000Y-152236800D02*
X149630000Y-151236800D01*
X150380000Y-152236800D02*
X149880000Y-152236800D01*
X150380000Y-152586800D02*
X150380000Y-152236800D01*
X149630000Y-152586800D02*
X150380000Y-152586800D01*
X149630000Y-156886800D02*
X149630000Y-152586800D01*
X150380000Y-156886800D02*
X149630000Y-156886800D01*
X147550000Y-156886800D02*
X146800000Y-156886800D01*
X147550000Y-152586800D02*
X147550000Y-156886800D01*
X146800000Y-152586800D02*
X147550000Y-152586800D01*
X146800000Y-152236800D02*
X146800000Y-152586800D01*
X147300000Y-152236800D02*
X146800000Y-152236800D01*
X147550000Y-151236800D02*
X147300000Y-152236800D01*
X144550000Y-151236800D02*
X147550000Y-151236800D01*
X144800000Y-152236800D02*
X144550000Y-151236800D01*
X145300000Y-152236800D02*
X144800000Y-152236800D01*
X145300000Y-152586800D02*
X145300000Y-152236800D01*
X144550000Y-152586800D02*
X145300000Y-152586800D01*
X144550000Y-156886800D02*
X144550000Y-152586800D01*
X145300000Y-156886800D02*
X144550000Y-156886800D01*
X142470000Y-156886800D02*
X141720000Y-156886800D01*
X142470000Y-152586800D02*
X142470000Y-156886800D01*
X141720000Y-152586800D02*
X142470000Y-152586800D01*
X141720000Y-152236800D02*
X141720000Y-152586800D01*
X142220000Y-152236800D02*
X141720000Y-152236800D01*
X142470000Y-151236800D02*
X142220000Y-152236800D01*
X139470000Y-151236800D02*
X142470000Y-151236800D01*
X139720000Y-152236800D02*
X139470000Y-151236800D01*
X140220000Y-152236800D02*
X139720000Y-152236800D01*
X140220000Y-152586800D02*
X140220000Y-152236800D01*
X139470000Y-152586800D02*
X140220000Y-152586800D01*
X139470000Y-156886800D02*
X139470000Y-152586800D01*
X140220000Y-156886800D02*
X139470000Y-156886800D01*
X169020000Y-150276800D02*
X138320000Y-150276800D01*
X169020000Y-157746800D02*
X169020000Y-150276800D01*
X138320000Y-157746800D02*
X169020000Y-157746800D01*
X138320000Y-150276800D02*
X138320000Y-157746800D01*
X167119647Y-156886645D02*
G75*
G03*
X165620000Y-156886800I-749647J-1700155D01*
G01*
X162039647Y-156886645D02*
G75*
G03*
X160540000Y-156886800I-749647J-1700155D01*
G01*
X156959647Y-156886645D02*
G75*
G03*
X155460000Y-156886800I-749647J-1700155D01*
G01*
X151879647Y-156886645D02*
G75*
G03*
X150380000Y-156886800I-749647J-1700155D01*
G01*
X146799647Y-156886645D02*
G75*
G03*
X145300000Y-156886800I-749647J-1700155D01*
G01*
X141719647Y-156886645D02*
G75*
G03*
X140220000Y-156886800I-749647J-1700155D01*
G01*
D13*
%TO.C,G\u002A\u002A\u002A*%
G36*
X176994394Y-66577826D02*
G01*
X177096494Y-66662858D01*
X177151624Y-66874779D01*
X177181570Y-67271027D01*
X177193113Y-67536584D01*
X177232599Y-68510923D01*
X178173340Y-68510923D01*
X178213078Y-67603780D01*
X178240404Y-67122747D01*
X178285482Y-66850971D01*
X178372532Y-66729002D01*
X178525774Y-66697392D01*
X178582655Y-66696637D01*
X178764755Y-66714259D01*
X178863506Y-66808944D01*
X178904289Y-67043417D01*
X178912483Y-67480406D01*
X178912493Y-67511821D01*
X178883497Y-68125926D01*
X178778094Y-68534047D01*
X178568658Y-68794517D01*
X178227565Y-68965672D01*
X178223318Y-68967157D01*
X177759270Y-69093045D01*
X177397890Y-69073090D01*
X177008767Y-68895311D01*
X176930218Y-68848375D01*
X176707922Y-68701321D01*
X176577712Y-68549428D01*
X176514966Y-68320759D01*
X176495067Y-67943375D01*
X176493446Y-67572157D01*
X176497770Y-67058792D01*
X176523061Y-66757660D01*
X176587801Y-66612222D01*
X176710467Y-66565941D01*
X176823537Y-66562246D01*
X176994394Y-66577826D01*
G37*
X176994394Y-66577826D02*
X177096494Y-66662858D01*
X177151624Y-66874779D01*
X177181570Y-67271027D01*
X177193113Y-67536584D01*
X177232599Y-68510923D01*
X178173340Y-68510923D01*
X178213078Y-67603780D01*
X178240404Y-67122747D01*
X178285482Y-66850971D01*
X178372532Y-66729002D01*
X178525774Y-66697392D01*
X178582655Y-66696637D01*
X178764755Y-66714259D01*
X178863506Y-66808944D01*
X178904289Y-67043417D01*
X178912483Y-67480406D01*
X178912493Y-67511821D01*
X178883497Y-68125926D01*
X178778094Y-68534047D01*
X178568658Y-68794517D01*
X178227565Y-68965672D01*
X178223318Y-68967157D01*
X177759270Y-69093045D01*
X177397890Y-69073090D01*
X177008767Y-68895311D01*
X176930218Y-68848375D01*
X176707922Y-68701321D01*
X176577712Y-68549428D01*
X176514966Y-68320759D01*
X176495067Y-67943375D01*
X176493446Y-67572157D01*
X176497770Y-67058792D01*
X176523061Y-66757660D01*
X176587801Y-66612222D01*
X176710467Y-66565941D01*
X176823537Y-66562246D01*
X176994394Y-66577826D01*
G36*
X178778102Y-70384292D02*
G01*
X178769592Y-70957711D01*
X178738608Y-71309445D01*
X178676961Y-71486213D01*
X178576514Y-71534732D01*
X178454945Y-71468373D01*
X178392356Y-71235521D01*
X178374927Y-70795579D01*
X178352834Y-70390793D01*
X178295843Y-70122315D01*
X178240535Y-70056425D01*
X178113367Y-70155113D01*
X178086775Y-70469630D01*
X178099116Y-70627589D01*
X178022830Y-70827382D01*
X177910123Y-70862775D01*
X177702250Y-70973296D01*
X177544125Y-71198753D01*
X177327652Y-71464983D01*
X177001540Y-71534732D01*
X176612037Y-71534732D01*
X177217973Y-70426002D01*
X177509361Y-69905043D01*
X177721467Y-69576120D01*
X177898336Y-69392450D01*
X178084009Y-69307247D01*
X178301005Y-69275561D01*
X178778102Y-69233851D01*
X178778102Y-70384292D01*
G37*
X178778102Y-70384292D02*
X178769592Y-70957711D01*
X178738608Y-71309445D01*
X178676961Y-71486213D01*
X178576514Y-71534732D01*
X178454945Y-71468373D01*
X178392356Y-71235521D01*
X178374927Y-70795579D01*
X178352834Y-70390793D01*
X178295843Y-70122315D01*
X178240535Y-70056425D01*
X178113367Y-70155113D01*
X178086775Y-70469630D01*
X178099116Y-70627589D01*
X178022830Y-70827382D01*
X177910123Y-70862775D01*
X177702250Y-70973296D01*
X177544125Y-71198753D01*
X177327652Y-71464983D01*
X177001540Y-71534732D01*
X176612037Y-71534732D01*
X177217973Y-70426002D01*
X177509361Y-69905043D01*
X177721467Y-69576120D01*
X177898336Y-69392450D01*
X178084009Y-69307247D01*
X178301005Y-69275561D01*
X178778102Y-69233851D01*
X178778102Y-70384292D01*
G36*
X180961964Y-66697139D02*
G01*
X181877429Y-66709941D01*
X182567701Y-66758440D01*
X183075645Y-66858595D01*
X183444127Y-67026367D01*
X183716011Y-67277716D01*
X183934163Y-67628601D01*
X184034113Y-67840992D01*
X184194216Y-68270533D01*
X184224863Y-68611299D01*
X184157182Y-68946137D01*
X183845250Y-69637895D01*
X183359194Y-70126022D01*
X182705693Y-70404795D01*
X182394039Y-70456920D01*
X181731744Y-70526796D01*
X183011344Y-72441875D01*
X184290943Y-74356954D01*
X182473869Y-74339440D01*
X181214128Y-72399520D01*
X180754371Y-71695118D01*
X180411618Y-71185644D01*
X180158043Y-70839596D01*
X179965822Y-70625473D01*
X179807132Y-70511776D01*
X179654149Y-70467002D01*
X179500636Y-70459600D01*
X179046885Y-70459600D01*
X179046885Y-68650533D01*
X179807318Y-68650533D01*
X179961133Y-68968547D01*
X180237580Y-69188514D01*
X180570828Y-69273129D01*
X180895048Y-69185085D01*
X181093946Y-68981293D01*
X181333998Y-68767928D01*
X181533128Y-68712510D01*
X181814585Y-68818313D01*
X181972310Y-68981293D01*
X182237543Y-69185397D01*
X182609427Y-69249349D01*
X182957829Y-69160189D01*
X183051752Y-69088806D01*
X183172726Y-68840758D01*
X183213022Y-68554338D01*
X183106367Y-68176824D01*
X182839310Y-67928313D01*
X182491212Y-67830592D01*
X182141434Y-67905449D01*
X181869338Y-68174672D01*
X181864236Y-68184046D01*
X181673485Y-68393342D01*
X181533128Y-68443727D01*
X181321320Y-68337304D01*
X181202020Y-68184046D01*
X180918935Y-67893770D01*
X180546333Y-67798130D01*
X180173802Y-67891347D01*
X179890929Y-68167641D01*
X179841965Y-68271779D01*
X179807318Y-68650533D01*
X179046885Y-68650533D01*
X179046885Y-66696637D01*
X180961964Y-66697139D01*
G37*
X180961964Y-66697139D02*
X181877429Y-66709941D01*
X182567701Y-66758440D01*
X183075645Y-66858595D01*
X183444127Y-67026367D01*
X183716011Y-67277716D01*
X183934163Y-67628601D01*
X184034113Y-67840992D01*
X184194216Y-68270533D01*
X184224863Y-68611299D01*
X184157182Y-68946137D01*
X183845250Y-69637895D01*
X183359194Y-70126022D01*
X182705693Y-70404795D01*
X182394039Y-70456920D01*
X181731744Y-70526796D01*
X183011344Y-72441875D01*
X184290943Y-74356954D01*
X182473869Y-74339440D01*
X181214128Y-72399520D01*
X180754371Y-71695118D01*
X180411618Y-71185644D01*
X180158043Y-70839596D01*
X179965822Y-70625473D01*
X179807132Y-70511776D01*
X179654149Y-70467002D01*
X179500636Y-70459600D01*
X179046885Y-70459600D01*
X179046885Y-68650533D01*
X179807318Y-68650533D01*
X179961133Y-68968547D01*
X180237580Y-69188514D01*
X180570828Y-69273129D01*
X180895048Y-69185085D01*
X181093946Y-68981293D01*
X181333998Y-68767928D01*
X181533128Y-68712510D01*
X181814585Y-68818313D01*
X181972310Y-68981293D01*
X182237543Y-69185397D01*
X182609427Y-69249349D01*
X182957829Y-69160189D01*
X183051752Y-69088806D01*
X183172726Y-68840758D01*
X183213022Y-68554338D01*
X183106367Y-68176824D01*
X182839310Y-67928313D01*
X182491212Y-67830592D01*
X182141434Y-67905449D01*
X181869338Y-68174672D01*
X181864236Y-68184046D01*
X181673485Y-68393342D01*
X181533128Y-68443727D01*
X181321320Y-68337304D01*
X181202020Y-68184046D01*
X180918935Y-67893770D01*
X180546333Y-67798130D01*
X180173802Y-67891347D01*
X179890929Y-68167641D01*
X179841965Y-68271779D01*
X179807318Y-68650533D01*
X179046885Y-68650533D01*
X179046885Y-66696637D01*
X180961964Y-66697139D01*
G36*
X179483657Y-70594232D02*
G01*
X179774963Y-70631706D01*
X180001464Y-70783753D01*
X180245850Y-71110388D01*
X180290006Y-71179488D01*
X180464463Y-71479446D01*
X180573547Y-71758799D01*
X180632341Y-72094317D01*
X180655926Y-72562768D01*
X180659583Y-73060729D01*
X180659583Y-74356954D01*
X179046885Y-74356954D01*
X179046885Y-70593992D01*
X179483657Y-70594232D01*
G37*
X179483657Y-70594232D02*
X179774963Y-70631706D01*
X180001464Y-70783753D01*
X180245850Y-71110388D01*
X180290006Y-71179488D01*
X180464463Y-71479446D01*
X180573547Y-71758799D01*
X180632341Y-72094317D01*
X180655926Y-72562768D01*
X180659583Y-73060729D01*
X180659583Y-74356954D01*
X179046885Y-74356954D01*
X179046885Y-70593992D01*
X179483657Y-70594232D01*
G36*
X178626818Y-71820029D02*
G01*
X178709493Y-71902952D01*
X178754883Y-72102357D01*
X178774061Y-72468317D01*
X178778098Y-73050903D01*
X178778102Y-73080235D01*
X178774043Y-73673626D01*
X178754869Y-74048133D01*
X178710084Y-74253613D01*
X178629190Y-74339925D01*
X178509319Y-74356954D01*
X178310416Y-74291383D01*
X178242484Y-74049843D01*
X178240535Y-73964979D01*
X178292219Y-73661942D01*
X178408525Y-73505219D01*
X178389837Y-73464726D01*
X178158230Y-73435315D01*
X177938154Y-73426824D01*
X177299795Y-73416214D01*
X177299795Y-73886584D01*
X177274693Y-74204676D01*
X177161732Y-74334897D01*
X176963816Y-74356954D01*
X176808169Y-74348088D01*
X176710005Y-74287926D01*
X176656076Y-74126120D01*
X176633131Y-73812325D01*
X176627922Y-73296193D01*
X176627890Y-73214626D01*
X178374927Y-73214626D01*
X178442123Y-73281822D01*
X178509319Y-73214626D01*
X178442123Y-73147431D01*
X178374927Y-73214626D01*
X176627890Y-73214626D01*
X176627837Y-73080235D01*
X176630170Y-72488777D01*
X176646002Y-72115754D01*
X176688583Y-71910822D01*
X176771161Y-71823632D01*
X176906985Y-71803838D01*
X176963816Y-71803515D01*
X177191025Y-71838658D01*
X177284040Y-71996803D01*
X177299795Y-72273886D01*
X177323162Y-72590500D01*
X177436363Y-72720324D01*
X177676091Y-72744256D01*
X177997950Y-72786770D01*
X178180531Y-72872400D01*
X178254515Y-72845510D01*
X178271259Y-72575130D01*
X178261072Y-72402029D01*
X178245791Y-72030943D01*
X178296687Y-71855382D01*
X178441401Y-71804866D01*
X178495786Y-71803515D01*
X178626818Y-71820029D01*
G37*
X178626818Y-71820029D02*
X178709493Y-71902952D01*
X178754883Y-72102357D01*
X178774061Y-72468317D01*
X178778098Y-73050903D01*
X178778102Y-73080235D01*
X178774043Y-73673626D01*
X178754869Y-74048133D01*
X178710084Y-74253613D01*
X178629190Y-74339925D01*
X178509319Y-74356954D01*
X178310416Y-74291383D01*
X178242484Y-74049843D01*
X178240535Y-73964979D01*
X178292219Y-73661942D01*
X178408525Y-73505219D01*
X178389837Y-73464726D01*
X178158230Y-73435315D01*
X177938154Y-73426824D01*
X177299795Y-73416214D01*
X177299795Y-73886584D01*
X177274693Y-74204676D01*
X177161732Y-74334897D01*
X176963816Y-74356954D01*
X176808169Y-74348088D01*
X176710005Y-74287926D01*
X176656076Y-74126120D01*
X176633131Y-73812325D01*
X176627922Y-73296193D01*
X176627890Y-73214626D01*
X178374927Y-73214626D01*
X178442123Y-73281822D01*
X178509319Y-73214626D01*
X178442123Y-73147431D01*
X178374927Y-73214626D01*
X176627890Y-73214626D01*
X176627837Y-73080235D01*
X176630170Y-72488777D01*
X176646002Y-72115754D01*
X176688583Y-71910822D01*
X176771161Y-71823632D01*
X176906985Y-71803838D01*
X176963816Y-71803515D01*
X177191025Y-71838658D01*
X177284040Y-71996803D01*
X177299795Y-72273886D01*
X177323162Y-72590500D01*
X177436363Y-72720324D01*
X177676091Y-72744256D01*
X177997950Y-72786770D01*
X178180531Y-72872400D01*
X178254515Y-72845510D01*
X178271259Y-72575130D01*
X178261072Y-72402029D01*
X178245791Y-72030943D01*
X178296687Y-71855382D01*
X178441401Y-71804866D01*
X178495786Y-71803515D01*
X178626818Y-71820029D01*
D12*
%TO.C,In-*%
X187392000Y-92262000D02*
X190052000Y-92262000D01*
X187392000Y-92142000D02*
X187392000Y-92262000D01*
X190052000Y-92142000D02*
X190052000Y-92262000D01*
X190052000Y-89602000D02*
X190052000Y-90932000D01*
X188722000Y-89602000D02*
X190052000Y-89602000D01*
X187392000Y-145221000D02*
X190052000Y-145221000D01*
X187392000Y-145101000D02*
X187392000Y-145221000D01*
X190052000Y-145101000D02*
X190052000Y-145221000D01*
X190052000Y-142561000D02*
X190052000Y-143891000D01*
X188722000Y-142561000D02*
X190052000Y-142561000D01*
%TO.C,Out-*%
X188722000Y-49470000D02*
X190052000Y-49470000D01*
X190052000Y-49470000D02*
X190052000Y-50800000D01*
X190052000Y-52010000D02*
X190052000Y-52130000D01*
X187392000Y-52010000D02*
X187392000Y-52130000D01*
X187392000Y-52130000D02*
X190052000Y-52130000D01*
X188722000Y-102429000D02*
X190052000Y-102429000D01*
X190052000Y-102429000D02*
X190052000Y-103759000D01*
X190052000Y-104969000D02*
X190052000Y-105089000D01*
X187392000Y-104969000D02*
X187392000Y-105089000D01*
X187392000Y-105089000D02*
X190052000Y-105089000D01*
%TO.C,In+*%
X170688000Y-89602000D02*
X172018000Y-89602000D01*
X172018000Y-89602000D02*
X172018000Y-90932000D01*
X172018000Y-92142000D02*
X172018000Y-92262000D01*
X169358000Y-92142000D02*
X169358000Y-92262000D01*
X169358000Y-92262000D02*
X172018000Y-92262000D01*
X169358000Y-145221000D02*
X172018000Y-145221000D01*
X169358000Y-145101000D02*
X169358000Y-145221000D01*
X172018000Y-145101000D02*
X172018000Y-145221000D01*
X172018000Y-142561000D02*
X172018000Y-143891000D01*
X170688000Y-142561000D02*
X172018000Y-142561000D01*
%TO.C,Out+*%
X169358000Y-105089000D02*
X172018000Y-105089000D01*
X169358000Y-104969000D02*
X169358000Y-105089000D01*
X172018000Y-104969000D02*
X172018000Y-105089000D01*
X172018000Y-102429000D02*
X172018000Y-103759000D01*
X170688000Y-102429000D02*
X172018000Y-102429000D01*
X170688000Y-49470000D02*
X172018000Y-49470000D01*
X172018000Y-49470000D02*
X172018000Y-50800000D01*
X172018000Y-52010000D02*
X172018000Y-52130000D01*
X169358000Y-52010000D02*
X169358000Y-52130000D01*
X169358000Y-52130000D02*
X172018000Y-52130000D01*
%TO.C, *%
X118872000Y-55439000D02*
X120202000Y-55439000D01*
X120202000Y-55439000D02*
X120202000Y-56769000D01*
X120202000Y-58039000D02*
X120202000Y-68259000D01*
X117542000Y-68259000D02*
X120202000Y-68259000D01*
X117542000Y-58039000D02*
X117542000Y-68259000D01*
X117542000Y-58039000D02*
X120202000Y-58039000D01*
X117034000Y-125349000D02*
X119694000Y-125349000D01*
X117034000Y-125349000D02*
X117034000Y-135569000D01*
X117034000Y-135569000D02*
X119694000Y-135569000D01*
X119694000Y-125349000D02*
X119694000Y-135569000D01*
X119694000Y-122749000D02*
X119694000Y-124079000D01*
X118364000Y-122749000D02*
X119694000Y-122749000D01*
%TO.C,  *%
X154432000Y-102168000D02*
X153102000Y-102168000D01*
X153102000Y-102168000D02*
X153102000Y-100838000D01*
X153102000Y-99568000D02*
X153102000Y-89348000D01*
X155762000Y-89348000D02*
X153102000Y-89348000D01*
X155762000Y-99568000D02*
X155762000Y-89348000D01*
X155762000Y-99568000D02*
X153102000Y-99568000D01*
%TO.C,GND    5V    12V    GND*%
D10*
X172721142Y-148344000D02*
X172625904Y-148296380D01*
X172483047Y-148296380D01*
X172340190Y-148344000D01*
X172244952Y-148439238D01*
X172197333Y-148534476D01*
X172149714Y-148724952D01*
X172149714Y-148867809D01*
X172197333Y-149058285D01*
X172244952Y-149153523D01*
X172340190Y-149248761D01*
X172483047Y-149296380D01*
X172578285Y-149296380D01*
X172721142Y-149248761D01*
X172768761Y-149201142D01*
X172768761Y-148867809D01*
X172578285Y-148867809D01*
X173197333Y-149296380D02*
X173197333Y-148296380D01*
X173768761Y-149296380D01*
X173768761Y-148296380D01*
X174244952Y-149296380D02*
X174244952Y-148296380D01*
X174483047Y-148296380D01*
X174625904Y-148344000D01*
X174721142Y-148439238D01*
X174768761Y-148534476D01*
X174816380Y-148724952D01*
X174816380Y-148867809D01*
X174768761Y-149058285D01*
X174721142Y-149153523D01*
X174625904Y-149248761D01*
X174483047Y-149296380D01*
X174244952Y-149296380D01*
X178768761Y-148296380D02*
X178292571Y-148296380D01*
X178244952Y-148772571D01*
X178292571Y-148724952D01*
X178387809Y-148677333D01*
X178625904Y-148677333D01*
X178721142Y-148724952D01*
X178768761Y-148772571D01*
X178816380Y-148867809D01*
X178816380Y-149105904D01*
X178768761Y-149201142D01*
X178721142Y-149248761D01*
X178625904Y-149296380D01*
X178387809Y-149296380D01*
X178292571Y-149248761D01*
X178244952Y-149201142D01*
X179102095Y-148296380D02*
X179435428Y-149296380D01*
X179768761Y-148296380D01*
X183673523Y-149296380D02*
X183102095Y-149296380D01*
X183387809Y-149296380D02*
X183387809Y-148296380D01*
X183292571Y-148439238D01*
X183197333Y-148534476D01*
X183102095Y-148582095D01*
X184054476Y-148391619D02*
X184102095Y-148344000D01*
X184197333Y-148296380D01*
X184435428Y-148296380D01*
X184530666Y-148344000D01*
X184578285Y-148391619D01*
X184625904Y-148486857D01*
X184625904Y-148582095D01*
X184578285Y-148724952D01*
X184006857Y-149296380D01*
X184625904Y-149296380D01*
X184911619Y-148296380D02*
X185244952Y-149296380D01*
X185578285Y-148296380D01*
X189483047Y-148344000D02*
X189387809Y-148296380D01*
X189244952Y-148296380D01*
X189102095Y-148344000D01*
X189006857Y-148439238D01*
X188959238Y-148534476D01*
X188911619Y-148724952D01*
X188911619Y-148867809D01*
X188959238Y-149058285D01*
X189006857Y-149153523D01*
X189102095Y-149248761D01*
X189244952Y-149296380D01*
X189340190Y-149296380D01*
X189483047Y-149248761D01*
X189530666Y-149201142D01*
X189530666Y-148867809D01*
X189340190Y-148867809D01*
X189959238Y-149296380D02*
X189959238Y-148296380D01*
X190530666Y-149296380D01*
X190530666Y-148296380D01*
X191006857Y-149296380D02*
X191006857Y-148296380D01*
X191244952Y-148296380D01*
X191387809Y-148344000D01*
X191483047Y-148439238D01*
X191530666Y-148534476D01*
X191578285Y-148724952D01*
X191578285Y-148867809D01*
X191530666Y-149058285D01*
X191483047Y-149153523D01*
X191387809Y-149248761D01*
X191244952Y-149296380D01*
X191006857Y-149296380D01*
%TO.C,GND   GND   BAT   SETA*%
X116917295Y-148839200D02*
X116822057Y-148791580D01*
X116679200Y-148791580D01*
X116536342Y-148839200D01*
X116441104Y-148934438D01*
X116393485Y-149029676D01*
X116345866Y-149220152D01*
X116345866Y-149363009D01*
X116393485Y-149553485D01*
X116441104Y-149648723D01*
X116536342Y-149743961D01*
X116679200Y-149791580D01*
X116774438Y-149791580D01*
X116917295Y-149743961D01*
X116964914Y-149696342D01*
X116964914Y-149363009D01*
X116774438Y-149363009D01*
X117393485Y-149791580D02*
X117393485Y-148791580D01*
X117964914Y-149791580D01*
X117964914Y-148791580D01*
X118441104Y-149791580D02*
X118441104Y-148791580D01*
X118679200Y-148791580D01*
X118822057Y-148839200D01*
X118917295Y-148934438D01*
X118964914Y-149029676D01*
X119012533Y-149220152D01*
X119012533Y-149363009D01*
X118964914Y-149553485D01*
X118917295Y-149648723D01*
X118822057Y-149743961D01*
X118679200Y-149791580D01*
X118441104Y-149791580D01*
X122250628Y-148839200D02*
X122155390Y-148791580D01*
X122012533Y-148791580D01*
X121869676Y-148839200D01*
X121774438Y-148934438D01*
X121726819Y-149029676D01*
X121679200Y-149220152D01*
X121679200Y-149363009D01*
X121726819Y-149553485D01*
X121774438Y-149648723D01*
X121869676Y-149743961D01*
X122012533Y-149791580D01*
X122107771Y-149791580D01*
X122250628Y-149743961D01*
X122298247Y-149696342D01*
X122298247Y-149363009D01*
X122107771Y-149363009D01*
X122726819Y-149791580D02*
X122726819Y-148791580D01*
X123298247Y-149791580D01*
X123298247Y-148791580D01*
X123774438Y-149791580D02*
X123774438Y-148791580D01*
X124012533Y-148791580D01*
X124155390Y-148839200D01*
X124250628Y-148934438D01*
X124298247Y-149029676D01*
X124345866Y-149220152D01*
X124345866Y-149363009D01*
X124298247Y-149553485D01*
X124250628Y-149648723D01*
X124155390Y-149743961D01*
X124012533Y-149791580D01*
X123774438Y-149791580D01*
X127393485Y-149267771D02*
X127536342Y-149315390D01*
X127583961Y-149363009D01*
X127631580Y-149458247D01*
X127631580Y-149601104D01*
X127583961Y-149696342D01*
X127536342Y-149743961D01*
X127441104Y-149791580D01*
X127060152Y-149791580D01*
X127060152Y-148791580D01*
X127393485Y-148791580D01*
X127488723Y-148839200D01*
X127536342Y-148886819D01*
X127583961Y-148982057D01*
X127583961Y-149077295D01*
X127536342Y-149172533D01*
X127488723Y-149220152D01*
X127393485Y-149267771D01*
X127060152Y-149267771D01*
X128012533Y-149505866D02*
X128488723Y-149505866D01*
X127917295Y-149791580D02*
X128250628Y-148791580D01*
X128583961Y-149791580D01*
X128774438Y-148791580D02*
X129345866Y-148791580D01*
X129060152Y-149791580D02*
X129060152Y-148791580D01*
X131917295Y-149743961D02*
X132060152Y-149791580D01*
X132298247Y-149791580D01*
X132393485Y-149743961D01*
X132441104Y-149696342D01*
X132488723Y-149601104D01*
X132488723Y-149505866D01*
X132441104Y-149410628D01*
X132393485Y-149363009D01*
X132298247Y-149315390D01*
X132107771Y-149267771D01*
X132012533Y-149220152D01*
X131964914Y-149172533D01*
X131917295Y-149077295D01*
X131917295Y-148982057D01*
X131964914Y-148886819D01*
X132012533Y-148839200D01*
X132107771Y-148791580D01*
X132345866Y-148791580D01*
X132488723Y-148839200D01*
X132917295Y-149267771D02*
X133250628Y-149267771D01*
X133393485Y-149791580D02*
X132917295Y-149791580D01*
X132917295Y-148791580D01*
X133393485Y-148791580D01*
X133679200Y-148791580D02*
X134250628Y-148791580D01*
X133964914Y-149791580D02*
X133964914Y-148791580D01*
X134536342Y-149505866D02*
X135012533Y-149505866D01*
X134441104Y-149791580D02*
X134774438Y-148791580D01*
X135107771Y-149791580D01*
%TO.C,5V    5V    5V    GND    12V    12V*%
X141035238Y-148550380D02*
X140559047Y-148550380D01*
X140511428Y-149026571D01*
X140559047Y-148978952D01*
X140654285Y-148931333D01*
X140892380Y-148931333D01*
X140987619Y-148978952D01*
X141035238Y-149026571D01*
X141082857Y-149121809D01*
X141082857Y-149359904D01*
X141035238Y-149455142D01*
X140987619Y-149502761D01*
X140892380Y-149550380D01*
X140654285Y-149550380D01*
X140559047Y-149502761D01*
X140511428Y-149455142D01*
X141368571Y-148550380D02*
X141701904Y-149550380D01*
X142035238Y-148550380D01*
X145892380Y-148550380D02*
X145416190Y-148550380D01*
X145368571Y-149026571D01*
X145416190Y-148978952D01*
X145511428Y-148931333D01*
X145749523Y-148931333D01*
X145844761Y-148978952D01*
X145892380Y-149026571D01*
X145940000Y-149121809D01*
X145940000Y-149359904D01*
X145892380Y-149455142D01*
X145844761Y-149502761D01*
X145749523Y-149550380D01*
X145511428Y-149550380D01*
X145416190Y-149502761D01*
X145368571Y-149455142D01*
X146225714Y-148550380D02*
X146559047Y-149550380D01*
X146892380Y-148550380D01*
X150749523Y-148550380D02*
X150273333Y-148550380D01*
X150225714Y-149026571D01*
X150273333Y-148978952D01*
X150368571Y-148931333D01*
X150606666Y-148931333D01*
X150701904Y-148978952D01*
X150749523Y-149026571D01*
X150797142Y-149121809D01*
X150797142Y-149359904D01*
X150749523Y-149455142D01*
X150701904Y-149502761D01*
X150606666Y-149550380D01*
X150368571Y-149550380D01*
X150273333Y-149502761D01*
X150225714Y-149455142D01*
X151082857Y-148550380D02*
X151416190Y-149550380D01*
X151749523Y-148550380D01*
X155654285Y-148598000D02*
X155559047Y-148550380D01*
X155416190Y-148550380D01*
X155273333Y-148598000D01*
X155178095Y-148693238D01*
X155130476Y-148788476D01*
X155082857Y-148978952D01*
X155082857Y-149121809D01*
X155130476Y-149312285D01*
X155178095Y-149407523D01*
X155273333Y-149502761D01*
X155416190Y-149550380D01*
X155511428Y-149550380D01*
X155654285Y-149502761D01*
X155701904Y-149455142D01*
X155701904Y-149121809D01*
X155511428Y-149121809D01*
X156130476Y-149550380D02*
X156130476Y-148550380D01*
X156701904Y-149550380D01*
X156701904Y-148550380D01*
X157178095Y-149550380D02*
X157178095Y-148550380D01*
X157416190Y-148550380D01*
X157559047Y-148598000D01*
X157654285Y-148693238D01*
X157701904Y-148788476D01*
X157749523Y-148978952D01*
X157749523Y-149121809D01*
X157701904Y-149312285D01*
X157654285Y-149407523D01*
X157559047Y-149502761D01*
X157416190Y-149550380D01*
X157178095Y-149550380D01*
X161749523Y-149550380D02*
X161178095Y-149550380D01*
X161463809Y-149550380D02*
X161463809Y-148550380D01*
X161368571Y-148693238D01*
X161273333Y-148788476D01*
X161178095Y-148836095D01*
X162130476Y-148645619D02*
X162178095Y-148598000D01*
X162273333Y-148550380D01*
X162511428Y-148550380D01*
X162606666Y-148598000D01*
X162654285Y-148645619D01*
X162701904Y-148740857D01*
X162701904Y-148836095D01*
X162654285Y-148978952D01*
X162082857Y-149550380D01*
X162701904Y-149550380D01*
X162987619Y-148550380D02*
X163320952Y-149550380D01*
X163654285Y-148550380D01*
X167559047Y-149550380D02*
X166987619Y-149550380D01*
X167273333Y-149550380D02*
X167273333Y-148550380D01*
X167178095Y-148693238D01*
X167082857Y-148788476D01*
X166987619Y-148836095D01*
X167940000Y-148645619D02*
X167987619Y-148598000D01*
X168082857Y-148550380D01*
X168320952Y-148550380D01*
X168416190Y-148598000D01*
X168463809Y-148645619D01*
X168511428Y-148740857D01*
X168511428Y-148836095D01*
X168463809Y-148978952D01*
X167892380Y-149550380D01*
X168511428Y-149550380D01*
X168797142Y-148550380D02*
X169130476Y-149550380D01*
X169463809Y-148550380D01*
%TO.C, *%
%TO.C,In-*%
X187650571Y-88614380D02*
X187650571Y-87614380D01*
X188126761Y-87947714D02*
X188126761Y-88614380D01*
X188126761Y-88042952D02*
X188174380Y-87995333D01*
X188269619Y-87947714D01*
X188412476Y-87947714D01*
X188507714Y-87995333D01*
X188555333Y-88090571D01*
X188555333Y-88614380D01*
X189031523Y-88233428D02*
X189793428Y-88233428D01*
X187650571Y-141573380D02*
X187650571Y-140573380D01*
X188126761Y-140906714D02*
X188126761Y-141573380D01*
X188126761Y-141001952D02*
X188174380Y-140954333D01*
X188269619Y-140906714D01*
X188412476Y-140906714D01*
X188507714Y-140954333D01*
X188555333Y-141049571D01*
X188555333Y-141573380D01*
X189031523Y-141192428D02*
X189793428Y-141192428D01*
%TO.C,Out-*%
X187269619Y-47482380D02*
X187460095Y-47482380D01*
X187555333Y-47530000D01*
X187650571Y-47625238D01*
X187698190Y-47815714D01*
X187698190Y-48149047D01*
X187650571Y-48339523D01*
X187555333Y-48434761D01*
X187460095Y-48482380D01*
X187269619Y-48482380D01*
X187174380Y-48434761D01*
X187079142Y-48339523D01*
X187031523Y-48149047D01*
X187031523Y-47815714D01*
X187079142Y-47625238D01*
X187174380Y-47530000D01*
X187269619Y-47482380D01*
X188555333Y-47815714D02*
X188555333Y-48482380D01*
X188126761Y-47815714D02*
X188126761Y-48339523D01*
X188174380Y-48434761D01*
X188269619Y-48482380D01*
X188412476Y-48482380D01*
X188507714Y-48434761D01*
X188555333Y-48387142D01*
X188888666Y-47815714D02*
X189269619Y-47815714D01*
X189031523Y-47482380D02*
X189031523Y-48339523D01*
X189079142Y-48434761D01*
X189174380Y-48482380D01*
X189269619Y-48482380D01*
X189602952Y-48101428D02*
X190364857Y-48101428D01*
X187269619Y-100441380D02*
X187460095Y-100441380D01*
X187555333Y-100489000D01*
X187650571Y-100584238D01*
X187698190Y-100774714D01*
X187698190Y-101108047D01*
X187650571Y-101298523D01*
X187555333Y-101393761D01*
X187460095Y-101441380D01*
X187269619Y-101441380D01*
X187174380Y-101393761D01*
X187079142Y-101298523D01*
X187031523Y-101108047D01*
X187031523Y-100774714D01*
X187079142Y-100584238D01*
X187174380Y-100489000D01*
X187269619Y-100441380D01*
X188555333Y-100774714D02*
X188555333Y-101441380D01*
X188126761Y-100774714D02*
X188126761Y-101298523D01*
X188174380Y-101393761D01*
X188269619Y-101441380D01*
X188412476Y-101441380D01*
X188507714Y-101393761D01*
X188555333Y-101346142D01*
X188888666Y-100774714D02*
X189269619Y-100774714D01*
X189031523Y-100441380D02*
X189031523Y-101298523D01*
X189079142Y-101393761D01*
X189174380Y-101441380D01*
X189269619Y-101441380D01*
X189602952Y-101060428D02*
X190364857Y-101060428D01*
%TO.C,In+*%
X169616571Y-88614380D02*
X169616571Y-87614380D01*
X170092761Y-87947714D02*
X170092761Y-88614380D01*
X170092761Y-88042952D02*
X170140380Y-87995333D01*
X170235619Y-87947714D01*
X170378476Y-87947714D01*
X170473714Y-87995333D01*
X170521333Y-88090571D01*
X170521333Y-88614380D01*
X170997523Y-88233428D02*
X171759428Y-88233428D01*
X171378476Y-88614380D02*
X171378476Y-87852476D01*
X169616571Y-141573380D02*
X169616571Y-140573380D01*
X170092761Y-140906714D02*
X170092761Y-141573380D01*
X170092761Y-141001952D02*
X170140380Y-140954333D01*
X170235619Y-140906714D01*
X170378476Y-140906714D01*
X170473714Y-140954333D01*
X170521333Y-141049571D01*
X170521333Y-141573380D01*
X170997523Y-141192428D02*
X171759428Y-141192428D01*
X171378476Y-141573380D02*
X171378476Y-140811476D01*
%TO.C,Out+*%
X169235619Y-100441380D02*
X169426095Y-100441380D01*
X169521333Y-100489000D01*
X169616571Y-100584238D01*
X169664190Y-100774714D01*
X169664190Y-101108047D01*
X169616571Y-101298523D01*
X169521333Y-101393761D01*
X169426095Y-101441380D01*
X169235619Y-101441380D01*
X169140380Y-101393761D01*
X169045142Y-101298523D01*
X168997523Y-101108047D01*
X168997523Y-100774714D01*
X169045142Y-100584238D01*
X169140380Y-100489000D01*
X169235619Y-100441380D01*
X170521333Y-100774714D02*
X170521333Y-101441380D01*
X170092761Y-100774714D02*
X170092761Y-101298523D01*
X170140380Y-101393761D01*
X170235619Y-101441380D01*
X170378476Y-101441380D01*
X170473714Y-101393761D01*
X170521333Y-101346142D01*
X170854666Y-100774714D02*
X171235619Y-100774714D01*
X170997523Y-100441380D02*
X170997523Y-101298523D01*
X171045142Y-101393761D01*
X171140380Y-101441380D01*
X171235619Y-101441380D01*
X171568952Y-101060428D02*
X172330857Y-101060428D01*
X171949904Y-101441380D02*
X171949904Y-100679476D01*
X169235619Y-47482380D02*
X169426095Y-47482380D01*
X169521333Y-47530000D01*
X169616571Y-47625238D01*
X169664190Y-47815714D01*
X169664190Y-48149047D01*
X169616571Y-48339523D01*
X169521333Y-48434761D01*
X169426095Y-48482380D01*
X169235619Y-48482380D01*
X169140380Y-48434761D01*
X169045142Y-48339523D01*
X168997523Y-48149047D01*
X168997523Y-47815714D01*
X169045142Y-47625238D01*
X169140380Y-47530000D01*
X169235619Y-47482380D01*
X170521333Y-47815714D02*
X170521333Y-48482380D01*
X170092761Y-47815714D02*
X170092761Y-48339523D01*
X170140380Y-48434761D01*
X170235619Y-48482380D01*
X170378476Y-48482380D01*
X170473714Y-48434761D01*
X170521333Y-48387142D01*
X170854666Y-47815714D02*
X171235619Y-47815714D01*
X170997523Y-47482380D02*
X170997523Y-48339523D01*
X171045142Y-48434761D01*
X171140380Y-48482380D01*
X171235619Y-48482380D01*
X171568952Y-48101428D02*
X172330857Y-48101428D01*
X171949904Y-48482380D02*
X171949904Y-47720476D01*
%TO.C, *%
%TO.C,  *%
%TD*%
M02*
