%TF.GenerationSoftware,KiCad,Pcbnew,(5.1.7)-1*%
%TF.CreationDate,2021-01-07T21:57:37+01:00*%
%TF.ProjectId,potencia,706f7465-6e63-4696-912e-6b696361645f,rev?*%
%TF.SameCoordinates,Original*%
%TF.FileFunction,Copper,L2,Bot*%
%TF.FilePolarity,Positive*%
%FSLAX46Y46*%
G04 Gerber Fmt 4.6, Leading zero omitted, Abs format (unit mm)*
G04 Created by KiCad (PCBNEW (5.1.7)-1) date 2021-01-07 21:57:37*
%MOMM*%
%LPD*%
G01*
G04 APERTURE LIST*
%TA.AperFunction,ComponentPad*%
%ADD10O,1.800000X3.600000*%
%TD*%
%TA.AperFunction,ComponentPad*%
%ADD11R,1.700000X1.700000*%
%TD*%
%TA.AperFunction,ComponentPad*%
%ADD12O,1.700000X1.700000*%
%TD*%
%TA.AperFunction,Conductor*%
%ADD13C,0.250000*%
%TD*%
%TA.AperFunction,Conductor*%
%ADD14C,0.254000*%
%TD*%
%TA.AperFunction,Conductor*%
%ADD15C,0.100000*%
%TD*%
G04 APERTURE END LIST*
D10*
%TO.P,GND    5V    12V    GND,4*%
%TO.N,GND*%
X189230000Y-154749500D03*
%TO.P,GND    5V    12V    GND,3*%
%TO.N,12.2*%
X184150000Y-154749500D03*
%TO.P,GND    5V    12V    GND,2*%
%TO.N,5.2*%
X179070000Y-154749500D03*
%TO.P,GND    5V    12V    GND,1*%
%TO.N,GND*%
%TA.AperFunction,ComponentPad*%
G36*
G01*
X173090000Y-156299500D02*
X173090000Y-153199500D01*
G75*
G02*
X173340000Y-152949500I250000J0D01*
G01*
X174640000Y-152949500D01*
G75*
G02*
X174890000Y-153199500I0J-250000D01*
G01*
X174890000Y-156299500D01*
G75*
G02*
X174640000Y-156549500I-250000J0D01*
G01*
X173340000Y-156549500D01*
G75*
G02*
X173090000Y-156299500I0J250000D01*
G01*
G37*
%TD.AperFunction*%
%TD*%
%TO.P,GND   GND   BAT   SETA,4*%
%TO.N,+15V*%
X133299200Y-154889200D03*
%TO.P,GND   GND   BAT   SETA,3*%
%TO.N,+BATT*%
X128219200Y-154889200D03*
%TO.P,GND   GND   BAT   SETA,2*%
%TO.N,GND*%
X123139200Y-154889200D03*
%TO.P,GND   GND   BAT   SETA,1*%
%TA.AperFunction,ComponentPad*%
G36*
G01*
X117159200Y-156439200D02*
X117159200Y-153339200D01*
G75*
G02*
X117409200Y-153089200I250000J0D01*
G01*
X118709200Y-153089200D01*
G75*
G02*
X118959200Y-153339200I0J-250000D01*
G01*
X118959200Y-156439200D01*
G75*
G02*
X118709200Y-156689200I-250000J0D01*
G01*
X117409200Y-156689200D01*
G75*
G02*
X117159200Y-156439200I0J250000D01*
G01*
G37*
%TD.AperFunction*%
%TD*%
%TO.P,5V    5V    5V    GND    12V    12V,6*%
%TO.N,12.2*%
X166370000Y-154736800D03*
%TO.P,5V    5V    5V    GND    12V    12V,5*%
%TO.N,12.1*%
X161290000Y-154736800D03*
%TO.P,5V    5V    5V    GND    12V    12V,4*%
%TO.N,GND*%
X156210000Y-154736800D03*
%TO.P,5V    5V    5V    GND    12V    12V,3*%
%TO.N,5.3*%
X151130000Y-154736800D03*
%TO.P,5V    5V    5V    GND    12V    12V,2*%
%TO.N,5.2*%
X146050000Y-154736800D03*
%TO.P,5V    5V    5V    GND    12V    12V,1*%
%TO.N,5.1*%
%TA.AperFunction,ComponentPad*%
G36*
G01*
X140070000Y-156286800D02*
X140070000Y-153186800D01*
G75*
G02*
X140320000Y-152936800I250000J0D01*
G01*
X141620000Y-152936800D01*
G75*
G02*
X141870000Y-153186800I0J-250000D01*
G01*
X141870000Y-156286800D01*
G75*
G02*
X141620000Y-156536800I-250000J0D01*
G01*
X140320000Y-156536800D01*
G75*
G02*
X140070000Y-156286800I0J250000D01*
G01*
G37*
%TD.AperFunction*%
%TD*%
D11*
%TO.P,In-,1*%
%TO.N,GND*%
X188722000Y-90932000D03*
%TD*%
%TO.P,In-,1*%
%TO.N,GND*%
X188722000Y-143891000D03*
%TD*%
%TO.P,Out-,1*%
%TO.N,GND*%
X188722000Y-50800000D03*
%TD*%
%TO.P,Out-,1*%
%TO.N,GND*%
X188722000Y-103759000D03*
%TD*%
%TO.P,In+,1*%
%TO.N,+15V*%
X170688000Y-90932000D03*
%TD*%
%TO.P,In+,1*%
%TO.N,+15V*%
X170688000Y-143891000D03*
%TD*%
%TO.P,Out+,1*%
%TO.N,12.1*%
X170688000Y-103759000D03*
%TD*%
%TO.P,Out+,1*%
%TO.N,12.2*%
X170688000Y-50800000D03*
%TD*%
%TO.P, ,1*%
%TO.N,+BATT*%
X118872000Y-56769000D03*
D12*
%TO.P, ,2*%
%TO.N,Net-(Regulador5.3-Pad2)*%
X118872000Y-59309000D03*
%TO.P, ,3*%
%TO.N,GND*%
X118872000Y-61849000D03*
%TO.P, ,4*%
%TO.N,Net-(Regulador5.3-Pad4)*%
X118872000Y-64389000D03*
%TO.P, ,5*%
%TO.N,5.3*%
X118872000Y-66929000D03*
%TD*%
%TO.P, ,5*%
%TO.N,5.1*%
X118364000Y-134239000D03*
%TO.P, ,4*%
%TO.N,Net-(Regulador5.1-Pad4)*%
X118364000Y-131699000D03*
%TO.P, ,3*%
%TO.N,GND*%
X118364000Y-129159000D03*
%TO.P, ,2*%
%TO.N,Net-(Regulador5.1-Pad2)*%
X118364000Y-126619000D03*
D11*
%TO.P, ,1*%
%TO.N,+BATT*%
X118364000Y-124079000D03*
%TD*%
%TO.P,  ,1*%
%TO.N,+BATT*%
X154432000Y-100838000D03*
D12*
%TO.P,  ,2*%
%TO.N,Net-(Regulador5.2-Pad2)*%
X154432000Y-98298000D03*
%TO.P,  ,3*%
%TO.N,GND*%
X154432000Y-95758000D03*
%TO.P,  ,4*%
%TO.N,Net-(Regulador5.2-Pad4)*%
X154432000Y-93218000D03*
%TO.P,  ,5*%
%TO.N,5.2*%
X154432000Y-90678000D03*
%TD*%
D13*
%TO.N,+15V*%
X169512999Y-142715999D02*
X170688000Y-143891000D01*
X169512999Y-92107001D02*
X169512999Y-142715999D01*
X170688000Y-90932000D02*
X169512999Y-92107001D01*
X165862585Y-156861810D02*
X166877415Y-156861810D01*
X165144990Y-156144215D02*
X165862585Y-156861810D01*
X165144990Y-148625815D02*
X165144990Y-156144215D01*
X154984990Y-153514235D02*
X154984990Y-153329385D01*
X162416775Y-145897600D02*
X165144990Y-148625815D01*
X151637415Y-156861810D02*
X154984990Y-153514235D01*
X154984990Y-153329385D02*
X162416775Y-145897600D01*
X135271810Y-156861810D02*
X151637415Y-156861810D01*
X170688000Y-153051225D02*
X170688000Y-143891000D01*
X166877415Y-156861810D02*
X170688000Y-153051225D01*
X133299200Y-154889200D02*
X135271810Y-156861810D01*
%TO.N,+BATT*%
X118872000Y-56769000D02*
X121539000Y-56769000D01*
X128219200Y-133934200D02*
X118364000Y-124079000D01*
X128219200Y-154889200D02*
X128219200Y-133934200D01*
X130523999Y-65753999D02*
X130556000Y-65786000D01*
X117696999Y-66364999D02*
X118307999Y-65753999D01*
X117696999Y-123411999D02*
X117696999Y-66364999D01*
X118364000Y-124079000D02*
X117696999Y-123411999D01*
X121539000Y-56769000D02*
X130556000Y-65786000D01*
X153417410Y-100838000D02*
X154432000Y-100838000D01*
X121379999Y-68800589D02*
X153417410Y-100838000D01*
X118307999Y-65753999D02*
X121379999Y-65753999D01*
X122270409Y-68800589D02*
X125316999Y-65753999D01*
X121379999Y-68800589D02*
X122270409Y-68800589D01*
X125316999Y-65753999D02*
X130523999Y-65753999D01*
X121379999Y-65753999D02*
X125316999Y-65753999D01*
%TO.N,GND*%
X188722000Y-50800000D02*
X188722000Y-90932000D01*
X188722000Y-103759000D02*
X188722000Y-90932000D01*
X188722000Y-103759000D02*
X188722000Y-143891000D01*
X188722000Y-154241500D02*
X189230000Y-154749500D01*
X188722000Y-143891000D02*
X188722000Y-154241500D01*
%TO.N,5.1*%
X138997390Y-152764190D02*
X140970000Y-154736800D01*
X132791785Y-152764190D02*
X138997390Y-152764190D01*
X132074190Y-153481785D02*
X132791785Y-152764190D01*
X127711785Y-157014210D02*
X128726615Y-157014210D01*
X126994190Y-156296615D02*
X127711785Y-157014210D01*
X126994190Y-142869190D02*
X126994190Y-156296615D01*
X132074190Y-153666635D02*
X132074190Y-153481785D01*
X128726615Y-157014210D02*
X132074190Y-153666635D01*
X118364000Y-134239000D02*
X126994190Y-142869190D01*
%TO.N,5.2*%
X154432000Y-89662000D02*
X154432000Y-90551000D01*
%TO.N,5.3*%
X149606000Y-153212800D02*
X151130000Y-154736800D01*
X149606000Y-97663000D02*
X149606000Y-153212800D01*
X118872000Y-66929000D02*
X149606000Y-97663000D01*
%TO.N,12.1*%
X172313010Y-105384010D02*
X170688000Y-103759000D01*
X172313010Y-152062625D02*
X172313010Y-105384010D01*
X167063816Y-157311819D02*
X172313010Y-152062625D01*
X163865019Y-157311819D02*
X167063816Y-157311819D01*
X161290000Y-154736800D02*
X163865019Y-157311819D01*
%TO.N,12.2*%
X170688000Y-50800000D02*
X166370000Y-55118000D01*
X166376601Y-89756999D02*
X166370000Y-89763600D01*
X171798001Y-89756999D02*
X166376601Y-89756999D01*
X177844990Y-95803988D02*
X171798001Y-89756999D01*
X177844990Y-156156915D02*
X177844990Y-95803988D01*
X178562585Y-156874510D02*
X177844990Y-156156915D01*
X182024990Y-156874510D02*
X178562585Y-156874510D01*
X184150000Y-154749500D02*
X182024990Y-156874510D01*
X166370000Y-89763600D02*
X166370000Y-154736800D01*
X166370000Y-55118000D02*
X166370000Y-89763600D01*
%TD*%
D14*
%TO.N,GND*%
X192634000Y-159614000D02*
X111912000Y-159614000D01*
X111912000Y-156689200D01*
X116521128Y-156689200D01*
X116533388Y-156813682D01*
X116569698Y-156933380D01*
X116628663Y-157043694D01*
X116708015Y-157140385D01*
X116804706Y-157219737D01*
X116915020Y-157278702D01*
X117034718Y-157315012D01*
X117159200Y-157327272D01*
X117773450Y-157324200D01*
X117932200Y-157165450D01*
X117932200Y-155016200D01*
X118186200Y-155016200D01*
X118186200Y-157165450D01*
X118344950Y-157324200D01*
X118959200Y-157327272D01*
X119083682Y-157315012D01*
X119203380Y-157278702D01*
X119313694Y-157219737D01*
X119410385Y-157140385D01*
X119489737Y-157043694D01*
X119548702Y-156933380D01*
X119585012Y-156813682D01*
X119597272Y-156689200D01*
X119594200Y-155174950D01*
X119435450Y-155016200D01*
X121604200Y-155016200D01*
X121604200Y-155916200D01*
X121658471Y-156213223D01*
X121769646Y-156493951D01*
X121933452Y-156747596D01*
X122143594Y-156964410D01*
X122391996Y-157136062D01*
X122669113Y-157255955D01*
X122774460Y-157280236D01*
X123012200Y-157159578D01*
X123012200Y-155016200D01*
X123266200Y-155016200D01*
X123266200Y-157159578D01*
X123503940Y-157280236D01*
X123609287Y-157255955D01*
X123886404Y-157136062D01*
X124134806Y-156964410D01*
X124344948Y-156747596D01*
X124508754Y-156493951D01*
X124619929Y-156213223D01*
X124674200Y-155916200D01*
X124674200Y-155016200D01*
X123266200Y-155016200D01*
X123012200Y-155016200D01*
X121604200Y-155016200D01*
X119435450Y-155016200D01*
X118186200Y-155016200D01*
X117932200Y-155016200D01*
X116682950Y-155016200D01*
X116524200Y-155174950D01*
X116521128Y-156689200D01*
X111912000Y-156689200D01*
X111912000Y-153089200D01*
X116521128Y-153089200D01*
X116524200Y-154603450D01*
X116682950Y-154762200D01*
X117932200Y-154762200D01*
X117932200Y-152612950D01*
X118186200Y-152612950D01*
X118186200Y-154762200D01*
X119435450Y-154762200D01*
X119594200Y-154603450D01*
X119595703Y-153862200D01*
X121604200Y-153862200D01*
X121604200Y-154762200D01*
X123012200Y-154762200D01*
X123012200Y-152618822D01*
X123266200Y-152618822D01*
X123266200Y-154762200D01*
X124674200Y-154762200D01*
X124674200Y-153862200D01*
X124619929Y-153565177D01*
X124508754Y-153284449D01*
X124344948Y-153030804D01*
X124134806Y-152813990D01*
X123886404Y-152642338D01*
X123609287Y-152522445D01*
X123503940Y-152498164D01*
X123266200Y-152618822D01*
X123012200Y-152618822D01*
X122774460Y-152498164D01*
X122669113Y-152522445D01*
X122391996Y-152642338D01*
X122143594Y-152813990D01*
X121933452Y-153030804D01*
X121769646Y-153284449D01*
X121658471Y-153565177D01*
X121604200Y-153862200D01*
X119595703Y-153862200D01*
X119597272Y-153089200D01*
X119585012Y-152964718D01*
X119548702Y-152845020D01*
X119489737Y-152734706D01*
X119410385Y-152638015D01*
X119313694Y-152558663D01*
X119203380Y-152499698D01*
X119083682Y-152463388D01*
X118959200Y-152451128D01*
X118344950Y-152454200D01*
X118186200Y-152612950D01*
X117932200Y-152612950D01*
X117773450Y-152454200D01*
X117159200Y-152451128D01*
X117034718Y-152463388D01*
X116915020Y-152499698D01*
X116804706Y-152558663D01*
X116708015Y-152638015D01*
X116628663Y-152734706D01*
X116569698Y-152845020D01*
X116533388Y-152964718D01*
X116521128Y-153089200D01*
X111912000Y-153089200D01*
X111912000Y-123229000D01*
X116875928Y-123229000D01*
X116875928Y-124929000D01*
X116888188Y-125053482D01*
X116924498Y-125173180D01*
X116983463Y-125283494D01*
X117062815Y-125380185D01*
X117159506Y-125459537D01*
X117269820Y-125518502D01*
X117342380Y-125540513D01*
X117210525Y-125672368D01*
X117048010Y-125915589D01*
X116936068Y-126185842D01*
X116879000Y-126472740D01*
X116879000Y-126765260D01*
X116936068Y-127052158D01*
X117048010Y-127322411D01*
X117210525Y-127565632D01*
X117417368Y-127772475D01*
X117599534Y-127894195D01*
X117482645Y-127963822D01*
X117266412Y-128158731D01*
X117092359Y-128392080D01*
X116967175Y-128654901D01*
X116922524Y-128802110D01*
X117043845Y-129032000D01*
X118237000Y-129032000D01*
X118237000Y-129012000D01*
X118491000Y-129012000D01*
X118491000Y-129032000D01*
X119684155Y-129032000D01*
X119805476Y-128802110D01*
X119760825Y-128654901D01*
X119635641Y-128392080D01*
X119461588Y-128158731D01*
X119245355Y-127963822D01*
X119128466Y-127894195D01*
X119310632Y-127772475D01*
X119517475Y-127565632D01*
X119679990Y-127322411D01*
X119791932Y-127052158D01*
X119849000Y-126765260D01*
X119849000Y-126638801D01*
X127459201Y-134249004D01*
X127459201Y-142259399D01*
X119805209Y-134605408D01*
X119849000Y-134385260D01*
X119849000Y-134092740D01*
X119791932Y-133805842D01*
X119679990Y-133535589D01*
X119517475Y-133292368D01*
X119310632Y-133085525D01*
X119136240Y-132969000D01*
X119310632Y-132852475D01*
X119517475Y-132645632D01*
X119679990Y-132402411D01*
X119791932Y-132132158D01*
X119849000Y-131845260D01*
X119849000Y-131552740D01*
X119791932Y-131265842D01*
X119679990Y-130995589D01*
X119517475Y-130752368D01*
X119310632Y-130545525D01*
X119128466Y-130423805D01*
X119245355Y-130354178D01*
X119461588Y-130159269D01*
X119635641Y-129925920D01*
X119760825Y-129663099D01*
X119805476Y-129515890D01*
X119684155Y-129286000D01*
X118491000Y-129286000D01*
X118491000Y-129306000D01*
X118237000Y-129306000D01*
X118237000Y-129286000D01*
X117043845Y-129286000D01*
X116922524Y-129515890D01*
X116967175Y-129663099D01*
X117092359Y-129925920D01*
X117266412Y-130159269D01*
X117482645Y-130354178D01*
X117599534Y-130423805D01*
X117417368Y-130545525D01*
X117210525Y-130752368D01*
X117048010Y-130995589D01*
X116936068Y-131265842D01*
X116879000Y-131552740D01*
X116879000Y-131845260D01*
X116936068Y-132132158D01*
X117048010Y-132402411D01*
X117210525Y-132645632D01*
X117417368Y-132852475D01*
X117591760Y-132969000D01*
X117417368Y-133085525D01*
X117210525Y-133292368D01*
X117048010Y-133535589D01*
X116936068Y-133805842D01*
X116879000Y-134092740D01*
X116879000Y-134385260D01*
X116936068Y-134672158D01*
X117048010Y-134942411D01*
X117210525Y-135185632D01*
X117417368Y-135392475D01*
X117660589Y-135554990D01*
X117930842Y-135666932D01*
X118217740Y-135724000D01*
X118510260Y-135724000D01*
X118730408Y-135680209D01*
X126234190Y-143183992D01*
X126234191Y-156259283D01*
X126230514Y-156296615D01*
X126234191Y-156333948D01*
X126245188Y-156445601D01*
X126249572Y-156460054D01*
X126288644Y-156588861D01*
X126359216Y-156720891D01*
X126430391Y-156807617D01*
X126454190Y-156836616D01*
X126483188Y-156860414D01*
X127147986Y-157525212D01*
X127171784Y-157554211D01*
X127200782Y-157578009D01*
X127287509Y-157649184D01*
X127419538Y-157719756D01*
X127562799Y-157763213D01*
X127711785Y-157777887D01*
X127749118Y-157774210D01*
X128689293Y-157774210D01*
X128726615Y-157777886D01*
X128763937Y-157774210D01*
X128763948Y-157774210D01*
X128875601Y-157763213D01*
X129018862Y-157719756D01*
X129150891Y-157649184D01*
X129266616Y-157554211D01*
X129290419Y-157525207D01*
X131764200Y-155051427D01*
X131764200Y-155864608D01*
X131786411Y-156090113D01*
X131874184Y-156379461D01*
X132016720Y-156646127D01*
X132208540Y-156879861D01*
X132442274Y-157071681D01*
X132708940Y-157214217D01*
X132998288Y-157301990D01*
X133299200Y-157331627D01*
X133600113Y-157301990D01*
X133889461Y-157214217D01*
X134156127Y-157071681D01*
X134293852Y-156958654D01*
X134708011Y-157372813D01*
X134731809Y-157401811D01*
X134847534Y-157496784D01*
X134979563Y-157567356D01*
X135122824Y-157610813D01*
X135234477Y-157621810D01*
X135234487Y-157621810D01*
X135271810Y-157625486D01*
X135309133Y-157621810D01*
X151600093Y-157621810D01*
X151637415Y-157625486D01*
X151674737Y-157621810D01*
X151674748Y-157621810D01*
X151786401Y-157610813D01*
X151929662Y-157567356D01*
X152061691Y-157496784D01*
X152177416Y-157401811D01*
X152201219Y-157372807D01*
X154675000Y-154899027D01*
X154675000Y-155763800D01*
X154729271Y-156060823D01*
X154840446Y-156341551D01*
X155004252Y-156595196D01*
X155214394Y-156812010D01*
X155462796Y-156983662D01*
X155739913Y-157103555D01*
X155845260Y-157127836D01*
X156083000Y-157007178D01*
X156083000Y-154863800D01*
X156337000Y-154863800D01*
X156337000Y-157007178D01*
X156574740Y-157127836D01*
X156680087Y-157103555D01*
X156957204Y-156983662D01*
X157205606Y-156812010D01*
X157415748Y-156595196D01*
X157579554Y-156341551D01*
X157690729Y-156060823D01*
X157745000Y-155763800D01*
X157745000Y-154863800D01*
X156337000Y-154863800D01*
X156083000Y-154863800D01*
X156063000Y-154863800D01*
X156063000Y-154609800D01*
X156083000Y-154609800D01*
X156083000Y-154589800D01*
X156337000Y-154589800D01*
X156337000Y-154609800D01*
X157745000Y-154609800D01*
X157745000Y-153709800D01*
X157690729Y-153412777D01*
X157579554Y-153132049D01*
X157415748Y-152878404D01*
X157205606Y-152661590D01*
X156957204Y-152489938D01*
X156916743Y-152472433D01*
X162416775Y-146972402D01*
X164384990Y-148940617D01*
X164384991Y-156106883D01*
X164381314Y-156144215D01*
X164384991Y-156181548D01*
X164395988Y-156293201D01*
X164400679Y-156308664D01*
X164439444Y-156436461D01*
X164501105Y-156551819D01*
X164179821Y-156551819D01*
X162825000Y-155196999D01*
X162825000Y-153761392D01*
X162802790Y-153535887D01*
X162715017Y-153246539D01*
X162572481Y-152979873D01*
X162380661Y-152746139D01*
X162146926Y-152554319D01*
X161880260Y-152411783D01*
X161590912Y-152324010D01*
X161290000Y-152294373D01*
X160989087Y-152324010D01*
X160699739Y-152411783D01*
X160433073Y-152554319D01*
X160199339Y-152746139D01*
X160007519Y-152979874D01*
X159864983Y-153246540D01*
X159777210Y-153535888D01*
X159755000Y-153761393D01*
X159755000Y-155712208D01*
X159777211Y-155937713D01*
X159864984Y-156227061D01*
X160007520Y-156493727D01*
X160199340Y-156727461D01*
X160433074Y-156919281D01*
X160699740Y-157061817D01*
X160989088Y-157149590D01*
X161290000Y-157179227D01*
X161590913Y-157149590D01*
X161880261Y-157061817D01*
X162146927Y-156919281D01*
X162284652Y-156806253D01*
X163301220Y-157822822D01*
X163325018Y-157851820D01*
X163440743Y-157946793D01*
X163572772Y-158017365D01*
X163716033Y-158060822D01*
X163827686Y-158071819D01*
X163827694Y-158071819D01*
X163865019Y-158075495D01*
X163902344Y-158071819D01*
X167026494Y-158071819D01*
X167063816Y-158075495D01*
X167101138Y-158071819D01*
X167101149Y-158071819D01*
X167212802Y-158060822D01*
X167356063Y-158017365D01*
X167488092Y-157946793D01*
X167603817Y-157851820D01*
X167627620Y-157822816D01*
X168900936Y-156549500D01*
X172451928Y-156549500D01*
X172464188Y-156673982D01*
X172500498Y-156793680D01*
X172559463Y-156903994D01*
X172638815Y-157000685D01*
X172735506Y-157080037D01*
X172845820Y-157139002D01*
X172965518Y-157175312D01*
X173090000Y-157187572D01*
X173704250Y-157184500D01*
X173863000Y-157025750D01*
X173863000Y-154876500D01*
X174117000Y-154876500D01*
X174117000Y-157025750D01*
X174275750Y-157184500D01*
X174890000Y-157187572D01*
X175014482Y-157175312D01*
X175134180Y-157139002D01*
X175244494Y-157080037D01*
X175341185Y-157000685D01*
X175420537Y-156903994D01*
X175479502Y-156793680D01*
X175515812Y-156673982D01*
X175528072Y-156549500D01*
X175525000Y-155035250D01*
X175366250Y-154876500D01*
X174117000Y-154876500D01*
X173863000Y-154876500D01*
X172613750Y-154876500D01*
X172455000Y-155035250D01*
X172451928Y-156549500D01*
X168900936Y-156549500D01*
X172452027Y-152998410D01*
X172455000Y-154463750D01*
X172613750Y-154622500D01*
X173863000Y-154622500D01*
X173863000Y-152473250D01*
X174117000Y-152473250D01*
X174117000Y-154622500D01*
X175366250Y-154622500D01*
X175525000Y-154463750D01*
X175528072Y-152949500D01*
X175515812Y-152825018D01*
X175479502Y-152705320D01*
X175420537Y-152595006D01*
X175341185Y-152498315D01*
X175244494Y-152418963D01*
X175134180Y-152359998D01*
X175014482Y-152323688D01*
X174890000Y-152311428D01*
X174275750Y-152314500D01*
X174117000Y-152473250D01*
X173863000Y-152473250D01*
X173704250Y-152314500D01*
X173090000Y-152311428D01*
X173029940Y-152317343D01*
X173062013Y-152211611D01*
X173073010Y-152099958D01*
X173073010Y-152099949D01*
X173076686Y-152062626D01*
X173073010Y-152025303D01*
X173073010Y-105421332D01*
X173076686Y-105384009D01*
X173073010Y-105346686D01*
X173073010Y-105346677D01*
X173062013Y-105235024D01*
X173018556Y-105091763D01*
X172947984Y-104959734D01*
X172853011Y-104844009D01*
X172824013Y-104820211D01*
X172176072Y-104172270D01*
X172176072Y-102909000D01*
X172163812Y-102784518D01*
X172127502Y-102664820D01*
X172068537Y-102554506D01*
X171989185Y-102457815D01*
X171892494Y-102378463D01*
X171782180Y-102319498D01*
X171662482Y-102283188D01*
X171538000Y-102270928D01*
X170272999Y-102270928D01*
X170272999Y-92421802D01*
X170274729Y-92420072D01*
X171538000Y-92420072D01*
X171662482Y-92407812D01*
X171782180Y-92371502D01*
X171892494Y-92312537D01*
X171989185Y-92233185D01*
X172068537Y-92136494D01*
X172127502Y-92026180D01*
X172163812Y-91906482D01*
X172176072Y-91782000D01*
X172176072Y-91209871D01*
X177084991Y-96118791D01*
X177084990Y-156119593D01*
X177081314Y-156156915D01*
X177084990Y-156194237D01*
X177084990Y-156194247D01*
X177095987Y-156305900D01*
X177135592Y-156436461D01*
X177139444Y-156449161D01*
X177210016Y-156581191D01*
X177247324Y-156626650D01*
X177304989Y-156696916D01*
X177333992Y-156720718D01*
X177998786Y-157385512D01*
X178022584Y-157414511D01*
X178051582Y-157438309D01*
X178138309Y-157509484D01*
X178270338Y-157580056D01*
X178413599Y-157623513D01*
X178562585Y-157638187D01*
X178599918Y-157634510D01*
X181987668Y-157634510D01*
X182024990Y-157638186D01*
X182062312Y-157634510D01*
X182062323Y-157634510D01*
X182173976Y-157623513D01*
X182317237Y-157580056D01*
X182449266Y-157509484D01*
X182564991Y-157414511D01*
X182588794Y-157385507D01*
X183155348Y-156818953D01*
X183293074Y-156931981D01*
X183559740Y-157074517D01*
X183849088Y-157162290D01*
X184150000Y-157191927D01*
X184450913Y-157162290D01*
X184740261Y-157074517D01*
X185006927Y-156931981D01*
X185240661Y-156740161D01*
X185432481Y-156506427D01*
X185575017Y-156239761D01*
X185662790Y-155950413D01*
X185685000Y-155724908D01*
X185685000Y-154876500D01*
X187695000Y-154876500D01*
X187695000Y-155776500D01*
X187749271Y-156073523D01*
X187860446Y-156354251D01*
X188024252Y-156607896D01*
X188234394Y-156824710D01*
X188482796Y-156996362D01*
X188759913Y-157116255D01*
X188865260Y-157140536D01*
X189103000Y-157019878D01*
X189103000Y-154876500D01*
X189357000Y-154876500D01*
X189357000Y-157019878D01*
X189594740Y-157140536D01*
X189700087Y-157116255D01*
X189977204Y-156996362D01*
X190225606Y-156824710D01*
X190435748Y-156607896D01*
X190599554Y-156354251D01*
X190710729Y-156073523D01*
X190765000Y-155776500D01*
X190765000Y-154876500D01*
X189357000Y-154876500D01*
X189103000Y-154876500D01*
X187695000Y-154876500D01*
X185685000Y-154876500D01*
X185685000Y-153774092D01*
X185679919Y-153722500D01*
X187695000Y-153722500D01*
X187695000Y-154622500D01*
X189103000Y-154622500D01*
X189103000Y-152479122D01*
X189357000Y-152479122D01*
X189357000Y-154622500D01*
X190765000Y-154622500D01*
X190765000Y-153722500D01*
X190710729Y-153425477D01*
X190599554Y-153144749D01*
X190435748Y-152891104D01*
X190225606Y-152674290D01*
X189977204Y-152502638D01*
X189700087Y-152382745D01*
X189594740Y-152358464D01*
X189357000Y-152479122D01*
X189103000Y-152479122D01*
X188865260Y-152358464D01*
X188759913Y-152382745D01*
X188482796Y-152502638D01*
X188234394Y-152674290D01*
X188024252Y-152891104D01*
X187860446Y-153144749D01*
X187749271Y-153425477D01*
X187695000Y-153722500D01*
X185679919Y-153722500D01*
X185662790Y-153548587D01*
X185575017Y-153259239D01*
X185432481Y-152992573D01*
X185240661Y-152758839D01*
X185006926Y-152567019D01*
X184740260Y-152424483D01*
X184450912Y-152336710D01*
X184150000Y-152307073D01*
X183849087Y-152336710D01*
X183559739Y-152424483D01*
X183293073Y-152567019D01*
X183059339Y-152758839D01*
X182867519Y-152992574D01*
X182724983Y-153259240D01*
X182637210Y-153548588D01*
X182615000Y-153774093D01*
X182615000Y-155209698D01*
X181710189Y-156114510D01*
X180533012Y-156114510D01*
X180582790Y-155950413D01*
X180605000Y-155724908D01*
X180605000Y-153774092D01*
X180582790Y-153548587D01*
X180495017Y-153259239D01*
X180352481Y-152992573D01*
X180160661Y-152758839D01*
X179926926Y-152567019D01*
X179660260Y-152424483D01*
X179370912Y-152336710D01*
X179070000Y-152307073D01*
X178769087Y-152336710D01*
X178604990Y-152386488D01*
X178604990Y-144741000D01*
X187233928Y-144741000D01*
X187246188Y-144865482D01*
X187282498Y-144985180D01*
X187341463Y-145095494D01*
X187420815Y-145192185D01*
X187517506Y-145271537D01*
X187627820Y-145330502D01*
X187747518Y-145366812D01*
X187872000Y-145379072D01*
X188436250Y-145376000D01*
X188595000Y-145217250D01*
X188595000Y-144018000D01*
X188849000Y-144018000D01*
X188849000Y-145217250D01*
X189007750Y-145376000D01*
X189572000Y-145379072D01*
X189696482Y-145366812D01*
X189816180Y-145330502D01*
X189926494Y-145271537D01*
X190023185Y-145192185D01*
X190102537Y-145095494D01*
X190161502Y-144985180D01*
X190197812Y-144865482D01*
X190210072Y-144741000D01*
X190207000Y-144176750D01*
X190048250Y-144018000D01*
X188849000Y-144018000D01*
X188595000Y-144018000D01*
X187395750Y-144018000D01*
X187237000Y-144176750D01*
X187233928Y-144741000D01*
X178604990Y-144741000D01*
X178604990Y-143041000D01*
X187233928Y-143041000D01*
X187237000Y-143605250D01*
X187395750Y-143764000D01*
X188595000Y-143764000D01*
X188595000Y-142564750D01*
X188849000Y-142564750D01*
X188849000Y-143764000D01*
X190048250Y-143764000D01*
X190207000Y-143605250D01*
X190210072Y-143041000D01*
X190197812Y-142916518D01*
X190161502Y-142796820D01*
X190102537Y-142686506D01*
X190023185Y-142589815D01*
X189926494Y-142510463D01*
X189816180Y-142451498D01*
X189696482Y-142415188D01*
X189572000Y-142402928D01*
X189007750Y-142406000D01*
X188849000Y-142564750D01*
X188595000Y-142564750D01*
X188436250Y-142406000D01*
X187872000Y-142402928D01*
X187747518Y-142415188D01*
X187627820Y-142451498D01*
X187517506Y-142510463D01*
X187420815Y-142589815D01*
X187341463Y-142686506D01*
X187282498Y-142796820D01*
X187246188Y-142916518D01*
X187233928Y-143041000D01*
X178604990Y-143041000D01*
X178604990Y-104609000D01*
X187233928Y-104609000D01*
X187246188Y-104733482D01*
X187282498Y-104853180D01*
X187341463Y-104963494D01*
X187420815Y-105060185D01*
X187517506Y-105139537D01*
X187627820Y-105198502D01*
X187747518Y-105234812D01*
X187872000Y-105247072D01*
X188436250Y-105244000D01*
X188595000Y-105085250D01*
X188595000Y-103886000D01*
X188849000Y-103886000D01*
X188849000Y-105085250D01*
X189007750Y-105244000D01*
X189572000Y-105247072D01*
X189696482Y-105234812D01*
X189816180Y-105198502D01*
X189926494Y-105139537D01*
X190023185Y-105060185D01*
X190102537Y-104963494D01*
X190161502Y-104853180D01*
X190197812Y-104733482D01*
X190210072Y-104609000D01*
X190207000Y-104044750D01*
X190048250Y-103886000D01*
X188849000Y-103886000D01*
X188595000Y-103886000D01*
X187395750Y-103886000D01*
X187237000Y-104044750D01*
X187233928Y-104609000D01*
X178604990Y-104609000D01*
X178604990Y-102909000D01*
X187233928Y-102909000D01*
X187237000Y-103473250D01*
X187395750Y-103632000D01*
X188595000Y-103632000D01*
X188595000Y-102432750D01*
X188849000Y-102432750D01*
X188849000Y-103632000D01*
X190048250Y-103632000D01*
X190207000Y-103473250D01*
X190210072Y-102909000D01*
X190197812Y-102784518D01*
X190161502Y-102664820D01*
X190102537Y-102554506D01*
X190023185Y-102457815D01*
X189926494Y-102378463D01*
X189816180Y-102319498D01*
X189696482Y-102283188D01*
X189572000Y-102270928D01*
X189007750Y-102274000D01*
X188849000Y-102432750D01*
X188595000Y-102432750D01*
X188436250Y-102274000D01*
X187872000Y-102270928D01*
X187747518Y-102283188D01*
X187627820Y-102319498D01*
X187517506Y-102378463D01*
X187420815Y-102457815D01*
X187341463Y-102554506D01*
X187282498Y-102664820D01*
X187246188Y-102784518D01*
X187233928Y-102909000D01*
X178604990Y-102909000D01*
X178604990Y-95841311D01*
X178608666Y-95803988D01*
X178604990Y-95766665D01*
X178604990Y-95766655D01*
X178593993Y-95655002D01*
X178550536Y-95511741D01*
X178479964Y-95379712D01*
X178384991Y-95263987D01*
X178355993Y-95240189D01*
X174897804Y-91782000D01*
X187233928Y-91782000D01*
X187246188Y-91906482D01*
X187282498Y-92026180D01*
X187341463Y-92136494D01*
X187420815Y-92233185D01*
X187517506Y-92312537D01*
X187627820Y-92371502D01*
X187747518Y-92407812D01*
X187872000Y-92420072D01*
X188436250Y-92417000D01*
X188595000Y-92258250D01*
X188595000Y-91059000D01*
X188849000Y-91059000D01*
X188849000Y-92258250D01*
X189007750Y-92417000D01*
X189572000Y-92420072D01*
X189696482Y-92407812D01*
X189816180Y-92371502D01*
X189926494Y-92312537D01*
X190023185Y-92233185D01*
X190102537Y-92136494D01*
X190161502Y-92026180D01*
X190197812Y-91906482D01*
X190210072Y-91782000D01*
X190207000Y-91217750D01*
X190048250Y-91059000D01*
X188849000Y-91059000D01*
X188595000Y-91059000D01*
X187395750Y-91059000D01*
X187237000Y-91217750D01*
X187233928Y-91782000D01*
X174897804Y-91782000D01*
X173197804Y-90082000D01*
X187233928Y-90082000D01*
X187237000Y-90646250D01*
X187395750Y-90805000D01*
X188595000Y-90805000D01*
X188595000Y-89605750D01*
X188849000Y-89605750D01*
X188849000Y-90805000D01*
X190048250Y-90805000D01*
X190207000Y-90646250D01*
X190210072Y-90082000D01*
X190197812Y-89957518D01*
X190161502Y-89837820D01*
X190102537Y-89727506D01*
X190023185Y-89630815D01*
X189926494Y-89551463D01*
X189816180Y-89492498D01*
X189696482Y-89456188D01*
X189572000Y-89443928D01*
X189007750Y-89447000D01*
X188849000Y-89605750D01*
X188595000Y-89605750D01*
X188436250Y-89447000D01*
X187872000Y-89443928D01*
X187747518Y-89456188D01*
X187627820Y-89492498D01*
X187517506Y-89551463D01*
X187420815Y-89630815D01*
X187341463Y-89727506D01*
X187282498Y-89837820D01*
X187246188Y-89957518D01*
X187233928Y-90082000D01*
X173197804Y-90082000D01*
X172361805Y-89246002D01*
X172338002Y-89216998D01*
X172222277Y-89122025D01*
X172090248Y-89051453D01*
X171946987Y-89007996D01*
X171835334Y-88996999D01*
X171835323Y-88996999D01*
X171798001Y-88993323D01*
X171760679Y-88996999D01*
X167130000Y-88996999D01*
X167130000Y-55432801D01*
X170274730Y-52288072D01*
X171538000Y-52288072D01*
X171662482Y-52275812D01*
X171782180Y-52239502D01*
X171892494Y-52180537D01*
X171989185Y-52101185D01*
X172068537Y-52004494D01*
X172127502Y-51894180D01*
X172163812Y-51774482D01*
X172176072Y-51650000D01*
X187233928Y-51650000D01*
X187246188Y-51774482D01*
X187282498Y-51894180D01*
X187341463Y-52004494D01*
X187420815Y-52101185D01*
X187517506Y-52180537D01*
X187627820Y-52239502D01*
X187747518Y-52275812D01*
X187872000Y-52288072D01*
X188436250Y-52285000D01*
X188595000Y-52126250D01*
X188595000Y-50927000D01*
X188849000Y-50927000D01*
X188849000Y-52126250D01*
X189007750Y-52285000D01*
X189572000Y-52288072D01*
X189696482Y-52275812D01*
X189816180Y-52239502D01*
X189926494Y-52180537D01*
X190023185Y-52101185D01*
X190102537Y-52004494D01*
X190161502Y-51894180D01*
X190197812Y-51774482D01*
X190210072Y-51650000D01*
X190207000Y-51085750D01*
X190048250Y-50927000D01*
X188849000Y-50927000D01*
X188595000Y-50927000D01*
X187395750Y-50927000D01*
X187237000Y-51085750D01*
X187233928Y-51650000D01*
X172176072Y-51650000D01*
X172176072Y-49950000D01*
X187233928Y-49950000D01*
X187237000Y-50514250D01*
X187395750Y-50673000D01*
X188595000Y-50673000D01*
X188595000Y-49473750D01*
X188849000Y-49473750D01*
X188849000Y-50673000D01*
X190048250Y-50673000D01*
X190207000Y-50514250D01*
X190210072Y-49950000D01*
X190197812Y-49825518D01*
X190161502Y-49705820D01*
X190102537Y-49595506D01*
X190023185Y-49498815D01*
X189926494Y-49419463D01*
X189816180Y-49360498D01*
X189696482Y-49324188D01*
X189572000Y-49311928D01*
X189007750Y-49315000D01*
X188849000Y-49473750D01*
X188595000Y-49473750D01*
X188436250Y-49315000D01*
X187872000Y-49311928D01*
X187747518Y-49324188D01*
X187627820Y-49360498D01*
X187517506Y-49419463D01*
X187420815Y-49498815D01*
X187341463Y-49595506D01*
X187282498Y-49705820D01*
X187246188Y-49825518D01*
X187233928Y-49950000D01*
X172176072Y-49950000D01*
X172163812Y-49825518D01*
X172127502Y-49705820D01*
X172068537Y-49595506D01*
X171989185Y-49498815D01*
X171892494Y-49419463D01*
X171782180Y-49360498D01*
X171662482Y-49324188D01*
X171538000Y-49311928D01*
X169838000Y-49311928D01*
X169713518Y-49324188D01*
X169593820Y-49360498D01*
X169483506Y-49419463D01*
X169386815Y-49498815D01*
X169307463Y-49595506D01*
X169248498Y-49705820D01*
X169212188Y-49825518D01*
X169199928Y-49950000D01*
X169199928Y-51213270D01*
X165859003Y-54554196D01*
X165829999Y-54577999D01*
X165774871Y-54645174D01*
X165735026Y-54693724D01*
X165664455Y-54825753D01*
X165664454Y-54825754D01*
X165620997Y-54969015D01*
X165610000Y-55080668D01*
X165610000Y-55080678D01*
X165606324Y-55118000D01*
X165610000Y-55155322D01*
X165610001Y-89726258D01*
X165610000Y-89726268D01*
X165610000Y-89726278D01*
X165606324Y-89763600D01*
X165610000Y-89800922D01*
X165610001Y-148016024D01*
X162980578Y-145386601D01*
X162956776Y-145357599D01*
X162889601Y-145302471D01*
X162841051Y-145262626D01*
X162709021Y-145192054D01*
X162565760Y-145148598D01*
X162416775Y-145133924D01*
X162416774Y-145133924D01*
X162267788Y-145148598D01*
X162124528Y-145192054D01*
X161992498Y-145262626D01*
X161909792Y-145330502D01*
X161876774Y-145357599D01*
X161852976Y-145386597D01*
X154473992Y-152765582D01*
X154444989Y-152789384D01*
X154350016Y-152905109D01*
X154279444Y-153037138D01*
X154235987Y-153180399D01*
X154235109Y-153189314D01*
X152665000Y-154759424D01*
X152665000Y-153761392D01*
X152642790Y-153535887D01*
X152555017Y-153246539D01*
X152412481Y-152979873D01*
X152220661Y-152746139D01*
X151986926Y-152554319D01*
X151720260Y-152411783D01*
X151430912Y-152324010D01*
X151130000Y-152294373D01*
X150829087Y-152324010D01*
X150539739Y-152411783D01*
X150366000Y-152504648D01*
X150366000Y-128938872D01*
X150927000Y-128938872D01*
X150927000Y-129379128D01*
X151012890Y-129810925D01*
X151181369Y-130217669D01*
X151425962Y-130583729D01*
X151737271Y-130895038D01*
X152103331Y-131139631D01*
X152510075Y-131308110D01*
X152941872Y-131394000D01*
X153382128Y-131394000D01*
X153813925Y-131308110D01*
X154220669Y-131139631D01*
X154586729Y-130895038D01*
X154898038Y-130583729D01*
X155142631Y-130217669D01*
X155311110Y-129810925D01*
X155397000Y-129379128D01*
X155397000Y-128938872D01*
X155311110Y-128507075D01*
X155142631Y-128100331D01*
X154898038Y-127734271D01*
X154586729Y-127422962D01*
X154220669Y-127178369D01*
X153813925Y-127009890D01*
X153382128Y-126924000D01*
X152941872Y-126924000D01*
X152510075Y-127009890D01*
X152103331Y-127178369D01*
X151737271Y-127422962D01*
X151425962Y-127734271D01*
X151181369Y-128100331D01*
X151012890Y-128507075D01*
X150927000Y-128938872D01*
X150366000Y-128938872D01*
X150366000Y-98861392D01*
X152853611Y-101349003D01*
X152877409Y-101378001D01*
X152906407Y-101401799D01*
X152943928Y-101432592D01*
X152943928Y-101688000D01*
X152956188Y-101812482D01*
X152992498Y-101932180D01*
X153051463Y-102042494D01*
X153130815Y-102139185D01*
X153227506Y-102218537D01*
X153337820Y-102277502D01*
X153457518Y-102313812D01*
X153582000Y-102326072D01*
X155282000Y-102326072D01*
X155406482Y-102313812D01*
X155526180Y-102277502D01*
X155636494Y-102218537D01*
X155733185Y-102139185D01*
X155812537Y-102042494D01*
X155871502Y-101932180D01*
X155907812Y-101812482D01*
X155920072Y-101688000D01*
X155920072Y-99988000D01*
X155907812Y-99863518D01*
X155871502Y-99743820D01*
X155812537Y-99633506D01*
X155733185Y-99536815D01*
X155636494Y-99457463D01*
X155526180Y-99398498D01*
X155453620Y-99376487D01*
X155585475Y-99244632D01*
X155747990Y-99001411D01*
X155859932Y-98731158D01*
X155917000Y-98444260D01*
X155917000Y-98151740D01*
X155859932Y-97864842D01*
X155747990Y-97594589D01*
X155585475Y-97351368D01*
X155378632Y-97144525D01*
X155196466Y-97022805D01*
X155313355Y-96953178D01*
X155529588Y-96758269D01*
X155703641Y-96524920D01*
X155828825Y-96262099D01*
X155873476Y-96114890D01*
X155752155Y-95885000D01*
X154559000Y-95885000D01*
X154559000Y-95905000D01*
X154305000Y-95905000D01*
X154305000Y-95885000D01*
X153111845Y-95885000D01*
X152990524Y-96114890D01*
X153035175Y-96262099D01*
X153160359Y-96524920D01*
X153334412Y-96758269D01*
X153550645Y-96953178D01*
X153667534Y-97022805D01*
X153485368Y-97144525D01*
X153278525Y-97351368D01*
X153116010Y-97594589D01*
X153004068Y-97864842D01*
X152947000Y-98151740D01*
X152947000Y-98444260D01*
X153004068Y-98731158D01*
X153116010Y-99001411D01*
X153278525Y-99244632D01*
X153410380Y-99376487D01*
X153337820Y-99398498D01*
X153227506Y-99457463D01*
X153163886Y-99509674D01*
X144185952Y-90531740D01*
X152947000Y-90531740D01*
X152947000Y-90824260D01*
X153004068Y-91111158D01*
X153116010Y-91381411D01*
X153278525Y-91624632D01*
X153485368Y-91831475D01*
X153659760Y-91948000D01*
X153485368Y-92064525D01*
X153278525Y-92271368D01*
X153116010Y-92514589D01*
X153004068Y-92784842D01*
X152947000Y-93071740D01*
X152947000Y-93364260D01*
X153004068Y-93651158D01*
X153116010Y-93921411D01*
X153278525Y-94164632D01*
X153485368Y-94371475D01*
X153667534Y-94493195D01*
X153550645Y-94562822D01*
X153334412Y-94757731D01*
X153160359Y-94991080D01*
X153035175Y-95253901D01*
X152990524Y-95401110D01*
X153111845Y-95631000D01*
X154305000Y-95631000D01*
X154305000Y-95611000D01*
X154559000Y-95611000D01*
X154559000Y-95631000D01*
X155752155Y-95631000D01*
X155873476Y-95401110D01*
X155828825Y-95253901D01*
X155703641Y-94991080D01*
X155529588Y-94757731D01*
X155313355Y-94562822D01*
X155196466Y-94493195D01*
X155378632Y-94371475D01*
X155585475Y-94164632D01*
X155747990Y-93921411D01*
X155859932Y-93651158D01*
X155917000Y-93364260D01*
X155917000Y-93071740D01*
X155859932Y-92784842D01*
X155747990Y-92514589D01*
X155585475Y-92271368D01*
X155378632Y-92064525D01*
X155204240Y-91948000D01*
X155378632Y-91831475D01*
X155585475Y-91624632D01*
X155747990Y-91381411D01*
X155859932Y-91111158D01*
X155917000Y-90824260D01*
X155917000Y-90531740D01*
X155859932Y-90244842D01*
X155747990Y-89974589D01*
X155585475Y-89731368D01*
X155378632Y-89524525D01*
X155135411Y-89362010D01*
X155132837Y-89360944D01*
X155066974Y-89237724D01*
X154972001Y-89121999D01*
X154856275Y-89027026D01*
X154724246Y-88956454D01*
X154580985Y-88912997D01*
X154432000Y-88898323D01*
X154283014Y-88912997D01*
X154139753Y-88956454D01*
X154007724Y-89027026D01*
X153891999Y-89121999D01*
X153797026Y-89237725D01*
X153731163Y-89360944D01*
X153728589Y-89362010D01*
X153485368Y-89524525D01*
X153278525Y-89731368D01*
X153116010Y-89974589D01*
X153004068Y-90244842D01*
X152947000Y-90531740D01*
X144185952Y-90531740D01*
X122900005Y-69245794D01*
X125631801Y-66513999D01*
X130337772Y-66513999D01*
X130407014Y-66535003D01*
X130542642Y-66548360D01*
X130555999Y-66549676D01*
X130556000Y-66549676D01*
X130704986Y-66535003D01*
X130848246Y-66491546D01*
X130980276Y-66420974D01*
X131096001Y-66326001D01*
X131190974Y-66210276D01*
X131261546Y-66078246D01*
X131305003Y-65934986D01*
X131319676Y-65786000D01*
X131305003Y-65637014D01*
X131261546Y-65493753D01*
X131190974Y-65361724D01*
X131119799Y-65274997D01*
X131087798Y-65242996D01*
X131064000Y-65213998D01*
X131035002Y-65190200D01*
X127473674Y-61628872D01*
X151435000Y-61628872D01*
X151435000Y-62069128D01*
X151520890Y-62500925D01*
X151689369Y-62907669D01*
X151933962Y-63273729D01*
X152245271Y-63585038D01*
X152611331Y-63829631D01*
X153018075Y-63998110D01*
X153449872Y-64084000D01*
X153890128Y-64084000D01*
X154321925Y-63998110D01*
X154728669Y-63829631D01*
X155094729Y-63585038D01*
X155406038Y-63273729D01*
X155650631Y-62907669D01*
X155819110Y-62500925D01*
X155905000Y-62069128D01*
X155905000Y-61628872D01*
X155819110Y-61197075D01*
X155650631Y-60790331D01*
X155406038Y-60424271D01*
X155094729Y-60112962D01*
X154728669Y-59868369D01*
X154321925Y-59699890D01*
X153890128Y-59614000D01*
X153449872Y-59614000D01*
X153018075Y-59699890D01*
X152611331Y-59868369D01*
X152245271Y-60112962D01*
X151933962Y-60424271D01*
X151689369Y-60790331D01*
X151520890Y-61197075D01*
X151435000Y-61628872D01*
X127473674Y-61628872D01*
X122102804Y-56258003D01*
X122079001Y-56228999D01*
X121963276Y-56134026D01*
X121831247Y-56063454D01*
X121687986Y-56019997D01*
X121576333Y-56009000D01*
X121576322Y-56009000D01*
X121539000Y-56005324D01*
X121501678Y-56009000D01*
X120360072Y-56009000D01*
X120360072Y-55919000D01*
X120347812Y-55794518D01*
X120311502Y-55674820D01*
X120252537Y-55564506D01*
X120173185Y-55467815D01*
X120076494Y-55388463D01*
X119966180Y-55329498D01*
X119846482Y-55293188D01*
X119722000Y-55280928D01*
X118022000Y-55280928D01*
X117897518Y-55293188D01*
X117777820Y-55329498D01*
X117667506Y-55388463D01*
X117570815Y-55467815D01*
X117491463Y-55564506D01*
X117432498Y-55674820D01*
X117396188Y-55794518D01*
X117383928Y-55919000D01*
X117383928Y-57619000D01*
X117396188Y-57743482D01*
X117432498Y-57863180D01*
X117491463Y-57973494D01*
X117570815Y-58070185D01*
X117667506Y-58149537D01*
X117777820Y-58208502D01*
X117850380Y-58230513D01*
X117718525Y-58362368D01*
X117556010Y-58605589D01*
X117444068Y-58875842D01*
X117387000Y-59162740D01*
X117387000Y-59455260D01*
X117444068Y-59742158D01*
X117556010Y-60012411D01*
X117718525Y-60255632D01*
X117925368Y-60462475D01*
X118107534Y-60584195D01*
X117990645Y-60653822D01*
X117774412Y-60848731D01*
X117600359Y-61082080D01*
X117475175Y-61344901D01*
X117430524Y-61492110D01*
X117551845Y-61722000D01*
X118745000Y-61722000D01*
X118745000Y-61702000D01*
X118999000Y-61702000D01*
X118999000Y-61722000D01*
X120192155Y-61722000D01*
X120313476Y-61492110D01*
X120268825Y-61344901D01*
X120143641Y-61082080D01*
X119969588Y-60848731D01*
X119753355Y-60653822D01*
X119636466Y-60584195D01*
X119818632Y-60462475D01*
X120025475Y-60255632D01*
X120187990Y-60012411D01*
X120299932Y-59742158D01*
X120357000Y-59455260D01*
X120357000Y-59162740D01*
X120299932Y-58875842D01*
X120187990Y-58605589D01*
X120025475Y-58362368D01*
X119893620Y-58230513D01*
X119966180Y-58208502D01*
X120076494Y-58149537D01*
X120173185Y-58070185D01*
X120252537Y-57973494D01*
X120311502Y-57863180D01*
X120347812Y-57743482D01*
X120360072Y-57619000D01*
X120360072Y-57529000D01*
X121224199Y-57529000D01*
X128689197Y-64993999D01*
X125354322Y-64993999D01*
X125316999Y-64990323D01*
X125279676Y-64993999D01*
X120228753Y-64993999D01*
X120299932Y-64822158D01*
X120357000Y-64535260D01*
X120357000Y-64242740D01*
X120299932Y-63955842D01*
X120187990Y-63685589D01*
X120025475Y-63442368D01*
X119818632Y-63235525D01*
X119636466Y-63113805D01*
X119753355Y-63044178D01*
X119969588Y-62849269D01*
X120143641Y-62615920D01*
X120268825Y-62353099D01*
X120313476Y-62205890D01*
X120192155Y-61976000D01*
X118999000Y-61976000D01*
X118999000Y-61996000D01*
X118745000Y-61996000D01*
X118745000Y-61976000D01*
X117551845Y-61976000D01*
X117430524Y-62205890D01*
X117475175Y-62353099D01*
X117600359Y-62615920D01*
X117774412Y-62849269D01*
X117990645Y-63044178D01*
X118107534Y-63113805D01*
X117925368Y-63235525D01*
X117718525Y-63442368D01*
X117556010Y-63685589D01*
X117444068Y-63955842D01*
X117387000Y-64242740D01*
X117387000Y-64535260D01*
X117444068Y-64822158D01*
X117556010Y-65092411D01*
X117691704Y-65295491D01*
X117185996Y-65801201D01*
X117156999Y-65824998D01*
X117133201Y-65853996D01*
X117133200Y-65853997D01*
X117062025Y-65940723D01*
X116991453Y-66072753D01*
X116989787Y-66078246D01*
X116949738Y-66210276D01*
X116947997Y-66216014D01*
X116933323Y-66364999D01*
X116937000Y-66402332D01*
X116936999Y-122961433D01*
X116924498Y-122984820D01*
X116888188Y-123104518D01*
X116875928Y-123229000D01*
X111912000Y-123229000D01*
X111912000Y-45618000D01*
X192634001Y-45618000D01*
X192634000Y-159614000D01*
%TA.AperFunction,Conductor*%
D15*
G36*
X192634000Y-159614000D02*
G01*
X111912000Y-159614000D01*
X111912000Y-156689200D01*
X116521128Y-156689200D01*
X116533388Y-156813682D01*
X116569698Y-156933380D01*
X116628663Y-157043694D01*
X116708015Y-157140385D01*
X116804706Y-157219737D01*
X116915020Y-157278702D01*
X117034718Y-157315012D01*
X117159200Y-157327272D01*
X117773450Y-157324200D01*
X117932200Y-157165450D01*
X117932200Y-155016200D01*
X118186200Y-155016200D01*
X118186200Y-157165450D01*
X118344950Y-157324200D01*
X118959200Y-157327272D01*
X119083682Y-157315012D01*
X119203380Y-157278702D01*
X119313694Y-157219737D01*
X119410385Y-157140385D01*
X119489737Y-157043694D01*
X119548702Y-156933380D01*
X119585012Y-156813682D01*
X119597272Y-156689200D01*
X119594200Y-155174950D01*
X119435450Y-155016200D01*
X121604200Y-155016200D01*
X121604200Y-155916200D01*
X121658471Y-156213223D01*
X121769646Y-156493951D01*
X121933452Y-156747596D01*
X122143594Y-156964410D01*
X122391996Y-157136062D01*
X122669113Y-157255955D01*
X122774460Y-157280236D01*
X123012200Y-157159578D01*
X123012200Y-155016200D01*
X123266200Y-155016200D01*
X123266200Y-157159578D01*
X123503940Y-157280236D01*
X123609287Y-157255955D01*
X123886404Y-157136062D01*
X124134806Y-156964410D01*
X124344948Y-156747596D01*
X124508754Y-156493951D01*
X124619929Y-156213223D01*
X124674200Y-155916200D01*
X124674200Y-155016200D01*
X123266200Y-155016200D01*
X123012200Y-155016200D01*
X121604200Y-155016200D01*
X119435450Y-155016200D01*
X118186200Y-155016200D01*
X117932200Y-155016200D01*
X116682950Y-155016200D01*
X116524200Y-155174950D01*
X116521128Y-156689200D01*
X111912000Y-156689200D01*
X111912000Y-153089200D01*
X116521128Y-153089200D01*
X116524200Y-154603450D01*
X116682950Y-154762200D01*
X117932200Y-154762200D01*
X117932200Y-152612950D01*
X118186200Y-152612950D01*
X118186200Y-154762200D01*
X119435450Y-154762200D01*
X119594200Y-154603450D01*
X119595703Y-153862200D01*
X121604200Y-153862200D01*
X121604200Y-154762200D01*
X123012200Y-154762200D01*
X123012200Y-152618822D01*
X123266200Y-152618822D01*
X123266200Y-154762200D01*
X124674200Y-154762200D01*
X124674200Y-153862200D01*
X124619929Y-153565177D01*
X124508754Y-153284449D01*
X124344948Y-153030804D01*
X124134806Y-152813990D01*
X123886404Y-152642338D01*
X123609287Y-152522445D01*
X123503940Y-152498164D01*
X123266200Y-152618822D01*
X123012200Y-152618822D01*
X122774460Y-152498164D01*
X122669113Y-152522445D01*
X122391996Y-152642338D01*
X122143594Y-152813990D01*
X121933452Y-153030804D01*
X121769646Y-153284449D01*
X121658471Y-153565177D01*
X121604200Y-153862200D01*
X119595703Y-153862200D01*
X119597272Y-153089200D01*
X119585012Y-152964718D01*
X119548702Y-152845020D01*
X119489737Y-152734706D01*
X119410385Y-152638015D01*
X119313694Y-152558663D01*
X119203380Y-152499698D01*
X119083682Y-152463388D01*
X118959200Y-152451128D01*
X118344950Y-152454200D01*
X118186200Y-152612950D01*
X117932200Y-152612950D01*
X117773450Y-152454200D01*
X117159200Y-152451128D01*
X117034718Y-152463388D01*
X116915020Y-152499698D01*
X116804706Y-152558663D01*
X116708015Y-152638015D01*
X116628663Y-152734706D01*
X116569698Y-152845020D01*
X116533388Y-152964718D01*
X116521128Y-153089200D01*
X111912000Y-153089200D01*
X111912000Y-123229000D01*
X116875928Y-123229000D01*
X116875928Y-124929000D01*
X116888188Y-125053482D01*
X116924498Y-125173180D01*
X116983463Y-125283494D01*
X117062815Y-125380185D01*
X117159506Y-125459537D01*
X117269820Y-125518502D01*
X117342380Y-125540513D01*
X117210525Y-125672368D01*
X117048010Y-125915589D01*
X116936068Y-126185842D01*
X116879000Y-126472740D01*
X116879000Y-126765260D01*
X116936068Y-127052158D01*
X117048010Y-127322411D01*
X117210525Y-127565632D01*
X117417368Y-127772475D01*
X117599534Y-127894195D01*
X117482645Y-127963822D01*
X117266412Y-128158731D01*
X117092359Y-128392080D01*
X116967175Y-128654901D01*
X116922524Y-128802110D01*
X117043845Y-129032000D01*
X118237000Y-129032000D01*
X118237000Y-129012000D01*
X118491000Y-129012000D01*
X118491000Y-129032000D01*
X119684155Y-129032000D01*
X119805476Y-128802110D01*
X119760825Y-128654901D01*
X119635641Y-128392080D01*
X119461588Y-128158731D01*
X119245355Y-127963822D01*
X119128466Y-127894195D01*
X119310632Y-127772475D01*
X119517475Y-127565632D01*
X119679990Y-127322411D01*
X119791932Y-127052158D01*
X119849000Y-126765260D01*
X119849000Y-126638801D01*
X127459201Y-134249004D01*
X127459201Y-142259399D01*
X119805209Y-134605408D01*
X119849000Y-134385260D01*
X119849000Y-134092740D01*
X119791932Y-133805842D01*
X119679990Y-133535589D01*
X119517475Y-133292368D01*
X119310632Y-133085525D01*
X119136240Y-132969000D01*
X119310632Y-132852475D01*
X119517475Y-132645632D01*
X119679990Y-132402411D01*
X119791932Y-132132158D01*
X119849000Y-131845260D01*
X119849000Y-131552740D01*
X119791932Y-131265842D01*
X119679990Y-130995589D01*
X119517475Y-130752368D01*
X119310632Y-130545525D01*
X119128466Y-130423805D01*
X119245355Y-130354178D01*
X119461588Y-130159269D01*
X119635641Y-129925920D01*
X119760825Y-129663099D01*
X119805476Y-129515890D01*
X119684155Y-129286000D01*
X118491000Y-129286000D01*
X118491000Y-129306000D01*
X118237000Y-129306000D01*
X118237000Y-129286000D01*
X117043845Y-129286000D01*
X116922524Y-129515890D01*
X116967175Y-129663099D01*
X117092359Y-129925920D01*
X117266412Y-130159269D01*
X117482645Y-130354178D01*
X117599534Y-130423805D01*
X117417368Y-130545525D01*
X117210525Y-130752368D01*
X117048010Y-130995589D01*
X116936068Y-131265842D01*
X116879000Y-131552740D01*
X116879000Y-131845260D01*
X116936068Y-132132158D01*
X117048010Y-132402411D01*
X117210525Y-132645632D01*
X117417368Y-132852475D01*
X117591760Y-132969000D01*
X117417368Y-133085525D01*
X117210525Y-133292368D01*
X117048010Y-133535589D01*
X116936068Y-133805842D01*
X116879000Y-134092740D01*
X116879000Y-134385260D01*
X116936068Y-134672158D01*
X117048010Y-134942411D01*
X117210525Y-135185632D01*
X117417368Y-135392475D01*
X117660589Y-135554990D01*
X117930842Y-135666932D01*
X118217740Y-135724000D01*
X118510260Y-135724000D01*
X118730408Y-135680209D01*
X126234190Y-143183992D01*
X126234191Y-156259283D01*
X126230514Y-156296615D01*
X126234191Y-156333948D01*
X126245188Y-156445601D01*
X126249572Y-156460054D01*
X126288644Y-156588861D01*
X126359216Y-156720891D01*
X126430391Y-156807617D01*
X126454190Y-156836616D01*
X126483188Y-156860414D01*
X127147986Y-157525212D01*
X127171784Y-157554211D01*
X127200782Y-157578009D01*
X127287509Y-157649184D01*
X127419538Y-157719756D01*
X127562799Y-157763213D01*
X127711785Y-157777887D01*
X127749118Y-157774210D01*
X128689293Y-157774210D01*
X128726615Y-157777886D01*
X128763937Y-157774210D01*
X128763948Y-157774210D01*
X128875601Y-157763213D01*
X129018862Y-157719756D01*
X129150891Y-157649184D01*
X129266616Y-157554211D01*
X129290419Y-157525207D01*
X131764200Y-155051427D01*
X131764200Y-155864608D01*
X131786411Y-156090113D01*
X131874184Y-156379461D01*
X132016720Y-156646127D01*
X132208540Y-156879861D01*
X132442274Y-157071681D01*
X132708940Y-157214217D01*
X132998288Y-157301990D01*
X133299200Y-157331627D01*
X133600113Y-157301990D01*
X133889461Y-157214217D01*
X134156127Y-157071681D01*
X134293852Y-156958654D01*
X134708011Y-157372813D01*
X134731809Y-157401811D01*
X134847534Y-157496784D01*
X134979563Y-157567356D01*
X135122824Y-157610813D01*
X135234477Y-157621810D01*
X135234487Y-157621810D01*
X135271810Y-157625486D01*
X135309133Y-157621810D01*
X151600093Y-157621810D01*
X151637415Y-157625486D01*
X151674737Y-157621810D01*
X151674748Y-157621810D01*
X151786401Y-157610813D01*
X151929662Y-157567356D01*
X152061691Y-157496784D01*
X152177416Y-157401811D01*
X152201219Y-157372807D01*
X154675000Y-154899027D01*
X154675000Y-155763800D01*
X154729271Y-156060823D01*
X154840446Y-156341551D01*
X155004252Y-156595196D01*
X155214394Y-156812010D01*
X155462796Y-156983662D01*
X155739913Y-157103555D01*
X155845260Y-157127836D01*
X156083000Y-157007178D01*
X156083000Y-154863800D01*
X156337000Y-154863800D01*
X156337000Y-157007178D01*
X156574740Y-157127836D01*
X156680087Y-157103555D01*
X156957204Y-156983662D01*
X157205606Y-156812010D01*
X157415748Y-156595196D01*
X157579554Y-156341551D01*
X157690729Y-156060823D01*
X157745000Y-155763800D01*
X157745000Y-154863800D01*
X156337000Y-154863800D01*
X156083000Y-154863800D01*
X156063000Y-154863800D01*
X156063000Y-154609800D01*
X156083000Y-154609800D01*
X156083000Y-154589800D01*
X156337000Y-154589800D01*
X156337000Y-154609800D01*
X157745000Y-154609800D01*
X157745000Y-153709800D01*
X157690729Y-153412777D01*
X157579554Y-153132049D01*
X157415748Y-152878404D01*
X157205606Y-152661590D01*
X156957204Y-152489938D01*
X156916743Y-152472433D01*
X162416775Y-146972402D01*
X164384990Y-148940617D01*
X164384991Y-156106883D01*
X164381314Y-156144215D01*
X164384991Y-156181548D01*
X164395988Y-156293201D01*
X164400679Y-156308664D01*
X164439444Y-156436461D01*
X164501105Y-156551819D01*
X164179821Y-156551819D01*
X162825000Y-155196999D01*
X162825000Y-153761392D01*
X162802790Y-153535887D01*
X162715017Y-153246539D01*
X162572481Y-152979873D01*
X162380661Y-152746139D01*
X162146926Y-152554319D01*
X161880260Y-152411783D01*
X161590912Y-152324010D01*
X161290000Y-152294373D01*
X160989087Y-152324010D01*
X160699739Y-152411783D01*
X160433073Y-152554319D01*
X160199339Y-152746139D01*
X160007519Y-152979874D01*
X159864983Y-153246540D01*
X159777210Y-153535888D01*
X159755000Y-153761393D01*
X159755000Y-155712208D01*
X159777211Y-155937713D01*
X159864984Y-156227061D01*
X160007520Y-156493727D01*
X160199340Y-156727461D01*
X160433074Y-156919281D01*
X160699740Y-157061817D01*
X160989088Y-157149590D01*
X161290000Y-157179227D01*
X161590913Y-157149590D01*
X161880261Y-157061817D01*
X162146927Y-156919281D01*
X162284652Y-156806253D01*
X163301220Y-157822822D01*
X163325018Y-157851820D01*
X163440743Y-157946793D01*
X163572772Y-158017365D01*
X163716033Y-158060822D01*
X163827686Y-158071819D01*
X163827694Y-158071819D01*
X163865019Y-158075495D01*
X163902344Y-158071819D01*
X167026494Y-158071819D01*
X167063816Y-158075495D01*
X167101138Y-158071819D01*
X167101149Y-158071819D01*
X167212802Y-158060822D01*
X167356063Y-158017365D01*
X167488092Y-157946793D01*
X167603817Y-157851820D01*
X167627620Y-157822816D01*
X168900936Y-156549500D01*
X172451928Y-156549500D01*
X172464188Y-156673982D01*
X172500498Y-156793680D01*
X172559463Y-156903994D01*
X172638815Y-157000685D01*
X172735506Y-157080037D01*
X172845820Y-157139002D01*
X172965518Y-157175312D01*
X173090000Y-157187572D01*
X173704250Y-157184500D01*
X173863000Y-157025750D01*
X173863000Y-154876500D01*
X174117000Y-154876500D01*
X174117000Y-157025750D01*
X174275750Y-157184500D01*
X174890000Y-157187572D01*
X175014482Y-157175312D01*
X175134180Y-157139002D01*
X175244494Y-157080037D01*
X175341185Y-157000685D01*
X175420537Y-156903994D01*
X175479502Y-156793680D01*
X175515812Y-156673982D01*
X175528072Y-156549500D01*
X175525000Y-155035250D01*
X175366250Y-154876500D01*
X174117000Y-154876500D01*
X173863000Y-154876500D01*
X172613750Y-154876500D01*
X172455000Y-155035250D01*
X172451928Y-156549500D01*
X168900936Y-156549500D01*
X172452027Y-152998410D01*
X172455000Y-154463750D01*
X172613750Y-154622500D01*
X173863000Y-154622500D01*
X173863000Y-152473250D01*
X174117000Y-152473250D01*
X174117000Y-154622500D01*
X175366250Y-154622500D01*
X175525000Y-154463750D01*
X175528072Y-152949500D01*
X175515812Y-152825018D01*
X175479502Y-152705320D01*
X175420537Y-152595006D01*
X175341185Y-152498315D01*
X175244494Y-152418963D01*
X175134180Y-152359998D01*
X175014482Y-152323688D01*
X174890000Y-152311428D01*
X174275750Y-152314500D01*
X174117000Y-152473250D01*
X173863000Y-152473250D01*
X173704250Y-152314500D01*
X173090000Y-152311428D01*
X173029940Y-152317343D01*
X173062013Y-152211611D01*
X173073010Y-152099958D01*
X173073010Y-152099949D01*
X173076686Y-152062626D01*
X173073010Y-152025303D01*
X173073010Y-105421332D01*
X173076686Y-105384009D01*
X173073010Y-105346686D01*
X173073010Y-105346677D01*
X173062013Y-105235024D01*
X173018556Y-105091763D01*
X172947984Y-104959734D01*
X172853011Y-104844009D01*
X172824013Y-104820211D01*
X172176072Y-104172270D01*
X172176072Y-102909000D01*
X172163812Y-102784518D01*
X172127502Y-102664820D01*
X172068537Y-102554506D01*
X171989185Y-102457815D01*
X171892494Y-102378463D01*
X171782180Y-102319498D01*
X171662482Y-102283188D01*
X171538000Y-102270928D01*
X170272999Y-102270928D01*
X170272999Y-92421802D01*
X170274729Y-92420072D01*
X171538000Y-92420072D01*
X171662482Y-92407812D01*
X171782180Y-92371502D01*
X171892494Y-92312537D01*
X171989185Y-92233185D01*
X172068537Y-92136494D01*
X172127502Y-92026180D01*
X172163812Y-91906482D01*
X172176072Y-91782000D01*
X172176072Y-91209871D01*
X177084991Y-96118791D01*
X177084990Y-156119593D01*
X177081314Y-156156915D01*
X177084990Y-156194237D01*
X177084990Y-156194247D01*
X177095987Y-156305900D01*
X177135592Y-156436461D01*
X177139444Y-156449161D01*
X177210016Y-156581191D01*
X177247324Y-156626650D01*
X177304989Y-156696916D01*
X177333992Y-156720718D01*
X177998786Y-157385512D01*
X178022584Y-157414511D01*
X178051582Y-157438309D01*
X178138309Y-157509484D01*
X178270338Y-157580056D01*
X178413599Y-157623513D01*
X178562585Y-157638187D01*
X178599918Y-157634510D01*
X181987668Y-157634510D01*
X182024990Y-157638186D01*
X182062312Y-157634510D01*
X182062323Y-157634510D01*
X182173976Y-157623513D01*
X182317237Y-157580056D01*
X182449266Y-157509484D01*
X182564991Y-157414511D01*
X182588794Y-157385507D01*
X183155348Y-156818953D01*
X183293074Y-156931981D01*
X183559740Y-157074517D01*
X183849088Y-157162290D01*
X184150000Y-157191927D01*
X184450913Y-157162290D01*
X184740261Y-157074517D01*
X185006927Y-156931981D01*
X185240661Y-156740161D01*
X185432481Y-156506427D01*
X185575017Y-156239761D01*
X185662790Y-155950413D01*
X185685000Y-155724908D01*
X185685000Y-154876500D01*
X187695000Y-154876500D01*
X187695000Y-155776500D01*
X187749271Y-156073523D01*
X187860446Y-156354251D01*
X188024252Y-156607896D01*
X188234394Y-156824710D01*
X188482796Y-156996362D01*
X188759913Y-157116255D01*
X188865260Y-157140536D01*
X189103000Y-157019878D01*
X189103000Y-154876500D01*
X189357000Y-154876500D01*
X189357000Y-157019878D01*
X189594740Y-157140536D01*
X189700087Y-157116255D01*
X189977204Y-156996362D01*
X190225606Y-156824710D01*
X190435748Y-156607896D01*
X190599554Y-156354251D01*
X190710729Y-156073523D01*
X190765000Y-155776500D01*
X190765000Y-154876500D01*
X189357000Y-154876500D01*
X189103000Y-154876500D01*
X187695000Y-154876500D01*
X185685000Y-154876500D01*
X185685000Y-153774092D01*
X185679919Y-153722500D01*
X187695000Y-153722500D01*
X187695000Y-154622500D01*
X189103000Y-154622500D01*
X189103000Y-152479122D01*
X189357000Y-152479122D01*
X189357000Y-154622500D01*
X190765000Y-154622500D01*
X190765000Y-153722500D01*
X190710729Y-153425477D01*
X190599554Y-153144749D01*
X190435748Y-152891104D01*
X190225606Y-152674290D01*
X189977204Y-152502638D01*
X189700087Y-152382745D01*
X189594740Y-152358464D01*
X189357000Y-152479122D01*
X189103000Y-152479122D01*
X188865260Y-152358464D01*
X188759913Y-152382745D01*
X188482796Y-152502638D01*
X188234394Y-152674290D01*
X188024252Y-152891104D01*
X187860446Y-153144749D01*
X187749271Y-153425477D01*
X187695000Y-153722500D01*
X185679919Y-153722500D01*
X185662790Y-153548587D01*
X185575017Y-153259239D01*
X185432481Y-152992573D01*
X185240661Y-152758839D01*
X185006926Y-152567019D01*
X184740260Y-152424483D01*
X184450912Y-152336710D01*
X184150000Y-152307073D01*
X183849087Y-152336710D01*
X183559739Y-152424483D01*
X183293073Y-152567019D01*
X183059339Y-152758839D01*
X182867519Y-152992574D01*
X182724983Y-153259240D01*
X182637210Y-153548588D01*
X182615000Y-153774093D01*
X182615000Y-155209698D01*
X181710189Y-156114510D01*
X180533012Y-156114510D01*
X180582790Y-155950413D01*
X180605000Y-155724908D01*
X180605000Y-153774092D01*
X180582790Y-153548587D01*
X180495017Y-153259239D01*
X180352481Y-152992573D01*
X180160661Y-152758839D01*
X179926926Y-152567019D01*
X179660260Y-152424483D01*
X179370912Y-152336710D01*
X179070000Y-152307073D01*
X178769087Y-152336710D01*
X178604990Y-152386488D01*
X178604990Y-144741000D01*
X187233928Y-144741000D01*
X187246188Y-144865482D01*
X187282498Y-144985180D01*
X187341463Y-145095494D01*
X187420815Y-145192185D01*
X187517506Y-145271537D01*
X187627820Y-145330502D01*
X187747518Y-145366812D01*
X187872000Y-145379072D01*
X188436250Y-145376000D01*
X188595000Y-145217250D01*
X188595000Y-144018000D01*
X188849000Y-144018000D01*
X188849000Y-145217250D01*
X189007750Y-145376000D01*
X189572000Y-145379072D01*
X189696482Y-145366812D01*
X189816180Y-145330502D01*
X189926494Y-145271537D01*
X190023185Y-145192185D01*
X190102537Y-145095494D01*
X190161502Y-144985180D01*
X190197812Y-144865482D01*
X190210072Y-144741000D01*
X190207000Y-144176750D01*
X190048250Y-144018000D01*
X188849000Y-144018000D01*
X188595000Y-144018000D01*
X187395750Y-144018000D01*
X187237000Y-144176750D01*
X187233928Y-144741000D01*
X178604990Y-144741000D01*
X178604990Y-143041000D01*
X187233928Y-143041000D01*
X187237000Y-143605250D01*
X187395750Y-143764000D01*
X188595000Y-143764000D01*
X188595000Y-142564750D01*
X188849000Y-142564750D01*
X188849000Y-143764000D01*
X190048250Y-143764000D01*
X190207000Y-143605250D01*
X190210072Y-143041000D01*
X190197812Y-142916518D01*
X190161502Y-142796820D01*
X190102537Y-142686506D01*
X190023185Y-142589815D01*
X189926494Y-142510463D01*
X189816180Y-142451498D01*
X189696482Y-142415188D01*
X189572000Y-142402928D01*
X189007750Y-142406000D01*
X188849000Y-142564750D01*
X188595000Y-142564750D01*
X188436250Y-142406000D01*
X187872000Y-142402928D01*
X187747518Y-142415188D01*
X187627820Y-142451498D01*
X187517506Y-142510463D01*
X187420815Y-142589815D01*
X187341463Y-142686506D01*
X187282498Y-142796820D01*
X187246188Y-142916518D01*
X187233928Y-143041000D01*
X178604990Y-143041000D01*
X178604990Y-104609000D01*
X187233928Y-104609000D01*
X187246188Y-104733482D01*
X187282498Y-104853180D01*
X187341463Y-104963494D01*
X187420815Y-105060185D01*
X187517506Y-105139537D01*
X187627820Y-105198502D01*
X187747518Y-105234812D01*
X187872000Y-105247072D01*
X188436250Y-105244000D01*
X188595000Y-105085250D01*
X188595000Y-103886000D01*
X188849000Y-103886000D01*
X188849000Y-105085250D01*
X189007750Y-105244000D01*
X189572000Y-105247072D01*
X189696482Y-105234812D01*
X189816180Y-105198502D01*
X189926494Y-105139537D01*
X190023185Y-105060185D01*
X190102537Y-104963494D01*
X190161502Y-104853180D01*
X190197812Y-104733482D01*
X190210072Y-104609000D01*
X190207000Y-104044750D01*
X190048250Y-103886000D01*
X188849000Y-103886000D01*
X188595000Y-103886000D01*
X187395750Y-103886000D01*
X187237000Y-104044750D01*
X187233928Y-104609000D01*
X178604990Y-104609000D01*
X178604990Y-102909000D01*
X187233928Y-102909000D01*
X187237000Y-103473250D01*
X187395750Y-103632000D01*
X188595000Y-103632000D01*
X188595000Y-102432750D01*
X188849000Y-102432750D01*
X188849000Y-103632000D01*
X190048250Y-103632000D01*
X190207000Y-103473250D01*
X190210072Y-102909000D01*
X190197812Y-102784518D01*
X190161502Y-102664820D01*
X190102537Y-102554506D01*
X190023185Y-102457815D01*
X189926494Y-102378463D01*
X189816180Y-102319498D01*
X189696482Y-102283188D01*
X189572000Y-102270928D01*
X189007750Y-102274000D01*
X188849000Y-102432750D01*
X188595000Y-102432750D01*
X188436250Y-102274000D01*
X187872000Y-102270928D01*
X187747518Y-102283188D01*
X187627820Y-102319498D01*
X187517506Y-102378463D01*
X187420815Y-102457815D01*
X187341463Y-102554506D01*
X187282498Y-102664820D01*
X187246188Y-102784518D01*
X187233928Y-102909000D01*
X178604990Y-102909000D01*
X178604990Y-95841311D01*
X178608666Y-95803988D01*
X178604990Y-95766665D01*
X178604990Y-95766655D01*
X178593993Y-95655002D01*
X178550536Y-95511741D01*
X178479964Y-95379712D01*
X178384991Y-95263987D01*
X178355993Y-95240189D01*
X174897804Y-91782000D01*
X187233928Y-91782000D01*
X187246188Y-91906482D01*
X187282498Y-92026180D01*
X187341463Y-92136494D01*
X187420815Y-92233185D01*
X187517506Y-92312537D01*
X187627820Y-92371502D01*
X187747518Y-92407812D01*
X187872000Y-92420072D01*
X188436250Y-92417000D01*
X188595000Y-92258250D01*
X188595000Y-91059000D01*
X188849000Y-91059000D01*
X188849000Y-92258250D01*
X189007750Y-92417000D01*
X189572000Y-92420072D01*
X189696482Y-92407812D01*
X189816180Y-92371502D01*
X189926494Y-92312537D01*
X190023185Y-92233185D01*
X190102537Y-92136494D01*
X190161502Y-92026180D01*
X190197812Y-91906482D01*
X190210072Y-91782000D01*
X190207000Y-91217750D01*
X190048250Y-91059000D01*
X188849000Y-91059000D01*
X188595000Y-91059000D01*
X187395750Y-91059000D01*
X187237000Y-91217750D01*
X187233928Y-91782000D01*
X174897804Y-91782000D01*
X173197804Y-90082000D01*
X187233928Y-90082000D01*
X187237000Y-90646250D01*
X187395750Y-90805000D01*
X188595000Y-90805000D01*
X188595000Y-89605750D01*
X188849000Y-89605750D01*
X188849000Y-90805000D01*
X190048250Y-90805000D01*
X190207000Y-90646250D01*
X190210072Y-90082000D01*
X190197812Y-89957518D01*
X190161502Y-89837820D01*
X190102537Y-89727506D01*
X190023185Y-89630815D01*
X189926494Y-89551463D01*
X189816180Y-89492498D01*
X189696482Y-89456188D01*
X189572000Y-89443928D01*
X189007750Y-89447000D01*
X188849000Y-89605750D01*
X188595000Y-89605750D01*
X188436250Y-89447000D01*
X187872000Y-89443928D01*
X187747518Y-89456188D01*
X187627820Y-89492498D01*
X187517506Y-89551463D01*
X187420815Y-89630815D01*
X187341463Y-89727506D01*
X187282498Y-89837820D01*
X187246188Y-89957518D01*
X187233928Y-90082000D01*
X173197804Y-90082000D01*
X172361805Y-89246002D01*
X172338002Y-89216998D01*
X172222277Y-89122025D01*
X172090248Y-89051453D01*
X171946987Y-89007996D01*
X171835334Y-88996999D01*
X171835323Y-88996999D01*
X171798001Y-88993323D01*
X171760679Y-88996999D01*
X167130000Y-88996999D01*
X167130000Y-55432801D01*
X170274730Y-52288072D01*
X171538000Y-52288072D01*
X171662482Y-52275812D01*
X171782180Y-52239502D01*
X171892494Y-52180537D01*
X171989185Y-52101185D01*
X172068537Y-52004494D01*
X172127502Y-51894180D01*
X172163812Y-51774482D01*
X172176072Y-51650000D01*
X187233928Y-51650000D01*
X187246188Y-51774482D01*
X187282498Y-51894180D01*
X187341463Y-52004494D01*
X187420815Y-52101185D01*
X187517506Y-52180537D01*
X187627820Y-52239502D01*
X187747518Y-52275812D01*
X187872000Y-52288072D01*
X188436250Y-52285000D01*
X188595000Y-52126250D01*
X188595000Y-50927000D01*
X188849000Y-50927000D01*
X188849000Y-52126250D01*
X189007750Y-52285000D01*
X189572000Y-52288072D01*
X189696482Y-52275812D01*
X189816180Y-52239502D01*
X189926494Y-52180537D01*
X190023185Y-52101185D01*
X190102537Y-52004494D01*
X190161502Y-51894180D01*
X190197812Y-51774482D01*
X190210072Y-51650000D01*
X190207000Y-51085750D01*
X190048250Y-50927000D01*
X188849000Y-50927000D01*
X188595000Y-50927000D01*
X187395750Y-50927000D01*
X187237000Y-51085750D01*
X187233928Y-51650000D01*
X172176072Y-51650000D01*
X172176072Y-49950000D01*
X187233928Y-49950000D01*
X187237000Y-50514250D01*
X187395750Y-50673000D01*
X188595000Y-50673000D01*
X188595000Y-49473750D01*
X188849000Y-49473750D01*
X188849000Y-50673000D01*
X190048250Y-50673000D01*
X190207000Y-50514250D01*
X190210072Y-49950000D01*
X190197812Y-49825518D01*
X190161502Y-49705820D01*
X190102537Y-49595506D01*
X190023185Y-49498815D01*
X189926494Y-49419463D01*
X189816180Y-49360498D01*
X189696482Y-49324188D01*
X189572000Y-49311928D01*
X189007750Y-49315000D01*
X188849000Y-49473750D01*
X188595000Y-49473750D01*
X188436250Y-49315000D01*
X187872000Y-49311928D01*
X187747518Y-49324188D01*
X187627820Y-49360498D01*
X187517506Y-49419463D01*
X187420815Y-49498815D01*
X187341463Y-49595506D01*
X187282498Y-49705820D01*
X187246188Y-49825518D01*
X187233928Y-49950000D01*
X172176072Y-49950000D01*
X172163812Y-49825518D01*
X172127502Y-49705820D01*
X172068537Y-49595506D01*
X171989185Y-49498815D01*
X171892494Y-49419463D01*
X171782180Y-49360498D01*
X171662482Y-49324188D01*
X171538000Y-49311928D01*
X169838000Y-49311928D01*
X169713518Y-49324188D01*
X169593820Y-49360498D01*
X169483506Y-49419463D01*
X169386815Y-49498815D01*
X169307463Y-49595506D01*
X169248498Y-49705820D01*
X169212188Y-49825518D01*
X169199928Y-49950000D01*
X169199928Y-51213270D01*
X165859003Y-54554196D01*
X165829999Y-54577999D01*
X165774871Y-54645174D01*
X165735026Y-54693724D01*
X165664455Y-54825753D01*
X165664454Y-54825754D01*
X165620997Y-54969015D01*
X165610000Y-55080668D01*
X165610000Y-55080678D01*
X165606324Y-55118000D01*
X165610000Y-55155322D01*
X165610001Y-89726258D01*
X165610000Y-89726268D01*
X165610000Y-89726278D01*
X165606324Y-89763600D01*
X165610000Y-89800922D01*
X165610001Y-148016024D01*
X162980578Y-145386601D01*
X162956776Y-145357599D01*
X162889601Y-145302471D01*
X162841051Y-145262626D01*
X162709021Y-145192054D01*
X162565760Y-145148598D01*
X162416775Y-145133924D01*
X162416774Y-145133924D01*
X162267788Y-145148598D01*
X162124528Y-145192054D01*
X161992498Y-145262626D01*
X161909792Y-145330502D01*
X161876774Y-145357599D01*
X161852976Y-145386597D01*
X154473992Y-152765582D01*
X154444989Y-152789384D01*
X154350016Y-152905109D01*
X154279444Y-153037138D01*
X154235987Y-153180399D01*
X154235109Y-153189314D01*
X152665000Y-154759424D01*
X152665000Y-153761392D01*
X152642790Y-153535887D01*
X152555017Y-153246539D01*
X152412481Y-152979873D01*
X152220661Y-152746139D01*
X151986926Y-152554319D01*
X151720260Y-152411783D01*
X151430912Y-152324010D01*
X151130000Y-152294373D01*
X150829087Y-152324010D01*
X150539739Y-152411783D01*
X150366000Y-152504648D01*
X150366000Y-128938872D01*
X150927000Y-128938872D01*
X150927000Y-129379128D01*
X151012890Y-129810925D01*
X151181369Y-130217669D01*
X151425962Y-130583729D01*
X151737271Y-130895038D01*
X152103331Y-131139631D01*
X152510075Y-131308110D01*
X152941872Y-131394000D01*
X153382128Y-131394000D01*
X153813925Y-131308110D01*
X154220669Y-131139631D01*
X154586729Y-130895038D01*
X154898038Y-130583729D01*
X155142631Y-130217669D01*
X155311110Y-129810925D01*
X155397000Y-129379128D01*
X155397000Y-128938872D01*
X155311110Y-128507075D01*
X155142631Y-128100331D01*
X154898038Y-127734271D01*
X154586729Y-127422962D01*
X154220669Y-127178369D01*
X153813925Y-127009890D01*
X153382128Y-126924000D01*
X152941872Y-126924000D01*
X152510075Y-127009890D01*
X152103331Y-127178369D01*
X151737271Y-127422962D01*
X151425962Y-127734271D01*
X151181369Y-128100331D01*
X151012890Y-128507075D01*
X150927000Y-128938872D01*
X150366000Y-128938872D01*
X150366000Y-98861392D01*
X152853611Y-101349003D01*
X152877409Y-101378001D01*
X152906407Y-101401799D01*
X152943928Y-101432592D01*
X152943928Y-101688000D01*
X152956188Y-101812482D01*
X152992498Y-101932180D01*
X153051463Y-102042494D01*
X153130815Y-102139185D01*
X153227506Y-102218537D01*
X153337820Y-102277502D01*
X153457518Y-102313812D01*
X153582000Y-102326072D01*
X155282000Y-102326072D01*
X155406482Y-102313812D01*
X155526180Y-102277502D01*
X155636494Y-102218537D01*
X155733185Y-102139185D01*
X155812537Y-102042494D01*
X155871502Y-101932180D01*
X155907812Y-101812482D01*
X155920072Y-101688000D01*
X155920072Y-99988000D01*
X155907812Y-99863518D01*
X155871502Y-99743820D01*
X155812537Y-99633506D01*
X155733185Y-99536815D01*
X155636494Y-99457463D01*
X155526180Y-99398498D01*
X155453620Y-99376487D01*
X155585475Y-99244632D01*
X155747990Y-99001411D01*
X155859932Y-98731158D01*
X155917000Y-98444260D01*
X155917000Y-98151740D01*
X155859932Y-97864842D01*
X155747990Y-97594589D01*
X155585475Y-97351368D01*
X155378632Y-97144525D01*
X155196466Y-97022805D01*
X155313355Y-96953178D01*
X155529588Y-96758269D01*
X155703641Y-96524920D01*
X155828825Y-96262099D01*
X155873476Y-96114890D01*
X155752155Y-95885000D01*
X154559000Y-95885000D01*
X154559000Y-95905000D01*
X154305000Y-95905000D01*
X154305000Y-95885000D01*
X153111845Y-95885000D01*
X152990524Y-96114890D01*
X153035175Y-96262099D01*
X153160359Y-96524920D01*
X153334412Y-96758269D01*
X153550645Y-96953178D01*
X153667534Y-97022805D01*
X153485368Y-97144525D01*
X153278525Y-97351368D01*
X153116010Y-97594589D01*
X153004068Y-97864842D01*
X152947000Y-98151740D01*
X152947000Y-98444260D01*
X153004068Y-98731158D01*
X153116010Y-99001411D01*
X153278525Y-99244632D01*
X153410380Y-99376487D01*
X153337820Y-99398498D01*
X153227506Y-99457463D01*
X153163886Y-99509674D01*
X144185952Y-90531740D01*
X152947000Y-90531740D01*
X152947000Y-90824260D01*
X153004068Y-91111158D01*
X153116010Y-91381411D01*
X153278525Y-91624632D01*
X153485368Y-91831475D01*
X153659760Y-91948000D01*
X153485368Y-92064525D01*
X153278525Y-92271368D01*
X153116010Y-92514589D01*
X153004068Y-92784842D01*
X152947000Y-93071740D01*
X152947000Y-93364260D01*
X153004068Y-93651158D01*
X153116010Y-93921411D01*
X153278525Y-94164632D01*
X153485368Y-94371475D01*
X153667534Y-94493195D01*
X153550645Y-94562822D01*
X153334412Y-94757731D01*
X153160359Y-94991080D01*
X153035175Y-95253901D01*
X152990524Y-95401110D01*
X153111845Y-95631000D01*
X154305000Y-95631000D01*
X154305000Y-95611000D01*
X154559000Y-95611000D01*
X154559000Y-95631000D01*
X155752155Y-95631000D01*
X155873476Y-95401110D01*
X155828825Y-95253901D01*
X155703641Y-94991080D01*
X155529588Y-94757731D01*
X155313355Y-94562822D01*
X155196466Y-94493195D01*
X155378632Y-94371475D01*
X155585475Y-94164632D01*
X155747990Y-93921411D01*
X155859932Y-93651158D01*
X155917000Y-93364260D01*
X155917000Y-93071740D01*
X155859932Y-92784842D01*
X155747990Y-92514589D01*
X155585475Y-92271368D01*
X155378632Y-92064525D01*
X155204240Y-91948000D01*
X155378632Y-91831475D01*
X155585475Y-91624632D01*
X155747990Y-91381411D01*
X155859932Y-91111158D01*
X155917000Y-90824260D01*
X155917000Y-90531740D01*
X155859932Y-90244842D01*
X155747990Y-89974589D01*
X155585475Y-89731368D01*
X155378632Y-89524525D01*
X155135411Y-89362010D01*
X155132837Y-89360944D01*
X155066974Y-89237724D01*
X154972001Y-89121999D01*
X154856275Y-89027026D01*
X154724246Y-88956454D01*
X154580985Y-88912997D01*
X154432000Y-88898323D01*
X154283014Y-88912997D01*
X154139753Y-88956454D01*
X154007724Y-89027026D01*
X153891999Y-89121999D01*
X153797026Y-89237725D01*
X153731163Y-89360944D01*
X153728589Y-89362010D01*
X153485368Y-89524525D01*
X153278525Y-89731368D01*
X153116010Y-89974589D01*
X153004068Y-90244842D01*
X152947000Y-90531740D01*
X144185952Y-90531740D01*
X122900005Y-69245794D01*
X125631801Y-66513999D01*
X130337772Y-66513999D01*
X130407014Y-66535003D01*
X130542642Y-66548360D01*
X130555999Y-66549676D01*
X130556000Y-66549676D01*
X130704986Y-66535003D01*
X130848246Y-66491546D01*
X130980276Y-66420974D01*
X131096001Y-66326001D01*
X131190974Y-66210276D01*
X131261546Y-66078246D01*
X131305003Y-65934986D01*
X131319676Y-65786000D01*
X131305003Y-65637014D01*
X131261546Y-65493753D01*
X131190974Y-65361724D01*
X131119799Y-65274997D01*
X131087798Y-65242996D01*
X131064000Y-65213998D01*
X131035002Y-65190200D01*
X127473674Y-61628872D01*
X151435000Y-61628872D01*
X151435000Y-62069128D01*
X151520890Y-62500925D01*
X151689369Y-62907669D01*
X151933962Y-63273729D01*
X152245271Y-63585038D01*
X152611331Y-63829631D01*
X153018075Y-63998110D01*
X153449872Y-64084000D01*
X153890128Y-64084000D01*
X154321925Y-63998110D01*
X154728669Y-63829631D01*
X155094729Y-63585038D01*
X155406038Y-63273729D01*
X155650631Y-62907669D01*
X155819110Y-62500925D01*
X155905000Y-62069128D01*
X155905000Y-61628872D01*
X155819110Y-61197075D01*
X155650631Y-60790331D01*
X155406038Y-60424271D01*
X155094729Y-60112962D01*
X154728669Y-59868369D01*
X154321925Y-59699890D01*
X153890128Y-59614000D01*
X153449872Y-59614000D01*
X153018075Y-59699890D01*
X152611331Y-59868369D01*
X152245271Y-60112962D01*
X151933962Y-60424271D01*
X151689369Y-60790331D01*
X151520890Y-61197075D01*
X151435000Y-61628872D01*
X127473674Y-61628872D01*
X122102804Y-56258003D01*
X122079001Y-56228999D01*
X121963276Y-56134026D01*
X121831247Y-56063454D01*
X121687986Y-56019997D01*
X121576333Y-56009000D01*
X121576322Y-56009000D01*
X121539000Y-56005324D01*
X121501678Y-56009000D01*
X120360072Y-56009000D01*
X120360072Y-55919000D01*
X120347812Y-55794518D01*
X120311502Y-55674820D01*
X120252537Y-55564506D01*
X120173185Y-55467815D01*
X120076494Y-55388463D01*
X119966180Y-55329498D01*
X119846482Y-55293188D01*
X119722000Y-55280928D01*
X118022000Y-55280928D01*
X117897518Y-55293188D01*
X117777820Y-55329498D01*
X117667506Y-55388463D01*
X117570815Y-55467815D01*
X117491463Y-55564506D01*
X117432498Y-55674820D01*
X117396188Y-55794518D01*
X117383928Y-55919000D01*
X117383928Y-57619000D01*
X117396188Y-57743482D01*
X117432498Y-57863180D01*
X117491463Y-57973494D01*
X117570815Y-58070185D01*
X117667506Y-58149537D01*
X117777820Y-58208502D01*
X117850380Y-58230513D01*
X117718525Y-58362368D01*
X117556010Y-58605589D01*
X117444068Y-58875842D01*
X117387000Y-59162740D01*
X117387000Y-59455260D01*
X117444068Y-59742158D01*
X117556010Y-60012411D01*
X117718525Y-60255632D01*
X117925368Y-60462475D01*
X118107534Y-60584195D01*
X117990645Y-60653822D01*
X117774412Y-60848731D01*
X117600359Y-61082080D01*
X117475175Y-61344901D01*
X117430524Y-61492110D01*
X117551845Y-61722000D01*
X118745000Y-61722000D01*
X118745000Y-61702000D01*
X118999000Y-61702000D01*
X118999000Y-61722000D01*
X120192155Y-61722000D01*
X120313476Y-61492110D01*
X120268825Y-61344901D01*
X120143641Y-61082080D01*
X119969588Y-60848731D01*
X119753355Y-60653822D01*
X119636466Y-60584195D01*
X119818632Y-60462475D01*
X120025475Y-60255632D01*
X120187990Y-60012411D01*
X120299932Y-59742158D01*
X120357000Y-59455260D01*
X120357000Y-59162740D01*
X120299932Y-58875842D01*
X120187990Y-58605589D01*
X120025475Y-58362368D01*
X119893620Y-58230513D01*
X119966180Y-58208502D01*
X120076494Y-58149537D01*
X120173185Y-58070185D01*
X120252537Y-57973494D01*
X120311502Y-57863180D01*
X120347812Y-57743482D01*
X120360072Y-57619000D01*
X120360072Y-57529000D01*
X121224199Y-57529000D01*
X128689197Y-64993999D01*
X125354322Y-64993999D01*
X125316999Y-64990323D01*
X125279676Y-64993999D01*
X120228753Y-64993999D01*
X120299932Y-64822158D01*
X120357000Y-64535260D01*
X120357000Y-64242740D01*
X120299932Y-63955842D01*
X120187990Y-63685589D01*
X120025475Y-63442368D01*
X119818632Y-63235525D01*
X119636466Y-63113805D01*
X119753355Y-63044178D01*
X119969588Y-62849269D01*
X120143641Y-62615920D01*
X120268825Y-62353099D01*
X120313476Y-62205890D01*
X120192155Y-61976000D01*
X118999000Y-61976000D01*
X118999000Y-61996000D01*
X118745000Y-61996000D01*
X118745000Y-61976000D01*
X117551845Y-61976000D01*
X117430524Y-62205890D01*
X117475175Y-62353099D01*
X117600359Y-62615920D01*
X117774412Y-62849269D01*
X117990645Y-63044178D01*
X118107534Y-63113805D01*
X117925368Y-63235525D01*
X117718525Y-63442368D01*
X117556010Y-63685589D01*
X117444068Y-63955842D01*
X117387000Y-64242740D01*
X117387000Y-64535260D01*
X117444068Y-64822158D01*
X117556010Y-65092411D01*
X117691704Y-65295491D01*
X117185996Y-65801201D01*
X117156999Y-65824998D01*
X117133201Y-65853996D01*
X117133200Y-65853997D01*
X117062025Y-65940723D01*
X116991453Y-66072753D01*
X116989787Y-66078246D01*
X116949738Y-66210276D01*
X116947997Y-66216014D01*
X116933323Y-66364999D01*
X116937000Y-66402332D01*
X116936999Y-122961433D01*
X116924498Y-122984820D01*
X116888188Y-123104518D01*
X116875928Y-123229000D01*
X111912000Y-123229000D01*
X111912000Y-45618000D01*
X192634001Y-45618000D01*
X192634000Y-159614000D01*
G37*
%TD.AperFunction*%
%TD*%
M02*
