%TF.GenerationSoftware,KiCad,Pcbnew,(5.1.7)-1*%
%TF.CreationDate,2021-01-07T21:57:37+01:00*%
%TF.ProjectId,potencia,706f7465-6e63-4696-912e-6b696361645f,rev?*%
%TF.SameCoordinates,Original*%
%TF.FileFunction,Soldermask,Bot*%
%TF.FilePolarity,Negative*%
%FSLAX46Y46*%
G04 Gerber Fmt 4.6, Leading zero omitted, Abs format (unit mm)*
G04 Created by KiCad (PCBNEW (5.1.7)-1) date 2021-01-07 21:57:37*
%MOMM*%
%LPD*%
G01*
G04 APERTURE LIST*
%ADD10O,1.800000X3.600000*%
%ADD11C,3.200000*%
%ADD12R,1.700000X1.700000*%
%ADD13O,1.700000X1.700000*%
G04 APERTURE END LIST*
D10*
%TO.C,GND    5V    12V    GND*%
X189230000Y-154749500D03*
X184150000Y-154749500D03*
X179070000Y-154749500D03*
G36*
G01*
X173090000Y-156299500D02*
X173090000Y-153199500D01*
G75*
G02*
X173340000Y-152949500I250000J0D01*
G01*
X174640000Y-152949500D01*
G75*
G02*
X174890000Y-153199500I0J-250000D01*
G01*
X174890000Y-156299500D01*
G75*
G02*
X174640000Y-156549500I-250000J0D01*
G01*
X173340000Y-156549500D01*
G75*
G02*
X173090000Y-156299500I0J250000D01*
G01*
G37*
%TD*%
%TO.C,GND   GND   BAT   SETA*%
X133299200Y-154889200D03*
X128219200Y-154889200D03*
X123139200Y-154889200D03*
G36*
G01*
X117159200Y-156439200D02*
X117159200Y-153339200D01*
G75*
G02*
X117409200Y-153089200I250000J0D01*
G01*
X118709200Y-153089200D01*
G75*
G02*
X118959200Y-153339200I0J-250000D01*
G01*
X118959200Y-156439200D01*
G75*
G02*
X118709200Y-156689200I-250000J0D01*
G01*
X117409200Y-156689200D01*
G75*
G02*
X117159200Y-156439200I0J250000D01*
G01*
G37*
%TD*%
%TO.C,5V    5V    5V    GND    12V    12V*%
X166370000Y-154736800D03*
X161290000Y-154736800D03*
X156210000Y-154736800D03*
X151130000Y-154736800D03*
X146050000Y-154736800D03*
G36*
G01*
X140070000Y-156286800D02*
X140070000Y-153186800D01*
G75*
G02*
X140320000Y-152936800I250000J0D01*
G01*
X141620000Y-152936800D01*
G75*
G02*
X141870000Y-153186800I0J-250000D01*
G01*
X141870000Y-156286800D01*
G75*
G02*
X141620000Y-156536800I-250000J0D01*
G01*
X140320000Y-156536800D01*
G75*
G02*
X140070000Y-156286800I0J250000D01*
G01*
G37*
%TD*%
D11*
%TO.C, *%
X153162000Y-129159000D03*
%TD*%
%TO.C, *%
X153670000Y-61849000D03*
%TD*%
%TO.C, *%
X119634000Y-95631000D03*
%TD*%
D12*
%TO.C,In-*%
X188722000Y-90932000D03*
%TD*%
%TO.C,In-*%
X188722000Y-143891000D03*
%TD*%
%TO.C,Out-*%
X188722000Y-50800000D03*
%TD*%
%TO.C,Out-*%
X188722000Y-103759000D03*
%TD*%
%TO.C,In+*%
X170688000Y-90932000D03*
%TD*%
%TO.C,In+*%
X170688000Y-143891000D03*
%TD*%
%TO.C,Out+*%
X170688000Y-103759000D03*
%TD*%
%TO.C,Out+*%
X170688000Y-50800000D03*
%TD*%
%TO.C, *%
X118872000Y-56769000D03*
D13*
X118872000Y-59309000D03*
X118872000Y-61849000D03*
X118872000Y-64389000D03*
X118872000Y-66929000D03*
%TD*%
%TO.C, *%
X118364000Y-134239000D03*
X118364000Y-131699000D03*
X118364000Y-129159000D03*
X118364000Y-126619000D03*
D12*
X118364000Y-124079000D03*
%TD*%
%TO.C,  *%
X154432000Y-100838000D03*
D13*
X154432000Y-98298000D03*
X154432000Y-95758000D03*
X154432000Y-93218000D03*
X154432000Y-90678000D03*
%TD*%
M02*
