%TF.GenerationSoftware,KiCad,Pcbnew,(5.1.7)-1*%
%TF.CreationDate,2021-01-07T21:57:37+01:00*%
%TF.ProjectId,potencia,706f7465-6e63-4696-912e-6b696361645f,rev?*%
%TF.SameCoordinates,Original*%
%TF.FileFunction,Copper,L1,Top*%
%TF.FilePolarity,Positive*%
%FSLAX46Y46*%
G04 Gerber Fmt 4.6, Leading zero omitted, Abs format (unit mm)*
G04 Created by KiCad (PCBNEW (5.1.7)-1) date 2021-01-07 21:57:37*
%MOMM*%
%LPD*%
G01*
G04 APERTURE LIST*
%TA.AperFunction,ComponentPad*%
%ADD10O,1.800000X3.600000*%
%TD*%
%TA.AperFunction,ComponentPad*%
%ADD11R,1.700000X1.700000*%
%TD*%
%TA.AperFunction,ComponentPad*%
%ADD12O,1.700000X1.700000*%
%TD*%
%TA.AperFunction,Conductor*%
%ADD13C,0.250000*%
%TD*%
G04 APERTURE END LIST*
D10*
%TO.P,GND    5V    12V    GND,4*%
%TO.N,GND*%
X189230000Y-154749500D03*
%TO.P,GND    5V    12V    GND,3*%
%TO.N,12.2*%
X184150000Y-154749500D03*
%TO.P,GND    5V    12V    GND,2*%
%TO.N,5.2*%
X179070000Y-154749500D03*
%TO.P,GND    5V    12V    GND,1*%
%TO.N,GND*%
%TA.AperFunction,ComponentPad*%
G36*
G01*
X173090000Y-156299500D02*
X173090000Y-153199500D01*
G75*
G02*
X173340000Y-152949500I250000J0D01*
G01*
X174640000Y-152949500D01*
G75*
G02*
X174890000Y-153199500I0J-250000D01*
G01*
X174890000Y-156299500D01*
G75*
G02*
X174640000Y-156549500I-250000J0D01*
G01*
X173340000Y-156549500D01*
G75*
G02*
X173090000Y-156299500I0J250000D01*
G01*
G37*
%TD.AperFunction*%
%TD*%
%TO.P,GND   GND   BAT   SETA,4*%
%TO.N,+15V*%
X133299200Y-154889200D03*
%TO.P,GND   GND   BAT   SETA,3*%
%TO.N,+BATT*%
X128219200Y-154889200D03*
%TO.P,GND   GND   BAT   SETA,2*%
%TO.N,GND*%
X123139200Y-154889200D03*
%TO.P,GND   GND   BAT   SETA,1*%
%TA.AperFunction,ComponentPad*%
G36*
G01*
X117159200Y-156439200D02*
X117159200Y-153339200D01*
G75*
G02*
X117409200Y-153089200I250000J0D01*
G01*
X118709200Y-153089200D01*
G75*
G02*
X118959200Y-153339200I0J-250000D01*
G01*
X118959200Y-156439200D01*
G75*
G02*
X118709200Y-156689200I-250000J0D01*
G01*
X117409200Y-156689200D01*
G75*
G02*
X117159200Y-156439200I0J250000D01*
G01*
G37*
%TD.AperFunction*%
%TD*%
%TO.P,5V    5V    5V    GND    12V    12V,6*%
%TO.N,12.2*%
X166370000Y-154736800D03*
%TO.P,5V    5V    5V    GND    12V    12V,5*%
%TO.N,12.1*%
X161290000Y-154736800D03*
%TO.P,5V    5V    5V    GND    12V    12V,4*%
%TO.N,GND*%
X156210000Y-154736800D03*
%TO.P,5V    5V    5V    GND    12V    12V,3*%
%TO.N,5.3*%
X151130000Y-154736800D03*
%TO.P,5V    5V    5V    GND    12V    12V,2*%
%TO.N,5.2*%
X146050000Y-154736800D03*
%TO.P,5V    5V    5V    GND    12V    12V,1*%
%TO.N,5.1*%
%TA.AperFunction,ComponentPad*%
G36*
G01*
X140070000Y-156286800D02*
X140070000Y-153186800D01*
G75*
G02*
X140320000Y-152936800I250000J0D01*
G01*
X141620000Y-152936800D01*
G75*
G02*
X141870000Y-153186800I0J-250000D01*
G01*
X141870000Y-156286800D01*
G75*
G02*
X141620000Y-156536800I-250000J0D01*
G01*
X140320000Y-156536800D01*
G75*
G02*
X140070000Y-156286800I0J250000D01*
G01*
G37*
%TD.AperFunction*%
%TD*%
D11*
%TO.P,In-,1*%
%TO.N,GND*%
X188722000Y-90932000D03*
%TD*%
%TO.P,In-,1*%
%TO.N,GND*%
X188722000Y-143891000D03*
%TD*%
%TO.P,Out-,1*%
%TO.N,GND*%
X188722000Y-50800000D03*
%TD*%
%TO.P,Out-,1*%
%TO.N,GND*%
X188722000Y-103759000D03*
%TD*%
%TO.P,In+,1*%
%TO.N,+15V*%
X170688000Y-90932000D03*
%TD*%
%TO.P,In+,1*%
%TO.N,+15V*%
X170688000Y-143891000D03*
%TD*%
%TO.P,Out+,1*%
%TO.N,12.1*%
X170688000Y-103759000D03*
%TD*%
%TO.P,Out+,1*%
%TO.N,12.2*%
X170688000Y-50800000D03*
%TD*%
%TO.P, ,1*%
%TO.N,+BATT*%
X118872000Y-56769000D03*
D12*
%TO.P, ,2*%
%TO.N,Net-(Regulador5.3-Pad2)*%
X118872000Y-59309000D03*
%TO.P, ,3*%
%TO.N,GND*%
X118872000Y-61849000D03*
%TO.P, ,4*%
%TO.N,Net-(Regulador5.3-Pad4)*%
X118872000Y-64389000D03*
%TO.P, ,5*%
%TO.N,5.3*%
X118872000Y-66929000D03*
%TD*%
%TO.P, ,5*%
%TO.N,5.1*%
X118364000Y-134239000D03*
%TO.P, ,4*%
%TO.N,Net-(Regulador5.1-Pad4)*%
X118364000Y-131699000D03*
%TO.P, ,3*%
%TO.N,GND*%
X118364000Y-129159000D03*
%TO.P, ,2*%
%TO.N,Net-(Regulador5.1-Pad2)*%
X118364000Y-126619000D03*
D11*
%TO.P, ,1*%
%TO.N,+BATT*%
X118364000Y-124079000D03*
%TD*%
%TO.P,  ,1*%
%TO.N,+BATT*%
X154432000Y-100838000D03*
D12*
%TO.P,  ,2*%
%TO.N,Net-(Regulador5.2-Pad2)*%
X154432000Y-98298000D03*
%TO.P,  ,3*%
%TO.N,GND*%
X154432000Y-95758000D03*
%TO.P,  ,4*%
%TO.N,Net-(Regulador5.2-Pad4)*%
X154432000Y-93218000D03*
%TO.P,  ,5*%
%TO.N,5.2*%
X154432000Y-90678000D03*
%TD*%
D13*
%TO.N,+BATT*%
X154432000Y-100711000D02*
X155281999Y-101560999D01*
%TO.N,5.2*%
X176932290Y-152611790D02*
X179070000Y-154749500D01*
X146050000Y-154736800D02*
X148175010Y-152611790D01*
X148175010Y-152611790D02*
X176932290Y-152611790D01*
X146050000Y-99060000D02*
X146050000Y-154736800D01*
X154432000Y-90678000D02*
X146050000Y-99060000D01*
%TD*%
M02*
