M48
; DRILL file {KiCad (5.1.10)-1} date 05/20/21 21:40:51
; FORMAT={-:-/ absolute / metric / decimal}
; #@! TF.CreationDate,2021-05-20T21:40:51+02:00
; #@! TF.GenerationSoftware,Kicad,Pcbnew,(5.1.10)-1
; #@! TF.FileFunction,Plated,1,2,PTH
FMAT,2
METRIC
T1C1.000
T2C1.500
T3C1.600
%
G90
G05
T1
X118.364Y-124.079
X118.364Y-126.619
X118.364Y-129.159
X118.364Y-131.699
X118.364Y-134.239
X118.872Y-56.769
X118.872Y-59.309
X118.872Y-61.849
X118.872Y-64.389
X118.872Y-66.929
X154.432Y-90.678
X154.432Y-93.218
X154.432Y-95.758
X154.432Y-98.298
X154.432Y-100.838
X170.688Y-50.8
X170.688Y-90.932
X170.688Y-103.759
X170.688Y-143.891
X188.722Y-50.8
X188.722Y-90.932
X188.722Y-103.759
X188.722Y-143.891
T2
X122.809Y-138.938
X129.146Y-87.897
X136.906Y-138.938
X136.995Y-132.537
X142.659Y-99.593
X162.738Y-104.559
X170.688Y-135.649
X179.07Y-139.446
T3
X118.11Y-154.305
X123.19Y-154.305
X128.27Y-154.305
X133.35Y-154.305
X140.97Y-154.305
X146.05Y-154.305
X151.13Y-154.305
X156.21Y-154.305
X161.29Y-154.305
X166.37Y-154.305
X173.99Y-154.305
X179.07Y-154.305
X184.15Y-154.305
X189.23Y-154.305
T0
M30
