M48
; DRILL file {KiCad (5.1.7)-1} date 01/07/21 21:57:21
; FORMAT={-:-/ absolute / inch / decimal}
; #@! TF.CreationDate,2021-01-07T21:57:21+01:00
; #@! TF.GenerationSoftware,Kicad,Pcbnew,(5.1.7)-1
FMAT,2
INCH
T1C0.0394
T2C0.0472
T3C0.1260
%
G90
G05
T1
X4.66Y-4.885
X4.68Y-2.235
X4.68Y-2.335
X4.68Y-2.435
X4.68Y-2.535
X4.68Y-2.635
X6.72Y-2.0
X6.72Y-4.085
X6.08Y-3.57
X6.08Y-3.67
X6.08Y-3.77
X6.08Y-3.87
X6.08Y-3.97
X7.43Y-2.0
X7.43Y-4.085
X6.72Y-5.665
X7.43Y-5.665
X6.72Y-3.58
X4.66Y-4.985
X4.66Y-5.085
X4.66Y-5.185
X4.66Y-5.285
X7.43Y-3.58
T2
X4.648Y-6.098
X4.848Y-6.098
X5.048Y-6.098
X5.248Y-6.098
X6.85Y-6.0925
X7.05Y-6.0925
X7.25Y-6.0925
X7.45Y-6.0925
X5.55Y-6.092
X5.75Y-6.092
X5.95Y-6.092
X6.15Y-6.092
X6.35Y-6.092
X6.55Y-6.092
T3
X4.71Y-3.765
X6.05Y-2.435
X6.03Y-5.085
T0
M30
