M48
; DRILL file {KiCad (5.1.7)-1} date 12/28/20 14:37:03
; FORMAT={-:-/ absolute / inch / decimal}
; #@! TF.CreationDate,2020-12-28T14:37:03+01:00
; #@! TF.GenerationSoftware,Kicad,Pcbnew,(5.1.7)-1
FMAT,2
INCH
T1C0.0394
T2C0.0472
T3C0.1260
%
G90
G05
T1
X5.364Y-2.898
X5.366Y-2.48
X5.466Y-2.48
X5.566Y-2.48
X5.366Y-2.262
X5.466Y-2.262
X5.566Y-2.262
X5.364Y-2.694
X5.464Y-2.694
X5.564Y-2.694
X5.366Y-2.052
X5.466Y-2.052
X5.566Y-2.052
X5.464Y-2.898
X5.564Y-2.898
T2
X5.976Y-1.684
X5.976Y-1.884
X5.976Y-2.084
X5.976Y-2.284
X5.976Y-2.484
X5.976Y-2.684
X4.922Y-1.988
X4.922Y-2.188
X4.922Y-2.388
X4.922Y-2.588
X4.922Y-2.788
X4.922Y-2.988
X5.372Y-1.686
X5.572Y-1.686
T3
X4.92Y-1.622
X6.07Y-3.01
T0
M30
