%TF.GenerationSoftware,KiCad,Pcbnew,(5.1.7)-1*%
%TF.CreationDate,2020-12-28T14:37:07+01:00*%
%TF.ProjectId,control_neumatica,636f6e74-726f-46c5-9f6e-65756d617469,rev?*%
%TF.SameCoordinates,Original*%
%TF.FileFunction,Soldermask,Top*%
%TF.FilePolarity,Negative*%
%FSLAX46Y46*%
G04 Gerber Fmt 4.6, Leading zero omitted, Abs format (unit mm)*
G04 Created by KiCad (PCBNEW (5.1.7)-1) date 2020-12-28 14:37:07*
%MOMM*%
%LPD*%
G01*
G04 APERTURE LIST*
%ADD10O,3.600000X1.800000*%
%ADD11O,1.700000X1.700000*%
%ADD12R,1.700000X1.700000*%
%ADD13O,1.800000X3.600000*%
%ADD14C,3.200000*%
G04 APERTURE END LIST*
D10*
%TO.C,SALIDAS                12V*%
X151790400Y-68173600D03*
X151790400Y-63093600D03*
X151790400Y-58013600D03*
X151790400Y-52933600D03*
X151790400Y-47853600D03*
G36*
G01*
X150240400Y-41873600D02*
X153340400Y-41873600D01*
G75*
G02*
X153590400Y-42123600I0J-250000D01*
G01*
X153590400Y-43423600D01*
G75*
G02*
X153340400Y-43673600I-250000J0D01*
G01*
X150240400Y-43673600D01*
G75*
G02*
X149990400Y-43423600I0J250000D01*
G01*
X149990400Y-42123600D01*
G75*
G02*
X150240400Y-41873600I250000J0D01*
G01*
G37*
%TD*%
D11*
%TO.C,S   D   G*%
X141325600Y-73609200D03*
X138785600Y-73609200D03*
D12*
X136245600Y-73609200D03*
%TD*%
D11*
%TO.C, *%
X141325600Y-68427600D03*
X138785600Y-68427600D03*
D12*
X136245600Y-68427600D03*
%TD*%
D11*
%TO.C, *%
X141376400Y-62992000D03*
X138836400Y-62992000D03*
D12*
X136296400Y-62992000D03*
%TD*%
D11*
%TO.C, *%
X141376400Y-57454800D03*
X138836400Y-57454800D03*
D12*
X136296400Y-57454800D03*
%TD*%
D11*
%TO.C, *%
X141376400Y-52120800D03*
X138836400Y-52120800D03*
D12*
X136296400Y-52120800D03*
%TD*%
D13*
%TO.C,GND      12V*%
X141528800Y-42824400D03*
G36*
G01*
X135548800Y-44374400D02*
X135548800Y-41274400D01*
G75*
G02*
X135798800Y-41024400I250000J0D01*
G01*
X137098800Y-41024400D01*
G75*
G02*
X137348800Y-41274400I0J-250000D01*
G01*
X137348800Y-44374400D01*
G75*
G02*
X137098800Y-44624400I-250000J0D01*
G01*
X135798800Y-44624400D01*
G75*
G02*
X135548800Y-44374400I0J250000D01*
G01*
G37*
%TD*%
D10*
%TO.C,X              ENTRADAS*%
X125018800Y-75895200D03*
X125018800Y-70815200D03*
X125018800Y-65735200D03*
X125018800Y-60655200D03*
X125018800Y-55575200D03*
G36*
G01*
X123468800Y-49595200D02*
X126568800Y-49595200D01*
G75*
G02*
X126818800Y-49845200I0J-250000D01*
G01*
X126818800Y-51145200D01*
G75*
G02*
X126568800Y-51395200I-250000J0D01*
G01*
X123468800Y-51395200D01*
G75*
G02*
X123218800Y-51145200I0J250000D01*
G01*
X123218800Y-49845200D01*
G75*
G02*
X123468800Y-49595200I250000J0D01*
G01*
G37*
%TD*%
D14*
%TO.C, *%
X124968000Y-41198800D03*
%TD*%
%TO.C, *%
X154178000Y-76454000D03*
%TD*%
M02*
