%TF.GenerationSoftware,KiCad,Pcbnew,(5.1.7)-1*%
%TF.CreationDate,2020-12-28T14:37:07+01:00*%
%TF.ProjectId,control_neumatica,636f6e74-726f-46c5-9f6e-65756d617469,rev?*%
%TF.SameCoordinates,Original*%
%TF.FileFunction,Legend,Top*%
%TF.FilePolarity,Positive*%
%FSLAX46Y46*%
G04 Gerber Fmt 4.6, Leading zero omitted, Abs format (unit mm)*
G04 Created by KiCad (PCBNEW (5.1.7)-1) date 2020-12-28 14:37:07*
%MOMM*%
%LPD*%
G01*
G04 APERTURE LIST*
%ADD10C,0.250000*%
%ADD11C,0.010000*%
%ADD12C,0.120000*%
%ADD13C,0.150000*%
G04 APERTURE END LIST*
D10*
X120620495Y-45019980D02*
X120620495Y-45829504D01*
X120668114Y-45924742D01*
X120715733Y-45972361D01*
X120810971Y-46019980D01*
X121001447Y-46019980D01*
X121096685Y-45972361D01*
X121144304Y-45924742D01*
X121191923Y-45829504D01*
X121191923Y-45019980D01*
X121620495Y-45734266D02*
X122096685Y-45734266D01*
X121525257Y-46019980D02*
X121858590Y-45019980D01*
X122191923Y-46019980D01*
X122525257Y-46019980D02*
X122525257Y-45019980D01*
X122525257Y-45496171D02*
X123096685Y-45496171D01*
X123096685Y-46019980D02*
X123096685Y-45019980D01*
X124906209Y-46019980D02*
X124572876Y-45543790D01*
X124334780Y-46019980D02*
X124334780Y-45019980D01*
X124715733Y-45019980D01*
X124810971Y-45067600D01*
X124858590Y-45115219D01*
X124906209Y-45210457D01*
X124906209Y-45353314D01*
X124858590Y-45448552D01*
X124810971Y-45496171D01*
X124715733Y-45543790D01*
X124334780Y-45543790D01*
X125525257Y-45019980D02*
X125715733Y-45019980D01*
X125810971Y-45067600D01*
X125906209Y-45162838D01*
X125953828Y-45353314D01*
X125953828Y-45686647D01*
X125906209Y-45877123D01*
X125810971Y-45972361D01*
X125715733Y-46019980D01*
X125525257Y-46019980D01*
X125430019Y-45972361D01*
X125334780Y-45877123D01*
X125287161Y-45686647D01*
X125287161Y-45353314D01*
X125334780Y-45162838D01*
X125430019Y-45067600D01*
X125525257Y-45019980D01*
X126715733Y-45496171D02*
X126858590Y-45543790D01*
X126906209Y-45591409D01*
X126953828Y-45686647D01*
X126953828Y-45829504D01*
X126906209Y-45924742D01*
X126858590Y-45972361D01*
X126763352Y-46019980D01*
X126382400Y-46019980D01*
X126382400Y-45019980D01*
X126715733Y-45019980D01*
X126810971Y-45067600D01*
X126858590Y-45115219D01*
X126906209Y-45210457D01*
X126906209Y-45305695D01*
X126858590Y-45400933D01*
X126810971Y-45448552D01*
X126715733Y-45496171D01*
X126382400Y-45496171D01*
X127572876Y-45019980D02*
X127763352Y-45019980D01*
X127858590Y-45067600D01*
X127953828Y-45162838D01*
X128001447Y-45353314D01*
X128001447Y-45686647D01*
X127953828Y-45877123D01*
X127858590Y-45972361D01*
X127763352Y-46019980D01*
X127572876Y-46019980D01*
X127477638Y-45972361D01*
X127382400Y-45877123D01*
X127334780Y-45686647D01*
X127334780Y-45353314D01*
X127382400Y-45162838D01*
X127477638Y-45067600D01*
X127572876Y-45019980D01*
X128287161Y-45019980D02*
X128858590Y-45019980D01*
X128572876Y-46019980D02*
X128572876Y-45019980D01*
X129191923Y-46019980D02*
X129191923Y-45019980D01*
X130239542Y-45924742D02*
X130191923Y-45972361D01*
X130049066Y-46019980D01*
X129953828Y-46019980D01*
X129810971Y-45972361D01*
X129715733Y-45877123D01*
X129668114Y-45781885D01*
X129620495Y-45591409D01*
X129620495Y-45448552D01*
X129668114Y-45258076D01*
X129715733Y-45162838D01*
X129810971Y-45067600D01*
X129953828Y-45019980D01*
X130049066Y-45019980D01*
X130191923Y-45067600D01*
X130239542Y-45115219D01*
X130620495Y-45972361D02*
X130763352Y-46019980D01*
X131001447Y-46019980D01*
X131096685Y-45972361D01*
X131144304Y-45924742D01*
X131191923Y-45829504D01*
X131191923Y-45734266D01*
X131144304Y-45639028D01*
X131096685Y-45591409D01*
X131001447Y-45543790D01*
X130810971Y-45496171D01*
X130715733Y-45448552D01*
X130668114Y-45400933D01*
X130620495Y-45305695D01*
X130620495Y-45210457D01*
X130668114Y-45115219D01*
X130715733Y-45067600D01*
X130810971Y-45019980D01*
X131049066Y-45019980D01*
X131191923Y-45067600D01*
D11*
%TO.C,G\u002A\u002A\u002A*%
G36*
X144634794Y-71810226D02*
G01*
X144736894Y-71895258D01*
X144792024Y-72107179D01*
X144821970Y-72503427D01*
X144833513Y-72768984D01*
X144872999Y-73743323D01*
X145813740Y-73743323D01*
X145853478Y-72836180D01*
X145880804Y-72355147D01*
X145925882Y-72083371D01*
X146012932Y-71961402D01*
X146166174Y-71929792D01*
X146223055Y-71929037D01*
X146405155Y-71946659D01*
X146503906Y-72041344D01*
X146544689Y-72275817D01*
X146552883Y-72712806D01*
X146552893Y-72744221D01*
X146523897Y-73358326D01*
X146418494Y-73766447D01*
X146209058Y-74026917D01*
X145867965Y-74198072D01*
X145863718Y-74199557D01*
X145399670Y-74325445D01*
X145038290Y-74305490D01*
X144649167Y-74127711D01*
X144570618Y-74080775D01*
X144348322Y-73933721D01*
X144218112Y-73781828D01*
X144155366Y-73553159D01*
X144135467Y-73175775D01*
X144133846Y-72804557D01*
X144138170Y-72291192D01*
X144163461Y-71990060D01*
X144228201Y-71844622D01*
X144350867Y-71798341D01*
X144463937Y-71794646D01*
X144634794Y-71810226D01*
G37*
X144634794Y-71810226D02*
X144736894Y-71895258D01*
X144792024Y-72107179D01*
X144821970Y-72503427D01*
X144833513Y-72768984D01*
X144872999Y-73743323D01*
X145813740Y-73743323D01*
X145853478Y-72836180D01*
X145880804Y-72355147D01*
X145925882Y-72083371D01*
X146012932Y-71961402D01*
X146166174Y-71929792D01*
X146223055Y-71929037D01*
X146405155Y-71946659D01*
X146503906Y-72041344D01*
X146544689Y-72275817D01*
X146552883Y-72712806D01*
X146552893Y-72744221D01*
X146523897Y-73358326D01*
X146418494Y-73766447D01*
X146209058Y-74026917D01*
X145867965Y-74198072D01*
X145863718Y-74199557D01*
X145399670Y-74325445D01*
X145038290Y-74305490D01*
X144649167Y-74127711D01*
X144570618Y-74080775D01*
X144348322Y-73933721D01*
X144218112Y-73781828D01*
X144155366Y-73553159D01*
X144135467Y-73175775D01*
X144133846Y-72804557D01*
X144138170Y-72291192D01*
X144163461Y-71990060D01*
X144228201Y-71844622D01*
X144350867Y-71798341D01*
X144463937Y-71794646D01*
X144634794Y-71810226D01*
G36*
X146418502Y-75616692D02*
G01*
X146409992Y-76190111D01*
X146379008Y-76541845D01*
X146317361Y-76718613D01*
X146216914Y-76767132D01*
X146095345Y-76700773D01*
X146032756Y-76467921D01*
X146015327Y-76027979D01*
X145993234Y-75623193D01*
X145936243Y-75354715D01*
X145880935Y-75288825D01*
X145753767Y-75387513D01*
X145727175Y-75702030D01*
X145739516Y-75859989D01*
X145663230Y-76059782D01*
X145550523Y-76095175D01*
X145342650Y-76205696D01*
X145184525Y-76431153D01*
X144968052Y-76697383D01*
X144641940Y-76767132D01*
X144252437Y-76767132D01*
X144858373Y-75658402D01*
X145149761Y-75137443D01*
X145361867Y-74808520D01*
X145538736Y-74624850D01*
X145724409Y-74539647D01*
X145941405Y-74507961D01*
X146418502Y-74466251D01*
X146418502Y-75616692D01*
G37*
X146418502Y-75616692D02*
X146409992Y-76190111D01*
X146379008Y-76541845D01*
X146317361Y-76718613D01*
X146216914Y-76767132D01*
X146095345Y-76700773D01*
X146032756Y-76467921D01*
X146015327Y-76027979D01*
X145993234Y-75623193D01*
X145936243Y-75354715D01*
X145880935Y-75288825D01*
X145753767Y-75387513D01*
X145727175Y-75702030D01*
X145739516Y-75859989D01*
X145663230Y-76059782D01*
X145550523Y-76095175D01*
X145342650Y-76205696D01*
X145184525Y-76431153D01*
X144968052Y-76697383D01*
X144641940Y-76767132D01*
X144252437Y-76767132D01*
X144858373Y-75658402D01*
X145149761Y-75137443D01*
X145361867Y-74808520D01*
X145538736Y-74624850D01*
X145724409Y-74539647D01*
X145941405Y-74507961D01*
X146418502Y-74466251D01*
X146418502Y-75616692D01*
G36*
X148602364Y-71929539D02*
G01*
X149517829Y-71942341D01*
X150208101Y-71990840D01*
X150716045Y-72090995D01*
X151084527Y-72258767D01*
X151356411Y-72510116D01*
X151574563Y-72861001D01*
X151674513Y-73073392D01*
X151834616Y-73502933D01*
X151865263Y-73843699D01*
X151797582Y-74178537D01*
X151485650Y-74870295D01*
X150999594Y-75358422D01*
X150346093Y-75637195D01*
X150034439Y-75689320D01*
X149372144Y-75759196D01*
X150651744Y-77674275D01*
X151931343Y-79589354D01*
X150114269Y-79571840D01*
X148854528Y-77631920D01*
X148394771Y-76927518D01*
X148052018Y-76418044D01*
X147798443Y-76071996D01*
X147606222Y-75857873D01*
X147447532Y-75744176D01*
X147294549Y-75699402D01*
X147141036Y-75692000D01*
X146687285Y-75692000D01*
X146687285Y-73882933D01*
X147447718Y-73882933D01*
X147601533Y-74200947D01*
X147877980Y-74420914D01*
X148211228Y-74505529D01*
X148535448Y-74417485D01*
X148734346Y-74213693D01*
X148974398Y-74000328D01*
X149173528Y-73944910D01*
X149454985Y-74050713D01*
X149612710Y-74213693D01*
X149877943Y-74417797D01*
X150249827Y-74481749D01*
X150598229Y-74392589D01*
X150692152Y-74321206D01*
X150813126Y-74073158D01*
X150853422Y-73786738D01*
X150746767Y-73409224D01*
X150479710Y-73160713D01*
X150131612Y-73062992D01*
X149781834Y-73137849D01*
X149509738Y-73407072D01*
X149504636Y-73416446D01*
X149313885Y-73625742D01*
X149173528Y-73676127D01*
X148961720Y-73569704D01*
X148842420Y-73416446D01*
X148559335Y-73126170D01*
X148186733Y-73030530D01*
X147814202Y-73123747D01*
X147531329Y-73400041D01*
X147482365Y-73504179D01*
X147447718Y-73882933D01*
X146687285Y-73882933D01*
X146687285Y-71929037D01*
X148602364Y-71929539D01*
G37*
X148602364Y-71929539D02*
X149517829Y-71942341D01*
X150208101Y-71990840D01*
X150716045Y-72090995D01*
X151084527Y-72258767D01*
X151356411Y-72510116D01*
X151574563Y-72861001D01*
X151674513Y-73073392D01*
X151834616Y-73502933D01*
X151865263Y-73843699D01*
X151797582Y-74178537D01*
X151485650Y-74870295D01*
X150999594Y-75358422D01*
X150346093Y-75637195D01*
X150034439Y-75689320D01*
X149372144Y-75759196D01*
X150651744Y-77674275D01*
X151931343Y-79589354D01*
X150114269Y-79571840D01*
X148854528Y-77631920D01*
X148394771Y-76927518D01*
X148052018Y-76418044D01*
X147798443Y-76071996D01*
X147606222Y-75857873D01*
X147447532Y-75744176D01*
X147294549Y-75699402D01*
X147141036Y-75692000D01*
X146687285Y-75692000D01*
X146687285Y-73882933D01*
X147447718Y-73882933D01*
X147601533Y-74200947D01*
X147877980Y-74420914D01*
X148211228Y-74505529D01*
X148535448Y-74417485D01*
X148734346Y-74213693D01*
X148974398Y-74000328D01*
X149173528Y-73944910D01*
X149454985Y-74050713D01*
X149612710Y-74213693D01*
X149877943Y-74417797D01*
X150249827Y-74481749D01*
X150598229Y-74392589D01*
X150692152Y-74321206D01*
X150813126Y-74073158D01*
X150853422Y-73786738D01*
X150746767Y-73409224D01*
X150479710Y-73160713D01*
X150131612Y-73062992D01*
X149781834Y-73137849D01*
X149509738Y-73407072D01*
X149504636Y-73416446D01*
X149313885Y-73625742D01*
X149173528Y-73676127D01*
X148961720Y-73569704D01*
X148842420Y-73416446D01*
X148559335Y-73126170D01*
X148186733Y-73030530D01*
X147814202Y-73123747D01*
X147531329Y-73400041D01*
X147482365Y-73504179D01*
X147447718Y-73882933D01*
X146687285Y-73882933D01*
X146687285Y-71929037D01*
X148602364Y-71929539D01*
G36*
X147124057Y-75826632D02*
G01*
X147415363Y-75864106D01*
X147641864Y-76016153D01*
X147886250Y-76342788D01*
X147930406Y-76411888D01*
X148104863Y-76711846D01*
X148213947Y-76991199D01*
X148272741Y-77326717D01*
X148296326Y-77795168D01*
X148299983Y-78293129D01*
X148299983Y-79589354D01*
X146687285Y-79589354D01*
X146687285Y-75826392D01*
X147124057Y-75826632D01*
G37*
X147124057Y-75826632D02*
X147415363Y-75864106D01*
X147641864Y-76016153D01*
X147886250Y-76342788D01*
X147930406Y-76411888D01*
X148104863Y-76711846D01*
X148213947Y-76991199D01*
X148272741Y-77326717D01*
X148296326Y-77795168D01*
X148299983Y-78293129D01*
X148299983Y-79589354D01*
X146687285Y-79589354D01*
X146687285Y-75826392D01*
X147124057Y-75826632D01*
G36*
X146267218Y-77052429D02*
G01*
X146349893Y-77135352D01*
X146395283Y-77334757D01*
X146414461Y-77700717D01*
X146418498Y-78283303D01*
X146418502Y-78312635D01*
X146414443Y-78906026D01*
X146395269Y-79280533D01*
X146350484Y-79486013D01*
X146269590Y-79572325D01*
X146149719Y-79589354D01*
X145950816Y-79523783D01*
X145882884Y-79282243D01*
X145880935Y-79197379D01*
X145932619Y-78894342D01*
X146048925Y-78737619D01*
X146030237Y-78697126D01*
X145798630Y-78667715D01*
X145578554Y-78659224D01*
X144940195Y-78648614D01*
X144940195Y-79118984D01*
X144915093Y-79437076D01*
X144802132Y-79567297D01*
X144604216Y-79589354D01*
X144448569Y-79580488D01*
X144350405Y-79520326D01*
X144296476Y-79358520D01*
X144273531Y-79044725D01*
X144268322Y-78528593D01*
X144268290Y-78447026D01*
X146015327Y-78447026D01*
X146082523Y-78514222D01*
X146149719Y-78447026D01*
X146082523Y-78379831D01*
X146015327Y-78447026D01*
X144268290Y-78447026D01*
X144268237Y-78312635D01*
X144270570Y-77721177D01*
X144286402Y-77348154D01*
X144328983Y-77143222D01*
X144411561Y-77056032D01*
X144547385Y-77036238D01*
X144604216Y-77035915D01*
X144831425Y-77071058D01*
X144924440Y-77229203D01*
X144940195Y-77506286D01*
X144963562Y-77822900D01*
X145076763Y-77952724D01*
X145316491Y-77976656D01*
X145638350Y-78019170D01*
X145820931Y-78104800D01*
X145894915Y-78077910D01*
X145911659Y-77807530D01*
X145901472Y-77634429D01*
X145886191Y-77263343D01*
X145937087Y-77087782D01*
X146081801Y-77037266D01*
X146136186Y-77035915D01*
X146267218Y-77052429D01*
G37*
X146267218Y-77052429D02*
X146349893Y-77135352D01*
X146395283Y-77334757D01*
X146414461Y-77700717D01*
X146418498Y-78283303D01*
X146418502Y-78312635D01*
X146414443Y-78906026D01*
X146395269Y-79280533D01*
X146350484Y-79486013D01*
X146269590Y-79572325D01*
X146149719Y-79589354D01*
X145950816Y-79523783D01*
X145882884Y-79282243D01*
X145880935Y-79197379D01*
X145932619Y-78894342D01*
X146048925Y-78737619D01*
X146030237Y-78697126D01*
X145798630Y-78667715D01*
X145578554Y-78659224D01*
X144940195Y-78648614D01*
X144940195Y-79118984D01*
X144915093Y-79437076D01*
X144802132Y-79567297D01*
X144604216Y-79589354D01*
X144448569Y-79580488D01*
X144350405Y-79520326D01*
X144296476Y-79358520D01*
X144273531Y-79044725D01*
X144268322Y-78528593D01*
X144268290Y-78447026D01*
X146015327Y-78447026D01*
X146082523Y-78514222D01*
X146149719Y-78447026D01*
X146082523Y-78379831D01*
X146015327Y-78447026D01*
X144268290Y-78447026D01*
X144268237Y-78312635D01*
X144270570Y-77721177D01*
X144286402Y-77348154D01*
X144328983Y-77143222D01*
X144411561Y-77056032D01*
X144547385Y-77036238D01*
X144604216Y-77035915D01*
X144831425Y-77071058D01*
X144924440Y-77229203D01*
X144940195Y-77506286D01*
X144963562Y-77822900D01*
X145076763Y-77952724D01*
X145316491Y-77976656D01*
X145638350Y-78019170D01*
X145820931Y-78104800D01*
X145894915Y-78077910D01*
X145911659Y-77807530D01*
X145901472Y-77634429D01*
X145886191Y-77263343D01*
X145937087Y-77087782D01*
X146081801Y-77037266D01*
X146136186Y-77035915D01*
X146267218Y-77052429D01*
D12*
%TO.C,SALIDAS                12V*%
X156250400Y-40123600D02*
X148780400Y-40123600D01*
X148780400Y-40123600D02*
X148780400Y-70823600D01*
X148780400Y-70823600D02*
X156250400Y-70823600D01*
X156250400Y-70823600D02*
X156250400Y-40123600D01*
X149640400Y-42023600D02*
X149640400Y-41273600D01*
X149640400Y-41273600D02*
X153940400Y-41273600D01*
X153940400Y-41273600D02*
X153940400Y-42023600D01*
X153940400Y-42023600D02*
X154290400Y-42023600D01*
X154290400Y-42023600D02*
X154290400Y-41523600D01*
X154290400Y-41523600D02*
X155290400Y-41273600D01*
X155290400Y-41273600D02*
X155290400Y-44273600D01*
X155290400Y-44273600D02*
X154290400Y-44023600D01*
X154290400Y-44023600D02*
X154290400Y-43523600D01*
X154290400Y-43523600D02*
X153940400Y-43523600D01*
X153940400Y-43523600D02*
X153940400Y-44273600D01*
X153940400Y-44273600D02*
X149640400Y-44273600D01*
X149640400Y-44273600D02*
X149640400Y-43523600D01*
X149640400Y-47103600D02*
X149640400Y-46353600D01*
X149640400Y-46353600D02*
X153940400Y-46353600D01*
X153940400Y-46353600D02*
X153940400Y-47103600D01*
X153940400Y-47103600D02*
X154290400Y-47103600D01*
X154290400Y-47103600D02*
X154290400Y-46603600D01*
X154290400Y-46603600D02*
X155290400Y-46353600D01*
X155290400Y-46353600D02*
X155290400Y-49353600D01*
X155290400Y-49353600D02*
X154290400Y-49103600D01*
X154290400Y-49103600D02*
X154290400Y-48603600D01*
X154290400Y-48603600D02*
X153940400Y-48603600D01*
X153940400Y-48603600D02*
X153940400Y-49353600D01*
X153940400Y-49353600D02*
X149640400Y-49353600D01*
X149640400Y-49353600D02*
X149640400Y-48603600D01*
X149640400Y-52183600D02*
X149640400Y-51433600D01*
X149640400Y-51433600D02*
X153940400Y-51433600D01*
X153940400Y-51433600D02*
X153940400Y-52183600D01*
X153940400Y-52183600D02*
X154290400Y-52183600D01*
X154290400Y-52183600D02*
X154290400Y-51683600D01*
X154290400Y-51683600D02*
X155290400Y-51433600D01*
X155290400Y-51433600D02*
X155290400Y-54433600D01*
X155290400Y-54433600D02*
X154290400Y-54183600D01*
X154290400Y-54183600D02*
X154290400Y-53683600D01*
X154290400Y-53683600D02*
X153940400Y-53683600D01*
X153940400Y-53683600D02*
X153940400Y-54433600D01*
X153940400Y-54433600D02*
X149640400Y-54433600D01*
X149640400Y-54433600D02*
X149640400Y-53683600D01*
X149640400Y-57263600D02*
X149640400Y-56513600D01*
X149640400Y-56513600D02*
X153940400Y-56513600D01*
X153940400Y-56513600D02*
X153940400Y-57263600D01*
X153940400Y-57263600D02*
X154290400Y-57263600D01*
X154290400Y-57263600D02*
X154290400Y-56763600D01*
X154290400Y-56763600D02*
X155290400Y-56513600D01*
X155290400Y-56513600D02*
X155290400Y-59513600D01*
X155290400Y-59513600D02*
X154290400Y-59263600D01*
X154290400Y-59263600D02*
X154290400Y-58763600D01*
X154290400Y-58763600D02*
X153940400Y-58763600D01*
X153940400Y-58763600D02*
X153940400Y-59513600D01*
X153940400Y-59513600D02*
X149640400Y-59513600D01*
X149640400Y-59513600D02*
X149640400Y-58763600D01*
X149640400Y-62343600D02*
X149640400Y-61593600D01*
X149640400Y-61593600D02*
X153940400Y-61593600D01*
X153940400Y-61593600D02*
X153940400Y-62343600D01*
X153940400Y-62343600D02*
X154290400Y-62343600D01*
X154290400Y-62343600D02*
X154290400Y-61843600D01*
X154290400Y-61843600D02*
X155290400Y-61593600D01*
X155290400Y-61593600D02*
X155290400Y-64593600D01*
X155290400Y-64593600D02*
X154290400Y-64343600D01*
X154290400Y-64343600D02*
X154290400Y-63843600D01*
X154290400Y-63843600D02*
X153940400Y-63843600D01*
X153940400Y-63843600D02*
X153940400Y-64593600D01*
X153940400Y-64593600D02*
X149640400Y-64593600D01*
X149640400Y-64593600D02*
X149640400Y-63843600D01*
X149640400Y-67423600D02*
X149640400Y-66673600D01*
X149640400Y-66673600D02*
X153940400Y-66673600D01*
X153940400Y-66673600D02*
X153940400Y-67423600D01*
X153940400Y-67423600D02*
X154290400Y-67423600D01*
X154290400Y-67423600D02*
X154290400Y-66923600D01*
X154290400Y-66923600D02*
X155290400Y-66673600D01*
X155290400Y-66673600D02*
X155290400Y-69673600D01*
X155290400Y-69673600D02*
X154290400Y-69423600D01*
X154290400Y-69423600D02*
X154290400Y-68923600D01*
X154290400Y-68923600D02*
X153940400Y-68923600D01*
X153940400Y-68923600D02*
X153940400Y-69673600D01*
X153940400Y-69673600D02*
X149640400Y-69673600D01*
X149640400Y-69673600D02*
X149640400Y-68923600D01*
X155390400Y-39733600D02*
X156640400Y-39733600D01*
X156640400Y-39733600D02*
X156640400Y-41733600D01*
X149640555Y-68923247D02*
G75*
G03*
X149640400Y-67423600I-1700155J749647D01*
G01*
X149640555Y-63843247D02*
G75*
G03*
X149640400Y-62343600I-1700155J749647D01*
G01*
X149640555Y-58763247D02*
G75*
G03*
X149640400Y-57263600I-1700155J749647D01*
G01*
X149640555Y-53683247D02*
G75*
G03*
X149640400Y-52183600I-1700155J749647D01*
G01*
X149640555Y-48603247D02*
G75*
G03*
X149640400Y-47103600I-1700155J749647D01*
G01*
X149640555Y-43523247D02*
G75*
G03*
X149640400Y-42023600I-1700155J749647D01*
G01*
%TO.C,S   D   G*%
X137515600Y-74939200D02*
X137515600Y-72279200D01*
X137515600Y-74939200D02*
X142655600Y-74939200D01*
X142655600Y-74939200D02*
X142655600Y-72279200D01*
X137515600Y-72279200D02*
X142655600Y-72279200D01*
X134915600Y-72279200D02*
X136245600Y-72279200D01*
X134915600Y-73609200D02*
X134915600Y-72279200D01*
%TO.C, *%
X137515600Y-69757600D02*
X137515600Y-67097600D01*
X137515600Y-69757600D02*
X142655600Y-69757600D01*
X142655600Y-69757600D02*
X142655600Y-67097600D01*
X137515600Y-67097600D02*
X142655600Y-67097600D01*
X134915600Y-67097600D02*
X136245600Y-67097600D01*
X134915600Y-68427600D02*
X134915600Y-67097600D01*
X137566400Y-64322000D02*
X137566400Y-61662000D01*
X137566400Y-64322000D02*
X142706400Y-64322000D01*
X142706400Y-64322000D02*
X142706400Y-61662000D01*
X137566400Y-61662000D02*
X142706400Y-61662000D01*
X134966400Y-61662000D02*
X136296400Y-61662000D01*
X134966400Y-62992000D02*
X134966400Y-61662000D01*
X137566400Y-58784800D02*
X137566400Y-56124800D01*
X137566400Y-58784800D02*
X142706400Y-58784800D01*
X142706400Y-58784800D02*
X142706400Y-56124800D01*
X137566400Y-56124800D02*
X142706400Y-56124800D01*
X134966400Y-56124800D02*
X136296400Y-56124800D01*
X134966400Y-57454800D02*
X134966400Y-56124800D01*
X137566400Y-53450800D02*
X137566400Y-50790800D01*
X137566400Y-53450800D02*
X142706400Y-53450800D01*
X142706400Y-53450800D02*
X142706400Y-50790800D01*
X137566400Y-50790800D02*
X142706400Y-50790800D01*
X134966400Y-50790800D02*
X136296400Y-50790800D01*
X134966400Y-52120800D02*
X134966400Y-50790800D01*
%TO.C,GND      12V*%
X133798800Y-38364400D02*
X133798800Y-45834400D01*
X133798800Y-45834400D02*
X144178800Y-45834400D01*
X144178800Y-45834400D02*
X144178800Y-38364400D01*
X144178800Y-38364400D02*
X133798800Y-38364400D01*
X135698800Y-44974400D02*
X134948800Y-44974400D01*
X134948800Y-44974400D02*
X134948800Y-40674400D01*
X134948800Y-40674400D02*
X135698800Y-40674400D01*
X135698800Y-40674400D02*
X135698800Y-40324400D01*
X135698800Y-40324400D02*
X135198800Y-40324400D01*
X135198800Y-40324400D02*
X134948800Y-39324400D01*
X134948800Y-39324400D02*
X137948800Y-39324400D01*
X137948800Y-39324400D02*
X137698800Y-40324400D01*
X137698800Y-40324400D02*
X137198800Y-40324400D01*
X137198800Y-40324400D02*
X137198800Y-40674400D01*
X137198800Y-40674400D02*
X137948800Y-40674400D01*
X137948800Y-40674400D02*
X137948800Y-44974400D01*
X137948800Y-44974400D02*
X137198800Y-44974400D01*
X140778800Y-44974400D02*
X140028800Y-44974400D01*
X140028800Y-44974400D02*
X140028800Y-40674400D01*
X140028800Y-40674400D02*
X140778800Y-40674400D01*
X140778800Y-40674400D02*
X140778800Y-40324400D01*
X140778800Y-40324400D02*
X140278800Y-40324400D01*
X140278800Y-40324400D02*
X140028800Y-39324400D01*
X140028800Y-39324400D02*
X143028800Y-39324400D01*
X143028800Y-39324400D02*
X142778800Y-40324400D01*
X142778800Y-40324400D02*
X142278800Y-40324400D01*
X142278800Y-40324400D02*
X142278800Y-40674400D01*
X142278800Y-40674400D02*
X143028800Y-40674400D01*
X143028800Y-40674400D02*
X143028800Y-44974400D01*
X143028800Y-44974400D02*
X142278800Y-44974400D01*
X133408800Y-39224400D02*
X133408800Y-37974400D01*
X133408800Y-37974400D02*
X135408800Y-37974400D01*
X142278447Y-44974245D02*
G75*
G03*
X140778800Y-44974400I-749647J-1700155D01*
G01*
X137198447Y-44974245D02*
G75*
G03*
X135698800Y-44974400I-749647J-1700155D01*
G01*
%TO.C,X              ENTRADAS*%
X129478800Y-47845200D02*
X122008800Y-47845200D01*
X122008800Y-47845200D02*
X122008800Y-78545200D01*
X122008800Y-78545200D02*
X129478800Y-78545200D01*
X129478800Y-78545200D02*
X129478800Y-47845200D01*
X122868800Y-49745200D02*
X122868800Y-48995200D01*
X122868800Y-48995200D02*
X127168800Y-48995200D01*
X127168800Y-48995200D02*
X127168800Y-49745200D01*
X127168800Y-49745200D02*
X127518800Y-49745200D01*
X127518800Y-49745200D02*
X127518800Y-49245200D01*
X127518800Y-49245200D02*
X128518800Y-48995200D01*
X128518800Y-48995200D02*
X128518800Y-51995200D01*
X128518800Y-51995200D02*
X127518800Y-51745200D01*
X127518800Y-51745200D02*
X127518800Y-51245200D01*
X127518800Y-51245200D02*
X127168800Y-51245200D01*
X127168800Y-51245200D02*
X127168800Y-51995200D01*
X127168800Y-51995200D02*
X122868800Y-51995200D01*
X122868800Y-51995200D02*
X122868800Y-51245200D01*
X122868800Y-54825200D02*
X122868800Y-54075200D01*
X122868800Y-54075200D02*
X127168800Y-54075200D01*
X127168800Y-54075200D02*
X127168800Y-54825200D01*
X127168800Y-54825200D02*
X127518800Y-54825200D01*
X127518800Y-54825200D02*
X127518800Y-54325200D01*
X127518800Y-54325200D02*
X128518800Y-54075200D01*
X128518800Y-54075200D02*
X128518800Y-57075200D01*
X128518800Y-57075200D02*
X127518800Y-56825200D01*
X127518800Y-56825200D02*
X127518800Y-56325200D01*
X127518800Y-56325200D02*
X127168800Y-56325200D01*
X127168800Y-56325200D02*
X127168800Y-57075200D01*
X127168800Y-57075200D02*
X122868800Y-57075200D01*
X122868800Y-57075200D02*
X122868800Y-56325200D01*
X122868800Y-59905200D02*
X122868800Y-59155200D01*
X122868800Y-59155200D02*
X127168800Y-59155200D01*
X127168800Y-59155200D02*
X127168800Y-59905200D01*
X127168800Y-59905200D02*
X127518800Y-59905200D01*
X127518800Y-59905200D02*
X127518800Y-59405200D01*
X127518800Y-59405200D02*
X128518800Y-59155200D01*
X128518800Y-59155200D02*
X128518800Y-62155200D01*
X128518800Y-62155200D02*
X127518800Y-61905200D01*
X127518800Y-61905200D02*
X127518800Y-61405200D01*
X127518800Y-61405200D02*
X127168800Y-61405200D01*
X127168800Y-61405200D02*
X127168800Y-62155200D01*
X127168800Y-62155200D02*
X122868800Y-62155200D01*
X122868800Y-62155200D02*
X122868800Y-61405200D01*
X122868800Y-64985200D02*
X122868800Y-64235200D01*
X122868800Y-64235200D02*
X127168800Y-64235200D01*
X127168800Y-64235200D02*
X127168800Y-64985200D01*
X127168800Y-64985200D02*
X127518800Y-64985200D01*
X127518800Y-64985200D02*
X127518800Y-64485200D01*
X127518800Y-64485200D02*
X128518800Y-64235200D01*
X128518800Y-64235200D02*
X128518800Y-67235200D01*
X128518800Y-67235200D02*
X127518800Y-66985200D01*
X127518800Y-66985200D02*
X127518800Y-66485200D01*
X127518800Y-66485200D02*
X127168800Y-66485200D01*
X127168800Y-66485200D02*
X127168800Y-67235200D01*
X127168800Y-67235200D02*
X122868800Y-67235200D01*
X122868800Y-67235200D02*
X122868800Y-66485200D01*
X122868800Y-70065200D02*
X122868800Y-69315200D01*
X122868800Y-69315200D02*
X127168800Y-69315200D01*
X127168800Y-69315200D02*
X127168800Y-70065200D01*
X127168800Y-70065200D02*
X127518800Y-70065200D01*
X127518800Y-70065200D02*
X127518800Y-69565200D01*
X127518800Y-69565200D02*
X128518800Y-69315200D01*
X128518800Y-69315200D02*
X128518800Y-72315200D01*
X128518800Y-72315200D02*
X127518800Y-72065200D01*
X127518800Y-72065200D02*
X127518800Y-71565200D01*
X127518800Y-71565200D02*
X127168800Y-71565200D01*
X127168800Y-71565200D02*
X127168800Y-72315200D01*
X127168800Y-72315200D02*
X122868800Y-72315200D01*
X122868800Y-72315200D02*
X122868800Y-71565200D01*
X122868800Y-75145200D02*
X122868800Y-74395200D01*
X122868800Y-74395200D02*
X127168800Y-74395200D01*
X127168800Y-74395200D02*
X127168800Y-75145200D01*
X127168800Y-75145200D02*
X127518800Y-75145200D01*
X127518800Y-75145200D02*
X127518800Y-74645200D01*
X127518800Y-74645200D02*
X128518800Y-74395200D01*
X128518800Y-74395200D02*
X128518800Y-77395200D01*
X128518800Y-77395200D02*
X127518800Y-77145200D01*
X127518800Y-77145200D02*
X127518800Y-76645200D01*
X127518800Y-76645200D02*
X127168800Y-76645200D01*
X127168800Y-76645200D02*
X127168800Y-77395200D01*
X127168800Y-77395200D02*
X122868800Y-77395200D01*
X122868800Y-77395200D02*
X122868800Y-76645200D01*
X128618800Y-47455200D02*
X129868800Y-47455200D01*
X129868800Y-47455200D02*
X129868800Y-49455200D01*
X122868955Y-76644847D02*
G75*
G03*
X122868800Y-75145200I-1700155J749647D01*
G01*
X122868955Y-71564847D02*
G75*
G03*
X122868800Y-70065200I-1700155J749647D01*
G01*
X122868955Y-66484847D02*
G75*
G03*
X122868800Y-64985200I-1700155J749647D01*
G01*
X122868955Y-61404847D02*
G75*
G03*
X122868800Y-59905200I-1700155J749647D01*
G01*
X122868955Y-56324847D02*
G75*
G03*
X122868800Y-54825200I-1700155J749647D01*
G01*
X122868955Y-51244847D02*
G75*
G03*
X122868800Y-49745200I-1700155J749647D01*
G01*
%TO.C,SALIDAS                12V*%
D13*
X147572361Y-61901695D02*
X147619980Y-61758838D01*
X147619980Y-61520742D01*
X147572361Y-61425504D01*
X147524742Y-61377885D01*
X147429504Y-61330266D01*
X147334266Y-61330266D01*
X147239028Y-61377885D01*
X147191409Y-61425504D01*
X147143790Y-61520742D01*
X147096171Y-61711219D01*
X147048552Y-61806457D01*
X147000933Y-61854076D01*
X146905695Y-61901695D01*
X146810457Y-61901695D01*
X146715219Y-61854076D01*
X146667600Y-61806457D01*
X146619980Y-61711219D01*
X146619980Y-61473123D01*
X146667600Y-61330266D01*
X147334266Y-60949314D02*
X147334266Y-60473123D01*
X147619980Y-61044552D02*
X146619980Y-60711219D01*
X147619980Y-60377885D01*
X147619980Y-59568361D02*
X147619980Y-60044552D01*
X146619980Y-60044552D01*
X147619980Y-59235028D02*
X146619980Y-59235028D01*
X147619980Y-58758838D02*
X146619980Y-58758838D01*
X146619980Y-58520742D01*
X146667600Y-58377885D01*
X146762838Y-58282647D01*
X146858076Y-58235028D01*
X147048552Y-58187409D01*
X147191409Y-58187409D01*
X147381885Y-58235028D01*
X147477123Y-58282647D01*
X147572361Y-58377885D01*
X147619980Y-58520742D01*
X147619980Y-58758838D01*
X147334266Y-57806457D02*
X147334266Y-57330266D01*
X147619980Y-57901695D02*
X146619980Y-57568361D01*
X147619980Y-57235028D01*
X147572361Y-56949314D02*
X147619980Y-56806457D01*
X147619980Y-56568361D01*
X147572361Y-56473123D01*
X147524742Y-56425504D01*
X147429504Y-56377885D01*
X147334266Y-56377885D01*
X147239028Y-56425504D01*
X147191409Y-56473123D01*
X147143790Y-56568361D01*
X147096171Y-56758838D01*
X147048552Y-56854076D01*
X147000933Y-56901695D01*
X146905695Y-56949314D01*
X146810457Y-56949314D01*
X146715219Y-56901695D01*
X146667600Y-56854076D01*
X146619980Y-56758838D01*
X146619980Y-56520742D01*
X146667600Y-56377885D01*
X147619980Y-43235028D02*
X147619980Y-43806457D01*
X147619980Y-43520742D02*
X146619980Y-43520742D01*
X146762838Y-43615980D01*
X146858076Y-43711219D01*
X146905695Y-43806457D01*
X146715219Y-42854076D02*
X146667600Y-42806457D01*
X146619980Y-42711219D01*
X146619980Y-42473123D01*
X146667600Y-42377885D01*
X146715219Y-42330266D01*
X146810457Y-42282647D01*
X146905695Y-42282647D01*
X147048552Y-42330266D01*
X147619980Y-42901695D01*
X147619980Y-42282647D01*
X146619980Y-41996933D02*
X147619980Y-41663600D01*
X146619980Y-41330266D01*
%TO.C,S   D   G*%
X135163371Y-76807961D02*
X135306228Y-76855580D01*
X135544323Y-76855580D01*
X135639561Y-76807961D01*
X135687180Y-76760342D01*
X135734800Y-76665104D01*
X135734800Y-76569866D01*
X135687180Y-76474628D01*
X135639561Y-76427009D01*
X135544323Y-76379390D01*
X135353847Y-76331771D01*
X135258609Y-76284152D01*
X135210990Y-76236533D01*
X135163371Y-76141295D01*
X135163371Y-76046057D01*
X135210990Y-75950819D01*
X135258609Y-75903200D01*
X135353847Y-75855580D01*
X135591942Y-75855580D01*
X135734800Y-75903200D01*
X138449085Y-76855580D02*
X138449085Y-75855580D01*
X138687180Y-75855580D01*
X138830038Y-75903200D01*
X138925276Y-75998438D01*
X138972895Y-76093676D01*
X139020514Y-76284152D01*
X139020514Y-76427009D01*
X138972895Y-76617485D01*
X138925276Y-76712723D01*
X138830038Y-76807961D01*
X138687180Y-76855580D01*
X138449085Y-76855580D01*
X142258609Y-75903200D02*
X142163371Y-75855580D01*
X142020514Y-75855580D01*
X141877657Y-75903200D01*
X141782419Y-75998438D01*
X141734800Y-76093676D01*
X141687180Y-76284152D01*
X141687180Y-76427009D01*
X141734800Y-76617485D01*
X141782419Y-76712723D01*
X141877657Y-76807961D01*
X142020514Y-76855580D01*
X142115752Y-76855580D01*
X142258609Y-76807961D01*
X142306228Y-76760342D01*
X142306228Y-76427009D01*
X142115752Y-76427009D01*
%TO.C, *%
%TO.C,GND      12V*%
X134357028Y-46337600D02*
X134261790Y-46289980D01*
X134118933Y-46289980D01*
X133976076Y-46337600D01*
X133880838Y-46432838D01*
X133833219Y-46528076D01*
X133785600Y-46718552D01*
X133785600Y-46861409D01*
X133833219Y-47051885D01*
X133880838Y-47147123D01*
X133976076Y-47242361D01*
X134118933Y-47289980D01*
X134214171Y-47289980D01*
X134357028Y-47242361D01*
X134404647Y-47194742D01*
X134404647Y-46861409D01*
X134214171Y-46861409D01*
X134833219Y-47289980D02*
X134833219Y-46289980D01*
X135404647Y-47289980D01*
X135404647Y-46289980D01*
X135880838Y-47289980D02*
X135880838Y-46289980D01*
X136118933Y-46289980D01*
X136261790Y-46337600D01*
X136357028Y-46432838D01*
X136404647Y-46528076D01*
X136452266Y-46718552D01*
X136452266Y-46861409D01*
X136404647Y-47051885D01*
X136357028Y-47147123D01*
X136261790Y-47242361D01*
X136118933Y-47289980D01*
X135880838Y-47289980D01*
X141976076Y-47289980D02*
X141404647Y-47289980D01*
X141690361Y-47289980D02*
X141690361Y-46289980D01*
X141595123Y-46432838D01*
X141499885Y-46528076D01*
X141404647Y-46575695D01*
X142357028Y-46385219D02*
X142404647Y-46337600D01*
X142499885Y-46289980D01*
X142737980Y-46289980D01*
X142833219Y-46337600D01*
X142880838Y-46385219D01*
X142928457Y-46480457D01*
X142928457Y-46575695D01*
X142880838Y-46718552D01*
X142309409Y-47289980D01*
X142928457Y-47289980D01*
X143214171Y-46289980D02*
X143547504Y-47289980D01*
X143880838Y-46289980D01*
%TO.C,X              ENTRADAS*%
X130414780Y-76768742D02*
X131414780Y-76102076D01*
X130414780Y-76102076D02*
X131414780Y-76768742D01*
X130890971Y-65054457D02*
X130890971Y-64721123D01*
X131414780Y-64578266D02*
X131414780Y-65054457D01*
X130414780Y-65054457D01*
X130414780Y-64578266D01*
X131414780Y-64149695D02*
X130414780Y-64149695D01*
X131414780Y-63578266D01*
X130414780Y-63578266D01*
X130414780Y-63244933D02*
X130414780Y-62673504D01*
X131414780Y-62959219D02*
X130414780Y-62959219D01*
X131414780Y-61768742D02*
X130938590Y-62102076D01*
X131414780Y-62340171D02*
X130414780Y-62340171D01*
X130414780Y-61959219D01*
X130462400Y-61863980D01*
X130510019Y-61816361D01*
X130605257Y-61768742D01*
X130748114Y-61768742D01*
X130843352Y-61816361D01*
X130890971Y-61863980D01*
X130938590Y-61959219D01*
X130938590Y-62340171D01*
X131129066Y-61387790D02*
X131129066Y-60911600D01*
X131414780Y-61483028D02*
X130414780Y-61149695D01*
X131414780Y-60816361D01*
X131414780Y-60483028D02*
X130414780Y-60483028D01*
X130414780Y-60244933D01*
X130462400Y-60102076D01*
X130557638Y-60006838D01*
X130652876Y-59959219D01*
X130843352Y-59911600D01*
X130986209Y-59911600D01*
X131176685Y-59959219D01*
X131271923Y-60006838D01*
X131367161Y-60102076D01*
X131414780Y-60244933D01*
X131414780Y-60483028D01*
X131129066Y-59530647D02*
X131129066Y-59054457D01*
X131414780Y-59625885D02*
X130414780Y-59292552D01*
X131414780Y-58959219D01*
X131367161Y-58673504D02*
X131414780Y-58530647D01*
X131414780Y-58292552D01*
X131367161Y-58197314D01*
X131319542Y-58149695D01*
X131224304Y-58102076D01*
X131129066Y-58102076D01*
X131033828Y-58149695D01*
X130986209Y-58197314D01*
X130938590Y-58292552D01*
X130890971Y-58483028D01*
X130843352Y-58578266D01*
X130795733Y-58625885D01*
X130700495Y-58673504D01*
X130605257Y-58673504D01*
X130510019Y-58625885D01*
X130462400Y-58578266D01*
X130414780Y-58483028D01*
X130414780Y-58244933D01*
X130462400Y-58102076D01*
%TO.C, *%
%TD*%
M02*
