%TF.GenerationSoftware,KiCad,Pcbnew,(5.1.10)-1*%
%TF.CreationDate,2021-05-29T12:40:01+02:00*%
%TF.ProjectId,potencia,706f7465-6e63-4696-912e-6b696361645f,rev?*%
%TF.SameCoordinates,Original*%
%TF.FileFunction,Copper,L1,Top*%
%TF.FilePolarity,Positive*%
%FSLAX46Y46*%
G04 Gerber Fmt 4.6, Leading zero omitted, Abs format (unit mm)*
G04 Created by KiCad (PCBNEW (5.1.10)-1) date 2021-05-29 12:40:01*
%MOMM*%
%LPD*%
G01*
G04 APERTURE LIST*
%TA.AperFunction,ComponentPad*%
%ADD10O,1.400000X1.400000*%
%TD*%
%TA.AperFunction,ComponentPad*%
%ADD11C,1.400000*%
%TD*%
%TA.AperFunction,ComponentPad*%
%ADD12C,2.000000*%
%TD*%
%TA.AperFunction,ComponentPad*%
%ADD13C,2.500000*%
%TD*%
%TA.AperFunction,ComponentPad*%
%ADD14R,1.700000X1.700000*%
%TD*%
%TA.AperFunction,ComponentPad*%
%ADD15O,1.700000X1.700000*%
%TD*%
%TA.AperFunction,ViaPad*%
%ADD16C,3.000000*%
%TD*%
%TA.AperFunction,Conductor*%
%ADD17C,2.500000*%
%TD*%
G04 APERTURE END LIST*
D10*
%TO.P,R5,2*%
%TO.N,5.2*%
X133197600Y-100406200D03*
D11*
%TO.P,R5,1*%
%TO.N,Net-(Extra1-Pad2)*%
X138277600Y-100406200D03*
%TD*%
D10*
%TO.P,R4,2*%
%TO.N,5.1*%
X129946400Y-126060200D03*
D11*
%TO.P,R4,1*%
%TO.N,Net-(F5-Pad2)*%
X135026400Y-126060200D03*
%TD*%
D10*
%TO.P,R3,2*%
%TO.N,12.2*%
X183273700Y-55867300D03*
D11*
%TO.P,R3,1*%
%TO.N,Net-(Extra1-Pad3)*%
X178193700Y-55867300D03*
%TD*%
D10*
%TO.P,R2,2*%
%TO.N,12.1*%
X178181000Y-123278900D03*
D11*
%TO.P,R2,1*%
%TO.N,Net-(F3-Pad2)*%
X183261000Y-123278900D03*
%TD*%
D10*
%TO.P,R1,2*%
%TO.N,5.3*%
X136309100Y-65620900D03*
D11*
%TO.P,R1,1*%
%TO.N,Net-(F2-Pad2)*%
X141389100Y-65620900D03*
%TD*%
D12*
%TO.P,F5,2*%
%TO.N,Net-(F5-Pad2)*%
X134602700Y-119827500D03*
%TO.P,F5,1*%
%TO.N,5.1*%
X129552700Y-118427500D03*
%TD*%
%TO.P,F4,2*%
%TO.N,Net-(Extra1-Pad3)*%
X179468300Y-60449000D03*
%TO.P,F4,1*%
%TO.N,12.2*%
X184518300Y-61849000D03*
%TD*%
%TO.P,F3,2*%
%TO.N,Net-(F3-Pad2)*%
X183370700Y-116830300D03*
%TO.P,F3,1*%
%TO.N,12.1*%
X178320700Y-115430300D03*
%TD*%
%TO.P,F2,2*%
%TO.N,Net-(F2-Pad2)*%
X141371800Y-59019900D03*
%TO.P,F2,1*%
%TO.N,5.3*%
X136321800Y-57619900D03*
%TD*%
%TO.P,F1,2*%
%TO.N,Net-(Extra1-Pad2)*%
X138146000Y-93576600D03*
%TO.P,F1,1*%
%TO.N,5.2*%
X133096000Y-92176600D03*
%TD*%
D13*
%TO.P,Salida1,6*%
%TO.N,Net-(Extra1-Pad3)*%
X166370000Y-154305000D03*
%TO.P,Salida1,1*%
%TO.N,Net-(F5-Pad2)*%
X140970000Y-154305000D03*
%TO.P,Salida1,2*%
%TO.N,Net-(Extra1-Pad2)*%
X146050000Y-154305000D03*
%TO.P,Salida1,4*%
%TO.N,GND*%
X156210000Y-154305000D03*
%TO.P,Salida1,3*%
%TO.N,Net-(F2-Pad2)*%
X151130000Y-154305000D03*
%TO.P,Salida1,5*%
%TO.N,Net-(F3-Pad2)*%
X161290000Y-154305000D03*
%TD*%
%TO.P,Extra1,4*%
%TO.N,GND*%
X189230000Y-154305000D03*
%TO.P,Extra1,2*%
%TO.N,Net-(Extra1-Pad2)*%
X179070000Y-154305000D03*
%TO.P,Extra1,3*%
%TO.N,Net-(Extra1-Pad3)*%
X184150000Y-154305000D03*
%TO.P,Extra1,1*%
%TO.N,GND*%
X173990000Y-154305000D03*
%TD*%
%TO.P,Alimentaci\u00F3n1,4*%
%TO.N,+15V*%
X133350000Y-154305000D03*
%TO.P,Alimentaci\u00F3n1,2*%
%TO.N,GND*%
X123190000Y-154305000D03*
%TO.P,Alimentaci\u00F3n1,3*%
%TO.N,+BATT*%
X128270000Y-154305000D03*
%TO.P,Alimentaci\u00F3n1,1*%
%TO.N,GND*%
X118110000Y-154305000D03*
%TD*%
D14*
%TO.P,NI12.1,1*%
%TO.N,GND*%
X188722000Y-90932000D03*
%TD*%
%TO.P,NI12.2,1*%
%TO.N,GND*%
X188722000Y-143891000D03*
%TD*%
%TO.P,NO12.1,1*%
%TO.N,GND*%
X188722000Y-50800000D03*
%TD*%
%TO.P,NO12.2,1*%
%TO.N,GND*%
X188722000Y-103759000D03*
%TD*%
%TO.P,PI12.1,1*%
%TO.N,+15V*%
X170688000Y-90932000D03*
%TD*%
%TO.P,PI12.2,1*%
%TO.N,+15V*%
X170688000Y-143891000D03*
%TD*%
%TO.P,PO12.2,1*%
%TO.N,12.1*%
X170688000Y-103759000D03*
%TD*%
%TO.P,PO12.1,1*%
%TO.N,12.2*%
X170688000Y-50800000D03*
%TD*%
%TO.P,Regulador5.3,1*%
%TO.N,+BATT*%
X118872000Y-56769000D03*
D15*
%TO.P,Regulador5.3,2*%
%TO.N,Net-(Regulador5.3-Pad2)*%
X118872000Y-59309000D03*
%TO.P,Regulador5.3,3*%
%TO.N,GND*%
X118872000Y-61849000D03*
%TO.P,Regulador5.3,4*%
%TO.N,Net-(Regulador5.3-Pad4)*%
X118872000Y-64389000D03*
%TO.P,Regulador5.3,5*%
%TO.N,5.3*%
X118872000Y-66929000D03*
%TD*%
%TO.P,Regulador5.1,5*%
%TO.N,5.1*%
X118364000Y-134239000D03*
%TO.P,Regulador5.1,4*%
%TO.N,Net-(Regulador5.1-Pad4)*%
X118364000Y-131699000D03*
%TO.P,Regulador5.1,3*%
%TO.N,GND*%
X118364000Y-129159000D03*
%TO.P,Regulador5.1,2*%
%TO.N,Net-(Regulador5.1-Pad2)*%
X118364000Y-126619000D03*
D14*
%TO.P,Regulador5.1,1*%
%TO.N,+BATT*%
X118364000Y-124079000D03*
%TD*%
%TO.P,Regulador5.2,1*%
%TO.N,+BATT*%
X154432000Y-100838000D03*
D15*
%TO.P,Regulador5.2,2*%
%TO.N,Net-(Regulador5.2-Pad2)*%
X154432000Y-98298000D03*
%TO.P,Regulador5.2,3*%
%TO.N,GND*%
X154432000Y-95758000D03*
%TO.P,Regulador5.2,4*%
%TO.N,Net-(Regulador5.2-Pad4)*%
X154432000Y-93218000D03*
%TO.P,Regulador5.2,5*%
%TO.N,5.2*%
X154432000Y-90678000D03*
%TD*%
D16*
%TO.N,Net-(Extra1-Pad2)*%
X179070000Y-139446000D03*
X141859000Y-124269500D03*
%TO.N,Net-(F3-Pad2)*%
X157524450Y-137839450D03*
X171970700Y-133286500D03*
%TD*%
D17*
%TO.N,+15V*%
X136410700Y-143891000D02*
X170688000Y-143891000D01*
X133350000Y-146951700D02*
X136410700Y-143891000D01*
X133350000Y-154305000D02*
X133350000Y-146951700D01*
%TO.N,+BATT*%
X122222000Y-56769000D02*
X118872000Y-56769000D01*
X129146300Y-63693300D02*
X122222000Y-56769000D01*
X129146300Y-87896700D02*
X129146300Y-63693300D01*
X148120100Y-107149900D02*
X154432000Y-100838000D01*
X129438400Y-107149900D02*
X148120100Y-107149900D01*
X121945400Y-121361602D02*
X121945400Y-114642900D01*
X119228002Y-124079000D02*
X121945400Y-121361602D01*
X118364000Y-124079000D02*
X119228002Y-124079000D01*
X125063250Y-111525050D02*
X125063250Y-91979750D01*
X121945400Y-114642900D02*
X125063250Y-111525050D01*
X125063250Y-111525050D02*
X129438400Y-107149900D01*
X125063250Y-91979750D02*
X129146300Y-87896700D01*
%TO.N,5.1*%
X121767600Y-134239000D02*
X129946400Y-126060200D01*
X118364000Y-134239000D02*
X121767600Y-134239000D01*
%TO.N,5.2*%
X134594600Y-90678000D02*
X133096000Y-92176600D01*
X154432000Y-90678000D02*
X134594600Y-90678000D01*
%TO.N,12.1*%
X178320700Y-111391700D02*
X170688000Y-103759000D01*
X178320700Y-115430300D02*
X178320700Y-111391700D01*
%TO.N,Net-(Extra1-Pad2)*%
X141859000Y-124269500D02*
X163893500Y-124269500D01*
X179070000Y-139446000D02*
X179070000Y-132029200D01*
X171310300Y-124269500D02*
X163893500Y-124269500D01*
X179070000Y-132029200D02*
X171310300Y-124269500D01*
%TO.N,Net-(F3-Pad2)*%
X157524450Y-137839450D02*
X157264100Y-137579100D01*
X162077400Y-133286500D02*
X157524450Y-137839450D01*
X171970700Y-133286500D02*
X162077400Y-133286500D01*
%TD*%
M02*
