%TF.GenerationSoftware,KiCad,Pcbnew,(5.1.10)-1*%
%TF.CreationDate,2021-05-29T12:40:01+02:00*%
%TF.ProjectId,potencia,706f7465-6e63-4696-912e-6b696361645f,rev?*%
%TF.SameCoordinates,Original*%
%TF.FileFunction,Legend,Top*%
%TF.FilePolarity,Positive*%
%FSLAX46Y46*%
G04 Gerber Fmt 4.6, Leading zero omitted, Abs format (unit mm)*
G04 Created by KiCad (PCBNEW (5.1.10)-1) date 2021-05-29 12:40:01*
%MOMM*%
%LPD*%
G01*
G04 APERTURE LIST*
%ADD10C,0.150000*%
%ADD11C,0.300000*%
%ADD12C,0.120000*%
%ADD13C,0.200000*%
%ADD14C,0.010000*%
%ADD15C,0.254000*%
G04 APERTURE END LIST*
D10*
X140643476Y-73201161D02*
X140780381Y-73248780D01*
X141018476Y-73248780D01*
X141119667Y-73201161D01*
X141173238Y-73153542D01*
X141232762Y-73058304D01*
X141244667Y-72963066D01*
X141208952Y-72867828D01*
X141167286Y-72820209D01*
X141078000Y-72772590D01*
X140893476Y-72724971D01*
X140804191Y-72677352D01*
X140762524Y-72629733D01*
X140726810Y-72534495D01*
X140738714Y-72439257D01*
X140798238Y-72344019D01*
X140851810Y-72296400D01*
X140953000Y-72248780D01*
X141191095Y-72248780D01*
X141328000Y-72296400D01*
X141637524Y-73248780D02*
X141762524Y-72248780D01*
X142113714Y-73248780D02*
X142238714Y-72248780D01*
X142685143Y-73248780D01*
X142810143Y-72248780D01*
X143923238Y-73248780D02*
X144048238Y-72248780D01*
X144429191Y-72248780D01*
X144518476Y-72296400D01*
X144560143Y-72344019D01*
X144595857Y-72439257D01*
X144578000Y-72582114D01*
X144518476Y-72677352D01*
X144464905Y-72724971D01*
X144363714Y-72772590D01*
X143982762Y-72772590D01*
X145238714Y-72248780D02*
X145429191Y-72248780D01*
X145518476Y-72296400D01*
X145601810Y-72391638D01*
X145625619Y-72582114D01*
X145583952Y-72915447D01*
X145512524Y-73105923D01*
X145405381Y-73201161D01*
X145304191Y-73248780D01*
X145113714Y-73248780D01*
X145024429Y-73201161D01*
X144941095Y-73105923D01*
X144917286Y-72915447D01*
X144958952Y-72582114D01*
X145030381Y-72391638D01*
X145137524Y-72296400D01*
X145238714Y-72248780D01*
X145929191Y-73201161D02*
X146066095Y-73248780D01*
X146304191Y-73248780D01*
X146405381Y-73201161D01*
X146458952Y-73153542D01*
X146518476Y-73058304D01*
X146530381Y-72963066D01*
X146494667Y-72867828D01*
X146453000Y-72820209D01*
X146363714Y-72772590D01*
X146179191Y-72724971D01*
X146089905Y-72677352D01*
X146048238Y-72629733D01*
X146012524Y-72534495D01*
X146024429Y-72439257D01*
X146083952Y-72344019D01*
X146137524Y-72296400D01*
X146238714Y-72248780D01*
X146476810Y-72248780D01*
X146613714Y-72296400D01*
X146911333Y-72963066D02*
X147387524Y-72963066D01*
X146780381Y-73248780D02*
X147238714Y-72248780D01*
X147447048Y-73248780D01*
X147762524Y-72248780D02*
X147970857Y-73248780D01*
X148429191Y-72248780D01*
X148625619Y-72963066D02*
X149101810Y-72963066D01*
X148494667Y-73248780D02*
X148953000Y-72248780D01*
X149161333Y-73248780D01*
X149453000Y-73201161D02*
X149589905Y-73248780D01*
X149828000Y-73248780D01*
X149929191Y-73201161D01*
X149982762Y-73153542D01*
X150042286Y-73058304D01*
X150054191Y-72963066D01*
X150018476Y-72867828D01*
X149976810Y-72820209D01*
X149887524Y-72772590D01*
X149703000Y-72724971D01*
X149613714Y-72677352D01*
X149572048Y-72629733D01*
X149536333Y-72534495D01*
X149548238Y-72439257D01*
X149607762Y-72344019D01*
X149661333Y-72296400D01*
X149762524Y-72248780D01*
X150000619Y-72248780D01*
X150137524Y-72296400D01*
X150762524Y-72248780D02*
X150953000Y-72248780D01*
X151042286Y-72296400D01*
X151125619Y-72391638D01*
X151149429Y-72582114D01*
X151107762Y-72915447D01*
X151036333Y-73105923D01*
X150929191Y-73201161D01*
X150828000Y-73248780D01*
X150637524Y-73248780D01*
X150548238Y-73201161D01*
X150464905Y-73105923D01*
X150441095Y-72915447D01*
X150482762Y-72582114D01*
X150554191Y-72391638D01*
X150661333Y-72296400D01*
X150762524Y-72248780D01*
X151453000Y-73201161D02*
X151589905Y-73248780D01*
X151828000Y-73248780D01*
X151929191Y-73201161D01*
X151982762Y-73153542D01*
X152042286Y-73058304D01*
X152054191Y-72963066D01*
X152018476Y-72867828D01*
X151976810Y-72820209D01*
X151887524Y-72772590D01*
X151703000Y-72724971D01*
X151613714Y-72677352D01*
X151572048Y-72629733D01*
X151536333Y-72534495D01*
X151548238Y-72439257D01*
X151607762Y-72344019D01*
X151661333Y-72296400D01*
X151762524Y-72248780D01*
X152000619Y-72248780D01*
X152137524Y-72296400D01*
X153191095Y-72248780D02*
X153399429Y-73248780D01*
X153857762Y-72248780D01*
X154095857Y-72248780D02*
X154714905Y-72248780D01*
X154333952Y-72629733D01*
X154476810Y-72629733D01*
X154566095Y-72677352D01*
X154607762Y-72724971D01*
X154643476Y-72820209D01*
X154613714Y-73058304D01*
X154554191Y-73153542D01*
X154500619Y-73201161D01*
X154399429Y-73248780D01*
X154113714Y-73248780D01*
X154024429Y-73201161D01*
X153982762Y-73153542D01*
D11*
X131413442Y-130090171D02*
X131413442Y-131304457D01*
X131484871Y-131447314D01*
X131556300Y-131518742D01*
X131699157Y-131590171D01*
X131984871Y-131590171D01*
X132127728Y-131518742D01*
X132199157Y-131447314D01*
X132270585Y-131304457D01*
X132270585Y-130090171D01*
X132913442Y-131161600D02*
X133627728Y-131161600D01*
X132770585Y-131590171D02*
X133270585Y-130090171D01*
X133770585Y-131590171D01*
X134270585Y-131590171D02*
X134270585Y-130090171D01*
X134270585Y-130804457D02*
X135127728Y-130804457D01*
X135127728Y-131590171D02*
X135127728Y-130090171D01*
X137842014Y-131590171D02*
X137342014Y-130875885D01*
X136984871Y-131590171D02*
X136984871Y-130090171D01*
X137556300Y-130090171D01*
X137699157Y-130161600D01*
X137770585Y-130233028D01*
X137842014Y-130375885D01*
X137842014Y-130590171D01*
X137770585Y-130733028D01*
X137699157Y-130804457D01*
X137556300Y-130875885D01*
X136984871Y-130875885D01*
X138770585Y-130090171D02*
X139056300Y-130090171D01*
X139199157Y-130161600D01*
X139342014Y-130304457D01*
X139413442Y-130590171D01*
X139413442Y-131090171D01*
X139342014Y-131375885D01*
X139199157Y-131518742D01*
X139056300Y-131590171D01*
X138770585Y-131590171D01*
X138627728Y-131518742D01*
X138484871Y-131375885D01*
X138413442Y-131090171D01*
X138413442Y-130590171D01*
X138484871Y-130304457D01*
X138627728Y-130161600D01*
X138770585Y-130090171D01*
X140556300Y-130804457D02*
X140770585Y-130875885D01*
X140842014Y-130947314D01*
X140913442Y-131090171D01*
X140913442Y-131304457D01*
X140842014Y-131447314D01*
X140770585Y-131518742D01*
X140627728Y-131590171D01*
X140056300Y-131590171D01*
X140056300Y-130090171D01*
X140556300Y-130090171D01*
X140699157Y-130161600D01*
X140770585Y-130233028D01*
X140842014Y-130375885D01*
X140842014Y-130518742D01*
X140770585Y-130661600D01*
X140699157Y-130733028D01*
X140556300Y-130804457D01*
X140056300Y-130804457D01*
X141842014Y-130090171D02*
X142127728Y-130090171D01*
X142270585Y-130161600D01*
X142413442Y-130304457D01*
X142484871Y-130590171D01*
X142484871Y-131090171D01*
X142413442Y-131375885D01*
X142270585Y-131518742D01*
X142127728Y-131590171D01*
X141842014Y-131590171D01*
X141699157Y-131518742D01*
X141556300Y-131375885D01*
X141484871Y-131090171D01*
X141484871Y-130590171D01*
X141556300Y-130304457D01*
X141699157Y-130161600D01*
X141842014Y-130090171D01*
X142913442Y-130090171D02*
X143770585Y-130090171D01*
X143342014Y-131590171D02*
X143342014Y-130090171D01*
X144270585Y-131590171D02*
X144270585Y-130090171D01*
X145842014Y-131447314D02*
X145770585Y-131518742D01*
X145556300Y-131590171D01*
X145413442Y-131590171D01*
X145199157Y-131518742D01*
X145056300Y-131375885D01*
X144984871Y-131233028D01*
X144913442Y-130947314D01*
X144913442Y-130733028D01*
X144984871Y-130447314D01*
X145056300Y-130304457D01*
X145199157Y-130161600D01*
X145413442Y-130090171D01*
X145556300Y-130090171D01*
X145770585Y-130161600D01*
X145842014Y-130233028D01*
X146413442Y-131518742D02*
X146627728Y-131590171D01*
X146984871Y-131590171D01*
X147127728Y-131518742D01*
X147199157Y-131447314D01*
X147270585Y-131304457D01*
X147270585Y-131161600D01*
X147199157Y-131018742D01*
X147127728Y-130947314D01*
X146984871Y-130875885D01*
X146699157Y-130804457D01*
X146556300Y-130733028D01*
X146484871Y-130661600D01*
X146413442Y-130518742D01*
X146413442Y-130375885D01*
X146484871Y-130233028D01*
X146556300Y-130161600D01*
X146699157Y-130090171D01*
X147056300Y-130090171D01*
X147270585Y-130161600D01*
D10*
X180197333Y-158932571D02*
X180530666Y-158932571D01*
X180673523Y-159456380D02*
X180197333Y-159456380D01*
X180197333Y-158456380D01*
X180673523Y-158456380D01*
X181006857Y-159456380D02*
X181530666Y-158789714D01*
X181006857Y-158789714D02*
X181530666Y-159456380D01*
X181768761Y-158789714D02*
X182149714Y-158789714D01*
X181911619Y-158456380D02*
X181911619Y-159313523D01*
X181959238Y-159408761D01*
X182054476Y-159456380D01*
X182149714Y-159456380D01*
X182483047Y-159456380D02*
X182483047Y-158789714D01*
X182483047Y-158980190D02*
X182530666Y-158884952D01*
X182578285Y-158837333D01*
X182673523Y-158789714D01*
X182768761Y-158789714D01*
X183530666Y-159456380D02*
X183530666Y-158932571D01*
X183483047Y-158837333D01*
X183387809Y-158789714D01*
X183197333Y-158789714D01*
X183102095Y-158837333D01*
X183530666Y-159408761D02*
X183435428Y-159456380D01*
X183197333Y-159456380D01*
X183102095Y-159408761D01*
X183054476Y-159313523D01*
X183054476Y-159218285D01*
X183102095Y-159123047D01*
X183197333Y-159075428D01*
X183435428Y-159075428D01*
X183530666Y-159027809D01*
X152289142Y-159408761D02*
X152432000Y-159456380D01*
X152670095Y-159456380D01*
X152765333Y-159408761D01*
X152812952Y-159361142D01*
X152860571Y-159265904D01*
X152860571Y-159170666D01*
X152812952Y-159075428D01*
X152765333Y-159027809D01*
X152670095Y-158980190D01*
X152479619Y-158932571D01*
X152384380Y-158884952D01*
X152336761Y-158837333D01*
X152289142Y-158742095D01*
X152289142Y-158646857D01*
X152336761Y-158551619D01*
X152384380Y-158504000D01*
X152479619Y-158456380D01*
X152717714Y-158456380D01*
X152860571Y-158504000D01*
X153717714Y-159456380D02*
X153717714Y-158932571D01*
X153670095Y-158837333D01*
X153574857Y-158789714D01*
X153384380Y-158789714D01*
X153289142Y-158837333D01*
X153717714Y-159408761D02*
X153622476Y-159456380D01*
X153384380Y-159456380D01*
X153289142Y-159408761D01*
X153241523Y-159313523D01*
X153241523Y-159218285D01*
X153289142Y-159123047D01*
X153384380Y-159075428D01*
X153622476Y-159075428D01*
X153717714Y-159027809D01*
X154336761Y-159456380D02*
X154241523Y-159408761D01*
X154193904Y-159313523D01*
X154193904Y-158456380D01*
X154717714Y-159456380D02*
X154717714Y-158789714D01*
X154717714Y-158456380D02*
X154670095Y-158504000D01*
X154717714Y-158551619D01*
X154765333Y-158504000D01*
X154717714Y-158456380D01*
X154717714Y-158551619D01*
X155622476Y-159456380D02*
X155622476Y-158456380D01*
X155622476Y-159408761D02*
X155527238Y-159456380D01*
X155336761Y-159456380D01*
X155241523Y-159408761D01*
X155193904Y-159361142D01*
X155146285Y-159265904D01*
X155146285Y-158980190D01*
X155193904Y-158884952D01*
X155241523Y-158837333D01*
X155336761Y-158789714D01*
X155527238Y-158789714D01*
X155622476Y-158837333D01*
X156527238Y-159456380D02*
X156527238Y-158932571D01*
X156479619Y-158837333D01*
X156384380Y-158789714D01*
X156193904Y-158789714D01*
X156098666Y-158837333D01*
X156527238Y-159408761D02*
X156432000Y-159456380D01*
X156193904Y-159456380D01*
X156098666Y-159408761D01*
X156051047Y-159313523D01*
X156051047Y-159218285D01*
X156098666Y-159123047D01*
X156193904Y-159075428D01*
X156432000Y-159075428D01*
X156527238Y-159027809D01*
X121388761Y-159170666D02*
X121864952Y-159170666D01*
X121293523Y-159456380D02*
X121626857Y-158456380D01*
X121960190Y-159456380D01*
X122436380Y-159456380D02*
X122341142Y-159408761D01*
X122293523Y-159313523D01*
X122293523Y-158456380D01*
X122817333Y-159456380D02*
X122817333Y-158789714D01*
X122817333Y-158456380D02*
X122769714Y-158504000D01*
X122817333Y-158551619D01*
X122864952Y-158504000D01*
X122817333Y-158456380D01*
X122817333Y-158551619D01*
X123293523Y-159456380D02*
X123293523Y-158789714D01*
X123293523Y-158884952D02*
X123341142Y-158837333D01*
X123436380Y-158789714D01*
X123579238Y-158789714D01*
X123674476Y-158837333D01*
X123722095Y-158932571D01*
X123722095Y-159456380D01*
X123722095Y-158932571D02*
X123769714Y-158837333D01*
X123864952Y-158789714D01*
X124007809Y-158789714D01*
X124103047Y-158837333D01*
X124150666Y-158932571D01*
X124150666Y-159456380D01*
X125007809Y-159408761D02*
X124912571Y-159456380D01*
X124722095Y-159456380D01*
X124626857Y-159408761D01*
X124579238Y-159313523D01*
X124579238Y-158932571D01*
X124626857Y-158837333D01*
X124722095Y-158789714D01*
X124912571Y-158789714D01*
X125007809Y-158837333D01*
X125055428Y-158932571D01*
X125055428Y-159027809D01*
X124579238Y-159123047D01*
X125484000Y-158789714D02*
X125484000Y-159456380D01*
X125484000Y-158884952D02*
X125531619Y-158837333D01*
X125626857Y-158789714D01*
X125769714Y-158789714D01*
X125864952Y-158837333D01*
X125912571Y-158932571D01*
X125912571Y-159456380D01*
X126245904Y-158789714D02*
X126626857Y-158789714D01*
X126388761Y-158456380D02*
X126388761Y-159313523D01*
X126436380Y-159408761D01*
X126531619Y-159456380D01*
X126626857Y-159456380D01*
X127388761Y-159456380D02*
X127388761Y-158932571D01*
X127341142Y-158837333D01*
X127245904Y-158789714D01*
X127055428Y-158789714D01*
X126960190Y-158837333D01*
X127388761Y-159408761D02*
X127293523Y-159456380D01*
X127055428Y-159456380D01*
X126960190Y-159408761D01*
X126912571Y-159313523D01*
X126912571Y-159218285D01*
X126960190Y-159123047D01*
X127055428Y-159075428D01*
X127293523Y-159075428D01*
X127388761Y-159027809D01*
X128293523Y-159408761D02*
X128198285Y-159456380D01*
X128007809Y-159456380D01*
X127912571Y-159408761D01*
X127864952Y-159361142D01*
X127817333Y-159265904D01*
X127817333Y-158980190D01*
X127864952Y-158884952D01*
X127912571Y-158837333D01*
X128007809Y-158789714D01*
X128198285Y-158789714D01*
X128293523Y-158837333D01*
X128722095Y-159456380D02*
X128722095Y-158789714D01*
X128722095Y-158456380D02*
X128674476Y-158504000D01*
X128722095Y-158551619D01*
X128769714Y-158504000D01*
X128722095Y-158456380D01*
X128722095Y-158551619D01*
X129341142Y-159456380D02*
X129245904Y-159408761D01*
X129198285Y-159361142D01*
X129150666Y-159265904D01*
X129150666Y-158980190D01*
X129198285Y-158884952D01*
X129245904Y-158837333D01*
X129341142Y-158789714D01*
X129484000Y-158789714D01*
X129579238Y-158837333D01*
X129626857Y-158884952D01*
X129674476Y-158980190D01*
X129674476Y-159265904D01*
X129626857Y-159361142D01*
X129579238Y-159408761D01*
X129484000Y-159456380D01*
X129341142Y-159456380D01*
X130103047Y-158789714D02*
X130103047Y-159456380D01*
X130103047Y-158884952D02*
X130150666Y-158837333D01*
X130245904Y-158789714D01*
X130388761Y-158789714D01*
X130484000Y-158837333D01*
X130531619Y-158932571D01*
X130531619Y-159456380D01*
D12*
%TO.C,R5*%
X137657600Y-101326200D02*
X133817600Y-101326200D01*
X137657600Y-99486200D02*
X133817600Y-99486200D01*
%TO.C,R4*%
X134406400Y-126980200D02*
X130566400Y-126980200D01*
X134406400Y-125140200D02*
X130566400Y-125140200D01*
%TO.C,R3*%
X178813700Y-54947300D02*
X182653700Y-54947300D01*
X178813700Y-56787300D02*
X182653700Y-56787300D01*
%TO.C,R2*%
X182641000Y-124198900D02*
X178801000Y-124198900D01*
X182641000Y-122358900D02*
X178801000Y-122358900D01*
%TO.C,R1*%
X140769100Y-66540900D02*
X136929100Y-66540900D01*
X140769100Y-64700900D02*
X136929100Y-64700900D01*
D13*
%TO.C,F5*%
X128052700Y-117327500D02*
X125677700Y-117327500D01*
X125677700Y-117327500D02*
X125677700Y-117327500D01*
X125677700Y-117327500D02*
X128052700Y-117327500D01*
X128052700Y-117327500D02*
X128052700Y-117327500D01*
X125677700Y-120927500D02*
X133052700Y-120927500D01*
X133052700Y-120927500D02*
X133052700Y-120927500D01*
X133052700Y-120927500D02*
X125677700Y-120927500D01*
X125677700Y-120927500D02*
X125677700Y-120927500D01*
X136052700Y-120927500D02*
X138477700Y-120927500D01*
X138477700Y-120927500D02*
X138477700Y-120927500D01*
X138477700Y-120927500D02*
X136052700Y-120927500D01*
X136052700Y-120927500D02*
X136052700Y-120927500D01*
X138477700Y-117327500D02*
X131052700Y-117327500D01*
X131052700Y-117327500D02*
X131052700Y-117327500D01*
X131052700Y-117327500D02*
X138477700Y-117327500D01*
X138477700Y-117327500D02*
X138477700Y-117327500D01*
X125677700Y-117327500D02*
X125677700Y-117327500D01*
X125677700Y-117327500D02*
X125677700Y-120927500D01*
X125677700Y-120927500D02*
X125677700Y-120927500D01*
X125677700Y-120927500D02*
X125677700Y-117327500D01*
X138477700Y-120927500D02*
X138477700Y-120927500D01*
X138477700Y-120927500D02*
X138477700Y-117327500D01*
X138477700Y-117327500D02*
X138477700Y-117327500D01*
X138477700Y-117327500D02*
X138477700Y-120927500D01*
X129552700Y-116827500D02*
X129552700Y-116827500D01*
X129552700Y-116727500D02*
X129552700Y-116727500D01*
X129552700Y-116827500D02*
X129552700Y-116827500D01*
X129552700Y-116727500D02*
G75*
G02*
X129552700Y-116827500I0J-50000D01*
G01*
X129552700Y-116827500D02*
G75*
G02*
X129552700Y-116727500I0J50000D01*
G01*
X129552700Y-116727500D02*
G75*
G02*
X129552700Y-116827500I0J-50000D01*
G01*
%TO.C,F4*%
X186018300Y-62949000D02*
X188393300Y-62949000D01*
X188393300Y-62949000D02*
X188393300Y-62949000D01*
X188393300Y-62949000D02*
X186018300Y-62949000D01*
X186018300Y-62949000D02*
X186018300Y-62949000D01*
X188393300Y-59349000D02*
X181018300Y-59349000D01*
X181018300Y-59349000D02*
X181018300Y-59349000D01*
X181018300Y-59349000D02*
X188393300Y-59349000D01*
X188393300Y-59349000D02*
X188393300Y-59349000D01*
X178018300Y-59349000D02*
X175593300Y-59349000D01*
X175593300Y-59349000D02*
X175593300Y-59349000D01*
X175593300Y-59349000D02*
X178018300Y-59349000D01*
X178018300Y-59349000D02*
X178018300Y-59349000D01*
X175593300Y-62949000D02*
X183018300Y-62949000D01*
X183018300Y-62949000D02*
X183018300Y-62949000D01*
X183018300Y-62949000D02*
X175593300Y-62949000D01*
X175593300Y-62949000D02*
X175593300Y-62949000D01*
X188393300Y-62949000D02*
X188393300Y-62949000D01*
X188393300Y-62949000D02*
X188393300Y-59349000D01*
X188393300Y-59349000D02*
X188393300Y-59349000D01*
X188393300Y-59349000D02*
X188393300Y-62949000D01*
X175593300Y-59349000D02*
X175593300Y-59349000D01*
X175593300Y-59349000D02*
X175593300Y-62949000D01*
X175593300Y-62949000D02*
X175593300Y-62949000D01*
X175593300Y-62949000D02*
X175593300Y-59349000D01*
X184518300Y-63449000D02*
X184518300Y-63449000D01*
X184518300Y-63549000D02*
X184518300Y-63549000D01*
X184518300Y-63449000D02*
X184518300Y-63449000D01*
X184518300Y-63549000D02*
G75*
G02*
X184518300Y-63449000I0J50000D01*
G01*
X184518300Y-63449000D02*
G75*
G02*
X184518300Y-63549000I0J-50000D01*
G01*
X184518300Y-63549000D02*
G75*
G02*
X184518300Y-63449000I0J50000D01*
G01*
%TO.C,F3*%
X176820700Y-114330300D02*
X174445700Y-114330300D01*
X174445700Y-114330300D02*
X174445700Y-114330300D01*
X174445700Y-114330300D02*
X176820700Y-114330300D01*
X176820700Y-114330300D02*
X176820700Y-114330300D01*
X174445700Y-117930300D02*
X181820700Y-117930300D01*
X181820700Y-117930300D02*
X181820700Y-117930300D01*
X181820700Y-117930300D02*
X174445700Y-117930300D01*
X174445700Y-117930300D02*
X174445700Y-117930300D01*
X184820700Y-117930300D02*
X187245700Y-117930300D01*
X187245700Y-117930300D02*
X187245700Y-117930300D01*
X187245700Y-117930300D02*
X184820700Y-117930300D01*
X184820700Y-117930300D02*
X184820700Y-117930300D01*
X187245700Y-114330300D02*
X179820700Y-114330300D01*
X179820700Y-114330300D02*
X179820700Y-114330300D01*
X179820700Y-114330300D02*
X187245700Y-114330300D01*
X187245700Y-114330300D02*
X187245700Y-114330300D01*
X174445700Y-114330300D02*
X174445700Y-114330300D01*
X174445700Y-114330300D02*
X174445700Y-117930300D01*
X174445700Y-117930300D02*
X174445700Y-117930300D01*
X174445700Y-117930300D02*
X174445700Y-114330300D01*
X187245700Y-117930300D02*
X187245700Y-117930300D01*
X187245700Y-117930300D02*
X187245700Y-114330300D01*
X187245700Y-114330300D02*
X187245700Y-114330300D01*
X187245700Y-114330300D02*
X187245700Y-117930300D01*
X178320700Y-113830300D02*
X178320700Y-113830300D01*
X178320700Y-113730300D02*
X178320700Y-113730300D01*
X178320700Y-113830300D02*
X178320700Y-113830300D01*
X178320700Y-113730300D02*
G75*
G02*
X178320700Y-113830300I0J-50000D01*
G01*
X178320700Y-113830300D02*
G75*
G02*
X178320700Y-113730300I0J50000D01*
G01*
X178320700Y-113730300D02*
G75*
G02*
X178320700Y-113830300I0J-50000D01*
G01*
%TO.C,F2*%
X134821800Y-56519900D02*
X132446800Y-56519900D01*
X132446800Y-56519900D02*
X132446800Y-56519900D01*
X132446800Y-56519900D02*
X134821800Y-56519900D01*
X134821800Y-56519900D02*
X134821800Y-56519900D01*
X132446800Y-60119900D02*
X139821800Y-60119900D01*
X139821800Y-60119900D02*
X139821800Y-60119900D01*
X139821800Y-60119900D02*
X132446800Y-60119900D01*
X132446800Y-60119900D02*
X132446800Y-60119900D01*
X142821800Y-60119900D02*
X145246800Y-60119900D01*
X145246800Y-60119900D02*
X145246800Y-60119900D01*
X145246800Y-60119900D02*
X142821800Y-60119900D01*
X142821800Y-60119900D02*
X142821800Y-60119900D01*
X145246800Y-56519900D02*
X137821800Y-56519900D01*
X137821800Y-56519900D02*
X137821800Y-56519900D01*
X137821800Y-56519900D02*
X145246800Y-56519900D01*
X145246800Y-56519900D02*
X145246800Y-56519900D01*
X132446800Y-56519900D02*
X132446800Y-56519900D01*
X132446800Y-56519900D02*
X132446800Y-60119900D01*
X132446800Y-60119900D02*
X132446800Y-60119900D01*
X132446800Y-60119900D02*
X132446800Y-56519900D01*
X145246800Y-60119900D02*
X145246800Y-60119900D01*
X145246800Y-60119900D02*
X145246800Y-56519900D01*
X145246800Y-56519900D02*
X145246800Y-56519900D01*
X145246800Y-56519900D02*
X145246800Y-60119900D01*
X136321800Y-56019900D02*
X136321800Y-56019900D01*
X136321800Y-55919900D02*
X136321800Y-55919900D01*
X136321800Y-56019900D02*
X136321800Y-56019900D01*
X136321800Y-55919900D02*
G75*
G02*
X136321800Y-56019900I0J-50000D01*
G01*
X136321800Y-56019900D02*
G75*
G02*
X136321800Y-55919900I0J50000D01*
G01*
X136321800Y-55919900D02*
G75*
G02*
X136321800Y-56019900I0J-50000D01*
G01*
%TO.C,F1*%
X131596000Y-91076600D02*
X129221000Y-91076600D01*
X129221000Y-91076600D02*
X129221000Y-91076600D01*
X129221000Y-91076600D02*
X131596000Y-91076600D01*
X131596000Y-91076600D02*
X131596000Y-91076600D01*
X129221000Y-94676600D02*
X136596000Y-94676600D01*
X136596000Y-94676600D02*
X136596000Y-94676600D01*
X136596000Y-94676600D02*
X129221000Y-94676600D01*
X129221000Y-94676600D02*
X129221000Y-94676600D01*
X139596000Y-94676600D02*
X142021000Y-94676600D01*
X142021000Y-94676600D02*
X142021000Y-94676600D01*
X142021000Y-94676600D02*
X139596000Y-94676600D01*
X139596000Y-94676600D02*
X139596000Y-94676600D01*
X142021000Y-91076600D02*
X134596000Y-91076600D01*
X134596000Y-91076600D02*
X134596000Y-91076600D01*
X134596000Y-91076600D02*
X142021000Y-91076600D01*
X142021000Y-91076600D02*
X142021000Y-91076600D01*
X129221000Y-91076600D02*
X129221000Y-91076600D01*
X129221000Y-91076600D02*
X129221000Y-94676600D01*
X129221000Y-94676600D02*
X129221000Y-94676600D01*
X129221000Y-94676600D02*
X129221000Y-91076600D01*
X142021000Y-94676600D02*
X142021000Y-94676600D01*
X142021000Y-94676600D02*
X142021000Y-91076600D01*
X142021000Y-91076600D02*
X142021000Y-91076600D01*
X142021000Y-91076600D02*
X142021000Y-94676600D01*
X133096000Y-90576600D02*
X133096000Y-90576600D01*
X133096000Y-90476600D02*
X133096000Y-90476600D01*
X133096000Y-90576600D02*
X133096000Y-90576600D01*
X133096000Y-90476600D02*
G75*
G02*
X133096000Y-90576600I0J-50000D01*
G01*
X133096000Y-90576600D02*
G75*
G02*
X133096000Y-90476600I0J50000D01*
G01*
X133096000Y-90476600D02*
G75*
G02*
X133096000Y-90576600I0J-50000D01*
G01*
D12*
%TO.C,Salida1*%
X138430000Y-154305000D02*
X138430000Y-149225000D01*
X138430000Y-149225000D02*
X168910000Y-149225000D01*
X168910000Y-149225000D02*
X168910000Y-156845000D01*
X138430000Y-154305000D02*
X138430000Y-156845000D01*
X138430000Y-156845000D02*
X138430000Y-158115000D01*
X138430000Y-158115000D02*
X168910000Y-158115000D01*
X168910000Y-158115000D02*
X168910000Y-156845000D01*
%TO.C,Extra1*%
X171450000Y-154305000D02*
X171450000Y-149225000D01*
X171450000Y-149225000D02*
X191770000Y-149225000D01*
X191770000Y-149225000D02*
X191770000Y-156845000D01*
X171450000Y-154305000D02*
X171450000Y-156845000D01*
X171450000Y-156845000D02*
X171450000Y-158115000D01*
X171450000Y-158115000D02*
X191770000Y-158115000D01*
X191770000Y-156845000D02*
X191770000Y-158115000D01*
%TO.C,Alimentaci\u00F3n1*%
X115570000Y-154305000D02*
X115570000Y-149225000D01*
X115570000Y-149225000D02*
X135890000Y-149225000D01*
X135890000Y-149225000D02*
X135890000Y-156845000D01*
X115570000Y-154305000D02*
X115570000Y-156845000D01*
X115570000Y-156845000D02*
X115570000Y-158115000D01*
X115570000Y-158115000D02*
X135890000Y-158115000D01*
X135890000Y-156845000D02*
X135890000Y-158115000D01*
D14*
%TO.C,G\u002A\u002A\u002A*%
G36*
X178626818Y-71820029D02*
G01*
X178709493Y-71902952D01*
X178754883Y-72102357D01*
X178774061Y-72468317D01*
X178778098Y-73050903D01*
X178778102Y-73080235D01*
X178774043Y-73673626D01*
X178754869Y-74048133D01*
X178710084Y-74253613D01*
X178629190Y-74339925D01*
X178509319Y-74356954D01*
X178310416Y-74291383D01*
X178242484Y-74049843D01*
X178240535Y-73964979D01*
X178292219Y-73661942D01*
X178408525Y-73505219D01*
X178389837Y-73464726D01*
X178158230Y-73435315D01*
X177938154Y-73426824D01*
X177299795Y-73416214D01*
X177299795Y-73886584D01*
X177274693Y-74204676D01*
X177161732Y-74334897D01*
X176963816Y-74356954D01*
X176808169Y-74348088D01*
X176710005Y-74287926D01*
X176656076Y-74126120D01*
X176633131Y-73812325D01*
X176627922Y-73296193D01*
X176627890Y-73214626D01*
X178374927Y-73214626D01*
X178442123Y-73281822D01*
X178509319Y-73214626D01*
X178442123Y-73147431D01*
X178374927Y-73214626D01*
X176627890Y-73214626D01*
X176627837Y-73080235D01*
X176630170Y-72488777D01*
X176646002Y-72115754D01*
X176688583Y-71910822D01*
X176771161Y-71823632D01*
X176906985Y-71803838D01*
X176963816Y-71803515D01*
X177191025Y-71838658D01*
X177284040Y-71996803D01*
X177299795Y-72273886D01*
X177323162Y-72590500D01*
X177436363Y-72720324D01*
X177676091Y-72744256D01*
X177997950Y-72786770D01*
X178180531Y-72872400D01*
X178254515Y-72845510D01*
X178271259Y-72575130D01*
X178261072Y-72402029D01*
X178245791Y-72030943D01*
X178296687Y-71855382D01*
X178441401Y-71804866D01*
X178495786Y-71803515D01*
X178626818Y-71820029D01*
G37*
X178626818Y-71820029D02*
X178709493Y-71902952D01*
X178754883Y-72102357D01*
X178774061Y-72468317D01*
X178778098Y-73050903D01*
X178778102Y-73080235D01*
X178774043Y-73673626D01*
X178754869Y-74048133D01*
X178710084Y-74253613D01*
X178629190Y-74339925D01*
X178509319Y-74356954D01*
X178310416Y-74291383D01*
X178242484Y-74049843D01*
X178240535Y-73964979D01*
X178292219Y-73661942D01*
X178408525Y-73505219D01*
X178389837Y-73464726D01*
X178158230Y-73435315D01*
X177938154Y-73426824D01*
X177299795Y-73416214D01*
X177299795Y-73886584D01*
X177274693Y-74204676D01*
X177161732Y-74334897D01*
X176963816Y-74356954D01*
X176808169Y-74348088D01*
X176710005Y-74287926D01*
X176656076Y-74126120D01*
X176633131Y-73812325D01*
X176627922Y-73296193D01*
X176627890Y-73214626D01*
X178374927Y-73214626D01*
X178442123Y-73281822D01*
X178509319Y-73214626D01*
X178442123Y-73147431D01*
X178374927Y-73214626D01*
X176627890Y-73214626D01*
X176627837Y-73080235D01*
X176630170Y-72488777D01*
X176646002Y-72115754D01*
X176688583Y-71910822D01*
X176771161Y-71823632D01*
X176906985Y-71803838D01*
X176963816Y-71803515D01*
X177191025Y-71838658D01*
X177284040Y-71996803D01*
X177299795Y-72273886D01*
X177323162Y-72590500D01*
X177436363Y-72720324D01*
X177676091Y-72744256D01*
X177997950Y-72786770D01*
X178180531Y-72872400D01*
X178254515Y-72845510D01*
X178271259Y-72575130D01*
X178261072Y-72402029D01*
X178245791Y-72030943D01*
X178296687Y-71855382D01*
X178441401Y-71804866D01*
X178495786Y-71803515D01*
X178626818Y-71820029D01*
G36*
X179483657Y-70594232D02*
G01*
X179774963Y-70631706D01*
X180001464Y-70783753D01*
X180245850Y-71110388D01*
X180290006Y-71179488D01*
X180464463Y-71479446D01*
X180573547Y-71758799D01*
X180632341Y-72094317D01*
X180655926Y-72562768D01*
X180659583Y-73060729D01*
X180659583Y-74356954D01*
X179046885Y-74356954D01*
X179046885Y-70593992D01*
X179483657Y-70594232D01*
G37*
X179483657Y-70594232D02*
X179774963Y-70631706D01*
X180001464Y-70783753D01*
X180245850Y-71110388D01*
X180290006Y-71179488D01*
X180464463Y-71479446D01*
X180573547Y-71758799D01*
X180632341Y-72094317D01*
X180655926Y-72562768D01*
X180659583Y-73060729D01*
X180659583Y-74356954D01*
X179046885Y-74356954D01*
X179046885Y-70593992D01*
X179483657Y-70594232D01*
G36*
X180961964Y-66697139D02*
G01*
X181877429Y-66709941D01*
X182567701Y-66758440D01*
X183075645Y-66858595D01*
X183444127Y-67026367D01*
X183716011Y-67277716D01*
X183934163Y-67628601D01*
X184034113Y-67840992D01*
X184194216Y-68270533D01*
X184224863Y-68611299D01*
X184157182Y-68946137D01*
X183845250Y-69637895D01*
X183359194Y-70126022D01*
X182705693Y-70404795D01*
X182394039Y-70456920D01*
X181731744Y-70526796D01*
X183011344Y-72441875D01*
X184290943Y-74356954D01*
X182473869Y-74339440D01*
X181214128Y-72399520D01*
X180754371Y-71695118D01*
X180411618Y-71185644D01*
X180158043Y-70839596D01*
X179965822Y-70625473D01*
X179807132Y-70511776D01*
X179654149Y-70467002D01*
X179500636Y-70459600D01*
X179046885Y-70459600D01*
X179046885Y-68650533D01*
X179807318Y-68650533D01*
X179961133Y-68968547D01*
X180237580Y-69188514D01*
X180570828Y-69273129D01*
X180895048Y-69185085D01*
X181093946Y-68981293D01*
X181333998Y-68767928D01*
X181533128Y-68712510D01*
X181814585Y-68818313D01*
X181972310Y-68981293D01*
X182237543Y-69185397D01*
X182609427Y-69249349D01*
X182957829Y-69160189D01*
X183051752Y-69088806D01*
X183172726Y-68840758D01*
X183213022Y-68554338D01*
X183106367Y-68176824D01*
X182839310Y-67928313D01*
X182491212Y-67830592D01*
X182141434Y-67905449D01*
X181869338Y-68174672D01*
X181864236Y-68184046D01*
X181673485Y-68393342D01*
X181533128Y-68443727D01*
X181321320Y-68337304D01*
X181202020Y-68184046D01*
X180918935Y-67893770D01*
X180546333Y-67798130D01*
X180173802Y-67891347D01*
X179890929Y-68167641D01*
X179841965Y-68271779D01*
X179807318Y-68650533D01*
X179046885Y-68650533D01*
X179046885Y-66696637D01*
X180961964Y-66697139D01*
G37*
X180961964Y-66697139D02*
X181877429Y-66709941D01*
X182567701Y-66758440D01*
X183075645Y-66858595D01*
X183444127Y-67026367D01*
X183716011Y-67277716D01*
X183934163Y-67628601D01*
X184034113Y-67840992D01*
X184194216Y-68270533D01*
X184224863Y-68611299D01*
X184157182Y-68946137D01*
X183845250Y-69637895D01*
X183359194Y-70126022D01*
X182705693Y-70404795D01*
X182394039Y-70456920D01*
X181731744Y-70526796D01*
X183011344Y-72441875D01*
X184290943Y-74356954D01*
X182473869Y-74339440D01*
X181214128Y-72399520D01*
X180754371Y-71695118D01*
X180411618Y-71185644D01*
X180158043Y-70839596D01*
X179965822Y-70625473D01*
X179807132Y-70511776D01*
X179654149Y-70467002D01*
X179500636Y-70459600D01*
X179046885Y-70459600D01*
X179046885Y-68650533D01*
X179807318Y-68650533D01*
X179961133Y-68968547D01*
X180237580Y-69188514D01*
X180570828Y-69273129D01*
X180895048Y-69185085D01*
X181093946Y-68981293D01*
X181333998Y-68767928D01*
X181533128Y-68712510D01*
X181814585Y-68818313D01*
X181972310Y-68981293D01*
X182237543Y-69185397D01*
X182609427Y-69249349D01*
X182957829Y-69160189D01*
X183051752Y-69088806D01*
X183172726Y-68840758D01*
X183213022Y-68554338D01*
X183106367Y-68176824D01*
X182839310Y-67928313D01*
X182491212Y-67830592D01*
X182141434Y-67905449D01*
X181869338Y-68174672D01*
X181864236Y-68184046D01*
X181673485Y-68393342D01*
X181533128Y-68443727D01*
X181321320Y-68337304D01*
X181202020Y-68184046D01*
X180918935Y-67893770D01*
X180546333Y-67798130D01*
X180173802Y-67891347D01*
X179890929Y-68167641D01*
X179841965Y-68271779D01*
X179807318Y-68650533D01*
X179046885Y-68650533D01*
X179046885Y-66696637D01*
X180961964Y-66697139D01*
G36*
X178778102Y-70384292D02*
G01*
X178769592Y-70957711D01*
X178738608Y-71309445D01*
X178676961Y-71486213D01*
X178576514Y-71534732D01*
X178454945Y-71468373D01*
X178392356Y-71235521D01*
X178374927Y-70795579D01*
X178352834Y-70390793D01*
X178295843Y-70122315D01*
X178240535Y-70056425D01*
X178113367Y-70155113D01*
X178086775Y-70469630D01*
X178099116Y-70627589D01*
X178022830Y-70827382D01*
X177910123Y-70862775D01*
X177702250Y-70973296D01*
X177544125Y-71198753D01*
X177327652Y-71464983D01*
X177001540Y-71534732D01*
X176612037Y-71534732D01*
X177217973Y-70426002D01*
X177509361Y-69905043D01*
X177721467Y-69576120D01*
X177898336Y-69392450D01*
X178084009Y-69307247D01*
X178301005Y-69275561D01*
X178778102Y-69233851D01*
X178778102Y-70384292D01*
G37*
X178778102Y-70384292D02*
X178769592Y-70957711D01*
X178738608Y-71309445D01*
X178676961Y-71486213D01*
X178576514Y-71534732D01*
X178454945Y-71468373D01*
X178392356Y-71235521D01*
X178374927Y-70795579D01*
X178352834Y-70390793D01*
X178295843Y-70122315D01*
X178240535Y-70056425D01*
X178113367Y-70155113D01*
X178086775Y-70469630D01*
X178099116Y-70627589D01*
X178022830Y-70827382D01*
X177910123Y-70862775D01*
X177702250Y-70973296D01*
X177544125Y-71198753D01*
X177327652Y-71464983D01*
X177001540Y-71534732D01*
X176612037Y-71534732D01*
X177217973Y-70426002D01*
X177509361Y-69905043D01*
X177721467Y-69576120D01*
X177898336Y-69392450D01*
X178084009Y-69307247D01*
X178301005Y-69275561D01*
X178778102Y-69233851D01*
X178778102Y-70384292D01*
G36*
X176994394Y-66577826D02*
G01*
X177096494Y-66662858D01*
X177151624Y-66874779D01*
X177181570Y-67271027D01*
X177193113Y-67536584D01*
X177232599Y-68510923D01*
X178173340Y-68510923D01*
X178213078Y-67603780D01*
X178240404Y-67122747D01*
X178285482Y-66850971D01*
X178372532Y-66729002D01*
X178525774Y-66697392D01*
X178582655Y-66696637D01*
X178764755Y-66714259D01*
X178863506Y-66808944D01*
X178904289Y-67043417D01*
X178912483Y-67480406D01*
X178912493Y-67511821D01*
X178883497Y-68125926D01*
X178778094Y-68534047D01*
X178568658Y-68794517D01*
X178227565Y-68965672D01*
X178223318Y-68967157D01*
X177759270Y-69093045D01*
X177397890Y-69073090D01*
X177008767Y-68895311D01*
X176930218Y-68848375D01*
X176707922Y-68701321D01*
X176577712Y-68549428D01*
X176514966Y-68320759D01*
X176495067Y-67943375D01*
X176493446Y-67572157D01*
X176497770Y-67058792D01*
X176523061Y-66757660D01*
X176587801Y-66612222D01*
X176710467Y-66565941D01*
X176823537Y-66562246D01*
X176994394Y-66577826D01*
G37*
X176994394Y-66577826D02*
X177096494Y-66662858D01*
X177151624Y-66874779D01*
X177181570Y-67271027D01*
X177193113Y-67536584D01*
X177232599Y-68510923D01*
X178173340Y-68510923D01*
X178213078Y-67603780D01*
X178240404Y-67122747D01*
X178285482Y-66850971D01*
X178372532Y-66729002D01*
X178525774Y-66697392D01*
X178582655Y-66696637D01*
X178764755Y-66714259D01*
X178863506Y-66808944D01*
X178904289Y-67043417D01*
X178912483Y-67480406D01*
X178912493Y-67511821D01*
X178883497Y-68125926D01*
X178778094Y-68534047D01*
X178568658Y-68794517D01*
X178227565Y-68965672D01*
X178223318Y-68967157D01*
X177759270Y-69093045D01*
X177397890Y-69073090D01*
X177008767Y-68895311D01*
X176930218Y-68848375D01*
X176707922Y-68701321D01*
X176577712Y-68549428D01*
X176514966Y-68320759D01*
X176495067Y-67943375D01*
X176493446Y-67572157D01*
X176497770Y-67058792D01*
X176523061Y-66757660D01*
X176587801Y-66612222D01*
X176710467Y-66565941D01*
X176823537Y-66562246D01*
X176994394Y-66577826D01*
D12*
%TO.C,NI12.1*%
X188722000Y-89602000D02*
X190052000Y-89602000D01*
X190052000Y-89602000D02*
X190052000Y-90932000D01*
X190052000Y-92142000D02*
X190052000Y-92262000D01*
X187392000Y-92142000D02*
X187392000Y-92262000D01*
X187392000Y-92262000D02*
X190052000Y-92262000D01*
%TO.C,NI12.2*%
X188722000Y-142561000D02*
X190052000Y-142561000D01*
X190052000Y-142561000D02*
X190052000Y-143891000D01*
X190052000Y-145101000D02*
X190052000Y-145221000D01*
X187392000Y-145101000D02*
X187392000Y-145221000D01*
X187392000Y-145221000D02*
X190052000Y-145221000D01*
%TO.C,NO12.1*%
X187392000Y-52130000D02*
X190052000Y-52130000D01*
X187392000Y-52010000D02*
X187392000Y-52130000D01*
X190052000Y-52010000D02*
X190052000Y-52130000D01*
X190052000Y-49470000D02*
X190052000Y-50800000D01*
X188722000Y-49470000D02*
X190052000Y-49470000D01*
%TO.C,NO12.2*%
X187392000Y-105089000D02*
X190052000Y-105089000D01*
X187392000Y-104969000D02*
X187392000Y-105089000D01*
X190052000Y-104969000D02*
X190052000Y-105089000D01*
X190052000Y-102429000D02*
X190052000Y-103759000D01*
X188722000Y-102429000D02*
X190052000Y-102429000D01*
%TO.C,PI12.1*%
X169358000Y-92262000D02*
X172018000Y-92262000D01*
X169358000Y-92142000D02*
X169358000Y-92262000D01*
X172018000Y-92142000D02*
X172018000Y-92262000D01*
X172018000Y-89602000D02*
X172018000Y-90932000D01*
X170688000Y-89602000D02*
X172018000Y-89602000D01*
%TO.C,PI12.2*%
X170688000Y-142561000D02*
X172018000Y-142561000D01*
X172018000Y-142561000D02*
X172018000Y-143891000D01*
X172018000Y-145101000D02*
X172018000Y-145221000D01*
X169358000Y-145101000D02*
X169358000Y-145221000D01*
X169358000Y-145221000D02*
X172018000Y-145221000D01*
%TO.C,PO12.2*%
X170688000Y-102429000D02*
X172018000Y-102429000D01*
X172018000Y-102429000D02*
X172018000Y-103759000D01*
X172018000Y-104969000D02*
X172018000Y-105089000D01*
X169358000Y-104969000D02*
X169358000Y-105089000D01*
X169358000Y-105089000D02*
X172018000Y-105089000D01*
%TO.C,PO12.1*%
X169358000Y-52130000D02*
X172018000Y-52130000D01*
X169358000Y-52010000D02*
X169358000Y-52130000D01*
X172018000Y-52010000D02*
X172018000Y-52130000D01*
X172018000Y-49470000D02*
X172018000Y-50800000D01*
X170688000Y-49470000D02*
X172018000Y-49470000D01*
%TO.C,Regulador5.3*%
X117542000Y-58039000D02*
X120202000Y-58039000D01*
X117542000Y-58039000D02*
X117542000Y-68259000D01*
X117542000Y-68259000D02*
X120202000Y-68259000D01*
X120202000Y-58039000D02*
X120202000Y-68259000D01*
X120202000Y-55439000D02*
X120202000Y-56769000D01*
X118872000Y-55439000D02*
X120202000Y-55439000D01*
%TO.C,Regulador5.1*%
X118364000Y-122749000D02*
X119694000Y-122749000D01*
X119694000Y-122749000D02*
X119694000Y-124079000D01*
X119694000Y-125349000D02*
X119694000Y-135569000D01*
X117034000Y-135569000D02*
X119694000Y-135569000D01*
X117034000Y-125349000D02*
X117034000Y-135569000D01*
X117034000Y-125349000D02*
X119694000Y-125349000D01*
%TO.C,Regulador5.2*%
X155762000Y-99568000D02*
X153102000Y-99568000D01*
X155762000Y-99568000D02*
X155762000Y-89348000D01*
X155762000Y-89348000D02*
X153102000Y-89348000D01*
X153102000Y-99568000D02*
X153102000Y-89348000D01*
X153102000Y-102168000D02*
X153102000Y-100838000D01*
X154432000Y-102168000D02*
X153102000Y-102168000D01*
%TO.C,R5*%
D10*
X135570933Y-102778580D02*
X135237600Y-102302390D01*
X134999504Y-102778580D02*
X134999504Y-101778580D01*
X135380457Y-101778580D01*
X135475695Y-101826200D01*
X135523314Y-101873819D01*
X135570933Y-101969057D01*
X135570933Y-102111914D01*
X135523314Y-102207152D01*
X135475695Y-102254771D01*
X135380457Y-102302390D01*
X134999504Y-102302390D01*
X136475695Y-101778580D02*
X135999504Y-101778580D01*
X135951885Y-102254771D01*
X135999504Y-102207152D01*
X136094742Y-102159533D01*
X136332838Y-102159533D01*
X136428076Y-102207152D01*
X136475695Y-102254771D01*
X136523314Y-102350009D01*
X136523314Y-102588104D01*
X136475695Y-102683342D01*
X136428076Y-102730961D01*
X136332838Y-102778580D01*
X136094742Y-102778580D01*
X135999504Y-102730961D01*
X135951885Y-102683342D01*
%TO.C,R4*%
X132319733Y-128432580D02*
X131986400Y-127956390D01*
X131748304Y-128432580D02*
X131748304Y-127432580D01*
X132129257Y-127432580D01*
X132224495Y-127480200D01*
X132272114Y-127527819D01*
X132319733Y-127623057D01*
X132319733Y-127765914D01*
X132272114Y-127861152D01*
X132224495Y-127908771D01*
X132129257Y-127956390D01*
X131748304Y-127956390D01*
X133176876Y-127765914D02*
X133176876Y-128432580D01*
X132938780Y-127384961D02*
X132700685Y-128099247D01*
X133319733Y-128099247D01*
%TO.C,R3*%
X180567033Y-54399680D02*
X180233700Y-53923490D01*
X179995604Y-54399680D02*
X179995604Y-53399680D01*
X180376557Y-53399680D01*
X180471795Y-53447300D01*
X180519414Y-53494919D01*
X180567033Y-53590157D01*
X180567033Y-53733014D01*
X180519414Y-53828252D01*
X180471795Y-53875871D01*
X180376557Y-53923490D01*
X179995604Y-53923490D01*
X180900366Y-53399680D02*
X181519414Y-53399680D01*
X181186080Y-53780633D01*
X181328938Y-53780633D01*
X181424176Y-53828252D01*
X181471795Y-53875871D01*
X181519414Y-53971109D01*
X181519414Y-54209204D01*
X181471795Y-54304442D01*
X181424176Y-54352061D01*
X181328938Y-54399680D01*
X181043223Y-54399680D01*
X180947985Y-54352061D01*
X180900366Y-54304442D01*
%TO.C,R2*%
X180554333Y-125651280D02*
X180221000Y-125175090D01*
X179982904Y-125651280D02*
X179982904Y-124651280D01*
X180363857Y-124651280D01*
X180459095Y-124698900D01*
X180506714Y-124746519D01*
X180554333Y-124841757D01*
X180554333Y-124984614D01*
X180506714Y-125079852D01*
X180459095Y-125127471D01*
X180363857Y-125175090D01*
X179982904Y-125175090D01*
X180935285Y-124746519D02*
X180982904Y-124698900D01*
X181078142Y-124651280D01*
X181316238Y-124651280D01*
X181411476Y-124698900D01*
X181459095Y-124746519D01*
X181506714Y-124841757D01*
X181506714Y-124936995D01*
X181459095Y-125079852D01*
X180887666Y-125651280D01*
X181506714Y-125651280D01*
%TO.C,R1*%
X138682433Y-67993280D02*
X138349100Y-67517090D01*
X138111004Y-67993280D02*
X138111004Y-66993280D01*
X138491957Y-66993280D01*
X138587195Y-67040900D01*
X138634814Y-67088519D01*
X138682433Y-67183757D01*
X138682433Y-67326614D01*
X138634814Y-67421852D01*
X138587195Y-67469471D01*
X138491957Y-67517090D01*
X138111004Y-67517090D01*
X139634814Y-67993280D02*
X139063385Y-67993280D01*
X139349100Y-67993280D02*
X139349100Y-66993280D01*
X139253861Y-67136138D01*
X139158623Y-67231376D01*
X139063385Y-67278995D01*
%TO.C,F5*%
D15*
X131654366Y-119036785D02*
X131231033Y-119036785D01*
X131231033Y-119702023D02*
X131231033Y-118432023D01*
X131835795Y-118432023D01*
X132924366Y-118432023D02*
X132319604Y-118432023D01*
X132259128Y-119036785D01*
X132319604Y-118976309D01*
X132440557Y-118915833D01*
X132742938Y-118915833D01*
X132863890Y-118976309D01*
X132924366Y-119036785D01*
X132984842Y-119157738D01*
X132984842Y-119460119D01*
X132924366Y-119581071D01*
X132863890Y-119641547D01*
X132742938Y-119702023D01*
X132440557Y-119702023D01*
X132319604Y-119641547D01*
X132259128Y-119581071D01*
%TO.C,F4*%
X181569966Y-61058285D02*
X181146633Y-61058285D01*
X181146633Y-61723523D02*
X181146633Y-60453523D01*
X181751395Y-60453523D01*
X182779490Y-60876857D02*
X182779490Y-61723523D01*
X182477109Y-60393047D02*
X182174728Y-61300190D01*
X182960919Y-61300190D01*
%TO.C,F3*%
X180422366Y-116039585D02*
X179999033Y-116039585D01*
X179999033Y-116704823D02*
X179999033Y-115434823D01*
X180603795Y-115434823D01*
X180966652Y-115434823D02*
X181752842Y-115434823D01*
X181329509Y-115918633D01*
X181510938Y-115918633D01*
X181631890Y-115979109D01*
X181692366Y-116039585D01*
X181752842Y-116160538D01*
X181752842Y-116462919D01*
X181692366Y-116583871D01*
X181631890Y-116644347D01*
X181510938Y-116704823D01*
X181148080Y-116704823D01*
X181027128Y-116644347D01*
X180966652Y-116583871D01*
%TO.C,F2*%
X138423466Y-58229185D02*
X138000133Y-58229185D01*
X138000133Y-58894423D02*
X138000133Y-57624423D01*
X138604895Y-57624423D01*
X139028228Y-57745376D02*
X139088704Y-57684900D01*
X139209657Y-57624423D01*
X139512038Y-57624423D01*
X139632990Y-57684900D01*
X139693466Y-57745376D01*
X139753942Y-57866328D01*
X139753942Y-57987280D01*
X139693466Y-58168709D01*
X138967752Y-58894423D01*
X139753942Y-58894423D01*
%TO.C,F1*%
X135197666Y-92785885D02*
X134774333Y-92785885D01*
X134774333Y-93451123D02*
X134774333Y-92181123D01*
X135379095Y-92181123D01*
X136528142Y-93451123D02*
X135802428Y-93451123D01*
X136165285Y-93451123D02*
X136165285Y-92181123D01*
X136044333Y-92362552D01*
X135923380Y-92483504D01*
X135802428Y-92543980D01*
%TO.C,Salida1*%
D10*
X151965352Y-148512161D02*
X152108209Y-148559780D01*
X152346304Y-148559780D01*
X152441542Y-148512161D01*
X152489161Y-148464542D01*
X152536780Y-148369304D01*
X152536780Y-148274066D01*
X152489161Y-148178828D01*
X152441542Y-148131209D01*
X152346304Y-148083590D01*
X152155828Y-148035971D01*
X152060590Y-147988352D01*
X152012971Y-147940733D01*
X151965352Y-147845495D01*
X151965352Y-147750257D01*
X152012971Y-147655019D01*
X152060590Y-147607400D01*
X152155828Y-147559780D01*
X152393923Y-147559780D01*
X152536780Y-147607400D01*
X153393923Y-148559780D02*
X153393923Y-148035971D01*
X153346304Y-147940733D01*
X153251066Y-147893114D01*
X153060590Y-147893114D01*
X152965352Y-147940733D01*
X153393923Y-148512161D02*
X153298685Y-148559780D01*
X153060590Y-148559780D01*
X152965352Y-148512161D01*
X152917733Y-148416923D01*
X152917733Y-148321685D01*
X152965352Y-148226447D01*
X153060590Y-148178828D01*
X153298685Y-148178828D01*
X153393923Y-148131209D01*
X154012971Y-148559780D02*
X153917733Y-148512161D01*
X153870114Y-148416923D01*
X153870114Y-147559780D01*
X154393923Y-148559780D02*
X154393923Y-147893114D01*
X154393923Y-147559780D02*
X154346304Y-147607400D01*
X154393923Y-147655019D01*
X154441542Y-147607400D01*
X154393923Y-147559780D01*
X154393923Y-147655019D01*
X155298685Y-148559780D02*
X155298685Y-147559780D01*
X155298685Y-148512161D02*
X155203447Y-148559780D01*
X155012971Y-148559780D01*
X154917733Y-148512161D01*
X154870114Y-148464542D01*
X154822495Y-148369304D01*
X154822495Y-148083590D01*
X154870114Y-147988352D01*
X154917733Y-147940733D01*
X155012971Y-147893114D01*
X155203447Y-147893114D01*
X155298685Y-147940733D01*
X156203447Y-148559780D02*
X156203447Y-148035971D01*
X156155828Y-147940733D01*
X156060590Y-147893114D01*
X155870114Y-147893114D01*
X155774876Y-147940733D01*
X156203447Y-148512161D02*
X156108209Y-148559780D01*
X155870114Y-148559780D01*
X155774876Y-148512161D01*
X155727257Y-148416923D01*
X155727257Y-148321685D01*
X155774876Y-148226447D01*
X155870114Y-148178828D01*
X156108209Y-148178828D01*
X156203447Y-148131209D01*
X157203447Y-148559780D02*
X156632019Y-148559780D01*
X156917733Y-148559780D02*
X156917733Y-147559780D01*
X156822495Y-147702638D01*
X156727257Y-147797876D01*
X156632019Y-147845495D01*
%TO.C,Extra1*%
X179771942Y-148340771D02*
X180105276Y-148340771D01*
X180248133Y-148864580D02*
X179771942Y-148864580D01*
X179771942Y-147864580D01*
X180248133Y-147864580D01*
X180581466Y-148864580D02*
X181105276Y-148197914D01*
X180581466Y-148197914D02*
X181105276Y-148864580D01*
X181343371Y-148197914D02*
X181724323Y-148197914D01*
X181486228Y-147864580D02*
X181486228Y-148721723D01*
X181533847Y-148816961D01*
X181629085Y-148864580D01*
X181724323Y-148864580D01*
X182057657Y-148864580D02*
X182057657Y-148197914D01*
X182057657Y-148388390D02*
X182105276Y-148293152D01*
X182152895Y-148245533D01*
X182248133Y-148197914D01*
X182343371Y-148197914D01*
X183105276Y-148864580D02*
X183105276Y-148340771D01*
X183057657Y-148245533D01*
X182962419Y-148197914D01*
X182771942Y-148197914D01*
X182676704Y-148245533D01*
X183105276Y-148816961D02*
X183010038Y-148864580D01*
X182771942Y-148864580D01*
X182676704Y-148816961D01*
X182629085Y-148721723D01*
X182629085Y-148626485D01*
X182676704Y-148531247D01*
X182771942Y-148483628D01*
X183010038Y-148483628D01*
X183105276Y-148436009D01*
X184105276Y-148864580D02*
X183533847Y-148864580D01*
X183819561Y-148864580D02*
X183819561Y-147864580D01*
X183724323Y-148007438D01*
X183629085Y-148102676D01*
X183533847Y-148150295D01*
%TO.C,Alimentaci\u00F3n1*%
X121014171Y-148070866D02*
X121490361Y-148070866D01*
X120918933Y-148356580D02*
X121252266Y-147356580D01*
X121585600Y-148356580D01*
X122061790Y-148356580D02*
X121966552Y-148308961D01*
X121918933Y-148213723D01*
X121918933Y-147356580D01*
X122442742Y-148356580D02*
X122442742Y-147689914D01*
X122442742Y-147356580D02*
X122395123Y-147404200D01*
X122442742Y-147451819D01*
X122490361Y-147404200D01*
X122442742Y-147356580D01*
X122442742Y-147451819D01*
X122918933Y-148356580D02*
X122918933Y-147689914D01*
X122918933Y-147785152D02*
X122966552Y-147737533D01*
X123061790Y-147689914D01*
X123204647Y-147689914D01*
X123299885Y-147737533D01*
X123347504Y-147832771D01*
X123347504Y-148356580D01*
X123347504Y-147832771D02*
X123395123Y-147737533D01*
X123490361Y-147689914D01*
X123633219Y-147689914D01*
X123728457Y-147737533D01*
X123776076Y-147832771D01*
X123776076Y-148356580D01*
X124633219Y-148308961D02*
X124537980Y-148356580D01*
X124347504Y-148356580D01*
X124252266Y-148308961D01*
X124204647Y-148213723D01*
X124204647Y-147832771D01*
X124252266Y-147737533D01*
X124347504Y-147689914D01*
X124537980Y-147689914D01*
X124633219Y-147737533D01*
X124680838Y-147832771D01*
X124680838Y-147928009D01*
X124204647Y-148023247D01*
X125109409Y-147689914D02*
X125109409Y-148356580D01*
X125109409Y-147785152D02*
X125157028Y-147737533D01*
X125252266Y-147689914D01*
X125395123Y-147689914D01*
X125490361Y-147737533D01*
X125537980Y-147832771D01*
X125537980Y-148356580D01*
X125871314Y-147689914D02*
X126252266Y-147689914D01*
X126014171Y-147356580D02*
X126014171Y-148213723D01*
X126061790Y-148308961D01*
X126157028Y-148356580D01*
X126252266Y-148356580D01*
X127014171Y-148356580D02*
X127014171Y-147832771D01*
X126966552Y-147737533D01*
X126871314Y-147689914D01*
X126680838Y-147689914D01*
X126585600Y-147737533D01*
X127014171Y-148308961D02*
X126918933Y-148356580D01*
X126680838Y-148356580D01*
X126585600Y-148308961D01*
X126537980Y-148213723D01*
X126537980Y-148118485D01*
X126585600Y-148023247D01*
X126680838Y-147975628D01*
X126918933Y-147975628D01*
X127014171Y-147928009D01*
X127918933Y-148308961D02*
X127823695Y-148356580D01*
X127633219Y-148356580D01*
X127537980Y-148308961D01*
X127490361Y-148261342D01*
X127442742Y-148166104D01*
X127442742Y-147880390D01*
X127490361Y-147785152D01*
X127537980Y-147737533D01*
X127633219Y-147689914D01*
X127823695Y-147689914D01*
X127918933Y-147737533D01*
X128347504Y-148356580D02*
X128347504Y-147689914D01*
X128347504Y-147356580D02*
X128299885Y-147404200D01*
X128347504Y-147451819D01*
X128395123Y-147404200D01*
X128347504Y-147356580D01*
X128347504Y-147451819D01*
X128966552Y-148356580D02*
X128871314Y-148308961D01*
X128823695Y-148261342D01*
X128776076Y-148166104D01*
X128776076Y-147880390D01*
X128823695Y-147785152D01*
X128871314Y-147737533D01*
X128966552Y-147689914D01*
X129109409Y-147689914D01*
X129204647Y-147737533D01*
X129252266Y-147785152D01*
X129299885Y-147880390D01*
X129299885Y-148166104D01*
X129252266Y-148261342D01*
X129204647Y-148308961D01*
X129109409Y-148356580D01*
X128966552Y-148356580D01*
X129157028Y-147308961D02*
X129014171Y-147451819D01*
X129728457Y-147689914D02*
X129728457Y-148356580D01*
X129728457Y-147785152D02*
X129776076Y-147737533D01*
X129871314Y-147689914D01*
X130014171Y-147689914D01*
X130109409Y-147737533D01*
X130157028Y-147832771D01*
X130157028Y-148356580D01*
X131157028Y-148356580D02*
X130585600Y-148356580D01*
X130871314Y-148356580D02*
X130871314Y-147356580D01*
X130776076Y-147499438D01*
X130680838Y-147594676D01*
X130585600Y-147642295D01*
%TO.C,H3*%
X152400095Y-125674380D02*
X152400095Y-124674380D01*
X152400095Y-125150571D02*
X152971523Y-125150571D01*
X152971523Y-125674380D02*
X152971523Y-124674380D01*
X153352476Y-124674380D02*
X153971523Y-124674380D01*
X153638190Y-125055333D01*
X153781047Y-125055333D01*
X153876285Y-125102952D01*
X153923904Y-125150571D01*
X153971523Y-125245809D01*
X153971523Y-125483904D01*
X153923904Y-125579142D01*
X153876285Y-125626761D01*
X153781047Y-125674380D01*
X153495333Y-125674380D01*
X153400095Y-125626761D01*
X153352476Y-125579142D01*
%TO.C,H2*%
X152908095Y-58451380D02*
X152908095Y-57451380D01*
X152908095Y-57927571D02*
X153479523Y-57927571D01*
X153479523Y-58451380D02*
X153479523Y-57451380D01*
X153908095Y-57546619D02*
X153955714Y-57499000D01*
X154050952Y-57451380D01*
X154289047Y-57451380D01*
X154384285Y-57499000D01*
X154431904Y-57546619D01*
X154479523Y-57641857D01*
X154479523Y-57737095D01*
X154431904Y-57879952D01*
X153860476Y-58451380D01*
X154479523Y-58451380D01*
%TO.C,H1*%
X118872095Y-92233380D02*
X118872095Y-91233380D01*
X118872095Y-91709571D02*
X119443523Y-91709571D01*
X119443523Y-92233380D02*
X119443523Y-91233380D01*
X120443523Y-92233380D02*
X119872095Y-92233380D01*
X120157809Y-92233380D02*
X120157809Y-91233380D01*
X120062571Y-91376238D01*
X119967333Y-91471476D01*
X119872095Y-91519095D01*
%TO.C,NI12.1*%
X186531523Y-88614380D02*
X186531523Y-87614380D01*
X187102952Y-88614380D01*
X187102952Y-87614380D01*
X187579142Y-88614380D02*
X187579142Y-87614380D01*
X188579142Y-88614380D02*
X188007714Y-88614380D01*
X188293428Y-88614380D02*
X188293428Y-87614380D01*
X188198190Y-87757238D01*
X188102952Y-87852476D01*
X188007714Y-87900095D01*
X188960095Y-87709619D02*
X189007714Y-87662000D01*
X189102952Y-87614380D01*
X189341047Y-87614380D01*
X189436285Y-87662000D01*
X189483904Y-87709619D01*
X189531523Y-87804857D01*
X189531523Y-87900095D01*
X189483904Y-88042952D01*
X188912476Y-88614380D01*
X189531523Y-88614380D01*
X189960095Y-88519142D02*
X190007714Y-88566761D01*
X189960095Y-88614380D01*
X189912476Y-88566761D01*
X189960095Y-88519142D01*
X189960095Y-88614380D01*
X190960095Y-88614380D02*
X190388666Y-88614380D01*
X190674380Y-88614380D02*
X190674380Y-87614380D01*
X190579142Y-87757238D01*
X190483904Y-87852476D01*
X190388666Y-87900095D01*
%TO.C,NI12.2*%
X186531523Y-141573380D02*
X186531523Y-140573380D01*
X187102952Y-141573380D01*
X187102952Y-140573380D01*
X187579142Y-141573380D02*
X187579142Y-140573380D01*
X188579142Y-141573380D02*
X188007714Y-141573380D01*
X188293428Y-141573380D02*
X188293428Y-140573380D01*
X188198190Y-140716238D01*
X188102952Y-140811476D01*
X188007714Y-140859095D01*
X188960095Y-140668619D02*
X189007714Y-140621000D01*
X189102952Y-140573380D01*
X189341047Y-140573380D01*
X189436285Y-140621000D01*
X189483904Y-140668619D01*
X189531523Y-140763857D01*
X189531523Y-140859095D01*
X189483904Y-141001952D01*
X188912476Y-141573380D01*
X189531523Y-141573380D01*
X189960095Y-141478142D02*
X190007714Y-141525761D01*
X189960095Y-141573380D01*
X189912476Y-141525761D01*
X189960095Y-141478142D01*
X189960095Y-141573380D01*
X190388666Y-140668619D02*
X190436285Y-140621000D01*
X190531523Y-140573380D01*
X190769619Y-140573380D01*
X190864857Y-140621000D01*
X190912476Y-140668619D01*
X190960095Y-140763857D01*
X190960095Y-140859095D01*
X190912476Y-141001952D01*
X190341047Y-141573380D01*
X190960095Y-141573380D01*
%TO.C,NO12.1*%
X186245809Y-48482380D02*
X186245809Y-47482380D01*
X186817238Y-48482380D01*
X186817238Y-47482380D01*
X187483904Y-47482380D02*
X187674380Y-47482380D01*
X187769619Y-47530000D01*
X187864857Y-47625238D01*
X187912476Y-47815714D01*
X187912476Y-48149047D01*
X187864857Y-48339523D01*
X187769619Y-48434761D01*
X187674380Y-48482380D01*
X187483904Y-48482380D01*
X187388666Y-48434761D01*
X187293428Y-48339523D01*
X187245809Y-48149047D01*
X187245809Y-47815714D01*
X187293428Y-47625238D01*
X187388666Y-47530000D01*
X187483904Y-47482380D01*
X188864857Y-48482380D02*
X188293428Y-48482380D01*
X188579142Y-48482380D02*
X188579142Y-47482380D01*
X188483904Y-47625238D01*
X188388666Y-47720476D01*
X188293428Y-47768095D01*
X189245809Y-47577619D02*
X189293428Y-47530000D01*
X189388666Y-47482380D01*
X189626761Y-47482380D01*
X189722000Y-47530000D01*
X189769619Y-47577619D01*
X189817238Y-47672857D01*
X189817238Y-47768095D01*
X189769619Y-47910952D01*
X189198190Y-48482380D01*
X189817238Y-48482380D01*
X190245809Y-48387142D02*
X190293428Y-48434761D01*
X190245809Y-48482380D01*
X190198190Y-48434761D01*
X190245809Y-48387142D01*
X190245809Y-48482380D01*
X191245809Y-48482380D02*
X190674380Y-48482380D01*
X190960095Y-48482380D02*
X190960095Y-47482380D01*
X190864857Y-47625238D01*
X190769619Y-47720476D01*
X190674380Y-47768095D01*
%TO.C,NO12.2*%
X186245809Y-101441380D02*
X186245809Y-100441380D01*
X186817238Y-101441380D01*
X186817238Y-100441380D01*
X187483904Y-100441380D02*
X187674380Y-100441380D01*
X187769619Y-100489000D01*
X187864857Y-100584238D01*
X187912476Y-100774714D01*
X187912476Y-101108047D01*
X187864857Y-101298523D01*
X187769619Y-101393761D01*
X187674380Y-101441380D01*
X187483904Y-101441380D01*
X187388666Y-101393761D01*
X187293428Y-101298523D01*
X187245809Y-101108047D01*
X187245809Y-100774714D01*
X187293428Y-100584238D01*
X187388666Y-100489000D01*
X187483904Y-100441380D01*
X188864857Y-101441380D02*
X188293428Y-101441380D01*
X188579142Y-101441380D02*
X188579142Y-100441380D01*
X188483904Y-100584238D01*
X188388666Y-100679476D01*
X188293428Y-100727095D01*
X189245809Y-100536619D02*
X189293428Y-100489000D01*
X189388666Y-100441380D01*
X189626761Y-100441380D01*
X189722000Y-100489000D01*
X189769619Y-100536619D01*
X189817238Y-100631857D01*
X189817238Y-100727095D01*
X189769619Y-100869952D01*
X189198190Y-101441380D01*
X189817238Y-101441380D01*
X190245809Y-101346142D02*
X190293428Y-101393761D01*
X190245809Y-101441380D01*
X190198190Y-101393761D01*
X190245809Y-101346142D01*
X190245809Y-101441380D01*
X190674380Y-100536619D02*
X190722000Y-100489000D01*
X190817238Y-100441380D01*
X191055333Y-100441380D01*
X191150571Y-100489000D01*
X191198190Y-100536619D01*
X191245809Y-100631857D01*
X191245809Y-100727095D01*
X191198190Y-100869952D01*
X190626761Y-101441380D01*
X191245809Y-101441380D01*
%TO.C,PI12.1*%
X168521333Y-88614380D02*
X168521333Y-87614380D01*
X168902285Y-87614380D01*
X168997523Y-87662000D01*
X169045142Y-87709619D01*
X169092761Y-87804857D01*
X169092761Y-87947714D01*
X169045142Y-88042952D01*
X168997523Y-88090571D01*
X168902285Y-88138190D01*
X168521333Y-88138190D01*
X169521333Y-88614380D02*
X169521333Y-87614380D01*
X170521333Y-88614380D02*
X169949904Y-88614380D01*
X170235619Y-88614380D02*
X170235619Y-87614380D01*
X170140380Y-87757238D01*
X170045142Y-87852476D01*
X169949904Y-87900095D01*
X170902285Y-87709619D02*
X170949904Y-87662000D01*
X171045142Y-87614380D01*
X171283238Y-87614380D01*
X171378476Y-87662000D01*
X171426095Y-87709619D01*
X171473714Y-87804857D01*
X171473714Y-87900095D01*
X171426095Y-88042952D01*
X170854666Y-88614380D01*
X171473714Y-88614380D01*
X171902285Y-88519142D02*
X171949904Y-88566761D01*
X171902285Y-88614380D01*
X171854666Y-88566761D01*
X171902285Y-88519142D01*
X171902285Y-88614380D01*
X172902285Y-88614380D02*
X172330857Y-88614380D01*
X172616571Y-88614380D02*
X172616571Y-87614380D01*
X172521333Y-87757238D01*
X172426095Y-87852476D01*
X172330857Y-87900095D01*
%TO.C,PI12.2*%
X168521333Y-141573380D02*
X168521333Y-140573380D01*
X168902285Y-140573380D01*
X168997523Y-140621000D01*
X169045142Y-140668619D01*
X169092761Y-140763857D01*
X169092761Y-140906714D01*
X169045142Y-141001952D01*
X168997523Y-141049571D01*
X168902285Y-141097190D01*
X168521333Y-141097190D01*
X169521333Y-141573380D02*
X169521333Y-140573380D01*
X170521333Y-141573380D02*
X169949904Y-141573380D01*
X170235619Y-141573380D02*
X170235619Y-140573380D01*
X170140380Y-140716238D01*
X170045142Y-140811476D01*
X169949904Y-140859095D01*
X170902285Y-140668619D02*
X170949904Y-140621000D01*
X171045142Y-140573380D01*
X171283238Y-140573380D01*
X171378476Y-140621000D01*
X171426095Y-140668619D01*
X171473714Y-140763857D01*
X171473714Y-140859095D01*
X171426095Y-141001952D01*
X170854666Y-141573380D01*
X171473714Y-141573380D01*
X171902285Y-141478142D02*
X171949904Y-141525761D01*
X171902285Y-141573380D01*
X171854666Y-141525761D01*
X171902285Y-141478142D01*
X171902285Y-141573380D01*
X172330857Y-140668619D02*
X172378476Y-140621000D01*
X172473714Y-140573380D01*
X172711809Y-140573380D01*
X172807047Y-140621000D01*
X172854666Y-140668619D01*
X172902285Y-140763857D01*
X172902285Y-140859095D01*
X172854666Y-141001952D01*
X172283238Y-141573380D01*
X172902285Y-141573380D01*
%TO.C,PO12.2*%
X168235619Y-101441380D02*
X168235619Y-100441380D01*
X168616571Y-100441380D01*
X168711809Y-100489000D01*
X168759428Y-100536619D01*
X168807047Y-100631857D01*
X168807047Y-100774714D01*
X168759428Y-100869952D01*
X168711809Y-100917571D01*
X168616571Y-100965190D01*
X168235619Y-100965190D01*
X169426095Y-100441380D02*
X169616571Y-100441380D01*
X169711809Y-100489000D01*
X169807047Y-100584238D01*
X169854666Y-100774714D01*
X169854666Y-101108047D01*
X169807047Y-101298523D01*
X169711809Y-101393761D01*
X169616571Y-101441380D01*
X169426095Y-101441380D01*
X169330857Y-101393761D01*
X169235619Y-101298523D01*
X169188000Y-101108047D01*
X169188000Y-100774714D01*
X169235619Y-100584238D01*
X169330857Y-100489000D01*
X169426095Y-100441380D01*
X170807047Y-101441380D02*
X170235619Y-101441380D01*
X170521333Y-101441380D02*
X170521333Y-100441380D01*
X170426095Y-100584238D01*
X170330857Y-100679476D01*
X170235619Y-100727095D01*
X171188000Y-100536619D02*
X171235619Y-100489000D01*
X171330857Y-100441380D01*
X171568952Y-100441380D01*
X171664190Y-100489000D01*
X171711809Y-100536619D01*
X171759428Y-100631857D01*
X171759428Y-100727095D01*
X171711809Y-100869952D01*
X171140380Y-101441380D01*
X171759428Y-101441380D01*
X172188000Y-101346142D02*
X172235619Y-101393761D01*
X172188000Y-101441380D01*
X172140380Y-101393761D01*
X172188000Y-101346142D01*
X172188000Y-101441380D01*
X172616571Y-100536619D02*
X172664190Y-100489000D01*
X172759428Y-100441380D01*
X172997523Y-100441380D01*
X173092761Y-100489000D01*
X173140380Y-100536619D01*
X173188000Y-100631857D01*
X173188000Y-100727095D01*
X173140380Y-100869952D01*
X172568952Y-101441380D01*
X173188000Y-101441380D01*
%TO.C,PO12.1*%
X168235619Y-48482380D02*
X168235619Y-47482380D01*
X168616571Y-47482380D01*
X168711809Y-47530000D01*
X168759428Y-47577619D01*
X168807047Y-47672857D01*
X168807047Y-47815714D01*
X168759428Y-47910952D01*
X168711809Y-47958571D01*
X168616571Y-48006190D01*
X168235619Y-48006190D01*
X169426095Y-47482380D02*
X169616571Y-47482380D01*
X169711809Y-47530000D01*
X169807047Y-47625238D01*
X169854666Y-47815714D01*
X169854666Y-48149047D01*
X169807047Y-48339523D01*
X169711809Y-48434761D01*
X169616571Y-48482380D01*
X169426095Y-48482380D01*
X169330857Y-48434761D01*
X169235619Y-48339523D01*
X169188000Y-48149047D01*
X169188000Y-47815714D01*
X169235619Y-47625238D01*
X169330857Y-47530000D01*
X169426095Y-47482380D01*
X170807047Y-48482380D02*
X170235619Y-48482380D01*
X170521333Y-48482380D02*
X170521333Y-47482380D01*
X170426095Y-47625238D01*
X170330857Y-47720476D01*
X170235619Y-47768095D01*
X171188000Y-47577619D02*
X171235619Y-47530000D01*
X171330857Y-47482380D01*
X171568952Y-47482380D01*
X171664190Y-47530000D01*
X171711809Y-47577619D01*
X171759428Y-47672857D01*
X171759428Y-47768095D01*
X171711809Y-47910952D01*
X171140380Y-48482380D01*
X171759428Y-48482380D01*
X172188000Y-48387142D02*
X172235619Y-48434761D01*
X172188000Y-48482380D01*
X172140380Y-48434761D01*
X172188000Y-48387142D01*
X172188000Y-48482380D01*
X173188000Y-48482380D02*
X172616571Y-48482380D01*
X172902285Y-48482380D02*
X172902285Y-47482380D01*
X172807047Y-47625238D01*
X172711809Y-47720476D01*
X172616571Y-47768095D01*
%TO.C,Regulador5.3*%
X114729142Y-54451380D02*
X114395809Y-53975190D01*
X114157714Y-54451380D02*
X114157714Y-53451380D01*
X114538666Y-53451380D01*
X114633904Y-53499000D01*
X114681523Y-53546619D01*
X114729142Y-53641857D01*
X114729142Y-53784714D01*
X114681523Y-53879952D01*
X114633904Y-53927571D01*
X114538666Y-53975190D01*
X114157714Y-53975190D01*
X115538666Y-54403761D02*
X115443428Y-54451380D01*
X115252952Y-54451380D01*
X115157714Y-54403761D01*
X115110095Y-54308523D01*
X115110095Y-53927571D01*
X115157714Y-53832333D01*
X115252952Y-53784714D01*
X115443428Y-53784714D01*
X115538666Y-53832333D01*
X115586285Y-53927571D01*
X115586285Y-54022809D01*
X115110095Y-54118047D01*
X116443428Y-53784714D02*
X116443428Y-54594238D01*
X116395809Y-54689476D01*
X116348190Y-54737095D01*
X116252952Y-54784714D01*
X116110095Y-54784714D01*
X116014857Y-54737095D01*
X116443428Y-54403761D02*
X116348190Y-54451380D01*
X116157714Y-54451380D01*
X116062476Y-54403761D01*
X116014857Y-54356142D01*
X115967238Y-54260904D01*
X115967238Y-53975190D01*
X116014857Y-53879952D01*
X116062476Y-53832333D01*
X116157714Y-53784714D01*
X116348190Y-53784714D01*
X116443428Y-53832333D01*
X117348190Y-53784714D02*
X117348190Y-54451380D01*
X116919619Y-53784714D02*
X116919619Y-54308523D01*
X116967238Y-54403761D01*
X117062476Y-54451380D01*
X117205333Y-54451380D01*
X117300571Y-54403761D01*
X117348190Y-54356142D01*
X117967238Y-54451380D02*
X117872000Y-54403761D01*
X117824380Y-54308523D01*
X117824380Y-53451380D01*
X118776761Y-54451380D02*
X118776761Y-53927571D01*
X118729142Y-53832333D01*
X118633904Y-53784714D01*
X118443428Y-53784714D01*
X118348190Y-53832333D01*
X118776761Y-54403761D02*
X118681523Y-54451380D01*
X118443428Y-54451380D01*
X118348190Y-54403761D01*
X118300571Y-54308523D01*
X118300571Y-54213285D01*
X118348190Y-54118047D01*
X118443428Y-54070428D01*
X118681523Y-54070428D01*
X118776761Y-54022809D01*
X119681523Y-54451380D02*
X119681523Y-53451380D01*
X119681523Y-54403761D02*
X119586285Y-54451380D01*
X119395809Y-54451380D01*
X119300571Y-54403761D01*
X119252952Y-54356142D01*
X119205333Y-54260904D01*
X119205333Y-53975190D01*
X119252952Y-53879952D01*
X119300571Y-53832333D01*
X119395809Y-53784714D01*
X119586285Y-53784714D01*
X119681523Y-53832333D01*
X120300571Y-54451380D02*
X120205333Y-54403761D01*
X120157714Y-54356142D01*
X120110095Y-54260904D01*
X120110095Y-53975190D01*
X120157714Y-53879952D01*
X120205333Y-53832333D01*
X120300571Y-53784714D01*
X120443428Y-53784714D01*
X120538666Y-53832333D01*
X120586285Y-53879952D01*
X120633904Y-53975190D01*
X120633904Y-54260904D01*
X120586285Y-54356142D01*
X120538666Y-54403761D01*
X120443428Y-54451380D01*
X120300571Y-54451380D01*
X121062476Y-54451380D02*
X121062476Y-53784714D01*
X121062476Y-53975190D02*
X121110095Y-53879952D01*
X121157714Y-53832333D01*
X121252952Y-53784714D01*
X121348190Y-53784714D01*
X122157714Y-53451380D02*
X121681523Y-53451380D01*
X121633904Y-53927571D01*
X121681523Y-53879952D01*
X121776761Y-53832333D01*
X122014857Y-53832333D01*
X122110095Y-53879952D01*
X122157714Y-53927571D01*
X122205333Y-54022809D01*
X122205333Y-54260904D01*
X122157714Y-54356142D01*
X122110095Y-54403761D01*
X122014857Y-54451380D01*
X121776761Y-54451380D01*
X121681523Y-54403761D01*
X121633904Y-54356142D01*
X122633904Y-54356142D02*
X122681523Y-54403761D01*
X122633904Y-54451380D01*
X122586285Y-54403761D01*
X122633904Y-54356142D01*
X122633904Y-54451380D01*
X123014857Y-53451380D02*
X123633904Y-53451380D01*
X123300571Y-53832333D01*
X123443428Y-53832333D01*
X123538666Y-53879952D01*
X123586285Y-53927571D01*
X123633904Y-54022809D01*
X123633904Y-54260904D01*
X123586285Y-54356142D01*
X123538666Y-54403761D01*
X123443428Y-54451380D01*
X123157714Y-54451380D01*
X123062476Y-54403761D01*
X123014857Y-54356142D01*
%TO.C,Regulador5.1*%
X114221142Y-121761380D02*
X113887809Y-121285190D01*
X113649714Y-121761380D02*
X113649714Y-120761380D01*
X114030666Y-120761380D01*
X114125904Y-120809000D01*
X114173523Y-120856619D01*
X114221142Y-120951857D01*
X114221142Y-121094714D01*
X114173523Y-121189952D01*
X114125904Y-121237571D01*
X114030666Y-121285190D01*
X113649714Y-121285190D01*
X115030666Y-121713761D02*
X114935428Y-121761380D01*
X114744952Y-121761380D01*
X114649714Y-121713761D01*
X114602095Y-121618523D01*
X114602095Y-121237571D01*
X114649714Y-121142333D01*
X114744952Y-121094714D01*
X114935428Y-121094714D01*
X115030666Y-121142333D01*
X115078285Y-121237571D01*
X115078285Y-121332809D01*
X114602095Y-121428047D01*
X115935428Y-121094714D02*
X115935428Y-121904238D01*
X115887809Y-121999476D01*
X115840190Y-122047095D01*
X115744952Y-122094714D01*
X115602095Y-122094714D01*
X115506857Y-122047095D01*
X115935428Y-121713761D02*
X115840190Y-121761380D01*
X115649714Y-121761380D01*
X115554476Y-121713761D01*
X115506857Y-121666142D01*
X115459238Y-121570904D01*
X115459238Y-121285190D01*
X115506857Y-121189952D01*
X115554476Y-121142333D01*
X115649714Y-121094714D01*
X115840190Y-121094714D01*
X115935428Y-121142333D01*
X116840190Y-121094714D02*
X116840190Y-121761380D01*
X116411619Y-121094714D02*
X116411619Y-121618523D01*
X116459238Y-121713761D01*
X116554476Y-121761380D01*
X116697333Y-121761380D01*
X116792571Y-121713761D01*
X116840190Y-121666142D01*
X117459238Y-121761380D02*
X117364000Y-121713761D01*
X117316380Y-121618523D01*
X117316380Y-120761380D01*
X118268761Y-121761380D02*
X118268761Y-121237571D01*
X118221142Y-121142333D01*
X118125904Y-121094714D01*
X117935428Y-121094714D01*
X117840190Y-121142333D01*
X118268761Y-121713761D02*
X118173523Y-121761380D01*
X117935428Y-121761380D01*
X117840190Y-121713761D01*
X117792571Y-121618523D01*
X117792571Y-121523285D01*
X117840190Y-121428047D01*
X117935428Y-121380428D01*
X118173523Y-121380428D01*
X118268761Y-121332809D01*
X119173523Y-121761380D02*
X119173523Y-120761380D01*
X119173523Y-121713761D02*
X119078285Y-121761380D01*
X118887809Y-121761380D01*
X118792571Y-121713761D01*
X118744952Y-121666142D01*
X118697333Y-121570904D01*
X118697333Y-121285190D01*
X118744952Y-121189952D01*
X118792571Y-121142333D01*
X118887809Y-121094714D01*
X119078285Y-121094714D01*
X119173523Y-121142333D01*
X119792571Y-121761380D02*
X119697333Y-121713761D01*
X119649714Y-121666142D01*
X119602095Y-121570904D01*
X119602095Y-121285190D01*
X119649714Y-121189952D01*
X119697333Y-121142333D01*
X119792571Y-121094714D01*
X119935428Y-121094714D01*
X120030666Y-121142333D01*
X120078285Y-121189952D01*
X120125904Y-121285190D01*
X120125904Y-121570904D01*
X120078285Y-121666142D01*
X120030666Y-121713761D01*
X119935428Y-121761380D01*
X119792571Y-121761380D01*
X120554476Y-121761380D02*
X120554476Y-121094714D01*
X120554476Y-121285190D02*
X120602095Y-121189952D01*
X120649714Y-121142333D01*
X120744952Y-121094714D01*
X120840190Y-121094714D01*
X121649714Y-120761380D02*
X121173523Y-120761380D01*
X121125904Y-121237571D01*
X121173523Y-121189952D01*
X121268761Y-121142333D01*
X121506857Y-121142333D01*
X121602095Y-121189952D01*
X121649714Y-121237571D01*
X121697333Y-121332809D01*
X121697333Y-121570904D01*
X121649714Y-121666142D01*
X121602095Y-121713761D01*
X121506857Y-121761380D01*
X121268761Y-121761380D01*
X121173523Y-121713761D01*
X121125904Y-121666142D01*
X122125904Y-121666142D02*
X122173523Y-121713761D01*
X122125904Y-121761380D01*
X122078285Y-121713761D01*
X122125904Y-121666142D01*
X122125904Y-121761380D01*
X123125904Y-121761380D02*
X122554476Y-121761380D01*
X122840190Y-121761380D02*
X122840190Y-120761380D01*
X122744952Y-120904238D01*
X122649714Y-120999476D01*
X122554476Y-121047095D01*
%TO.C,Regulador5.2*%
X150289142Y-104060380D02*
X149955809Y-103584190D01*
X149717714Y-104060380D02*
X149717714Y-103060380D01*
X150098666Y-103060380D01*
X150193904Y-103108000D01*
X150241523Y-103155619D01*
X150289142Y-103250857D01*
X150289142Y-103393714D01*
X150241523Y-103488952D01*
X150193904Y-103536571D01*
X150098666Y-103584190D01*
X149717714Y-103584190D01*
X151098666Y-104012761D02*
X151003428Y-104060380D01*
X150812952Y-104060380D01*
X150717714Y-104012761D01*
X150670095Y-103917523D01*
X150670095Y-103536571D01*
X150717714Y-103441333D01*
X150812952Y-103393714D01*
X151003428Y-103393714D01*
X151098666Y-103441333D01*
X151146285Y-103536571D01*
X151146285Y-103631809D01*
X150670095Y-103727047D01*
X152003428Y-103393714D02*
X152003428Y-104203238D01*
X151955809Y-104298476D01*
X151908190Y-104346095D01*
X151812952Y-104393714D01*
X151670095Y-104393714D01*
X151574857Y-104346095D01*
X152003428Y-104012761D02*
X151908190Y-104060380D01*
X151717714Y-104060380D01*
X151622476Y-104012761D01*
X151574857Y-103965142D01*
X151527238Y-103869904D01*
X151527238Y-103584190D01*
X151574857Y-103488952D01*
X151622476Y-103441333D01*
X151717714Y-103393714D01*
X151908190Y-103393714D01*
X152003428Y-103441333D01*
X152908190Y-103393714D02*
X152908190Y-104060380D01*
X152479619Y-103393714D02*
X152479619Y-103917523D01*
X152527238Y-104012761D01*
X152622476Y-104060380D01*
X152765333Y-104060380D01*
X152860571Y-104012761D01*
X152908190Y-103965142D01*
X153527238Y-104060380D02*
X153432000Y-104012761D01*
X153384380Y-103917523D01*
X153384380Y-103060380D01*
X154336761Y-104060380D02*
X154336761Y-103536571D01*
X154289142Y-103441333D01*
X154193904Y-103393714D01*
X154003428Y-103393714D01*
X153908190Y-103441333D01*
X154336761Y-104012761D02*
X154241523Y-104060380D01*
X154003428Y-104060380D01*
X153908190Y-104012761D01*
X153860571Y-103917523D01*
X153860571Y-103822285D01*
X153908190Y-103727047D01*
X154003428Y-103679428D01*
X154241523Y-103679428D01*
X154336761Y-103631809D01*
X155241523Y-104060380D02*
X155241523Y-103060380D01*
X155241523Y-104012761D02*
X155146285Y-104060380D01*
X154955809Y-104060380D01*
X154860571Y-104012761D01*
X154812952Y-103965142D01*
X154765333Y-103869904D01*
X154765333Y-103584190D01*
X154812952Y-103488952D01*
X154860571Y-103441333D01*
X154955809Y-103393714D01*
X155146285Y-103393714D01*
X155241523Y-103441333D01*
X155860571Y-104060380D02*
X155765333Y-104012761D01*
X155717714Y-103965142D01*
X155670095Y-103869904D01*
X155670095Y-103584190D01*
X155717714Y-103488952D01*
X155765333Y-103441333D01*
X155860571Y-103393714D01*
X156003428Y-103393714D01*
X156098666Y-103441333D01*
X156146285Y-103488952D01*
X156193904Y-103584190D01*
X156193904Y-103869904D01*
X156146285Y-103965142D01*
X156098666Y-104012761D01*
X156003428Y-104060380D01*
X155860571Y-104060380D01*
X156622476Y-104060380D02*
X156622476Y-103393714D01*
X156622476Y-103584190D02*
X156670095Y-103488952D01*
X156717714Y-103441333D01*
X156812952Y-103393714D01*
X156908190Y-103393714D01*
X157717714Y-103060380D02*
X157241523Y-103060380D01*
X157193904Y-103536571D01*
X157241523Y-103488952D01*
X157336761Y-103441333D01*
X157574857Y-103441333D01*
X157670095Y-103488952D01*
X157717714Y-103536571D01*
X157765333Y-103631809D01*
X157765333Y-103869904D01*
X157717714Y-103965142D01*
X157670095Y-104012761D01*
X157574857Y-104060380D01*
X157336761Y-104060380D01*
X157241523Y-104012761D01*
X157193904Y-103965142D01*
X158193904Y-103965142D02*
X158241523Y-104012761D01*
X158193904Y-104060380D01*
X158146285Y-104012761D01*
X158193904Y-103965142D01*
X158193904Y-104060380D01*
X158622476Y-103155619D02*
X158670095Y-103108000D01*
X158765333Y-103060380D01*
X159003428Y-103060380D01*
X159098666Y-103108000D01*
X159146285Y-103155619D01*
X159193904Y-103250857D01*
X159193904Y-103346095D01*
X159146285Y-103488952D01*
X158574857Y-104060380D01*
X159193904Y-104060380D01*
%TD*%
M02*
