M48
; DRILL file {KiCad (5.1.10)-1} date 05/29/21 12:39:01
; FORMAT={-:-/ absolute / metric / decimal}
; #@! TF.CreationDate,2021-05-29T12:39:01+02:00
; #@! TF.GenerationSoftware,Kicad,Pcbnew,(5.1.10)-1
; #@! TF.FileFunction,Plated,1,2,PTH
FMAT,2
METRIC
T1C0.700
T2C1.000
T3C1.360
T4C1.500
T5C1.600
%
G90
G05
T1
X129.946Y-126.06
X133.198Y-100.406
X135.026Y-126.06
X136.309Y-65.621
X138.278Y-100.406
X141.389Y-65.621
X178.181Y-123.279
X178.194Y-55.867
X183.261Y-123.279
X183.274Y-55.867
T2
X118.364Y-124.079
X118.364Y-126.619
X118.364Y-129.159
X118.364Y-131.699
X118.364Y-134.239
X118.872Y-56.769
X118.872Y-59.309
X118.872Y-61.849
X118.872Y-64.389
X118.872Y-66.929
X154.432Y-90.678
X154.432Y-93.218
X154.432Y-95.758
X154.432Y-98.298
X154.432Y-100.838
X170.688Y-50.8
X170.688Y-90.932
X170.688Y-103.759
X170.688Y-143.891
X188.722Y-50.8
X188.722Y-90.932
X188.722Y-103.759
X188.722Y-143.891
T3
X129.553Y-118.427
X133.096Y-92.177
X134.603Y-119.828
X136.322Y-57.62
X138.146Y-93.577
X141.372Y-59.02
X178.321Y-115.43
X179.468Y-60.449
X183.371Y-116.83
X184.518Y-61.849
T4
X141.859Y-124.269
X157.524Y-137.839
X171.971Y-133.286
X179.07Y-139.446
T5
X118.11Y-154.305
X123.19Y-154.305
X128.27Y-154.305
X133.35Y-154.305
X140.97Y-154.305
X146.05Y-154.305
X151.13Y-154.305
X156.21Y-154.305
X161.29Y-154.305
X166.37Y-154.305
X173.99Y-154.305
X179.07Y-154.305
X184.15Y-154.305
X189.23Y-154.305
T0
M30
