%TF.GenerationSoftware,KiCad,Pcbnew,(5.1.10)-1*%
%TF.CreationDate,2021-05-20T21:40:56+02:00*%
%TF.ProjectId,potencia,706f7465-6e63-4696-912e-6b696361645f,rev?*%
%TF.SameCoordinates,Original*%
%TF.FileFunction,Copper,L2,Bot*%
%TF.FilePolarity,Positive*%
%FSLAX46Y46*%
G04 Gerber Fmt 4.6, Leading zero omitted, Abs format (unit mm)*
G04 Created by KiCad (PCBNEW (5.1.10)-1) date 2021-05-20 21:40:56*
%MOMM*%
%LPD*%
G01*
G04 APERTURE LIST*
%TA.AperFunction,ComponentPad*%
%ADD10C,2.500000*%
%TD*%
%TA.AperFunction,ComponentPad*%
%ADD11R,1.700000X1.700000*%
%TD*%
%TA.AperFunction,ComponentPad*%
%ADD12O,1.700000X1.700000*%
%TD*%
%TA.AperFunction,ViaPad*%
%ADD13C,3.000000*%
%TD*%
%TA.AperFunction,Conductor*%
%ADD14C,2.500000*%
%TD*%
%TA.AperFunction,Conductor*%
%ADD15C,0.250000*%
%TD*%
%TA.AperFunction,Conductor*%
%ADD16C,0.254000*%
%TD*%
%TA.AperFunction,Conductor*%
%ADD17C,0.100000*%
%TD*%
G04 APERTURE END LIST*
D10*
%TO.P,5V    5V    5V   GND    12V    12V,6*%
%TO.N,12.2*%
X166370000Y-154305000D03*
%TO.P,5V    5V    5V   GND    12V    12V,1*%
%TO.N,5.1*%
X140970000Y-154305000D03*
%TO.P,5V    5V    5V   GND    12V    12V,2*%
%TO.N,5.2*%
X146050000Y-154305000D03*
%TO.P,5V    5V    5V   GND    12V    12V,4*%
%TO.N,GND*%
X156210000Y-154305000D03*
%TO.P,5V    5V    5V   GND    12V    12V,3*%
%TO.N,5.3*%
X151130000Y-154305000D03*
%TO.P,5V    5V    5V   GND    12V    12V,5*%
%TO.N,12.1*%
X161290000Y-154305000D03*
%TD*%
%TO.P,GND   5V   12V   GND,4*%
%TO.N,GND*%
X189230000Y-154305000D03*
%TO.P,GND   5V   12V   GND,2*%
%TO.N,5.2*%
X179070000Y-154305000D03*
%TO.P,GND   5V   12V   GND,3*%
%TO.N,12.2*%
X184150000Y-154305000D03*
%TO.P,GND   5V   12V   GND,1*%
%TO.N,GND*%
X173990000Y-154305000D03*
%TD*%
%TO.P,GND  GND   BAT  SETA,4*%
%TO.N,+15V*%
X133350000Y-154305000D03*
%TO.P,GND  GND   BAT  SETA,2*%
%TO.N,GND*%
X123190000Y-154305000D03*
%TO.P,GND  GND   BAT  SETA,3*%
%TO.N,+BATT*%
X128270000Y-154305000D03*
%TO.P,GND  GND   BAT  SETA,1*%
%TO.N,GND*%
X118110000Y-154305000D03*
%TD*%
D11*
%TO.P,NI12.1,1*%
%TO.N,GND*%
X188722000Y-90932000D03*
%TD*%
%TO.P,NI12.2,1*%
%TO.N,GND*%
X188722000Y-143891000D03*
%TD*%
%TO.P,NO12.1,1*%
%TO.N,GND*%
X188722000Y-50800000D03*
%TD*%
%TO.P,NO12.2,1*%
%TO.N,GND*%
X188722000Y-103759000D03*
%TD*%
%TO.P,PI12.1,1*%
%TO.N,+15V*%
X170688000Y-90932000D03*
%TD*%
%TO.P,PI12.2,1*%
%TO.N,+15V*%
X170688000Y-143891000D03*
%TD*%
%TO.P,PO12.2,1*%
%TO.N,12.1*%
X170688000Y-103759000D03*
%TD*%
%TO.P,PO12.1,1*%
%TO.N,12.2*%
X170688000Y-50800000D03*
%TD*%
%TO.P,Regulador5.3,1*%
%TO.N,+BATT*%
X118872000Y-56769000D03*
D12*
%TO.P,Regulador5.3,2*%
%TO.N,Net-(Regulador5.3-Pad2)*%
X118872000Y-59309000D03*
%TO.P,Regulador5.3,3*%
%TO.N,GND*%
X118872000Y-61849000D03*
%TO.P,Regulador5.3,4*%
%TO.N,Net-(Regulador5.3-Pad4)*%
X118872000Y-64389000D03*
%TO.P,Regulador5.3,5*%
%TO.N,5.3*%
X118872000Y-66929000D03*
%TD*%
%TO.P,Regulador5.1,5*%
%TO.N,5.1*%
X118364000Y-134239000D03*
%TO.P,Regulador5.1,4*%
%TO.N,Net-(Regulador5.1-Pad4)*%
X118364000Y-131699000D03*
%TO.P,Regulador5.1,3*%
%TO.N,GND*%
X118364000Y-129159000D03*
%TO.P,Regulador5.1,2*%
%TO.N,Net-(Regulador5.1-Pad2)*%
X118364000Y-126619000D03*
D11*
%TO.P,Regulador5.1,1*%
%TO.N,+BATT*%
X118364000Y-124079000D03*
%TD*%
%TO.P,Regulador5.2,1*%
%TO.N,+BATT*%
X154432000Y-100838000D03*
D12*
%TO.P,Regulador5.2,2*%
%TO.N,Net-(Regulador5.2-Pad2)*%
X154432000Y-98298000D03*
%TO.P,Regulador5.2,3*%
%TO.N,GND*%
X154432000Y-95758000D03*
%TO.P,Regulador5.2,4*%
%TO.N,Net-(Regulador5.2-Pad4)*%
X154432000Y-93218000D03*
%TO.P,Regulador5.2,5*%
%TO.N,5.2*%
X154432000Y-90678000D03*
%TD*%
D13*
%TO.N,+15V*%
X136994900Y-132537200D03*
X170688000Y-135648700D03*
%TO.N,+BATT*%
X129146300Y-87896700D03*
%TO.N,5.1*%
X122809000Y-138938000D03*
X136906000Y-138938000D03*
%TO.N,5.2*%
X179070000Y-139446000D03*
X142659100Y-99593400D03*
%TO.N,12.1*%
X162737800Y-104559100D03*
%TD*%
D14*
%TO.N,+15V*%
X133350000Y-138675610D02*
X133324600Y-138650210D01*
X133350000Y-154305000D02*
X133350000Y-138675610D01*
X133324600Y-138650210D02*
X133324600Y-135966200D01*
X170688000Y-143891000D02*
X170688000Y-140541000D01*
X170688000Y-140541000D02*
X170688000Y-135648700D01*
X170688000Y-117589300D02*
X177076100Y-111201200D01*
X177076100Y-97320100D02*
X170688000Y-90932000D01*
X177076100Y-111201200D02*
X177076100Y-97320100D01*
X170688000Y-135648700D02*
X170688000Y-117589300D01*
X133565900Y-135966200D02*
X136994900Y-132537200D01*
X133324600Y-135966200D02*
X133565900Y-135966200D01*
D15*
%TO.N,+BATT*%
X118364000Y-124079000D02*
X117696999Y-123411999D01*
X128270000Y-133985000D02*
X128219200Y-133934200D01*
D14*
X119228002Y-124079000D02*
X118364000Y-124079000D01*
X128270000Y-133120998D02*
X119228002Y-124079000D01*
X128270000Y-154305000D02*
X128270000Y-133120998D01*
X118364000Y-124079000D02*
X118364000Y-109156500D01*
X118364000Y-109156500D02*
X129146300Y-98374200D01*
X129146300Y-98374200D02*
X129146300Y-87896700D01*
X129146300Y-87896700D02*
X129146300Y-87896700D01*
D15*
%TO.N,GND*%
X188722000Y-154241500D02*
X189230000Y-154749500D01*
%TO.N,5.1*%
X118364000Y-134493000D02*
X118364000Y-134239000D01*
X136906000Y-138938000D02*
X136906000Y-138938000D01*
D14*
X140970000Y-143002000D02*
X136906000Y-138938000D01*
X140970000Y-154305000D02*
X140970000Y-143002000D01*
X122809000Y-138684000D02*
X118364000Y-134239000D01*
X122809000Y-138938000D02*
X122809000Y-138684000D01*
D15*
%TO.N,5.2*%
X146050000Y-154305000D02*
X146050000Y-153670000D01*
X179070000Y-154305000D02*
X179070000Y-153035000D01*
X179070000Y-153035000D02*
X179070000Y-153670000D01*
D14*
X179070000Y-154305000D02*
X179070000Y-139446000D01*
X179070000Y-139446000D02*
X179070000Y-139446000D01*
X142659100Y-103987600D02*
X142659100Y-137833100D01*
X146050000Y-141224000D02*
X146050000Y-154305000D01*
X142659100Y-137833100D02*
X146050000Y-141224000D01*
X142659100Y-103987600D02*
X142659100Y-99593400D01*
D15*
%TO.N,5.3*%
X118872000Y-68072000D02*
X118872000Y-66929000D01*
D14*
X121478020Y-66929000D02*
X118872000Y-66929000D01*
X148750010Y-106900990D02*
X148750010Y-94200990D01*
X147027900Y-108623100D02*
X148750010Y-106900990D01*
X148750010Y-94200990D02*
X121478020Y-66929000D01*
X147027900Y-133083300D02*
X147027900Y-108623100D01*
X151130000Y-137185400D02*
X147027900Y-133083300D01*
X151130000Y-154305000D02*
X151130000Y-137185400D01*
D15*
%TO.N,12.1*%
X170942000Y-104013000D02*
X170688000Y-103759000D01*
X161290000Y-154305000D02*
X161290000Y-153035000D01*
X161290000Y-153670000D02*
X161290000Y-153035000D01*
D14*
X158673800Y-151688800D02*
X161290000Y-154305000D01*
X158673800Y-111582200D02*
X158673800Y-151688800D01*
X162737800Y-107518200D02*
X158673800Y-111582200D01*
X162737800Y-104559100D02*
X162737800Y-107518200D01*
D15*
%TO.N,12.2*%
X166370000Y-154305000D02*
X166370000Y-153035000D01*
D14*
X164689999Y-147862499D02*
X163728400Y-146900900D01*
X164689999Y-152624999D02*
X164689999Y-147862499D01*
X166370000Y-154305000D02*
X164689999Y-152624999D01*
X167379650Y-109528352D02*
X167379650Y-82467450D01*
X163728400Y-113179602D02*
X167379650Y-109528352D01*
X163728400Y-146900900D02*
X163728400Y-113179602D01*
X170688000Y-79324200D02*
X170688000Y-50800000D01*
X181508400Y-90144600D02*
X170688000Y-79324200D01*
X187146990Y-108381590D02*
X181508400Y-102743000D01*
X187146990Y-138049000D02*
X187146990Y-108381590D01*
X181508400Y-102743000D02*
X181508400Y-90144600D01*
X184150000Y-141045990D02*
X187146990Y-138049000D01*
X184150000Y-154305000D02*
X184150000Y-141045990D01*
X167544750Y-82467450D02*
X170688000Y-79324200D01*
X167379650Y-82467450D02*
X167544750Y-82467450D01*
%TD*%
D16*
%TO.N,GND*%
X192634000Y-159614000D02*
X111912000Y-159614000D01*
X111912000Y-155618605D01*
X116976000Y-155618605D01*
X117101914Y-155908577D01*
X117434126Y-156074433D01*
X117792312Y-156172290D01*
X118162706Y-156198389D01*
X118531075Y-156151725D01*
X118883262Y-156034094D01*
X119118086Y-155908577D01*
X119244000Y-155618605D01*
X122056000Y-155618605D01*
X122181914Y-155908577D01*
X122514126Y-156074433D01*
X122872312Y-156172290D01*
X123242706Y-156198389D01*
X123611075Y-156151725D01*
X123963262Y-156034094D01*
X124198086Y-155908577D01*
X124324000Y-155618605D01*
X123190000Y-154484605D01*
X122056000Y-155618605D01*
X119244000Y-155618605D01*
X118110000Y-154484605D01*
X116976000Y-155618605D01*
X111912000Y-155618605D01*
X111912000Y-154357706D01*
X116216611Y-154357706D01*
X116263275Y-154726075D01*
X116380906Y-155078262D01*
X116506423Y-155313086D01*
X116796395Y-155439000D01*
X117930395Y-154305000D01*
X118289605Y-154305000D01*
X119423605Y-155439000D01*
X119713577Y-155313086D01*
X119879433Y-154980874D01*
X119977290Y-154622688D01*
X119995961Y-154357706D01*
X121296611Y-154357706D01*
X121343275Y-154726075D01*
X121460906Y-155078262D01*
X121586423Y-155313086D01*
X121876395Y-155439000D01*
X123010395Y-154305000D01*
X123369605Y-154305000D01*
X124503605Y-155439000D01*
X124793577Y-155313086D01*
X124959433Y-154980874D01*
X125057290Y-154622688D01*
X125083389Y-154252294D01*
X125036725Y-153883925D01*
X124919094Y-153531738D01*
X124793577Y-153296914D01*
X124503605Y-153171000D01*
X123369605Y-154305000D01*
X123010395Y-154305000D01*
X121876395Y-153171000D01*
X121586423Y-153296914D01*
X121420567Y-153629126D01*
X121322710Y-153987312D01*
X121296611Y-154357706D01*
X119995961Y-154357706D01*
X120003389Y-154252294D01*
X119956725Y-153883925D01*
X119839094Y-153531738D01*
X119713577Y-153296914D01*
X119423605Y-153171000D01*
X118289605Y-154305000D01*
X117930395Y-154305000D01*
X116796395Y-153171000D01*
X116506423Y-153296914D01*
X116340567Y-153629126D01*
X116242710Y-153987312D01*
X116216611Y-154357706D01*
X111912000Y-154357706D01*
X111912000Y-152991395D01*
X116976000Y-152991395D01*
X118110000Y-154125395D01*
X119244000Y-152991395D01*
X122056000Y-152991395D01*
X123190000Y-154125395D01*
X124324000Y-152991395D01*
X124198086Y-152701423D01*
X123865874Y-152535567D01*
X123507688Y-152437710D01*
X123137294Y-152411611D01*
X122768925Y-152458275D01*
X122416738Y-152575906D01*
X122181914Y-152701423D01*
X122056000Y-152991395D01*
X119244000Y-152991395D01*
X119118086Y-152701423D01*
X118785874Y-152535567D01*
X118427688Y-152437710D01*
X118057294Y-152411611D01*
X117688925Y-152458275D01*
X117336738Y-152575906D01*
X117101914Y-152701423D01*
X116976000Y-152991395D01*
X111912000Y-152991395D01*
X111912000Y-134239000D01*
X116469881Y-134239000D01*
X116506275Y-134608524D01*
X116614062Y-134963848D01*
X116789098Y-135291317D01*
X116965628Y-135506420D01*
X120690516Y-139231308D01*
X120756047Y-139560756D01*
X120916988Y-139949302D01*
X121150637Y-140298983D01*
X121448017Y-140596363D01*
X121797698Y-140830012D01*
X122186244Y-140990953D01*
X122598721Y-141073000D01*
X123019279Y-141073000D01*
X123431756Y-140990953D01*
X123820302Y-140830012D01*
X124169983Y-140596363D01*
X124467363Y-140298983D01*
X124701012Y-139949302D01*
X124861953Y-139560756D01*
X124944000Y-139148279D01*
X124944000Y-138727721D01*
X124861953Y-138315244D01*
X124701012Y-137926698D01*
X124467363Y-137577017D01*
X124169983Y-137279637D01*
X123869964Y-137079171D01*
X119631420Y-132840628D01*
X119461735Y-132701372D01*
X119517475Y-132645632D01*
X119679990Y-132402411D01*
X119791932Y-132132158D01*
X119849000Y-131845260D01*
X119849000Y-131552740D01*
X119791932Y-131265842D01*
X119679990Y-130995589D01*
X119517475Y-130752368D01*
X119310632Y-130545525D01*
X119128466Y-130423805D01*
X119245355Y-130354178D01*
X119461588Y-130159269D01*
X119635641Y-129925920D01*
X119760825Y-129663099D01*
X119805476Y-129515890D01*
X119684155Y-129286000D01*
X118491000Y-129286000D01*
X118491000Y-129306000D01*
X118237000Y-129306000D01*
X118237000Y-129286000D01*
X117043845Y-129286000D01*
X116922524Y-129515890D01*
X116967175Y-129663099D01*
X117092359Y-129925920D01*
X117266412Y-130159269D01*
X117482645Y-130354178D01*
X117599534Y-130423805D01*
X117417368Y-130545525D01*
X117210525Y-130752368D01*
X117048010Y-130995589D01*
X116936068Y-131265842D01*
X116879000Y-131552740D01*
X116879000Y-131845260D01*
X116936068Y-132132158D01*
X117048010Y-132402411D01*
X117210525Y-132645632D01*
X117266265Y-132701372D01*
X117024655Y-132899655D01*
X116789098Y-133186683D01*
X116614062Y-133514152D01*
X116506275Y-133869476D01*
X116469881Y-134239000D01*
X111912000Y-134239000D01*
X111912000Y-124079000D01*
X116469880Y-124079000D01*
X116506275Y-124448524D01*
X116614061Y-124803848D01*
X116747493Y-125053482D01*
X116789097Y-125131317D01*
X117024655Y-125418345D01*
X117266264Y-125616629D01*
X117210525Y-125672368D01*
X117048010Y-125915589D01*
X116936068Y-126185842D01*
X116879000Y-126472740D01*
X116879000Y-126765260D01*
X116936068Y-127052158D01*
X117048010Y-127322411D01*
X117210525Y-127565632D01*
X117417368Y-127772475D01*
X117599534Y-127894195D01*
X117482645Y-127963822D01*
X117266412Y-128158731D01*
X117092359Y-128392080D01*
X116967175Y-128654901D01*
X116922524Y-128802110D01*
X117043845Y-129032000D01*
X118237000Y-129032000D01*
X118237000Y-129012000D01*
X118491000Y-129012000D01*
X118491000Y-129032000D01*
X119684155Y-129032000D01*
X119805476Y-128802110D01*
X119760825Y-128654901D01*
X119635641Y-128392080D01*
X119461588Y-128158731D01*
X119245355Y-127963822D01*
X119128466Y-127894195D01*
X119310632Y-127772475D01*
X119517475Y-127565632D01*
X119679990Y-127322411D01*
X119716786Y-127233577D01*
X126385001Y-133901792D01*
X126385000Y-154119344D01*
X126385000Y-154490656D01*
X126403155Y-154581930D01*
X126412275Y-154674523D01*
X126439283Y-154763556D01*
X126457439Y-154854834D01*
X126493054Y-154940816D01*
X126520061Y-155029847D01*
X126563919Y-155111900D01*
X126599534Y-155197882D01*
X126651238Y-155275262D01*
X126695097Y-155357317D01*
X126754122Y-155429239D01*
X126805825Y-155506618D01*
X126871630Y-155572423D01*
X126930655Y-155644345D01*
X127002577Y-155703370D01*
X127068382Y-155769175D01*
X127145761Y-155820878D01*
X127217683Y-155879903D01*
X127299739Y-155923763D01*
X127377118Y-155975466D01*
X127463097Y-156011080D01*
X127545152Y-156054939D01*
X127634187Y-156081947D01*
X127720166Y-156117561D01*
X127811441Y-156135717D01*
X127900476Y-156162725D01*
X127993071Y-156171845D01*
X128084344Y-156190000D01*
X128177403Y-156190000D01*
X128270000Y-156199120D01*
X128362597Y-156190000D01*
X128455656Y-156190000D01*
X128546929Y-156171845D01*
X128639523Y-156162725D01*
X128728556Y-156135717D01*
X128819834Y-156117561D01*
X128905816Y-156081946D01*
X128994847Y-156054939D01*
X129076900Y-156011081D01*
X129162882Y-155975466D01*
X129240262Y-155923762D01*
X129322317Y-155879903D01*
X129394239Y-155820878D01*
X129471618Y-155769175D01*
X129537423Y-155703370D01*
X129609345Y-155644345D01*
X129668370Y-155572423D01*
X129734175Y-155506618D01*
X129785878Y-155429239D01*
X129844903Y-155357317D01*
X129888763Y-155275261D01*
X129940466Y-155197882D01*
X129976080Y-155111903D01*
X130019939Y-155029848D01*
X130046947Y-154940813D01*
X130082561Y-154854834D01*
X130100717Y-154763559D01*
X130127725Y-154674524D01*
X130136845Y-154581929D01*
X130155000Y-154490656D01*
X130155000Y-135966200D01*
X131430480Y-135966200D01*
X131439601Y-136058806D01*
X131439600Y-138557620D01*
X131430481Y-138650210D01*
X131439600Y-138742799D01*
X131439600Y-138742806D01*
X131453646Y-138885417D01*
X131465001Y-139000706D01*
X131465000Y-154119344D01*
X131465000Y-154490656D01*
X131483155Y-154581930D01*
X131492275Y-154674523D01*
X131519283Y-154763556D01*
X131537439Y-154854834D01*
X131573054Y-154940816D01*
X131600061Y-155029847D01*
X131643919Y-155111900D01*
X131679534Y-155197882D01*
X131731238Y-155275262D01*
X131775097Y-155357317D01*
X131834122Y-155429239D01*
X131885825Y-155506618D01*
X131951630Y-155572423D01*
X132010655Y-155644345D01*
X132082577Y-155703370D01*
X132148382Y-155769175D01*
X132225761Y-155820878D01*
X132297683Y-155879903D01*
X132379739Y-155923763D01*
X132457118Y-155975466D01*
X132543097Y-156011080D01*
X132625152Y-156054939D01*
X132714187Y-156081947D01*
X132800166Y-156117561D01*
X132891441Y-156135717D01*
X132980476Y-156162725D01*
X133073071Y-156171845D01*
X133164344Y-156190000D01*
X133257403Y-156190000D01*
X133350000Y-156199120D01*
X133442597Y-156190000D01*
X133535656Y-156190000D01*
X133626929Y-156171845D01*
X133719523Y-156162725D01*
X133808556Y-156135717D01*
X133899834Y-156117561D01*
X133985816Y-156081946D01*
X134074847Y-156054939D01*
X134156900Y-156011081D01*
X134242882Y-155975466D01*
X134320262Y-155923762D01*
X134402317Y-155879903D01*
X134474239Y-155820878D01*
X134551618Y-155769175D01*
X134617423Y-155703370D01*
X134689345Y-155644345D01*
X134748370Y-155572423D01*
X134814175Y-155506618D01*
X134865878Y-155429239D01*
X134924903Y-155357317D01*
X134968763Y-155275261D01*
X135020466Y-155197882D01*
X135056080Y-155111903D01*
X135099939Y-155029848D01*
X135126947Y-154940813D01*
X135162561Y-154854834D01*
X135180717Y-154763559D01*
X135207725Y-154674524D01*
X135216845Y-154581929D01*
X135235000Y-154490656D01*
X135235000Y-140280070D01*
X135247637Y-140298983D01*
X135545017Y-140596363D01*
X135894698Y-140830012D01*
X136283244Y-140990953D01*
X136295623Y-140993415D01*
X139085001Y-143782794D01*
X139085000Y-154119344D01*
X139085000Y-154490656D01*
X139103155Y-154581930D01*
X139112275Y-154674523D01*
X139139283Y-154763556D01*
X139157439Y-154854834D01*
X139193054Y-154940816D01*
X139220061Y-155029847D01*
X139263919Y-155111900D01*
X139299534Y-155197882D01*
X139351238Y-155275262D01*
X139395097Y-155357317D01*
X139454122Y-155429239D01*
X139505825Y-155506618D01*
X139571630Y-155572423D01*
X139630655Y-155644345D01*
X139702577Y-155703370D01*
X139768382Y-155769175D01*
X139845761Y-155820878D01*
X139917683Y-155879903D01*
X139999739Y-155923763D01*
X140077118Y-155975466D01*
X140163097Y-156011080D01*
X140245152Y-156054939D01*
X140334187Y-156081947D01*
X140420166Y-156117561D01*
X140511441Y-156135717D01*
X140600476Y-156162725D01*
X140693071Y-156171845D01*
X140784344Y-156190000D01*
X140877403Y-156190000D01*
X140970000Y-156199120D01*
X141062597Y-156190000D01*
X141155656Y-156190000D01*
X141246929Y-156171845D01*
X141339523Y-156162725D01*
X141428556Y-156135717D01*
X141519834Y-156117561D01*
X141605816Y-156081946D01*
X141694847Y-156054939D01*
X141776900Y-156011081D01*
X141862882Y-155975466D01*
X141940262Y-155923762D01*
X142022317Y-155879903D01*
X142094239Y-155820878D01*
X142171618Y-155769175D01*
X142237423Y-155703370D01*
X142309345Y-155644345D01*
X142368370Y-155572423D01*
X142434175Y-155506618D01*
X142485878Y-155429239D01*
X142544903Y-155357317D01*
X142588763Y-155275261D01*
X142640466Y-155197882D01*
X142676080Y-155111903D01*
X142719939Y-155029848D01*
X142746947Y-154940813D01*
X142782561Y-154854834D01*
X142800717Y-154763559D01*
X142827725Y-154674524D01*
X142836845Y-154581929D01*
X142855000Y-154490656D01*
X142855000Y-143094589D01*
X142864119Y-143002000D01*
X142855000Y-142909411D01*
X142855000Y-142909403D01*
X142827725Y-142632476D01*
X142806755Y-142563345D01*
X142767858Y-142435120D01*
X142719939Y-142277152D01*
X142544903Y-141949683D01*
X142309345Y-141662655D01*
X142237423Y-141603630D01*
X138961415Y-138327623D01*
X138958953Y-138315244D01*
X138798012Y-137926698D01*
X138564363Y-137577017D01*
X138266983Y-137279637D01*
X137917302Y-137045988D01*
X137528756Y-136885047D01*
X137116279Y-136803000D01*
X136695721Y-136803000D01*
X136283244Y-136885047D01*
X135894698Y-137045988D01*
X135545017Y-137279637D01*
X135247637Y-137577017D01*
X135209600Y-137633943D01*
X135209600Y-136988292D01*
X137605278Y-134592615D01*
X137617656Y-134590153D01*
X138006202Y-134429212D01*
X138355883Y-134195563D01*
X138653263Y-133898183D01*
X138886912Y-133548502D01*
X139047853Y-133159956D01*
X139129900Y-132747479D01*
X139129900Y-132326921D01*
X139047853Y-131914444D01*
X138886912Y-131525898D01*
X138653263Y-131176217D01*
X138355883Y-130878837D01*
X138006202Y-130645188D01*
X137617656Y-130484247D01*
X137205179Y-130402200D01*
X136784621Y-130402200D01*
X136372144Y-130484247D01*
X135983598Y-130645188D01*
X135633917Y-130878837D01*
X135336537Y-131176217D01*
X135102888Y-131525898D01*
X134941947Y-131914444D01*
X134939485Y-131926822D01*
X132671947Y-134194361D01*
X132599752Y-134216261D01*
X132272283Y-134391297D01*
X131985255Y-134626855D01*
X131749697Y-134913883D01*
X131574661Y-135241352D01*
X131466875Y-135596676D01*
X131430480Y-135966200D01*
X130155000Y-135966200D01*
X130155000Y-133213584D01*
X130164119Y-133120997D01*
X130155000Y-133028410D01*
X130155000Y-133028401D01*
X130127725Y-132751474D01*
X130019939Y-132396150D01*
X129844903Y-132068681D01*
X129609345Y-131781653D01*
X129537423Y-131722628D01*
X120626376Y-122811582D01*
X120567347Y-122739655D01*
X120280319Y-122504097D01*
X120249000Y-122487357D01*
X120249000Y-109937292D01*
X130413723Y-99772570D01*
X130485645Y-99713545D01*
X130551332Y-99633506D01*
X130599164Y-99575221D01*
X130721203Y-99426517D01*
X130744398Y-99383121D01*
X140524100Y-99383121D01*
X140524100Y-99803679D01*
X140606147Y-100216156D01*
X140767088Y-100604702D01*
X140774101Y-100615197D01*
X140774100Y-103895003D01*
X140774100Y-103895004D01*
X140774101Y-137740501D01*
X140764981Y-137833100D01*
X140801375Y-138202624D01*
X140909162Y-138557948D01*
X141084198Y-138885417D01*
X141260728Y-139100520D01*
X141260731Y-139100523D01*
X141319756Y-139172445D01*
X141391677Y-139231469D01*
X144165000Y-142004793D01*
X144165001Y-154119339D01*
X144165000Y-154119344D01*
X144165000Y-154490656D01*
X144183157Y-154581939D01*
X144192276Y-154674524D01*
X144219282Y-154763550D01*
X144237439Y-154854834D01*
X144273056Y-154940822D01*
X144300062Y-155029848D01*
X144343917Y-155111895D01*
X144379534Y-155197882D01*
X144431242Y-155275269D01*
X144475098Y-155357317D01*
X144534118Y-155429233D01*
X144585825Y-155506618D01*
X144651636Y-155572429D01*
X144710656Y-155644345D01*
X144782572Y-155703365D01*
X144848382Y-155769175D01*
X144925766Y-155820881D01*
X144997684Y-155879903D01*
X145079735Y-155923760D01*
X145157118Y-155975466D01*
X145243101Y-156011081D01*
X145325153Y-156054939D01*
X145414184Y-156081946D01*
X145500166Y-156117561D01*
X145591444Y-156135717D01*
X145680477Y-156162725D01*
X145773071Y-156171845D01*
X145864344Y-156190000D01*
X145957403Y-156190000D01*
X146050000Y-156199120D01*
X146142597Y-156190000D01*
X146235656Y-156190000D01*
X146326929Y-156171845D01*
X146419524Y-156162725D01*
X146508559Y-156135717D01*
X146599834Y-156117561D01*
X146685813Y-156081947D01*
X146774848Y-156054939D01*
X146856903Y-156011080D01*
X146942882Y-155975466D01*
X147020261Y-155923763D01*
X147102317Y-155879903D01*
X147174239Y-155820878D01*
X147251618Y-155769175D01*
X147317423Y-155703370D01*
X147389345Y-155644345D01*
X147448370Y-155572423D01*
X147514175Y-155506618D01*
X147565878Y-155429239D01*
X147624903Y-155357317D01*
X147668763Y-155275261D01*
X147720466Y-155197882D01*
X147756080Y-155111903D01*
X147799939Y-155029848D01*
X147826947Y-154940813D01*
X147862561Y-154854834D01*
X147880717Y-154763559D01*
X147907725Y-154674524D01*
X147916845Y-154581929D01*
X147935000Y-154490656D01*
X147935000Y-141316597D01*
X147944120Y-141224000D01*
X147907725Y-140854476D01*
X147886754Y-140785345D01*
X147799939Y-140499152D01*
X147624903Y-140171683D01*
X147540433Y-140068756D01*
X147448372Y-139956579D01*
X147448370Y-139956577D01*
X147389345Y-139884655D01*
X147317423Y-139825630D01*
X144544100Y-137052308D01*
X144544100Y-100615196D01*
X144551112Y-100604702D01*
X144712053Y-100216156D01*
X144794100Y-99803679D01*
X144794100Y-99383121D01*
X144712053Y-98970644D01*
X144551112Y-98582098D01*
X144317463Y-98232417D01*
X144020083Y-97935037D01*
X143670402Y-97701388D01*
X143281856Y-97540447D01*
X142869379Y-97458400D01*
X142448821Y-97458400D01*
X142036344Y-97540447D01*
X141647798Y-97701388D01*
X141298117Y-97935037D01*
X141000737Y-98232417D01*
X140767088Y-98582098D01*
X140606147Y-98970644D01*
X140524100Y-99383121D01*
X130744398Y-99383121D01*
X130896239Y-99099048D01*
X131004025Y-98743724D01*
X131031300Y-98466797D01*
X131031300Y-98466789D01*
X131040419Y-98374200D01*
X131031300Y-98281611D01*
X131031300Y-88918496D01*
X131038312Y-88908002D01*
X131199253Y-88519456D01*
X131281300Y-88106979D01*
X131281300Y-87686421D01*
X131199253Y-87273944D01*
X131038312Y-86885398D01*
X130804663Y-86535717D01*
X130507283Y-86238337D01*
X130157602Y-86004688D01*
X129769056Y-85843747D01*
X129356579Y-85761700D01*
X128936021Y-85761700D01*
X128523544Y-85843747D01*
X128134998Y-86004688D01*
X127785317Y-86238337D01*
X127487937Y-86535717D01*
X127254288Y-86885398D01*
X127093347Y-87273944D01*
X127011300Y-87686421D01*
X127011300Y-88106979D01*
X127093347Y-88519456D01*
X127254288Y-88908002D01*
X127261301Y-88918498D01*
X127261300Y-97593407D01*
X117096577Y-107758131D01*
X117024656Y-107817155D01*
X116965631Y-107889077D01*
X116965628Y-107889080D01*
X116789098Y-108104183D01*
X116614062Y-108431652D01*
X116506275Y-108786976D01*
X116469881Y-109156500D01*
X116479001Y-109249099D01*
X116479000Y-123986403D01*
X116469880Y-124079000D01*
X111912000Y-124079000D01*
X111912000Y-95410872D01*
X117399000Y-95410872D01*
X117399000Y-95851128D01*
X117484890Y-96282925D01*
X117653369Y-96689669D01*
X117897962Y-97055729D01*
X118209271Y-97367038D01*
X118575331Y-97611631D01*
X118982075Y-97780110D01*
X119413872Y-97866000D01*
X119854128Y-97866000D01*
X120285925Y-97780110D01*
X120692669Y-97611631D01*
X121058729Y-97367038D01*
X121370038Y-97055729D01*
X121614631Y-96689669D01*
X121783110Y-96282925D01*
X121869000Y-95851128D01*
X121869000Y-95410872D01*
X121783110Y-94979075D01*
X121614631Y-94572331D01*
X121370038Y-94206271D01*
X121058729Y-93894962D01*
X120692669Y-93650369D01*
X120285925Y-93481890D01*
X119854128Y-93396000D01*
X119413872Y-93396000D01*
X118982075Y-93481890D01*
X118575331Y-93650369D01*
X118209271Y-93894962D01*
X117897962Y-94206271D01*
X117653369Y-94572331D01*
X117484890Y-94979075D01*
X117399000Y-95410872D01*
X111912000Y-95410872D01*
X111912000Y-66929000D01*
X116977880Y-66929000D01*
X117014275Y-67298524D01*
X117122061Y-67653848D01*
X117297097Y-67981317D01*
X117532655Y-68268345D01*
X117819683Y-68503903D01*
X118147152Y-68678939D01*
X118502476Y-68786725D01*
X118661716Y-68802409D01*
X118723014Y-68821003D01*
X118872000Y-68835677D01*
X119020985Y-68821003D01*
X119044071Y-68814000D01*
X120697228Y-68814000D01*
X146865011Y-94981784D01*
X146865010Y-106120197D01*
X145760477Y-107224731D01*
X145688556Y-107283755D01*
X145629531Y-107355677D01*
X145629528Y-107355680D01*
X145452998Y-107570783D01*
X145277962Y-107898252D01*
X145170175Y-108253576D01*
X145133781Y-108623100D01*
X145142901Y-108715699D01*
X145142900Y-132990711D01*
X145133781Y-133083300D01*
X145142900Y-133175889D01*
X145142900Y-133175896D01*
X145154372Y-133292368D01*
X145170175Y-133452824D01*
X145187496Y-133509924D01*
X145277961Y-133808147D01*
X145452997Y-134135617D01*
X145688555Y-134422645D01*
X145760482Y-134481674D01*
X149245001Y-137966193D01*
X149245000Y-154119344D01*
X149245000Y-154490656D01*
X149263155Y-154581930D01*
X149272275Y-154674523D01*
X149299283Y-154763556D01*
X149317439Y-154854834D01*
X149353054Y-154940816D01*
X149380061Y-155029847D01*
X149423919Y-155111900D01*
X149459534Y-155197882D01*
X149511238Y-155275262D01*
X149555097Y-155357317D01*
X149614122Y-155429239D01*
X149665825Y-155506618D01*
X149731630Y-155572423D01*
X149790655Y-155644345D01*
X149862577Y-155703370D01*
X149928382Y-155769175D01*
X150005761Y-155820878D01*
X150077683Y-155879903D01*
X150159739Y-155923763D01*
X150237118Y-155975466D01*
X150323097Y-156011080D01*
X150405152Y-156054939D01*
X150494187Y-156081947D01*
X150580166Y-156117561D01*
X150671441Y-156135717D01*
X150760476Y-156162725D01*
X150853071Y-156171845D01*
X150944344Y-156190000D01*
X151037403Y-156190000D01*
X151130000Y-156199120D01*
X151222597Y-156190000D01*
X151315656Y-156190000D01*
X151406929Y-156171845D01*
X151499523Y-156162725D01*
X151588556Y-156135717D01*
X151679834Y-156117561D01*
X151765816Y-156081946D01*
X151854847Y-156054939D01*
X151936900Y-156011081D01*
X152022882Y-155975466D01*
X152100262Y-155923762D01*
X152182317Y-155879903D01*
X152254239Y-155820878D01*
X152331618Y-155769175D01*
X152397423Y-155703370D01*
X152469345Y-155644345D01*
X152490469Y-155618605D01*
X155076000Y-155618605D01*
X155201914Y-155908577D01*
X155534126Y-156074433D01*
X155892312Y-156172290D01*
X156262706Y-156198389D01*
X156631075Y-156151725D01*
X156983262Y-156034094D01*
X157218086Y-155908577D01*
X157344000Y-155618605D01*
X156210000Y-154484605D01*
X155076000Y-155618605D01*
X152490469Y-155618605D01*
X152528370Y-155572423D01*
X152594175Y-155506618D01*
X152645878Y-155429239D01*
X152704903Y-155357317D01*
X152748763Y-155275261D01*
X152800466Y-155197882D01*
X152836080Y-155111903D01*
X152879939Y-155029848D01*
X152906947Y-154940813D01*
X152942561Y-154854834D01*
X152960717Y-154763559D01*
X152987725Y-154674524D01*
X152996845Y-154581929D01*
X153015000Y-154490656D01*
X153015000Y-154357706D01*
X154316611Y-154357706D01*
X154363275Y-154726075D01*
X154480906Y-155078262D01*
X154606423Y-155313086D01*
X154896395Y-155439000D01*
X156030395Y-154305000D01*
X154896395Y-153171000D01*
X154606423Y-153296914D01*
X154440567Y-153629126D01*
X154342710Y-153987312D01*
X154316611Y-154357706D01*
X153015000Y-154357706D01*
X153015000Y-152991395D01*
X155076000Y-152991395D01*
X156210000Y-154125395D01*
X156224143Y-154111253D01*
X156403748Y-154290858D01*
X156389605Y-154305000D01*
X157523605Y-155439000D01*
X157813577Y-155313086D01*
X157979433Y-154980874D01*
X158077290Y-154622688D01*
X158103389Y-154252294D01*
X158056725Y-153883925D01*
X157983301Y-153664093D01*
X159825823Y-155506615D01*
X159825825Y-155506618D01*
X160088382Y-155769175D01*
X160165762Y-155820878D01*
X160237683Y-155879903D01*
X160319740Y-155923763D01*
X160397118Y-155975466D01*
X160483094Y-156011078D01*
X160565151Y-156054939D01*
X160654189Y-156081948D01*
X160740166Y-156117561D01*
X160831440Y-156135716D01*
X160920476Y-156162725D01*
X161013071Y-156171845D01*
X161104344Y-156190000D01*
X161197403Y-156190000D01*
X161290000Y-156199120D01*
X161382597Y-156190000D01*
X161475656Y-156190000D01*
X161566929Y-156171845D01*
X161659524Y-156162725D01*
X161748560Y-156135716D01*
X161839834Y-156117561D01*
X161925811Y-156081948D01*
X162014849Y-156054939D01*
X162096906Y-156011078D01*
X162182882Y-155975466D01*
X162260260Y-155923763D01*
X162342317Y-155879903D01*
X162414239Y-155820878D01*
X162491618Y-155769175D01*
X162557423Y-155703370D01*
X162629345Y-155644345D01*
X162688370Y-155572423D01*
X162754175Y-155506618D01*
X162805878Y-155429239D01*
X162864903Y-155357317D01*
X162908763Y-155275260D01*
X162960466Y-155197882D01*
X162996078Y-155111906D01*
X163039939Y-155029849D01*
X163066948Y-154940811D01*
X163102561Y-154854834D01*
X163120716Y-154763560D01*
X163147725Y-154674524D01*
X163156845Y-154581929D01*
X163175000Y-154490656D01*
X163175000Y-154397596D01*
X163184120Y-154305000D01*
X163175000Y-154212403D01*
X163175000Y-154119344D01*
X163156845Y-154028071D01*
X163147725Y-153935476D01*
X163120716Y-153846440D01*
X163102561Y-153755166D01*
X163066948Y-153669189D01*
X163039939Y-153580151D01*
X162996078Y-153498094D01*
X162960466Y-153412118D01*
X162908763Y-153334740D01*
X162864903Y-153252683D01*
X162805878Y-153180762D01*
X162754175Y-153103382D01*
X162491618Y-152840825D01*
X162491615Y-152840823D01*
X160558800Y-150908008D01*
X160558800Y-113179602D01*
X161834281Y-113179602D01*
X161843401Y-113272201D01*
X161843400Y-146808311D01*
X161834281Y-146900900D01*
X161843400Y-146993489D01*
X161843400Y-146993496D01*
X161870675Y-147270423D01*
X161978461Y-147625747D01*
X162153497Y-147953217D01*
X162389055Y-148240245D01*
X162460982Y-148299274D01*
X162805000Y-148643292D01*
X162804999Y-152532409D01*
X162795880Y-152624999D01*
X162804999Y-152717588D01*
X162804999Y-152717595D01*
X162832274Y-152994522D01*
X162940060Y-153349846D01*
X163115096Y-153677316D01*
X163350654Y-153964344D01*
X163422581Y-154023373D01*
X164905825Y-155506618D01*
X165168382Y-155769175D01*
X165245761Y-155820878D01*
X165317682Y-155879902D01*
X165399735Y-155923760D01*
X165477118Y-155975466D01*
X165563101Y-156011081D01*
X165645151Y-156054938D01*
X165734181Y-156081945D01*
X165820166Y-156117561D01*
X165911447Y-156135718D01*
X166000475Y-156162724D01*
X166093062Y-156171843D01*
X166184344Y-156190000D01*
X166277412Y-156190000D01*
X166369999Y-156199119D01*
X166462586Y-156190000D01*
X166555656Y-156190000D01*
X166646940Y-156171843D01*
X166739523Y-156162724D01*
X166828547Y-156135719D01*
X166919834Y-156117561D01*
X167005823Y-156081943D01*
X167094848Y-156054938D01*
X167176894Y-156011084D01*
X167262882Y-155975466D01*
X167340272Y-155923756D01*
X167422316Y-155879902D01*
X167494227Y-155820886D01*
X167571618Y-155769175D01*
X167637434Y-155703359D01*
X167709344Y-155644344D01*
X167730467Y-155618605D01*
X172856000Y-155618605D01*
X172981914Y-155908577D01*
X173314126Y-156074433D01*
X173672312Y-156172290D01*
X174042706Y-156198389D01*
X174411075Y-156151725D01*
X174763262Y-156034094D01*
X174998086Y-155908577D01*
X175124000Y-155618605D01*
X173990000Y-154484605D01*
X172856000Y-155618605D01*
X167730467Y-155618605D01*
X167768359Y-155572434D01*
X167834175Y-155506618D01*
X167885886Y-155429227D01*
X167944902Y-155357316D01*
X167988756Y-155275272D01*
X168040466Y-155197882D01*
X168076084Y-155111894D01*
X168119938Y-155029848D01*
X168146943Y-154940823D01*
X168182561Y-154854834D01*
X168200719Y-154763547D01*
X168227724Y-154674523D01*
X168236843Y-154581940D01*
X168255000Y-154490656D01*
X168255000Y-154397586D01*
X168258927Y-154357706D01*
X172096611Y-154357706D01*
X172143275Y-154726075D01*
X172260906Y-155078262D01*
X172386423Y-155313086D01*
X172676395Y-155439000D01*
X173810395Y-154305000D01*
X174169605Y-154305000D01*
X175303605Y-155439000D01*
X175593577Y-155313086D01*
X175759433Y-154980874D01*
X175857290Y-154622688D01*
X175883389Y-154252294D01*
X175836725Y-153883925D01*
X175719094Y-153531738D01*
X175593577Y-153296914D01*
X175303605Y-153171000D01*
X174169605Y-154305000D01*
X173810395Y-154305000D01*
X172676395Y-153171000D01*
X172386423Y-153296914D01*
X172220567Y-153629126D01*
X172122710Y-153987312D01*
X172096611Y-154357706D01*
X168258927Y-154357706D01*
X168264119Y-154304999D01*
X168255000Y-154212412D01*
X168255000Y-154119344D01*
X168236843Y-154028062D01*
X168227724Y-153935475D01*
X168200718Y-153846447D01*
X168182561Y-153755166D01*
X168146945Y-153669181D01*
X168119938Y-153580151D01*
X168076081Y-153498101D01*
X168040466Y-153412118D01*
X167988760Y-153334735D01*
X167944902Y-153252682D01*
X167885878Y-153180761D01*
X167834175Y-153103382D01*
X167722188Y-152991395D01*
X172856000Y-152991395D01*
X173990000Y-154125395D01*
X175124000Y-152991395D01*
X174998086Y-152701423D01*
X174665874Y-152535567D01*
X174307688Y-152437710D01*
X173937294Y-152411611D01*
X173568925Y-152458275D01*
X173216738Y-152575906D01*
X172981914Y-152701423D01*
X172856000Y-152991395D01*
X167722188Y-152991395D01*
X167571618Y-152840825D01*
X166574999Y-151844207D01*
X166574999Y-147955085D01*
X166584118Y-147862498D01*
X166574999Y-147769911D01*
X166574999Y-147769902D01*
X166547724Y-147492975D01*
X166439938Y-147137651D01*
X166264902Y-146810182D01*
X166029344Y-146523154D01*
X165957417Y-146464125D01*
X165613400Y-146120108D01*
X165613400Y-113960394D01*
X168647073Y-110926722D01*
X168718995Y-110867697D01*
X168954553Y-110580669D01*
X169129589Y-110253200D01*
X169237375Y-109897876D01*
X169264650Y-109620949D01*
X169264650Y-109620940D01*
X169273769Y-109528353D01*
X169264650Y-109435766D01*
X169264650Y-104883398D01*
X169307463Y-104963494D01*
X169386815Y-105060185D01*
X169483506Y-105139537D01*
X169593820Y-105198502D01*
X169713518Y-105234812D01*
X169838000Y-105247072D01*
X171538000Y-105247072D01*
X171662482Y-105234812D01*
X171782180Y-105198502D01*
X171892494Y-105139537D01*
X171989185Y-105060185D01*
X172068537Y-104963494D01*
X172127502Y-104853180D01*
X172163812Y-104733482D01*
X172176072Y-104609000D01*
X172176072Y-102909000D01*
X172163812Y-102784518D01*
X172127502Y-102664820D01*
X172068537Y-102554506D01*
X171989185Y-102457815D01*
X171892494Y-102378463D01*
X171782180Y-102319498D01*
X171662482Y-102283188D01*
X171538000Y-102270928D01*
X169838000Y-102270928D01*
X169713518Y-102283188D01*
X169593820Y-102319498D01*
X169483506Y-102378463D01*
X169386815Y-102457815D01*
X169307463Y-102554506D01*
X169264650Y-102634602D01*
X169264650Y-92168984D01*
X169289628Y-92199420D01*
X175191101Y-98100894D01*
X175191100Y-110420407D01*
X169420577Y-116190931D01*
X169348656Y-116249955D01*
X169289631Y-116321877D01*
X169289628Y-116321880D01*
X169113098Y-116536983D01*
X168938062Y-116864452D01*
X168830275Y-117219776D01*
X168793881Y-117589300D01*
X168803001Y-117681899D01*
X168803000Y-134626904D01*
X168795988Y-134637398D01*
X168635047Y-135025944D01*
X168553000Y-135438421D01*
X168553000Y-135858979D01*
X168635047Y-136271456D01*
X168795988Y-136660002D01*
X168803001Y-136670497D01*
X168803000Y-140633596D01*
X168803001Y-140633606D01*
X168803000Y-143983596D01*
X168830275Y-144260523D01*
X168938061Y-144615847D01*
X169113097Y-144943317D01*
X169348655Y-145230345D01*
X169635683Y-145465903D01*
X169963152Y-145640939D01*
X170318476Y-145748725D01*
X170688000Y-145785120D01*
X171057523Y-145748725D01*
X171412847Y-145640939D01*
X171740317Y-145465903D01*
X172027345Y-145230345D01*
X172262903Y-144943317D01*
X172437939Y-144615848D01*
X172545725Y-144260524D01*
X172573000Y-143983597D01*
X172573000Y-139235721D01*
X176935000Y-139235721D01*
X176935000Y-139656279D01*
X177017047Y-140068756D01*
X177177988Y-140457302D01*
X177185001Y-140467798D01*
X177185000Y-154119344D01*
X177185000Y-154490656D01*
X177203155Y-154581930D01*
X177212275Y-154674523D01*
X177239283Y-154763556D01*
X177257439Y-154854834D01*
X177293054Y-154940816D01*
X177320061Y-155029847D01*
X177363919Y-155111900D01*
X177399534Y-155197882D01*
X177451238Y-155275262D01*
X177495097Y-155357317D01*
X177554122Y-155429239D01*
X177605825Y-155506618D01*
X177671630Y-155572423D01*
X177730655Y-155644345D01*
X177802577Y-155703370D01*
X177868382Y-155769175D01*
X177945761Y-155820878D01*
X178017683Y-155879903D01*
X178099739Y-155923763D01*
X178177118Y-155975466D01*
X178263097Y-156011080D01*
X178345152Y-156054939D01*
X178434187Y-156081947D01*
X178520166Y-156117561D01*
X178611441Y-156135717D01*
X178700476Y-156162725D01*
X178793071Y-156171845D01*
X178884344Y-156190000D01*
X178977403Y-156190000D01*
X179070000Y-156199120D01*
X179162597Y-156190000D01*
X179255656Y-156190000D01*
X179346929Y-156171845D01*
X179439523Y-156162725D01*
X179528556Y-156135717D01*
X179619834Y-156117561D01*
X179705816Y-156081946D01*
X179794847Y-156054939D01*
X179876900Y-156011081D01*
X179962882Y-155975466D01*
X180040262Y-155923762D01*
X180122317Y-155879903D01*
X180194239Y-155820878D01*
X180271618Y-155769175D01*
X180337423Y-155703370D01*
X180409345Y-155644345D01*
X180468370Y-155572423D01*
X180534175Y-155506618D01*
X180585878Y-155429239D01*
X180644903Y-155357317D01*
X180688763Y-155275261D01*
X180740466Y-155197882D01*
X180776080Y-155111903D01*
X180819939Y-155029848D01*
X180846947Y-154940813D01*
X180882561Y-154854834D01*
X180900717Y-154763559D01*
X180927725Y-154674524D01*
X180936845Y-154581929D01*
X180955000Y-154490656D01*
X180955000Y-140467796D01*
X180962012Y-140457302D01*
X181122953Y-140068756D01*
X181205000Y-139656279D01*
X181205000Y-139235721D01*
X181122953Y-138823244D01*
X180962012Y-138434698D01*
X180728363Y-138085017D01*
X180430983Y-137787637D01*
X180081302Y-137553988D01*
X179692756Y-137393047D01*
X179280279Y-137311000D01*
X178859721Y-137311000D01*
X178447244Y-137393047D01*
X178058698Y-137553988D01*
X177709017Y-137787637D01*
X177411637Y-138085017D01*
X177177988Y-138434698D01*
X177017047Y-138823244D01*
X176935000Y-139235721D01*
X172573000Y-139235721D01*
X172573000Y-136670496D01*
X172580012Y-136660002D01*
X172740953Y-136271456D01*
X172823000Y-135858979D01*
X172823000Y-135438421D01*
X172740953Y-135025944D01*
X172580012Y-134637398D01*
X172573000Y-134626904D01*
X172573000Y-118370092D01*
X178343523Y-112599570D01*
X178415445Y-112540545D01*
X178651003Y-112253517D01*
X178826039Y-111926048D01*
X178933825Y-111570724D01*
X178961100Y-111293797D01*
X178961100Y-111293796D01*
X178970220Y-111201200D01*
X178961100Y-111108603D01*
X178961100Y-97412697D01*
X178970220Y-97320100D01*
X178933825Y-96950576D01*
X178887935Y-96799298D01*
X178826039Y-96595252D01*
X178651003Y-96267783D01*
X178509293Y-96095109D01*
X178474472Y-96052679D01*
X178474470Y-96052677D01*
X178415445Y-95980755D01*
X178343523Y-95921730D01*
X171955420Y-89533628D01*
X171740317Y-89357098D01*
X171412848Y-89182062D01*
X171057524Y-89074275D01*
X170688000Y-89037881D01*
X170318476Y-89074275D01*
X169963152Y-89182062D01*
X169635683Y-89357098D01*
X169348655Y-89592655D01*
X169264650Y-89695016D01*
X169264650Y-83413342D01*
X170688000Y-81989992D01*
X179623401Y-90925393D01*
X179623400Y-102650411D01*
X179614281Y-102743000D01*
X179623400Y-102835589D01*
X179623400Y-102835596D01*
X179650675Y-103112523D01*
X179758461Y-103467847D01*
X179933497Y-103795317D01*
X180169055Y-104082345D01*
X180240982Y-104141374D01*
X185261991Y-109162383D01*
X185261990Y-137268207D01*
X182882577Y-139647621D01*
X182810656Y-139706645D01*
X182751631Y-139778567D01*
X182751628Y-139778570D01*
X182575098Y-139993673D01*
X182400062Y-140321142D01*
X182292275Y-140676466D01*
X182255881Y-141045990D01*
X182265001Y-141138589D01*
X182265000Y-154119344D01*
X182265000Y-154490656D01*
X182283155Y-154581930D01*
X182292275Y-154674523D01*
X182319283Y-154763556D01*
X182337439Y-154854834D01*
X182373054Y-154940816D01*
X182400061Y-155029847D01*
X182443919Y-155111900D01*
X182479534Y-155197882D01*
X182531238Y-155275262D01*
X182575097Y-155357317D01*
X182634122Y-155429239D01*
X182685825Y-155506618D01*
X182751630Y-155572423D01*
X182810655Y-155644345D01*
X182882577Y-155703370D01*
X182948382Y-155769175D01*
X183025761Y-155820878D01*
X183097683Y-155879903D01*
X183179739Y-155923763D01*
X183257118Y-155975466D01*
X183343097Y-156011080D01*
X183425152Y-156054939D01*
X183514187Y-156081947D01*
X183600166Y-156117561D01*
X183691441Y-156135717D01*
X183780476Y-156162725D01*
X183873071Y-156171845D01*
X183964344Y-156190000D01*
X184057403Y-156190000D01*
X184150000Y-156199120D01*
X184242597Y-156190000D01*
X184335656Y-156190000D01*
X184426929Y-156171845D01*
X184519523Y-156162725D01*
X184608556Y-156135717D01*
X184699834Y-156117561D01*
X184785816Y-156081946D01*
X184874847Y-156054939D01*
X184956900Y-156011081D01*
X185042882Y-155975466D01*
X185120262Y-155923762D01*
X185202317Y-155879903D01*
X185274239Y-155820878D01*
X185351618Y-155769175D01*
X185417423Y-155703370D01*
X185489345Y-155644345D01*
X185510469Y-155618605D01*
X188096000Y-155618605D01*
X188221914Y-155908577D01*
X188554126Y-156074433D01*
X188912312Y-156172290D01*
X189282706Y-156198389D01*
X189651075Y-156151725D01*
X190003262Y-156034094D01*
X190238086Y-155908577D01*
X190364000Y-155618605D01*
X189230000Y-154484605D01*
X188096000Y-155618605D01*
X185510469Y-155618605D01*
X185548370Y-155572423D01*
X185614175Y-155506618D01*
X185665878Y-155429239D01*
X185724903Y-155357317D01*
X185768763Y-155275261D01*
X185820466Y-155197882D01*
X185856080Y-155111903D01*
X185899939Y-155029848D01*
X185926947Y-154940813D01*
X185962561Y-154854834D01*
X185980717Y-154763559D01*
X186007725Y-154674524D01*
X186016845Y-154581929D01*
X186035000Y-154490656D01*
X186035000Y-154357706D01*
X187336611Y-154357706D01*
X187383275Y-154726075D01*
X187500906Y-155078262D01*
X187626423Y-155313086D01*
X187916395Y-155439000D01*
X189050395Y-154305000D01*
X189409605Y-154305000D01*
X190543605Y-155439000D01*
X190833577Y-155313086D01*
X190999433Y-154980874D01*
X191097290Y-154622688D01*
X191123389Y-154252294D01*
X191076725Y-153883925D01*
X190959094Y-153531738D01*
X190833577Y-153296914D01*
X190543605Y-153171000D01*
X189409605Y-154305000D01*
X189050395Y-154305000D01*
X187916395Y-153171000D01*
X187626423Y-153296914D01*
X187460567Y-153629126D01*
X187362710Y-153987312D01*
X187336611Y-154357706D01*
X186035000Y-154357706D01*
X186035000Y-152991395D01*
X188096000Y-152991395D01*
X189230000Y-154125395D01*
X190364000Y-152991395D01*
X190238086Y-152701423D01*
X189905874Y-152535567D01*
X189547688Y-152437710D01*
X189177294Y-152411611D01*
X188808925Y-152458275D01*
X188456738Y-152575906D01*
X188221914Y-152701423D01*
X188096000Y-152991395D01*
X186035000Y-152991395D01*
X186035000Y-144741000D01*
X187233928Y-144741000D01*
X187246188Y-144865482D01*
X187282498Y-144985180D01*
X187341463Y-145095494D01*
X187420815Y-145192185D01*
X187517506Y-145271537D01*
X187627820Y-145330502D01*
X187747518Y-145366812D01*
X187872000Y-145379072D01*
X188436250Y-145376000D01*
X188595000Y-145217250D01*
X188595000Y-144018000D01*
X188849000Y-144018000D01*
X188849000Y-145217250D01*
X189007750Y-145376000D01*
X189572000Y-145379072D01*
X189696482Y-145366812D01*
X189816180Y-145330502D01*
X189926494Y-145271537D01*
X190023185Y-145192185D01*
X190102537Y-145095494D01*
X190161502Y-144985180D01*
X190197812Y-144865482D01*
X190210072Y-144741000D01*
X190207000Y-144176750D01*
X190048250Y-144018000D01*
X188849000Y-144018000D01*
X188595000Y-144018000D01*
X187395750Y-144018000D01*
X187237000Y-144176750D01*
X187233928Y-144741000D01*
X186035000Y-144741000D01*
X186035000Y-143041000D01*
X187233928Y-143041000D01*
X187237000Y-143605250D01*
X187395750Y-143764000D01*
X188595000Y-143764000D01*
X188595000Y-142564750D01*
X188849000Y-142564750D01*
X188849000Y-143764000D01*
X190048250Y-143764000D01*
X190207000Y-143605250D01*
X190210072Y-143041000D01*
X190197812Y-142916518D01*
X190161502Y-142796820D01*
X190102537Y-142686506D01*
X190023185Y-142589815D01*
X189926494Y-142510463D01*
X189816180Y-142451498D01*
X189696482Y-142415188D01*
X189572000Y-142402928D01*
X189007750Y-142406000D01*
X188849000Y-142564750D01*
X188595000Y-142564750D01*
X188436250Y-142406000D01*
X187872000Y-142402928D01*
X187747518Y-142415188D01*
X187627820Y-142451498D01*
X187517506Y-142510463D01*
X187420815Y-142589815D01*
X187341463Y-142686506D01*
X187282498Y-142796820D01*
X187246188Y-142916518D01*
X187233928Y-143041000D01*
X186035000Y-143041000D01*
X186035000Y-141826782D01*
X188414413Y-139447370D01*
X188486335Y-139388345D01*
X188552664Y-139307524D01*
X188616083Y-139230247D01*
X188721893Y-139101317D01*
X188896929Y-138773848D01*
X188972494Y-138524744D01*
X189004715Y-138418525D01*
X189015789Y-138306086D01*
X189031990Y-138141597D01*
X189031990Y-138141589D01*
X189041109Y-138049000D01*
X189031990Y-137956411D01*
X189031990Y-108474176D01*
X189041109Y-108381589D01*
X189031990Y-108289002D01*
X189031990Y-108288993D01*
X189004715Y-108012066D01*
X188896929Y-107656742D01*
X188721893Y-107329273D01*
X188486335Y-107042245D01*
X188414408Y-106983216D01*
X186040192Y-104609000D01*
X187233928Y-104609000D01*
X187246188Y-104733482D01*
X187282498Y-104853180D01*
X187341463Y-104963494D01*
X187420815Y-105060185D01*
X187517506Y-105139537D01*
X187627820Y-105198502D01*
X187747518Y-105234812D01*
X187872000Y-105247072D01*
X188436250Y-105244000D01*
X188595000Y-105085250D01*
X188595000Y-103886000D01*
X188849000Y-103886000D01*
X188849000Y-105085250D01*
X189007750Y-105244000D01*
X189572000Y-105247072D01*
X189696482Y-105234812D01*
X189816180Y-105198502D01*
X189926494Y-105139537D01*
X190023185Y-105060185D01*
X190102537Y-104963494D01*
X190161502Y-104853180D01*
X190197812Y-104733482D01*
X190210072Y-104609000D01*
X190207000Y-104044750D01*
X190048250Y-103886000D01*
X188849000Y-103886000D01*
X188595000Y-103886000D01*
X187395750Y-103886000D01*
X187237000Y-104044750D01*
X187233928Y-104609000D01*
X186040192Y-104609000D01*
X184340192Y-102909000D01*
X187233928Y-102909000D01*
X187237000Y-103473250D01*
X187395750Y-103632000D01*
X188595000Y-103632000D01*
X188595000Y-102432750D01*
X188849000Y-102432750D01*
X188849000Y-103632000D01*
X190048250Y-103632000D01*
X190207000Y-103473250D01*
X190210072Y-102909000D01*
X190197812Y-102784518D01*
X190161502Y-102664820D01*
X190102537Y-102554506D01*
X190023185Y-102457815D01*
X189926494Y-102378463D01*
X189816180Y-102319498D01*
X189696482Y-102283188D01*
X189572000Y-102270928D01*
X189007750Y-102274000D01*
X188849000Y-102432750D01*
X188595000Y-102432750D01*
X188436250Y-102274000D01*
X187872000Y-102270928D01*
X187747518Y-102283188D01*
X187627820Y-102319498D01*
X187517506Y-102378463D01*
X187420815Y-102457815D01*
X187341463Y-102554506D01*
X187282498Y-102664820D01*
X187246188Y-102784518D01*
X187233928Y-102909000D01*
X184340192Y-102909000D01*
X183393400Y-101962208D01*
X183393400Y-91782000D01*
X187233928Y-91782000D01*
X187246188Y-91906482D01*
X187282498Y-92026180D01*
X187341463Y-92136494D01*
X187420815Y-92233185D01*
X187517506Y-92312537D01*
X187627820Y-92371502D01*
X187747518Y-92407812D01*
X187872000Y-92420072D01*
X188436250Y-92417000D01*
X188595000Y-92258250D01*
X188595000Y-91059000D01*
X188849000Y-91059000D01*
X188849000Y-92258250D01*
X189007750Y-92417000D01*
X189572000Y-92420072D01*
X189696482Y-92407812D01*
X189816180Y-92371502D01*
X189926494Y-92312537D01*
X190023185Y-92233185D01*
X190102537Y-92136494D01*
X190161502Y-92026180D01*
X190197812Y-91906482D01*
X190210072Y-91782000D01*
X190207000Y-91217750D01*
X190048250Y-91059000D01*
X188849000Y-91059000D01*
X188595000Y-91059000D01*
X187395750Y-91059000D01*
X187237000Y-91217750D01*
X187233928Y-91782000D01*
X183393400Y-91782000D01*
X183393400Y-90237186D01*
X183402519Y-90144599D01*
X183396354Y-90082000D01*
X187233928Y-90082000D01*
X187237000Y-90646250D01*
X187395750Y-90805000D01*
X188595000Y-90805000D01*
X188595000Y-89605750D01*
X188849000Y-89605750D01*
X188849000Y-90805000D01*
X190048250Y-90805000D01*
X190207000Y-90646250D01*
X190210072Y-90082000D01*
X190197812Y-89957518D01*
X190161502Y-89837820D01*
X190102537Y-89727506D01*
X190023185Y-89630815D01*
X189926494Y-89551463D01*
X189816180Y-89492498D01*
X189696482Y-89456188D01*
X189572000Y-89443928D01*
X189007750Y-89447000D01*
X188849000Y-89605750D01*
X188595000Y-89605750D01*
X188436250Y-89447000D01*
X187872000Y-89443928D01*
X187747518Y-89456188D01*
X187627820Y-89492498D01*
X187517506Y-89551463D01*
X187420815Y-89630815D01*
X187341463Y-89727506D01*
X187282498Y-89837820D01*
X187246188Y-89957518D01*
X187233928Y-90082000D01*
X183396354Y-90082000D01*
X183393400Y-90052012D01*
X183393400Y-90052003D01*
X183366125Y-89775076D01*
X183258339Y-89419752D01*
X183083303Y-89092283D01*
X182847745Y-88805255D01*
X182775818Y-88746226D01*
X172573000Y-78543408D01*
X172573000Y-51650000D01*
X187233928Y-51650000D01*
X187246188Y-51774482D01*
X187282498Y-51894180D01*
X187341463Y-52004494D01*
X187420815Y-52101185D01*
X187517506Y-52180537D01*
X187627820Y-52239502D01*
X187747518Y-52275812D01*
X187872000Y-52288072D01*
X188436250Y-52285000D01*
X188595000Y-52126250D01*
X188595000Y-50927000D01*
X188849000Y-50927000D01*
X188849000Y-52126250D01*
X189007750Y-52285000D01*
X189572000Y-52288072D01*
X189696482Y-52275812D01*
X189816180Y-52239502D01*
X189926494Y-52180537D01*
X190023185Y-52101185D01*
X190102537Y-52004494D01*
X190161502Y-51894180D01*
X190197812Y-51774482D01*
X190210072Y-51650000D01*
X190207000Y-51085750D01*
X190048250Y-50927000D01*
X188849000Y-50927000D01*
X188595000Y-50927000D01*
X187395750Y-50927000D01*
X187237000Y-51085750D01*
X187233928Y-51650000D01*
X172573000Y-51650000D01*
X172573000Y-50707403D01*
X172545725Y-50430476D01*
X172437939Y-50075152D01*
X172371044Y-49950000D01*
X187233928Y-49950000D01*
X187237000Y-50514250D01*
X187395750Y-50673000D01*
X188595000Y-50673000D01*
X188595000Y-49473750D01*
X188849000Y-49473750D01*
X188849000Y-50673000D01*
X190048250Y-50673000D01*
X190207000Y-50514250D01*
X190210072Y-49950000D01*
X190197812Y-49825518D01*
X190161502Y-49705820D01*
X190102537Y-49595506D01*
X190023185Y-49498815D01*
X189926494Y-49419463D01*
X189816180Y-49360498D01*
X189696482Y-49324188D01*
X189572000Y-49311928D01*
X189007750Y-49315000D01*
X188849000Y-49473750D01*
X188595000Y-49473750D01*
X188436250Y-49315000D01*
X187872000Y-49311928D01*
X187747518Y-49324188D01*
X187627820Y-49360498D01*
X187517506Y-49419463D01*
X187420815Y-49498815D01*
X187341463Y-49595506D01*
X187282498Y-49705820D01*
X187246188Y-49825518D01*
X187233928Y-49950000D01*
X172371044Y-49950000D01*
X172262903Y-49747683D01*
X172027345Y-49460655D01*
X171740317Y-49225097D01*
X171412848Y-49050061D01*
X171057524Y-48942275D01*
X170688000Y-48905880D01*
X170318477Y-48942275D01*
X169963153Y-49050061D01*
X169635684Y-49225097D01*
X169348656Y-49460655D01*
X169113098Y-49747683D01*
X168938062Y-50075152D01*
X168830276Y-50430476D01*
X168803001Y-50707403D01*
X168803000Y-78543407D01*
X166599150Y-80747257D01*
X166327333Y-80892547D01*
X166040305Y-81128105D01*
X165804747Y-81415133D01*
X165629711Y-81742602D01*
X165521925Y-82097926D01*
X165485530Y-82467450D01*
X165494651Y-82560057D01*
X165494650Y-108747559D01*
X162460977Y-111781233D01*
X162389056Y-111840257D01*
X162330031Y-111912179D01*
X162330028Y-111912182D01*
X162153498Y-112127285D01*
X161978462Y-112454754D01*
X161870675Y-112810078D01*
X161834281Y-113179602D01*
X160558800Y-113179602D01*
X160558800Y-112362992D01*
X164005223Y-108916570D01*
X164077145Y-108857545D01*
X164312703Y-108570517D01*
X164487739Y-108243048D01*
X164575631Y-107953307D01*
X164595525Y-107887725D01*
X164616907Y-107670628D01*
X164622800Y-107610797D01*
X164622800Y-107610789D01*
X164631919Y-107518200D01*
X164622800Y-107425611D01*
X164622800Y-105580896D01*
X164629812Y-105570402D01*
X164790753Y-105181856D01*
X164872800Y-104769379D01*
X164872800Y-104348821D01*
X164790753Y-103936344D01*
X164629812Y-103547798D01*
X164396163Y-103198117D01*
X164098783Y-102900737D01*
X163749102Y-102667088D01*
X163360556Y-102506147D01*
X162948079Y-102424100D01*
X162527521Y-102424100D01*
X162115044Y-102506147D01*
X161726498Y-102667088D01*
X161376817Y-102900737D01*
X161079437Y-103198117D01*
X160845788Y-103547798D01*
X160684847Y-103936344D01*
X160602800Y-104348821D01*
X160602800Y-104769379D01*
X160684847Y-105181856D01*
X160845788Y-105570402D01*
X160852800Y-105580897D01*
X160852801Y-106737406D01*
X157406382Y-110183826D01*
X157334455Y-110242855D01*
X157098897Y-110529883D01*
X156923861Y-110857353D01*
X156816075Y-111212677D01*
X156788800Y-111489604D01*
X156788800Y-111489611D01*
X156779681Y-111582200D01*
X156788800Y-111674789D01*
X156788801Y-151596201D01*
X156779681Y-151688800D01*
X156816075Y-152058324D01*
X156923862Y-152413648D01*
X157026576Y-152605812D01*
X156885874Y-152535567D01*
X156527688Y-152437710D01*
X156157294Y-152411611D01*
X155788925Y-152458275D01*
X155436738Y-152575906D01*
X155201914Y-152701423D01*
X155076000Y-152991395D01*
X153015000Y-152991395D01*
X153015000Y-137277986D01*
X153024119Y-137185399D01*
X153015000Y-137092812D01*
X153015000Y-137092803D01*
X152987725Y-136815876D01*
X152879939Y-136460552D01*
X152704903Y-136133083D01*
X152469345Y-135846055D01*
X152397418Y-135787026D01*
X148912900Y-132302508D01*
X148912900Y-128938872D01*
X150927000Y-128938872D01*
X150927000Y-129379128D01*
X151012890Y-129810925D01*
X151181369Y-130217669D01*
X151425962Y-130583729D01*
X151737271Y-130895038D01*
X152103331Y-131139631D01*
X152510075Y-131308110D01*
X152941872Y-131394000D01*
X153382128Y-131394000D01*
X153813925Y-131308110D01*
X154220669Y-131139631D01*
X154586729Y-130895038D01*
X154898038Y-130583729D01*
X155142631Y-130217669D01*
X155311110Y-129810925D01*
X155397000Y-129379128D01*
X155397000Y-128938872D01*
X155311110Y-128507075D01*
X155142631Y-128100331D01*
X154898038Y-127734271D01*
X154586729Y-127422962D01*
X154220669Y-127178369D01*
X153813925Y-127009890D01*
X153382128Y-126924000D01*
X152941872Y-126924000D01*
X152510075Y-127009890D01*
X152103331Y-127178369D01*
X151737271Y-127422962D01*
X151425962Y-127734271D01*
X151181369Y-128100331D01*
X151012890Y-128507075D01*
X150927000Y-128938872D01*
X148912900Y-128938872D01*
X148912900Y-109403892D01*
X150017433Y-108299360D01*
X150089355Y-108240335D01*
X150324913Y-107953307D01*
X150499949Y-107625838D01*
X150607735Y-107270514D01*
X150635010Y-106993587D01*
X150635010Y-106993578D01*
X150644129Y-106900991D01*
X150635010Y-106808404D01*
X150635010Y-99988000D01*
X152943928Y-99988000D01*
X152943928Y-101688000D01*
X152956188Y-101812482D01*
X152992498Y-101932180D01*
X153051463Y-102042494D01*
X153130815Y-102139185D01*
X153227506Y-102218537D01*
X153337820Y-102277502D01*
X153457518Y-102313812D01*
X153582000Y-102326072D01*
X155282000Y-102326072D01*
X155406482Y-102313812D01*
X155526180Y-102277502D01*
X155636494Y-102218537D01*
X155733185Y-102139185D01*
X155812537Y-102042494D01*
X155871502Y-101932180D01*
X155907812Y-101812482D01*
X155920072Y-101688000D01*
X155920072Y-99988000D01*
X155907812Y-99863518D01*
X155871502Y-99743820D01*
X155812537Y-99633506D01*
X155733185Y-99536815D01*
X155636494Y-99457463D01*
X155526180Y-99398498D01*
X155453620Y-99376487D01*
X155585475Y-99244632D01*
X155747990Y-99001411D01*
X155859932Y-98731158D01*
X155917000Y-98444260D01*
X155917000Y-98151740D01*
X155859932Y-97864842D01*
X155747990Y-97594589D01*
X155585475Y-97351368D01*
X155378632Y-97144525D01*
X155196466Y-97022805D01*
X155313355Y-96953178D01*
X155529588Y-96758269D01*
X155703641Y-96524920D01*
X155828825Y-96262099D01*
X155873476Y-96114890D01*
X155752155Y-95885000D01*
X154559000Y-95885000D01*
X154559000Y-95905000D01*
X154305000Y-95905000D01*
X154305000Y-95885000D01*
X153111845Y-95885000D01*
X152990524Y-96114890D01*
X153035175Y-96262099D01*
X153160359Y-96524920D01*
X153334412Y-96758269D01*
X153550645Y-96953178D01*
X153667534Y-97022805D01*
X153485368Y-97144525D01*
X153278525Y-97351368D01*
X153116010Y-97594589D01*
X153004068Y-97864842D01*
X152947000Y-98151740D01*
X152947000Y-98444260D01*
X153004068Y-98731158D01*
X153116010Y-99001411D01*
X153278525Y-99244632D01*
X153410380Y-99376487D01*
X153337820Y-99398498D01*
X153227506Y-99457463D01*
X153130815Y-99536815D01*
X153051463Y-99633506D01*
X152992498Y-99743820D01*
X152956188Y-99863518D01*
X152943928Y-99988000D01*
X150635010Y-99988000D01*
X150635010Y-94293576D01*
X150644129Y-94200989D01*
X150635010Y-94108402D01*
X150635010Y-94108393D01*
X150607735Y-93831466D01*
X150499949Y-93476142D01*
X150324913Y-93148673D01*
X150089355Y-92861645D01*
X150017433Y-92802620D01*
X147746553Y-90531740D01*
X152947000Y-90531740D01*
X152947000Y-90824260D01*
X153004068Y-91111158D01*
X153116010Y-91381411D01*
X153278525Y-91624632D01*
X153485368Y-91831475D01*
X153659760Y-91948000D01*
X153485368Y-92064525D01*
X153278525Y-92271368D01*
X153116010Y-92514589D01*
X153004068Y-92784842D01*
X152947000Y-93071740D01*
X152947000Y-93364260D01*
X153004068Y-93651158D01*
X153116010Y-93921411D01*
X153278525Y-94164632D01*
X153485368Y-94371475D01*
X153667534Y-94493195D01*
X153550645Y-94562822D01*
X153334412Y-94757731D01*
X153160359Y-94991080D01*
X153035175Y-95253901D01*
X152990524Y-95401110D01*
X153111845Y-95631000D01*
X154305000Y-95631000D01*
X154305000Y-95611000D01*
X154559000Y-95611000D01*
X154559000Y-95631000D01*
X155752155Y-95631000D01*
X155873476Y-95401110D01*
X155828825Y-95253901D01*
X155703641Y-94991080D01*
X155529588Y-94757731D01*
X155313355Y-94562822D01*
X155196466Y-94493195D01*
X155378632Y-94371475D01*
X155585475Y-94164632D01*
X155747990Y-93921411D01*
X155859932Y-93651158D01*
X155917000Y-93364260D01*
X155917000Y-93071740D01*
X155859932Y-92784842D01*
X155747990Y-92514589D01*
X155585475Y-92271368D01*
X155378632Y-92064525D01*
X155204240Y-91948000D01*
X155378632Y-91831475D01*
X155585475Y-91624632D01*
X155747990Y-91381411D01*
X155859932Y-91111158D01*
X155917000Y-90824260D01*
X155917000Y-90531740D01*
X155859932Y-90244842D01*
X155747990Y-89974589D01*
X155585475Y-89731368D01*
X155378632Y-89524525D01*
X155135411Y-89362010D01*
X154865158Y-89250068D01*
X154578260Y-89193000D01*
X154285740Y-89193000D01*
X153998842Y-89250068D01*
X153728589Y-89362010D01*
X153485368Y-89524525D01*
X153278525Y-89731368D01*
X153116010Y-89974589D01*
X153004068Y-90244842D01*
X152947000Y-90531740D01*
X147746553Y-90531740D01*
X122876394Y-65661582D01*
X122817365Y-65589655D01*
X122530337Y-65354097D01*
X122202868Y-65179061D01*
X121847544Y-65071275D01*
X121570617Y-65044000D01*
X121570609Y-65044000D01*
X121478020Y-65034881D01*
X121385431Y-65044000D01*
X120208042Y-65044000D01*
X120299932Y-64822158D01*
X120357000Y-64535260D01*
X120357000Y-64242740D01*
X120299932Y-63955842D01*
X120187990Y-63685589D01*
X120025475Y-63442368D01*
X119818632Y-63235525D01*
X119636466Y-63113805D01*
X119753355Y-63044178D01*
X119969588Y-62849269D01*
X120143641Y-62615920D01*
X120268825Y-62353099D01*
X120313476Y-62205890D01*
X120192155Y-61976000D01*
X118999000Y-61976000D01*
X118999000Y-61996000D01*
X118745000Y-61996000D01*
X118745000Y-61976000D01*
X117551845Y-61976000D01*
X117430524Y-62205890D01*
X117475175Y-62353099D01*
X117600359Y-62615920D01*
X117774412Y-62849269D01*
X117990645Y-63044178D01*
X118107534Y-63113805D01*
X117925368Y-63235525D01*
X117718525Y-63442368D01*
X117556010Y-63685589D01*
X117444068Y-63955842D01*
X117387000Y-64242740D01*
X117387000Y-64535260D01*
X117444068Y-64822158D01*
X117556010Y-65092411D01*
X117718525Y-65335632D01*
X117774264Y-65391371D01*
X117532655Y-65589655D01*
X117297097Y-65876683D01*
X117122061Y-66204152D01*
X117014275Y-66559476D01*
X116977880Y-66929000D01*
X111912000Y-66929000D01*
X111912000Y-55919000D01*
X117383928Y-55919000D01*
X117383928Y-57619000D01*
X117396188Y-57743482D01*
X117432498Y-57863180D01*
X117491463Y-57973494D01*
X117570815Y-58070185D01*
X117667506Y-58149537D01*
X117777820Y-58208502D01*
X117850380Y-58230513D01*
X117718525Y-58362368D01*
X117556010Y-58605589D01*
X117444068Y-58875842D01*
X117387000Y-59162740D01*
X117387000Y-59455260D01*
X117444068Y-59742158D01*
X117556010Y-60012411D01*
X117718525Y-60255632D01*
X117925368Y-60462475D01*
X118107534Y-60584195D01*
X117990645Y-60653822D01*
X117774412Y-60848731D01*
X117600359Y-61082080D01*
X117475175Y-61344901D01*
X117430524Y-61492110D01*
X117551845Y-61722000D01*
X118745000Y-61722000D01*
X118745000Y-61702000D01*
X118999000Y-61702000D01*
X118999000Y-61722000D01*
X120192155Y-61722000D01*
X120241301Y-61628872D01*
X151435000Y-61628872D01*
X151435000Y-62069128D01*
X151520890Y-62500925D01*
X151689369Y-62907669D01*
X151933962Y-63273729D01*
X152245271Y-63585038D01*
X152611331Y-63829631D01*
X153018075Y-63998110D01*
X153449872Y-64084000D01*
X153890128Y-64084000D01*
X154321925Y-63998110D01*
X154728669Y-63829631D01*
X155094729Y-63585038D01*
X155406038Y-63273729D01*
X155650631Y-62907669D01*
X155819110Y-62500925D01*
X155905000Y-62069128D01*
X155905000Y-61628872D01*
X155819110Y-61197075D01*
X155650631Y-60790331D01*
X155406038Y-60424271D01*
X155094729Y-60112962D01*
X154728669Y-59868369D01*
X154321925Y-59699890D01*
X153890128Y-59614000D01*
X153449872Y-59614000D01*
X153018075Y-59699890D01*
X152611331Y-59868369D01*
X152245271Y-60112962D01*
X151933962Y-60424271D01*
X151689369Y-60790331D01*
X151520890Y-61197075D01*
X151435000Y-61628872D01*
X120241301Y-61628872D01*
X120313476Y-61492110D01*
X120268825Y-61344901D01*
X120143641Y-61082080D01*
X119969588Y-60848731D01*
X119753355Y-60653822D01*
X119636466Y-60584195D01*
X119818632Y-60462475D01*
X120025475Y-60255632D01*
X120187990Y-60012411D01*
X120299932Y-59742158D01*
X120357000Y-59455260D01*
X120357000Y-59162740D01*
X120299932Y-58875842D01*
X120187990Y-58605589D01*
X120025475Y-58362368D01*
X119893620Y-58230513D01*
X119966180Y-58208502D01*
X120076494Y-58149537D01*
X120173185Y-58070185D01*
X120252537Y-57973494D01*
X120311502Y-57863180D01*
X120347812Y-57743482D01*
X120360072Y-57619000D01*
X120360072Y-55919000D01*
X120347812Y-55794518D01*
X120311502Y-55674820D01*
X120252537Y-55564506D01*
X120173185Y-55467815D01*
X120076494Y-55388463D01*
X119966180Y-55329498D01*
X119846482Y-55293188D01*
X119722000Y-55280928D01*
X118022000Y-55280928D01*
X117897518Y-55293188D01*
X117777820Y-55329498D01*
X117667506Y-55388463D01*
X117570815Y-55467815D01*
X117491463Y-55564506D01*
X117432498Y-55674820D01*
X117396188Y-55794518D01*
X117383928Y-55919000D01*
X111912000Y-55919000D01*
X111912000Y-45618000D01*
X192634001Y-45618000D01*
X192634000Y-159614000D01*
%TA.AperFunction,Conductor*%
D17*
G36*
X192634000Y-159614000D02*
G01*
X111912000Y-159614000D01*
X111912000Y-155618605D01*
X116976000Y-155618605D01*
X117101914Y-155908577D01*
X117434126Y-156074433D01*
X117792312Y-156172290D01*
X118162706Y-156198389D01*
X118531075Y-156151725D01*
X118883262Y-156034094D01*
X119118086Y-155908577D01*
X119244000Y-155618605D01*
X122056000Y-155618605D01*
X122181914Y-155908577D01*
X122514126Y-156074433D01*
X122872312Y-156172290D01*
X123242706Y-156198389D01*
X123611075Y-156151725D01*
X123963262Y-156034094D01*
X124198086Y-155908577D01*
X124324000Y-155618605D01*
X123190000Y-154484605D01*
X122056000Y-155618605D01*
X119244000Y-155618605D01*
X118110000Y-154484605D01*
X116976000Y-155618605D01*
X111912000Y-155618605D01*
X111912000Y-154357706D01*
X116216611Y-154357706D01*
X116263275Y-154726075D01*
X116380906Y-155078262D01*
X116506423Y-155313086D01*
X116796395Y-155439000D01*
X117930395Y-154305000D01*
X118289605Y-154305000D01*
X119423605Y-155439000D01*
X119713577Y-155313086D01*
X119879433Y-154980874D01*
X119977290Y-154622688D01*
X119995961Y-154357706D01*
X121296611Y-154357706D01*
X121343275Y-154726075D01*
X121460906Y-155078262D01*
X121586423Y-155313086D01*
X121876395Y-155439000D01*
X123010395Y-154305000D01*
X123369605Y-154305000D01*
X124503605Y-155439000D01*
X124793577Y-155313086D01*
X124959433Y-154980874D01*
X125057290Y-154622688D01*
X125083389Y-154252294D01*
X125036725Y-153883925D01*
X124919094Y-153531738D01*
X124793577Y-153296914D01*
X124503605Y-153171000D01*
X123369605Y-154305000D01*
X123010395Y-154305000D01*
X121876395Y-153171000D01*
X121586423Y-153296914D01*
X121420567Y-153629126D01*
X121322710Y-153987312D01*
X121296611Y-154357706D01*
X119995961Y-154357706D01*
X120003389Y-154252294D01*
X119956725Y-153883925D01*
X119839094Y-153531738D01*
X119713577Y-153296914D01*
X119423605Y-153171000D01*
X118289605Y-154305000D01*
X117930395Y-154305000D01*
X116796395Y-153171000D01*
X116506423Y-153296914D01*
X116340567Y-153629126D01*
X116242710Y-153987312D01*
X116216611Y-154357706D01*
X111912000Y-154357706D01*
X111912000Y-152991395D01*
X116976000Y-152991395D01*
X118110000Y-154125395D01*
X119244000Y-152991395D01*
X122056000Y-152991395D01*
X123190000Y-154125395D01*
X124324000Y-152991395D01*
X124198086Y-152701423D01*
X123865874Y-152535567D01*
X123507688Y-152437710D01*
X123137294Y-152411611D01*
X122768925Y-152458275D01*
X122416738Y-152575906D01*
X122181914Y-152701423D01*
X122056000Y-152991395D01*
X119244000Y-152991395D01*
X119118086Y-152701423D01*
X118785874Y-152535567D01*
X118427688Y-152437710D01*
X118057294Y-152411611D01*
X117688925Y-152458275D01*
X117336738Y-152575906D01*
X117101914Y-152701423D01*
X116976000Y-152991395D01*
X111912000Y-152991395D01*
X111912000Y-134239000D01*
X116469881Y-134239000D01*
X116506275Y-134608524D01*
X116614062Y-134963848D01*
X116789098Y-135291317D01*
X116965628Y-135506420D01*
X120690516Y-139231308D01*
X120756047Y-139560756D01*
X120916988Y-139949302D01*
X121150637Y-140298983D01*
X121448017Y-140596363D01*
X121797698Y-140830012D01*
X122186244Y-140990953D01*
X122598721Y-141073000D01*
X123019279Y-141073000D01*
X123431756Y-140990953D01*
X123820302Y-140830012D01*
X124169983Y-140596363D01*
X124467363Y-140298983D01*
X124701012Y-139949302D01*
X124861953Y-139560756D01*
X124944000Y-139148279D01*
X124944000Y-138727721D01*
X124861953Y-138315244D01*
X124701012Y-137926698D01*
X124467363Y-137577017D01*
X124169983Y-137279637D01*
X123869964Y-137079171D01*
X119631420Y-132840628D01*
X119461735Y-132701372D01*
X119517475Y-132645632D01*
X119679990Y-132402411D01*
X119791932Y-132132158D01*
X119849000Y-131845260D01*
X119849000Y-131552740D01*
X119791932Y-131265842D01*
X119679990Y-130995589D01*
X119517475Y-130752368D01*
X119310632Y-130545525D01*
X119128466Y-130423805D01*
X119245355Y-130354178D01*
X119461588Y-130159269D01*
X119635641Y-129925920D01*
X119760825Y-129663099D01*
X119805476Y-129515890D01*
X119684155Y-129286000D01*
X118491000Y-129286000D01*
X118491000Y-129306000D01*
X118237000Y-129306000D01*
X118237000Y-129286000D01*
X117043845Y-129286000D01*
X116922524Y-129515890D01*
X116967175Y-129663099D01*
X117092359Y-129925920D01*
X117266412Y-130159269D01*
X117482645Y-130354178D01*
X117599534Y-130423805D01*
X117417368Y-130545525D01*
X117210525Y-130752368D01*
X117048010Y-130995589D01*
X116936068Y-131265842D01*
X116879000Y-131552740D01*
X116879000Y-131845260D01*
X116936068Y-132132158D01*
X117048010Y-132402411D01*
X117210525Y-132645632D01*
X117266265Y-132701372D01*
X117024655Y-132899655D01*
X116789098Y-133186683D01*
X116614062Y-133514152D01*
X116506275Y-133869476D01*
X116469881Y-134239000D01*
X111912000Y-134239000D01*
X111912000Y-124079000D01*
X116469880Y-124079000D01*
X116506275Y-124448524D01*
X116614061Y-124803848D01*
X116747493Y-125053482D01*
X116789097Y-125131317D01*
X117024655Y-125418345D01*
X117266264Y-125616629D01*
X117210525Y-125672368D01*
X117048010Y-125915589D01*
X116936068Y-126185842D01*
X116879000Y-126472740D01*
X116879000Y-126765260D01*
X116936068Y-127052158D01*
X117048010Y-127322411D01*
X117210525Y-127565632D01*
X117417368Y-127772475D01*
X117599534Y-127894195D01*
X117482645Y-127963822D01*
X117266412Y-128158731D01*
X117092359Y-128392080D01*
X116967175Y-128654901D01*
X116922524Y-128802110D01*
X117043845Y-129032000D01*
X118237000Y-129032000D01*
X118237000Y-129012000D01*
X118491000Y-129012000D01*
X118491000Y-129032000D01*
X119684155Y-129032000D01*
X119805476Y-128802110D01*
X119760825Y-128654901D01*
X119635641Y-128392080D01*
X119461588Y-128158731D01*
X119245355Y-127963822D01*
X119128466Y-127894195D01*
X119310632Y-127772475D01*
X119517475Y-127565632D01*
X119679990Y-127322411D01*
X119716786Y-127233577D01*
X126385001Y-133901792D01*
X126385000Y-154119344D01*
X126385000Y-154490656D01*
X126403155Y-154581930D01*
X126412275Y-154674523D01*
X126439283Y-154763556D01*
X126457439Y-154854834D01*
X126493054Y-154940816D01*
X126520061Y-155029847D01*
X126563919Y-155111900D01*
X126599534Y-155197882D01*
X126651238Y-155275262D01*
X126695097Y-155357317D01*
X126754122Y-155429239D01*
X126805825Y-155506618D01*
X126871630Y-155572423D01*
X126930655Y-155644345D01*
X127002577Y-155703370D01*
X127068382Y-155769175D01*
X127145761Y-155820878D01*
X127217683Y-155879903D01*
X127299739Y-155923763D01*
X127377118Y-155975466D01*
X127463097Y-156011080D01*
X127545152Y-156054939D01*
X127634187Y-156081947D01*
X127720166Y-156117561D01*
X127811441Y-156135717D01*
X127900476Y-156162725D01*
X127993071Y-156171845D01*
X128084344Y-156190000D01*
X128177403Y-156190000D01*
X128270000Y-156199120D01*
X128362597Y-156190000D01*
X128455656Y-156190000D01*
X128546929Y-156171845D01*
X128639523Y-156162725D01*
X128728556Y-156135717D01*
X128819834Y-156117561D01*
X128905816Y-156081946D01*
X128994847Y-156054939D01*
X129076900Y-156011081D01*
X129162882Y-155975466D01*
X129240262Y-155923762D01*
X129322317Y-155879903D01*
X129394239Y-155820878D01*
X129471618Y-155769175D01*
X129537423Y-155703370D01*
X129609345Y-155644345D01*
X129668370Y-155572423D01*
X129734175Y-155506618D01*
X129785878Y-155429239D01*
X129844903Y-155357317D01*
X129888763Y-155275261D01*
X129940466Y-155197882D01*
X129976080Y-155111903D01*
X130019939Y-155029848D01*
X130046947Y-154940813D01*
X130082561Y-154854834D01*
X130100717Y-154763559D01*
X130127725Y-154674524D01*
X130136845Y-154581929D01*
X130155000Y-154490656D01*
X130155000Y-135966200D01*
X131430480Y-135966200D01*
X131439601Y-136058806D01*
X131439600Y-138557620D01*
X131430481Y-138650210D01*
X131439600Y-138742799D01*
X131439600Y-138742806D01*
X131453646Y-138885417D01*
X131465001Y-139000706D01*
X131465000Y-154119344D01*
X131465000Y-154490656D01*
X131483155Y-154581930D01*
X131492275Y-154674523D01*
X131519283Y-154763556D01*
X131537439Y-154854834D01*
X131573054Y-154940816D01*
X131600061Y-155029847D01*
X131643919Y-155111900D01*
X131679534Y-155197882D01*
X131731238Y-155275262D01*
X131775097Y-155357317D01*
X131834122Y-155429239D01*
X131885825Y-155506618D01*
X131951630Y-155572423D01*
X132010655Y-155644345D01*
X132082577Y-155703370D01*
X132148382Y-155769175D01*
X132225761Y-155820878D01*
X132297683Y-155879903D01*
X132379739Y-155923763D01*
X132457118Y-155975466D01*
X132543097Y-156011080D01*
X132625152Y-156054939D01*
X132714187Y-156081947D01*
X132800166Y-156117561D01*
X132891441Y-156135717D01*
X132980476Y-156162725D01*
X133073071Y-156171845D01*
X133164344Y-156190000D01*
X133257403Y-156190000D01*
X133350000Y-156199120D01*
X133442597Y-156190000D01*
X133535656Y-156190000D01*
X133626929Y-156171845D01*
X133719523Y-156162725D01*
X133808556Y-156135717D01*
X133899834Y-156117561D01*
X133985816Y-156081946D01*
X134074847Y-156054939D01*
X134156900Y-156011081D01*
X134242882Y-155975466D01*
X134320262Y-155923762D01*
X134402317Y-155879903D01*
X134474239Y-155820878D01*
X134551618Y-155769175D01*
X134617423Y-155703370D01*
X134689345Y-155644345D01*
X134748370Y-155572423D01*
X134814175Y-155506618D01*
X134865878Y-155429239D01*
X134924903Y-155357317D01*
X134968763Y-155275261D01*
X135020466Y-155197882D01*
X135056080Y-155111903D01*
X135099939Y-155029848D01*
X135126947Y-154940813D01*
X135162561Y-154854834D01*
X135180717Y-154763559D01*
X135207725Y-154674524D01*
X135216845Y-154581929D01*
X135235000Y-154490656D01*
X135235000Y-140280070D01*
X135247637Y-140298983D01*
X135545017Y-140596363D01*
X135894698Y-140830012D01*
X136283244Y-140990953D01*
X136295623Y-140993415D01*
X139085001Y-143782794D01*
X139085000Y-154119344D01*
X139085000Y-154490656D01*
X139103155Y-154581930D01*
X139112275Y-154674523D01*
X139139283Y-154763556D01*
X139157439Y-154854834D01*
X139193054Y-154940816D01*
X139220061Y-155029847D01*
X139263919Y-155111900D01*
X139299534Y-155197882D01*
X139351238Y-155275262D01*
X139395097Y-155357317D01*
X139454122Y-155429239D01*
X139505825Y-155506618D01*
X139571630Y-155572423D01*
X139630655Y-155644345D01*
X139702577Y-155703370D01*
X139768382Y-155769175D01*
X139845761Y-155820878D01*
X139917683Y-155879903D01*
X139999739Y-155923763D01*
X140077118Y-155975466D01*
X140163097Y-156011080D01*
X140245152Y-156054939D01*
X140334187Y-156081947D01*
X140420166Y-156117561D01*
X140511441Y-156135717D01*
X140600476Y-156162725D01*
X140693071Y-156171845D01*
X140784344Y-156190000D01*
X140877403Y-156190000D01*
X140970000Y-156199120D01*
X141062597Y-156190000D01*
X141155656Y-156190000D01*
X141246929Y-156171845D01*
X141339523Y-156162725D01*
X141428556Y-156135717D01*
X141519834Y-156117561D01*
X141605816Y-156081946D01*
X141694847Y-156054939D01*
X141776900Y-156011081D01*
X141862882Y-155975466D01*
X141940262Y-155923762D01*
X142022317Y-155879903D01*
X142094239Y-155820878D01*
X142171618Y-155769175D01*
X142237423Y-155703370D01*
X142309345Y-155644345D01*
X142368370Y-155572423D01*
X142434175Y-155506618D01*
X142485878Y-155429239D01*
X142544903Y-155357317D01*
X142588763Y-155275261D01*
X142640466Y-155197882D01*
X142676080Y-155111903D01*
X142719939Y-155029848D01*
X142746947Y-154940813D01*
X142782561Y-154854834D01*
X142800717Y-154763559D01*
X142827725Y-154674524D01*
X142836845Y-154581929D01*
X142855000Y-154490656D01*
X142855000Y-143094589D01*
X142864119Y-143002000D01*
X142855000Y-142909411D01*
X142855000Y-142909403D01*
X142827725Y-142632476D01*
X142806755Y-142563345D01*
X142767858Y-142435120D01*
X142719939Y-142277152D01*
X142544903Y-141949683D01*
X142309345Y-141662655D01*
X142237423Y-141603630D01*
X138961415Y-138327623D01*
X138958953Y-138315244D01*
X138798012Y-137926698D01*
X138564363Y-137577017D01*
X138266983Y-137279637D01*
X137917302Y-137045988D01*
X137528756Y-136885047D01*
X137116279Y-136803000D01*
X136695721Y-136803000D01*
X136283244Y-136885047D01*
X135894698Y-137045988D01*
X135545017Y-137279637D01*
X135247637Y-137577017D01*
X135209600Y-137633943D01*
X135209600Y-136988292D01*
X137605278Y-134592615D01*
X137617656Y-134590153D01*
X138006202Y-134429212D01*
X138355883Y-134195563D01*
X138653263Y-133898183D01*
X138886912Y-133548502D01*
X139047853Y-133159956D01*
X139129900Y-132747479D01*
X139129900Y-132326921D01*
X139047853Y-131914444D01*
X138886912Y-131525898D01*
X138653263Y-131176217D01*
X138355883Y-130878837D01*
X138006202Y-130645188D01*
X137617656Y-130484247D01*
X137205179Y-130402200D01*
X136784621Y-130402200D01*
X136372144Y-130484247D01*
X135983598Y-130645188D01*
X135633917Y-130878837D01*
X135336537Y-131176217D01*
X135102888Y-131525898D01*
X134941947Y-131914444D01*
X134939485Y-131926822D01*
X132671947Y-134194361D01*
X132599752Y-134216261D01*
X132272283Y-134391297D01*
X131985255Y-134626855D01*
X131749697Y-134913883D01*
X131574661Y-135241352D01*
X131466875Y-135596676D01*
X131430480Y-135966200D01*
X130155000Y-135966200D01*
X130155000Y-133213584D01*
X130164119Y-133120997D01*
X130155000Y-133028410D01*
X130155000Y-133028401D01*
X130127725Y-132751474D01*
X130019939Y-132396150D01*
X129844903Y-132068681D01*
X129609345Y-131781653D01*
X129537423Y-131722628D01*
X120626376Y-122811582D01*
X120567347Y-122739655D01*
X120280319Y-122504097D01*
X120249000Y-122487357D01*
X120249000Y-109937292D01*
X130413723Y-99772570D01*
X130485645Y-99713545D01*
X130551332Y-99633506D01*
X130599164Y-99575221D01*
X130721203Y-99426517D01*
X130744398Y-99383121D01*
X140524100Y-99383121D01*
X140524100Y-99803679D01*
X140606147Y-100216156D01*
X140767088Y-100604702D01*
X140774101Y-100615197D01*
X140774100Y-103895003D01*
X140774100Y-103895004D01*
X140774101Y-137740501D01*
X140764981Y-137833100D01*
X140801375Y-138202624D01*
X140909162Y-138557948D01*
X141084198Y-138885417D01*
X141260728Y-139100520D01*
X141260731Y-139100523D01*
X141319756Y-139172445D01*
X141391677Y-139231469D01*
X144165000Y-142004793D01*
X144165001Y-154119339D01*
X144165000Y-154119344D01*
X144165000Y-154490656D01*
X144183157Y-154581939D01*
X144192276Y-154674524D01*
X144219282Y-154763550D01*
X144237439Y-154854834D01*
X144273056Y-154940822D01*
X144300062Y-155029848D01*
X144343917Y-155111895D01*
X144379534Y-155197882D01*
X144431242Y-155275269D01*
X144475098Y-155357317D01*
X144534118Y-155429233D01*
X144585825Y-155506618D01*
X144651636Y-155572429D01*
X144710656Y-155644345D01*
X144782572Y-155703365D01*
X144848382Y-155769175D01*
X144925766Y-155820881D01*
X144997684Y-155879903D01*
X145079735Y-155923760D01*
X145157118Y-155975466D01*
X145243101Y-156011081D01*
X145325153Y-156054939D01*
X145414184Y-156081946D01*
X145500166Y-156117561D01*
X145591444Y-156135717D01*
X145680477Y-156162725D01*
X145773071Y-156171845D01*
X145864344Y-156190000D01*
X145957403Y-156190000D01*
X146050000Y-156199120D01*
X146142597Y-156190000D01*
X146235656Y-156190000D01*
X146326929Y-156171845D01*
X146419524Y-156162725D01*
X146508559Y-156135717D01*
X146599834Y-156117561D01*
X146685813Y-156081947D01*
X146774848Y-156054939D01*
X146856903Y-156011080D01*
X146942882Y-155975466D01*
X147020261Y-155923763D01*
X147102317Y-155879903D01*
X147174239Y-155820878D01*
X147251618Y-155769175D01*
X147317423Y-155703370D01*
X147389345Y-155644345D01*
X147448370Y-155572423D01*
X147514175Y-155506618D01*
X147565878Y-155429239D01*
X147624903Y-155357317D01*
X147668763Y-155275261D01*
X147720466Y-155197882D01*
X147756080Y-155111903D01*
X147799939Y-155029848D01*
X147826947Y-154940813D01*
X147862561Y-154854834D01*
X147880717Y-154763559D01*
X147907725Y-154674524D01*
X147916845Y-154581929D01*
X147935000Y-154490656D01*
X147935000Y-141316597D01*
X147944120Y-141224000D01*
X147907725Y-140854476D01*
X147886754Y-140785345D01*
X147799939Y-140499152D01*
X147624903Y-140171683D01*
X147540433Y-140068756D01*
X147448372Y-139956579D01*
X147448370Y-139956577D01*
X147389345Y-139884655D01*
X147317423Y-139825630D01*
X144544100Y-137052308D01*
X144544100Y-100615196D01*
X144551112Y-100604702D01*
X144712053Y-100216156D01*
X144794100Y-99803679D01*
X144794100Y-99383121D01*
X144712053Y-98970644D01*
X144551112Y-98582098D01*
X144317463Y-98232417D01*
X144020083Y-97935037D01*
X143670402Y-97701388D01*
X143281856Y-97540447D01*
X142869379Y-97458400D01*
X142448821Y-97458400D01*
X142036344Y-97540447D01*
X141647798Y-97701388D01*
X141298117Y-97935037D01*
X141000737Y-98232417D01*
X140767088Y-98582098D01*
X140606147Y-98970644D01*
X140524100Y-99383121D01*
X130744398Y-99383121D01*
X130896239Y-99099048D01*
X131004025Y-98743724D01*
X131031300Y-98466797D01*
X131031300Y-98466789D01*
X131040419Y-98374200D01*
X131031300Y-98281611D01*
X131031300Y-88918496D01*
X131038312Y-88908002D01*
X131199253Y-88519456D01*
X131281300Y-88106979D01*
X131281300Y-87686421D01*
X131199253Y-87273944D01*
X131038312Y-86885398D01*
X130804663Y-86535717D01*
X130507283Y-86238337D01*
X130157602Y-86004688D01*
X129769056Y-85843747D01*
X129356579Y-85761700D01*
X128936021Y-85761700D01*
X128523544Y-85843747D01*
X128134998Y-86004688D01*
X127785317Y-86238337D01*
X127487937Y-86535717D01*
X127254288Y-86885398D01*
X127093347Y-87273944D01*
X127011300Y-87686421D01*
X127011300Y-88106979D01*
X127093347Y-88519456D01*
X127254288Y-88908002D01*
X127261301Y-88918498D01*
X127261300Y-97593407D01*
X117096577Y-107758131D01*
X117024656Y-107817155D01*
X116965631Y-107889077D01*
X116965628Y-107889080D01*
X116789098Y-108104183D01*
X116614062Y-108431652D01*
X116506275Y-108786976D01*
X116469881Y-109156500D01*
X116479001Y-109249099D01*
X116479000Y-123986403D01*
X116469880Y-124079000D01*
X111912000Y-124079000D01*
X111912000Y-95410872D01*
X117399000Y-95410872D01*
X117399000Y-95851128D01*
X117484890Y-96282925D01*
X117653369Y-96689669D01*
X117897962Y-97055729D01*
X118209271Y-97367038D01*
X118575331Y-97611631D01*
X118982075Y-97780110D01*
X119413872Y-97866000D01*
X119854128Y-97866000D01*
X120285925Y-97780110D01*
X120692669Y-97611631D01*
X121058729Y-97367038D01*
X121370038Y-97055729D01*
X121614631Y-96689669D01*
X121783110Y-96282925D01*
X121869000Y-95851128D01*
X121869000Y-95410872D01*
X121783110Y-94979075D01*
X121614631Y-94572331D01*
X121370038Y-94206271D01*
X121058729Y-93894962D01*
X120692669Y-93650369D01*
X120285925Y-93481890D01*
X119854128Y-93396000D01*
X119413872Y-93396000D01*
X118982075Y-93481890D01*
X118575331Y-93650369D01*
X118209271Y-93894962D01*
X117897962Y-94206271D01*
X117653369Y-94572331D01*
X117484890Y-94979075D01*
X117399000Y-95410872D01*
X111912000Y-95410872D01*
X111912000Y-66929000D01*
X116977880Y-66929000D01*
X117014275Y-67298524D01*
X117122061Y-67653848D01*
X117297097Y-67981317D01*
X117532655Y-68268345D01*
X117819683Y-68503903D01*
X118147152Y-68678939D01*
X118502476Y-68786725D01*
X118661716Y-68802409D01*
X118723014Y-68821003D01*
X118872000Y-68835677D01*
X119020985Y-68821003D01*
X119044071Y-68814000D01*
X120697228Y-68814000D01*
X146865011Y-94981784D01*
X146865010Y-106120197D01*
X145760477Y-107224731D01*
X145688556Y-107283755D01*
X145629531Y-107355677D01*
X145629528Y-107355680D01*
X145452998Y-107570783D01*
X145277962Y-107898252D01*
X145170175Y-108253576D01*
X145133781Y-108623100D01*
X145142901Y-108715699D01*
X145142900Y-132990711D01*
X145133781Y-133083300D01*
X145142900Y-133175889D01*
X145142900Y-133175896D01*
X145154372Y-133292368D01*
X145170175Y-133452824D01*
X145187496Y-133509924D01*
X145277961Y-133808147D01*
X145452997Y-134135617D01*
X145688555Y-134422645D01*
X145760482Y-134481674D01*
X149245001Y-137966193D01*
X149245000Y-154119344D01*
X149245000Y-154490656D01*
X149263155Y-154581930D01*
X149272275Y-154674523D01*
X149299283Y-154763556D01*
X149317439Y-154854834D01*
X149353054Y-154940816D01*
X149380061Y-155029847D01*
X149423919Y-155111900D01*
X149459534Y-155197882D01*
X149511238Y-155275262D01*
X149555097Y-155357317D01*
X149614122Y-155429239D01*
X149665825Y-155506618D01*
X149731630Y-155572423D01*
X149790655Y-155644345D01*
X149862577Y-155703370D01*
X149928382Y-155769175D01*
X150005761Y-155820878D01*
X150077683Y-155879903D01*
X150159739Y-155923763D01*
X150237118Y-155975466D01*
X150323097Y-156011080D01*
X150405152Y-156054939D01*
X150494187Y-156081947D01*
X150580166Y-156117561D01*
X150671441Y-156135717D01*
X150760476Y-156162725D01*
X150853071Y-156171845D01*
X150944344Y-156190000D01*
X151037403Y-156190000D01*
X151130000Y-156199120D01*
X151222597Y-156190000D01*
X151315656Y-156190000D01*
X151406929Y-156171845D01*
X151499523Y-156162725D01*
X151588556Y-156135717D01*
X151679834Y-156117561D01*
X151765816Y-156081946D01*
X151854847Y-156054939D01*
X151936900Y-156011081D01*
X152022882Y-155975466D01*
X152100262Y-155923762D01*
X152182317Y-155879903D01*
X152254239Y-155820878D01*
X152331618Y-155769175D01*
X152397423Y-155703370D01*
X152469345Y-155644345D01*
X152490469Y-155618605D01*
X155076000Y-155618605D01*
X155201914Y-155908577D01*
X155534126Y-156074433D01*
X155892312Y-156172290D01*
X156262706Y-156198389D01*
X156631075Y-156151725D01*
X156983262Y-156034094D01*
X157218086Y-155908577D01*
X157344000Y-155618605D01*
X156210000Y-154484605D01*
X155076000Y-155618605D01*
X152490469Y-155618605D01*
X152528370Y-155572423D01*
X152594175Y-155506618D01*
X152645878Y-155429239D01*
X152704903Y-155357317D01*
X152748763Y-155275261D01*
X152800466Y-155197882D01*
X152836080Y-155111903D01*
X152879939Y-155029848D01*
X152906947Y-154940813D01*
X152942561Y-154854834D01*
X152960717Y-154763559D01*
X152987725Y-154674524D01*
X152996845Y-154581929D01*
X153015000Y-154490656D01*
X153015000Y-154357706D01*
X154316611Y-154357706D01*
X154363275Y-154726075D01*
X154480906Y-155078262D01*
X154606423Y-155313086D01*
X154896395Y-155439000D01*
X156030395Y-154305000D01*
X154896395Y-153171000D01*
X154606423Y-153296914D01*
X154440567Y-153629126D01*
X154342710Y-153987312D01*
X154316611Y-154357706D01*
X153015000Y-154357706D01*
X153015000Y-152991395D01*
X155076000Y-152991395D01*
X156210000Y-154125395D01*
X156224143Y-154111253D01*
X156403748Y-154290858D01*
X156389605Y-154305000D01*
X157523605Y-155439000D01*
X157813577Y-155313086D01*
X157979433Y-154980874D01*
X158077290Y-154622688D01*
X158103389Y-154252294D01*
X158056725Y-153883925D01*
X157983301Y-153664093D01*
X159825823Y-155506615D01*
X159825825Y-155506618D01*
X160088382Y-155769175D01*
X160165762Y-155820878D01*
X160237683Y-155879903D01*
X160319740Y-155923763D01*
X160397118Y-155975466D01*
X160483094Y-156011078D01*
X160565151Y-156054939D01*
X160654189Y-156081948D01*
X160740166Y-156117561D01*
X160831440Y-156135716D01*
X160920476Y-156162725D01*
X161013071Y-156171845D01*
X161104344Y-156190000D01*
X161197403Y-156190000D01*
X161290000Y-156199120D01*
X161382597Y-156190000D01*
X161475656Y-156190000D01*
X161566929Y-156171845D01*
X161659524Y-156162725D01*
X161748560Y-156135716D01*
X161839834Y-156117561D01*
X161925811Y-156081948D01*
X162014849Y-156054939D01*
X162096906Y-156011078D01*
X162182882Y-155975466D01*
X162260260Y-155923763D01*
X162342317Y-155879903D01*
X162414239Y-155820878D01*
X162491618Y-155769175D01*
X162557423Y-155703370D01*
X162629345Y-155644345D01*
X162688370Y-155572423D01*
X162754175Y-155506618D01*
X162805878Y-155429239D01*
X162864903Y-155357317D01*
X162908763Y-155275260D01*
X162960466Y-155197882D01*
X162996078Y-155111906D01*
X163039939Y-155029849D01*
X163066948Y-154940811D01*
X163102561Y-154854834D01*
X163120716Y-154763560D01*
X163147725Y-154674524D01*
X163156845Y-154581929D01*
X163175000Y-154490656D01*
X163175000Y-154397596D01*
X163184120Y-154305000D01*
X163175000Y-154212403D01*
X163175000Y-154119344D01*
X163156845Y-154028071D01*
X163147725Y-153935476D01*
X163120716Y-153846440D01*
X163102561Y-153755166D01*
X163066948Y-153669189D01*
X163039939Y-153580151D01*
X162996078Y-153498094D01*
X162960466Y-153412118D01*
X162908763Y-153334740D01*
X162864903Y-153252683D01*
X162805878Y-153180762D01*
X162754175Y-153103382D01*
X162491618Y-152840825D01*
X162491615Y-152840823D01*
X160558800Y-150908008D01*
X160558800Y-113179602D01*
X161834281Y-113179602D01*
X161843401Y-113272201D01*
X161843400Y-146808311D01*
X161834281Y-146900900D01*
X161843400Y-146993489D01*
X161843400Y-146993496D01*
X161870675Y-147270423D01*
X161978461Y-147625747D01*
X162153497Y-147953217D01*
X162389055Y-148240245D01*
X162460982Y-148299274D01*
X162805000Y-148643292D01*
X162804999Y-152532409D01*
X162795880Y-152624999D01*
X162804999Y-152717588D01*
X162804999Y-152717595D01*
X162832274Y-152994522D01*
X162940060Y-153349846D01*
X163115096Y-153677316D01*
X163350654Y-153964344D01*
X163422581Y-154023373D01*
X164905825Y-155506618D01*
X165168382Y-155769175D01*
X165245761Y-155820878D01*
X165317682Y-155879902D01*
X165399735Y-155923760D01*
X165477118Y-155975466D01*
X165563101Y-156011081D01*
X165645151Y-156054938D01*
X165734181Y-156081945D01*
X165820166Y-156117561D01*
X165911447Y-156135718D01*
X166000475Y-156162724D01*
X166093062Y-156171843D01*
X166184344Y-156190000D01*
X166277412Y-156190000D01*
X166369999Y-156199119D01*
X166462586Y-156190000D01*
X166555656Y-156190000D01*
X166646940Y-156171843D01*
X166739523Y-156162724D01*
X166828547Y-156135719D01*
X166919834Y-156117561D01*
X167005823Y-156081943D01*
X167094848Y-156054938D01*
X167176894Y-156011084D01*
X167262882Y-155975466D01*
X167340272Y-155923756D01*
X167422316Y-155879902D01*
X167494227Y-155820886D01*
X167571618Y-155769175D01*
X167637434Y-155703359D01*
X167709344Y-155644344D01*
X167730467Y-155618605D01*
X172856000Y-155618605D01*
X172981914Y-155908577D01*
X173314126Y-156074433D01*
X173672312Y-156172290D01*
X174042706Y-156198389D01*
X174411075Y-156151725D01*
X174763262Y-156034094D01*
X174998086Y-155908577D01*
X175124000Y-155618605D01*
X173990000Y-154484605D01*
X172856000Y-155618605D01*
X167730467Y-155618605D01*
X167768359Y-155572434D01*
X167834175Y-155506618D01*
X167885886Y-155429227D01*
X167944902Y-155357316D01*
X167988756Y-155275272D01*
X168040466Y-155197882D01*
X168076084Y-155111894D01*
X168119938Y-155029848D01*
X168146943Y-154940823D01*
X168182561Y-154854834D01*
X168200719Y-154763547D01*
X168227724Y-154674523D01*
X168236843Y-154581940D01*
X168255000Y-154490656D01*
X168255000Y-154397586D01*
X168258927Y-154357706D01*
X172096611Y-154357706D01*
X172143275Y-154726075D01*
X172260906Y-155078262D01*
X172386423Y-155313086D01*
X172676395Y-155439000D01*
X173810395Y-154305000D01*
X174169605Y-154305000D01*
X175303605Y-155439000D01*
X175593577Y-155313086D01*
X175759433Y-154980874D01*
X175857290Y-154622688D01*
X175883389Y-154252294D01*
X175836725Y-153883925D01*
X175719094Y-153531738D01*
X175593577Y-153296914D01*
X175303605Y-153171000D01*
X174169605Y-154305000D01*
X173810395Y-154305000D01*
X172676395Y-153171000D01*
X172386423Y-153296914D01*
X172220567Y-153629126D01*
X172122710Y-153987312D01*
X172096611Y-154357706D01*
X168258927Y-154357706D01*
X168264119Y-154304999D01*
X168255000Y-154212412D01*
X168255000Y-154119344D01*
X168236843Y-154028062D01*
X168227724Y-153935475D01*
X168200718Y-153846447D01*
X168182561Y-153755166D01*
X168146945Y-153669181D01*
X168119938Y-153580151D01*
X168076081Y-153498101D01*
X168040466Y-153412118D01*
X167988760Y-153334735D01*
X167944902Y-153252682D01*
X167885878Y-153180761D01*
X167834175Y-153103382D01*
X167722188Y-152991395D01*
X172856000Y-152991395D01*
X173990000Y-154125395D01*
X175124000Y-152991395D01*
X174998086Y-152701423D01*
X174665874Y-152535567D01*
X174307688Y-152437710D01*
X173937294Y-152411611D01*
X173568925Y-152458275D01*
X173216738Y-152575906D01*
X172981914Y-152701423D01*
X172856000Y-152991395D01*
X167722188Y-152991395D01*
X167571618Y-152840825D01*
X166574999Y-151844207D01*
X166574999Y-147955085D01*
X166584118Y-147862498D01*
X166574999Y-147769911D01*
X166574999Y-147769902D01*
X166547724Y-147492975D01*
X166439938Y-147137651D01*
X166264902Y-146810182D01*
X166029344Y-146523154D01*
X165957417Y-146464125D01*
X165613400Y-146120108D01*
X165613400Y-113960394D01*
X168647073Y-110926722D01*
X168718995Y-110867697D01*
X168954553Y-110580669D01*
X169129589Y-110253200D01*
X169237375Y-109897876D01*
X169264650Y-109620949D01*
X169264650Y-109620940D01*
X169273769Y-109528353D01*
X169264650Y-109435766D01*
X169264650Y-104883398D01*
X169307463Y-104963494D01*
X169386815Y-105060185D01*
X169483506Y-105139537D01*
X169593820Y-105198502D01*
X169713518Y-105234812D01*
X169838000Y-105247072D01*
X171538000Y-105247072D01*
X171662482Y-105234812D01*
X171782180Y-105198502D01*
X171892494Y-105139537D01*
X171989185Y-105060185D01*
X172068537Y-104963494D01*
X172127502Y-104853180D01*
X172163812Y-104733482D01*
X172176072Y-104609000D01*
X172176072Y-102909000D01*
X172163812Y-102784518D01*
X172127502Y-102664820D01*
X172068537Y-102554506D01*
X171989185Y-102457815D01*
X171892494Y-102378463D01*
X171782180Y-102319498D01*
X171662482Y-102283188D01*
X171538000Y-102270928D01*
X169838000Y-102270928D01*
X169713518Y-102283188D01*
X169593820Y-102319498D01*
X169483506Y-102378463D01*
X169386815Y-102457815D01*
X169307463Y-102554506D01*
X169264650Y-102634602D01*
X169264650Y-92168984D01*
X169289628Y-92199420D01*
X175191101Y-98100894D01*
X175191100Y-110420407D01*
X169420577Y-116190931D01*
X169348656Y-116249955D01*
X169289631Y-116321877D01*
X169289628Y-116321880D01*
X169113098Y-116536983D01*
X168938062Y-116864452D01*
X168830275Y-117219776D01*
X168793881Y-117589300D01*
X168803001Y-117681899D01*
X168803000Y-134626904D01*
X168795988Y-134637398D01*
X168635047Y-135025944D01*
X168553000Y-135438421D01*
X168553000Y-135858979D01*
X168635047Y-136271456D01*
X168795988Y-136660002D01*
X168803001Y-136670497D01*
X168803000Y-140633596D01*
X168803001Y-140633606D01*
X168803000Y-143983596D01*
X168830275Y-144260523D01*
X168938061Y-144615847D01*
X169113097Y-144943317D01*
X169348655Y-145230345D01*
X169635683Y-145465903D01*
X169963152Y-145640939D01*
X170318476Y-145748725D01*
X170688000Y-145785120D01*
X171057523Y-145748725D01*
X171412847Y-145640939D01*
X171740317Y-145465903D01*
X172027345Y-145230345D01*
X172262903Y-144943317D01*
X172437939Y-144615848D01*
X172545725Y-144260524D01*
X172573000Y-143983597D01*
X172573000Y-139235721D01*
X176935000Y-139235721D01*
X176935000Y-139656279D01*
X177017047Y-140068756D01*
X177177988Y-140457302D01*
X177185001Y-140467798D01*
X177185000Y-154119344D01*
X177185000Y-154490656D01*
X177203155Y-154581930D01*
X177212275Y-154674523D01*
X177239283Y-154763556D01*
X177257439Y-154854834D01*
X177293054Y-154940816D01*
X177320061Y-155029847D01*
X177363919Y-155111900D01*
X177399534Y-155197882D01*
X177451238Y-155275262D01*
X177495097Y-155357317D01*
X177554122Y-155429239D01*
X177605825Y-155506618D01*
X177671630Y-155572423D01*
X177730655Y-155644345D01*
X177802577Y-155703370D01*
X177868382Y-155769175D01*
X177945761Y-155820878D01*
X178017683Y-155879903D01*
X178099739Y-155923763D01*
X178177118Y-155975466D01*
X178263097Y-156011080D01*
X178345152Y-156054939D01*
X178434187Y-156081947D01*
X178520166Y-156117561D01*
X178611441Y-156135717D01*
X178700476Y-156162725D01*
X178793071Y-156171845D01*
X178884344Y-156190000D01*
X178977403Y-156190000D01*
X179070000Y-156199120D01*
X179162597Y-156190000D01*
X179255656Y-156190000D01*
X179346929Y-156171845D01*
X179439523Y-156162725D01*
X179528556Y-156135717D01*
X179619834Y-156117561D01*
X179705816Y-156081946D01*
X179794847Y-156054939D01*
X179876900Y-156011081D01*
X179962882Y-155975466D01*
X180040262Y-155923762D01*
X180122317Y-155879903D01*
X180194239Y-155820878D01*
X180271618Y-155769175D01*
X180337423Y-155703370D01*
X180409345Y-155644345D01*
X180468370Y-155572423D01*
X180534175Y-155506618D01*
X180585878Y-155429239D01*
X180644903Y-155357317D01*
X180688763Y-155275261D01*
X180740466Y-155197882D01*
X180776080Y-155111903D01*
X180819939Y-155029848D01*
X180846947Y-154940813D01*
X180882561Y-154854834D01*
X180900717Y-154763559D01*
X180927725Y-154674524D01*
X180936845Y-154581929D01*
X180955000Y-154490656D01*
X180955000Y-140467796D01*
X180962012Y-140457302D01*
X181122953Y-140068756D01*
X181205000Y-139656279D01*
X181205000Y-139235721D01*
X181122953Y-138823244D01*
X180962012Y-138434698D01*
X180728363Y-138085017D01*
X180430983Y-137787637D01*
X180081302Y-137553988D01*
X179692756Y-137393047D01*
X179280279Y-137311000D01*
X178859721Y-137311000D01*
X178447244Y-137393047D01*
X178058698Y-137553988D01*
X177709017Y-137787637D01*
X177411637Y-138085017D01*
X177177988Y-138434698D01*
X177017047Y-138823244D01*
X176935000Y-139235721D01*
X172573000Y-139235721D01*
X172573000Y-136670496D01*
X172580012Y-136660002D01*
X172740953Y-136271456D01*
X172823000Y-135858979D01*
X172823000Y-135438421D01*
X172740953Y-135025944D01*
X172580012Y-134637398D01*
X172573000Y-134626904D01*
X172573000Y-118370092D01*
X178343523Y-112599570D01*
X178415445Y-112540545D01*
X178651003Y-112253517D01*
X178826039Y-111926048D01*
X178933825Y-111570724D01*
X178961100Y-111293797D01*
X178961100Y-111293796D01*
X178970220Y-111201200D01*
X178961100Y-111108603D01*
X178961100Y-97412697D01*
X178970220Y-97320100D01*
X178933825Y-96950576D01*
X178887935Y-96799298D01*
X178826039Y-96595252D01*
X178651003Y-96267783D01*
X178509293Y-96095109D01*
X178474472Y-96052679D01*
X178474470Y-96052677D01*
X178415445Y-95980755D01*
X178343523Y-95921730D01*
X171955420Y-89533628D01*
X171740317Y-89357098D01*
X171412848Y-89182062D01*
X171057524Y-89074275D01*
X170688000Y-89037881D01*
X170318476Y-89074275D01*
X169963152Y-89182062D01*
X169635683Y-89357098D01*
X169348655Y-89592655D01*
X169264650Y-89695016D01*
X169264650Y-83413342D01*
X170688000Y-81989992D01*
X179623401Y-90925393D01*
X179623400Y-102650411D01*
X179614281Y-102743000D01*
X179623400Y-102835589D01*
X179623400Y-102835596D01*
X179650675Y-103112523D01*
X179758461Y-103467847D01*
X179933497Y-103795317D01*
X180169055Y-104082345D01*
X180240982Y-104141374D01*
X185261991Y-109162383D01*
X185261990Y-137268207D01*
X182882577Y-139647621D01*
X182810656Y-139706645D01*
X182751631Y-139778567D01*
X182751628Y-139778570D01*
X182575098Y-139993673D01*
X182400062Y-140321142D01*
X182292275Y-140676466D01*
X182255881Y-141045990D01*
X182265001Y-141138589D01*
X182265000Y-154119344D01*
X182265000Y-154490656D01*
X182283155Y-154581930D01*
X182292275Y-154674523D01*
X182319283Y-154763556D01*
X182337439Y-154854834D01*
X182373054Y-154940816D01*
X182400061Y-155029847D01*
X182443919Y-155111900D01*
X182479534Y-155197882D01*
X182531238Y-155275262D01*
X182575097Y-155357317D01*
X182634122Y-155429239D01*
X182685825Y-155506618D01*
X182751630Y-155572423D01*
X182810655Y-155644345D01*
X182882577Y-155703370D01*
X182948382Y-155769175D01*
X183025761Y-155820878D01*
X183097683Y-155879903D01*
X183179739Y-155923763D01*
X183257118Y-155975466D01*
X183343097Y-156011080D01*
X183425152Y-156054939D01*
X183514187Y-156081947D01*
X183600166Y-156117561D01*
X183691441Y-156135717D01*
X183780476Y-156162725D01*
X183873071Y-156171845D01*
X183964344Y-156190000D01*
X184057403Y-156190000D01*
X184150000Y-156199120D01*
X184242597Y-156190000D01*
X184335656Y-156190000D01*
X184426929Y-156171845D01*
X184519523Y-156162725D01*
X184608556Y-156135717D01*
X184699834Y-156117561D01*
X184785816Y-156081946D01*
X184874847Y-156054939D01*
X184956900Y-156011081D01*
X185042882Y-155975466D01*
X185120262Y-155923762D01*
X185202317Y-155879903D01*
X185274239Y-155820878D01*
X185351618Y-155769175D01*
X185417423Y-155703370D01*
X185489345Y-155644345D01*
X185510469Y-155618605D01*
X188096000Y-155618605D01*
X188221914Y-155908577D01*
X188554126Y-156074433D01*
X188912312Y-156172290D01*
X189282706Y-156198389D01*
X189651075Y-156151725D01*
X190003262Y-156034094D01*
X190238086Y-155908577D01*
X190364000Y-155618605D01*
X189230000Y-154484605D01*
X188096000Y-155618605D01*
X185510469Y-155618605D01*
X185548370Y-155572423D01*
X185614175Y-155506618D01*
X185665878Y-155429239D01*
X185724903Y-155357317D01*
X185768763Y-155275261D01*
X185820466Y-155197882D01*
X185856080Y-155111903D01*
X185899939Y-155029848D01*
X185926947Y-154940813D01*
X185962561Y-154854834D01*
X185980717Y-154763559D01*
X186007725Y-154674524D01*
X186016845Y-154581929D01*
X186035000Y-154490656D01*
X186035000Y-154357706D01*
X187336611Y-154357706D01*
X187383275Y-154726075D01*
X187500906Y-155078262D01*
X187626423Y-155313086D01*
X187916395Y-155439000D01*
X189050395Y-154305000D01*
X189409605Y-154305000D01*
X190543605Y-155439000D01*
X190833577Y-155313086D01*
X190999433Y-154980874D01*
X191097290Y-154622688D01*
X191123389Y-154252294D01*
X191076725Y-153883925D01*
X190959094Y-153531738D01*
X190833577Y-153296914D01*
X190543605Y-153171000D01*
X189409605Y-154305000D01*
X189050395Y-154305000D01*
X187916395Y-153171000D01*
X187626423Y-153296914D01*
X187460567Y-153629126D01*
X187362710Y-153987312D01*
X187336611Y-154357706D01*
X186035000Y-154357706D01*
X186035000Y-152991395D01*
X188096000Y-152991395D01*
X189230000Y-154125395D01*
X190364000Y-152991395D01*
X190238086Y-152701423D01*
X189905874Y-152535567D01*
X189547688Y-152437710D01*
X189177294Y-152411611D01*
X188808925Y-152458275D01*
X188456738Y-152575906D01*
X188221914Y-152701423D01*
X188096000Y-152991395D01*
X186035000Y-152991395D01*
X186035000Y-144741000D01*
X187233928Y-144741000D01*
X187246188Y-144865482D01*
X187282498Y-144985180D01*
X187341463Y-145095494D01*
X187420815Y-145192185D01*
X187517506Y-145271537D01*
X187627820Y-145330502D01*
X187747518Y-145366812D01*
X187872000Y-145379072D01*
X188436250Y-145376000D01*
X188595000Y-145217250D01*
X188595000Y-144018000D01*
X188849000Y-144018000D01*
X188849000Y-145217250D01*
X189007750Y-145376000D01*
X189572000Y-145379072D01*
X189696482Y-145366812D01*
X189816180Y-145330502D01*
X189926494Y-145271537D01*
X190023185Y-145192185D01*
X190102537Y-145095494D01*
X190161502Y-144985180D01*
X190197812Y-144865482D01*
X190210072Y-144741000D01*
X190207000Y-144176750D01*
X190048250Y-144018000D01*
X188849000Y-144018000D01*
X188595000Y-144018000D01*
X187395750Y-144018000D01*
X187237000Y-144176750D01*
X187233928Y-144741000D01*
X186035000Y-144741000D01*
X186035000Y-143041000D01*
X187233928Y-143041000D01*
X187237000Y-143605250D01*
X187395750Y-143764000D01*
X188595000Y-143764000D01*
X188595000Y-142564750D01*
X188849000Y-142564750D01*
X188849000Y-143764000D01*
X190048250Y-143764000D01*
X190207000Y-143605250D01*
X190210072Y-143041000D01*
X190197812Y-142916518D01*
X190161502Y-142796820D01*
X190102537Y-142686506D01*
X190023185Y-142589815D01*
X189926494Y-142510463D01*
X189816180Y-142451498D01*
X189696482Y-142415188D01*
X189572000Y-142402928D01*
X189007750Y-142406000D01*
X188849000Y-142564750D01*
X188595000Y-142564750D01*
X188436250Y-142406000D01*
X187872000Y-142402928D01*
X187747518Y-142415188D01*
X187627820Y-142451498D01*
X187517506Y-142510463D01*
X187420815Y-142589815D01*
X187341463Y-142686506D01*
X187282498Y-142796820D01*
X187246188Y-142916518D01*
X187233928Y-143041000D01*
X186035000Y-143041000D01*
X186035000Y-141826782D01*
X188414413Y-139447370D01*
X188486335Y-139388345D01*
X188552664Y-139307524D01*
X188616083Y-139230247D01*
X188721893Y-139101317D01*
X188896929Y-138773848D01*
X188972494Y-138524744D01*
X189004715Y-138418525D01*
X189015789Y-138306086D01*
X189031990Y-138141597D01*
X189031990Y-138141589D01*
X189041109Y-138049000D01*
X189031990Y-137956411D01*
X189031990Y-108474176D01*
X189041109Y-108381589D01*
X189031990Y-108289002D01*
X189031990Y-108288993D01*
X189004715Y-108012066D01*
X188896929Y-107656742D01*
X188721893Y-107329273D01*
X188486335Y-107042245D01*
X188414408Y-106983216D01*
X186040192Y-104609000D01*
X187233928Y-104609000D01*
X187246188Y-104733482D01*
X187282498Y-104853180D01*
X187341463Y-104963494D01*
X187420815Y-105060185D01*
X187517506Y-105139537D01*
X187627820Y-105198502D01*
X187747518Y-105234812D01*
X187872000Y-105247072D01*
X188436250Y-105244000D01*
X188595000Y-105085250D01*
X188595000Y-103886000D01*
X188849000Y-103886000D01*
X188849000Y-105085250D01*
X189007750Y-105244000D01*
X189572000Y-105247072D01*
X189696482Y-105234812D01*
X189816180Y-105198502D01*
X189926494Y-105139537D01*
X190023185Y-105060185D01*
X190102537Y-104963494D01*
X190161502Y-104853180D01*
X190197812Y-104733482D01*
X190210072Y-104609000D01*
X190207000Y-104044750D01*
X190048250Y-103886000D01*
X188849000Y-103886000D01*
X188595000Y-103886000D01*
X187395750Y-103886000D01*
X187237000Y-104044750D01*
X187233928Y-104609000D01*
X186040192Y-104609000D01*
X184340192Y-102909000D01*
X187233928Y-102909000D01*
X187237000Y-103473250D01*
X187395750Y-103632000D01*
X188595000Y-103632000D01*
X188595000Y-102432750D01*
X188849000Y-102432750D01*
X188849000Y-103632000D01*
X190048250Y-103632000D01*
X190207000Y-103473250D01*
X190210072Y-102909000D01*
X190197812Y-102784518D01*
X190161502Y-102664820D01*
X190102537Y-102554506D01*
X190023185Y-102457815D01*
X189926494Y-102378463D01*
X189816180Y-102319498D01*
X189696482Y-102283188D01*
X189572000Y-102270928D01*
X189007750Y-102274000D01*
X188849000Y-102432750D01*
X188595000Y-102432750D01*
X188436250Y-102274000D01*
X187872000Y-102270928D01*
X187747518Y-102283188D01*
X187627820Y-102319498D01*
X187517506Y-102378463D01*
X187420815Y-102457815D01*
X187341463Y-102554506D01*
X187282498Y-102664820D01*
X187246188Y-102784518D01*
X187233928Y-102909000D01*
X184340192Y-102909000D01*
X183393400Y-101962208D01*
X183393400Y-91782000D01*
X187233928Y-91782000D01*
X187246188Y-91906482D01*
X187282498Y-92026180D01*
X187341463Y-92136494D01*
X187420815Y-92233185D01*
X187517506Y-92312537D01*
X187627820Y-92371502D01*
X187747518Y-92407812D01*
X187872000Y-92420072D01*
X188436250Y-92417000D01*
X188595000Y-92258250D01*
X188595000Y-91059000D01*
X188849000Y-91059000D01*
X188849000Y-92258250D01*
X189007750Y-92417000D01*
X189572000Y-92420072D01*
X189696482Y-92407812D01*
X189816180Y-92371502D01*
X189926494Y-92312537D01*
X190023185Y-92233185D01*
X190102537Y-92136494D01*
X190161502Y-92026180D01*
X190197812Y-91906482D01*
X190210072Y-91782000D01*
X190207000Y-91217750D01*
X190048250Y-91059000D01*
X188849000Y-91059000D01*
X188595000Y-91059000D01*
X187395750Y-91059000D01*
X187237000Y-91217750D01*
X187233928Y-91782000D01*
X183393400Y-91782000D01*
X183393400Y-90237186D01*
X183402519Y-90144599D01*
X183396354Y-90082000D01*
X187233928Y-90082000D01*
X187237000Y-90646250D01*
X187395750Y-90805000D01*
X188595000Y-90805000D01*
X188595000Y-89605750D01*
X188849000Y-89605750D01*
X188849000Y-90805000D01*
X190048250Y-90805000D01*
X190207000Y-90646250D01*
X190210072Y-90082000D01*
X190197812Y-89957518D01*
X190161502Y-89837820D01*
X190102537Y-89727506D01*
X190023185Y-89630815D01*
X189926494Y-89551463D01*
X189816180Y-89492498D01*
X189696482Y-89456188D01*
X189572000Y-89443928D01*
X189007750Y-89447000D01*
X188849000Y-89605750D01*
X188595000Y-89605750D01*
X188436250Y-89447000D01*
X187872000Y-89443928D01*
X187747518Y-89456188D01*
X187627820Y-89492498D01*
X187517506Y-89551463D01*
X187420815Y-89630815D01*
X187341463Y-89727506D01*
X187282498Y-89837820D01*
X187246188Y-89957518D01*
X187233928Y-90082000D01*
X183396354Y-90082000D01*
X183393400Y-90052012D01*
X183393400Y-90052003D01*
X183366125Y-89775076D01*
X183258339Y-89419752D01*
X183083303Y-89092283D01*
X182847745Y-88805255D01*
X182775818Y-88746226D01*
X172573000Y-78543408D01*
X172573000Y-51650000D01*
X187233928Y-51650000D01*
X187246188Y-51774482D01*
X187282498Y-51894180D01*
X187341463Y-52004494D01*
X187420815Y-52101185D01*
X187517506Y-52180537D01*
X187627820Y-52239502D01*
X187747518Y-52275812D01*
X187872000Y-52288072D01*
X188436250Y-52285000D01*
X188595000Y-52126250D01*
X188595000Y-50927000D01*
X188849000Y-50927000D01*
X188849000Y-52126250D01*
X189007750Y-52285000D01*
X189572000Y-52288072D01*
X189696482Y-52275812D01*
X189816180Y-52239502D01*
X189926494Y-52180537D01*
X190023185Y-52101185D01*
X190102537Y-52004494D01*
X190161502Y-51894180D01*
X190197812Y-51774482D01*
X190210072Y-51650000D01*
X190207000Y-51085750D01*
X190048250Y-50927000D01*
X188849000Y-50927000D01*
X188595000Y-50927000D01*
X187395750Y-50927000D01*
X187237000Y-51085750D01*
X187233928Y-51650000D01*
X172573000Y-51650000D01*
X172573000Y-50707403D01*
X172545725Y-50430476D01*
X172437939Y-50075152D01*
X172371044Y-49950000D01*
X187233928Y-49950000D01*
X187237000Y-50514250D01*
X187395750Y-50673000D01*
X188595000Y-50673000D01*
X188595000Y-49473750D01*
X188849000Y-49473750D01*
X188849000Y-50673000D01*
X190048250Y-50673000D01*
X190207000Y-50514250D01*
X190210072Y-49950000D01*
X190197812Y-49825518D01*
X190161502Y-49705820D01*
X190102537Y-49595506D01*
X190023185Y-49498815D01*
X189926494Y-49419463D01*
X189816180Y-49360498D01*
X189696482Y-49324188D01*
X189572000Y-49311928D01*
X189007750Y-49315000D01*
X188849000Y-49473750D01*
X188595000Y-49473750D01*
X188436250Y-49315000D01*
X187872000Y-49311928D01*
X187747518Y-49324188D01*
X187627820Y-49360498D01*
X187517506Y-49419463D01*
X187420815Y-49498815D01*
X187341463Y-49595506D01*
X187282498Y-49705820D01*
X187246188Y-49825518D01*
X187233928Y-49950000D01*
X172371044Y-49950000D01*
X172262903Y-49747683D01*
X172027345Y-49460655D01*
X171740317Y-49225097D01*
X171412848Y-49050061D01*
X171057524Y-48942275D01*
X170688000Y-48905880D01*
X170318477Y-48942275D01*
X169963153Y-49050061D01*
X169635684Y-49225097D01*
X169348656Y-49460655D01*
X169113098Y-49747683D01*
X168938062Y-50075152D01*
X168830276Y-50430476D01*
X168803001Y-50707403D01*
X168803000Y-78543407D01*
X166599150Y-80747257D01*
X166327333Y-80892547D01*
X166040305Y-81128105D01*
X165804747Y-81415133D01*
X165629711Y-81742602D01*
X165521925Y-82097926D01*
X165485530Y-82467450D01*
X165494651Y-82560057D01*
X165494650Y-108747559D01*
X162460977Y-111781233D01*
X162389056Y-111840257D01*
X162330031Y-111912179D01*
X162330028Y-111912182D01*
X162153498Y-112127285D01*
X161978462Y-112454754D01*
X161870675Y-112810078D01*
X161834281Y-113179602D01*
X160558800Y-113179602D01*
X160558800Y-112362992D01*
X164005223Y-108916570D01*
X164077145Y-108857545D01*
X164312703Y-108570517D01*
X164487739Y-108243048D01*
X164575631Y-107953307D01*
X164595525Y-107887725D01*
X164616907Y-107670628D01*
X164622800Y-107610797D01*
X164622800Y-107610789D01*
X164631919Y-107518200D01*
X164622800Y-107425611D01*
X164622800Y-105580896D01*
X164629812Y-105570402D01*
X164790753Y-105181856D01*
X164872800Y-104769379D01*
X164872800Y-104348821D01*
X164790753Y-103936344D01*
X164629812Y-103547798D01*
X164396163Y-103198117D01*
X164098783Y-102900737D01*
X163749102Y-102667088D01*
X163360556Y-102506147D01*
X162948079Y-102424100D01*
X162527521Y-102424100D01*
X162115044Y-102506147D01*
X161726498Y-102667088D01*
X161376817Y-102900737D01*
X161079437Y-103198117D01*
X160845788Y-103547798D01*
X160684847Y-103936344D01*
X160602800Y-104348821D01*
X160602800Y-104769379D01*
X160684847Y-105181856D01*
X160845788Y-105570402D01*
X160852800Y-105580897D01*
X160852801Y-106737406D01*
X157406382Y-110183826D01*
X157334455Y-110242855D01*
X157098897Y-110529883D01*
X156923861Y-110857353D01*
X156816075Y-111212677D01*
X156788800Y-111489604D01*
X156788800Y-111489611D01*
X156779681Y-111582200D01*
X156788800Y-111674789D01*
X156788801Y-151596201D01*
X156779681Y-151688800D01*
X156816075Y-152058324D01*
X156923862Y-152413648D01*
X157026576Y-152605812D01*
X156885874Y-152535567D01*
X156527688Y-152437710D01*
X156157294Y-152411611D01*
X155788925Y-152458275D01*
X155436738Y-152575906D01*
X155201914Y-152701423D01*
X155076000Y-152991395D01*
X153015000Y-152991395D01*
X153015000Y-137277986D01*
X153024119Y-137185399D01*
X153015000Y-137092812D01*
X153015000Y-137092803D01*
X152987725Y-136815876D01*
X152879939Y-136460552D01*
X152704903Y-136133083D01*
X152469345Y-135846055D01*
X152397418Y-135787026D01*
X148912900Y-132302508D01*
X148912900Y-128938872D01*
X150927000Y-128938872D01*
X150927000Y-129379128D01*
X151012890Y-129810925D01*
X151181369Y-130217669D01*
X151425962Y-130583729D01*
X151737271Y-130895038D01*
X152103331Y-131139631D01*
X152510075Y-131308110D01*
X152941872Y-131394000D01*
X153382128Y-131394000D01*
X153813925Y-131308110D01*
X154220669Y-131139631D01*
X154586729Y-130895038D01*
X154898038Y-130583729D01*
X155142631Y-130217669D01*
X155311110Y-129810925D01*
X155397000Y-129379128D01*
X155397000Y-128938872D01*
X155311110Y-128507075D01*
X155142631Y-128100331D01*
X154898038Y-127734271D01*
X154586729Y-127422962D01*
X154220669Y-127178369D01*
X153813925Y-127009890D01*
X153382128Y-126924000D01*
X152941872Y-126924000D01*
X152510075Y-127009890D01*
X152103331Y-127178369D01*
X151737271Y-127422962D01*
X151425962Y-127734271D01*
X151181369Y-128100331D01*
X151012890Y-128507075D01*
X150927000Y-128938872D01*
X148912900Y-128938872D01*
X148912900Y-109403892D01*
X150017433Y-108299360D01*
X150089355Y-108240335D01*
X150324913Y-107953307D01*
X150499949Y-107625838D01*
X150607735Y-107270514D01*
X150635010Y-106993587D01*
X150635010Y-106993578D01*
X150644129Y-106900991D01*
X150635010Y-106808404D01*
X150635010Y-99988000D01*
X152943928Y-99988000D01*
X152943928Y-101688000D01*
X152956188Y-101812482D01*
X152992498Y-101932180D01*
X153051463Y-102042494D01*
X153130815Y-102139185D01*
X153227506Y-102218537D01*
X153337820Y-102277502D01*
X153457518Y-102313812D01*
X153582000Y-102326072D01*
X155282000Y-102326072D01*
X155406482Y-102313812D01*
X155526180Y-102277502D01*
X155636494Y-102218537D01*
X155733185Y-102139185D01*
X155812537Y-102042494D01*
X155871502Y-101932180D01*
X155907812Y-101812482D01*
X155920072Y-101688000D01*
X155920072Y-99988000D01*
X155907812Y-99863518D01*
X155871502Y-99743820D01*
X155812537Y-99633506D01*
X155733185Y-99536815D01*
X155636494Y-99457463D01*
X155526180Y-99398498D01*
X155453620Y-99376487D01*
X155585475Y-99244632D01*
X155747990Y-99001411D01*
X155859932Y-98731158D01*
X155917000Y-98444260D01*
X155917000Y-98151740D01*
X155859932Y-97864842D01*
X155747990Y-97594589D01*
X155585475Y-97351368D01*
X155378632Y-97144525D01*
X155196466Y-97022805D01*
X155313355Y-96953178D01*
X155529588Y-96758269D01*
X155703641Y-96524920D01*
X155828825Y-96262099D01*
X155873476Y-96114890D01*
X155752155Y-95885000D01*
X154559000Y-95885000D01*
X154559000Y-95905000D01*
X154305000Y-95905000D01*
X154305000Y-95885000D01*
X153111845Y-95885000D01*
X152990524Y-96114890D01*
X153035175Y-96262099D01*
X153160359Y-96524920D01*
X153334412Y-96758269D01*
X153550645Y-96953178D01*
X153667534Y-97022805D01*
X153485368Y-97144525D01*
X153278525Y-97351368D01*
X153116010Y-97594589D01*
X153004068Y-97864842D01*
X152947000Y-98151740D01*
X152947000Y-98444260D01*
X153004068Y-98731158D01*
X153116010Y-99001411D01*
X153278525Y-99244632D01*
X153410380Y-99376487D01*
X153337820Y-99398498D01*
X153227506Y-99457463D01*
X153130815Y-99536815D01*
X153051463Y-99633506D01*
X152992498Y-99743820D01*
X152956188Y-99863518D01*
X152943928Y-99988000D01*
X150635010Y-99988000D01*
X150635010Y-94293576D01*
X150644129Y-94200989D01*
X150635010Y-94108402D01*
X150635010Y-94108393D01*
X150607735Y-93831466D01*
X150499949Y-93476142D01*
X150324913Y-93148673D01*
X150089355Y-92861645D01*
X150017433Y-92802620D01*
X147746553Y-90531740D01*
X152947000Y-90531740D01*
X152947000Y-90824260D01*
X153004068Y-91111158D01*
X153116010Y-91381411D01*
X153278525Y-91624632D01*
X153485368Y-91831475D01*
X153659760Y-91948000D01*
X153485368Y-92064525D01*
X153278525Y-92271368D01*
X153116010Y-92514589D01*
X153004068Y-92784842D01*
X152947000Y-93071740D01*
X152947000Y-93364260D01*
X153004068Y-93651158D01*
X153116010Y-93921411D01*
X153278525Y-94164632D01*
X153485368Y-94371475D01*
X153667534Y-94493195D01*
X153550645Y-94562822D01*
X153334412Y-94757731D01*
X153160359Y-94991080D01*
X153035175Y-95253901D01*
X152990524Y-95401110D01*
X153111845Y-95631000D01*
X154305000Y-95631000D01*
X154305000Y-95611000D01*
X154559000Y-95611000D01*
X154559000Y-95631000D01*
X155752155Y-95631000D01*
X155873476Y-95401110D01*
X155828825Y-95253901D01*
X155703641Y-94991080D01*
X155529588Y-94757731D01*
X155313355Y-94562822D01*
X155196466Y-94493195D01*
X155378632Y-94371475D01*
X155585475Y-94164632D01*
X155747990Y-93921411D01*
X155859932Y-93651158D01*
X155917000Y-93364260D01*
X155917000Y-93071740D01*
X155859932Y-92784842D01*
X155747990Y-92514589D01*
X155585475Y-92271368D01*
X155378632Y-92064525D01*
X155204240Y-91948000D01*
X155378632Y-91831475D01*
X155585475Y-91624632D01*
X155747990Y-91381411D01*
X155859932Y-91111158D01*
X155917000Y-90824260D01*
X155917000Y-90531740D01*
X155859932Y-90244842D01*
X155747990Y-89974589D01*
X155585475Y-89731368D01*
X155378632Y-89524525D01*
X155135411Y-89362010D01*
X154865158Y-89250068D01*
X154578260Y-89193000D01*
X154285740Y-89193000D01*
X153998842Y-89250068D01*
X153728589Y-89362010D01*
X153485368Y-89524525D01*
X153278525Y-89731368D01*
X153116010Y-89974589D01*
X153004068Y-90244842D01*
X152947000Y-90531740D01*
X147746553Y-90531740D01*
X122876394Y-65661582D01*
X122817365Y-65589655D01*
X122530337Y-65354097D01*
X122202868Y-65179061D01*
X121847544Y-65071275D01*
X121570617Y-65044000D01*
X121570609Y-65044000D01*
X121478020Y-65034881D01*
X121385431Y-65044000D01*
X120208042Y-65044000D01*
X120299932Y-64822158D01*
X120357000Y-64535260D01*
X120357000Y-64242740D01*
X120299932Y-63955842D01*
X120187990Y-63685589D01*
X120025475Y-63442368D01*
X119818632Y-63235525D01*
X119636466Y-63113805D01*
X119753355Y-63044178D01*
X119969588Y-62849269D01*
X120143641Y-62615920D01*
X120268825Y-62353099D01*
X120313476Y-62205890D01*
X120192155Y-61976000D01*
X118999000Y-61976000D01*
X118999000Y-61996000D01*
X118745000Y-61996000D01*
X118745000Y-61976000D01*
X117551845Y-61976000D01*
X117430524Y-62205890D01*
X117475175Y-62353099D01*
X117600359Y-62615920D01*
X117774412Y-62849269D01*
X117990645Y-63044178D01*
X118107534Y-63113805D01*
X117925368Y-63235525D01*
X117718525Y-63442368D01*
X117556010Y-63685589D01*
X117444068Y-63955842D01*
X117387000Y-64242740D01*
X117387000Y-64535260D01*
X117444068Y-64822158D01*
X117556010Y-65092411D01*
X117718525Y-65335632D01*
X117774264Y-65391371D01*
X117532655Y-65589655D01*
X117297097Y-65876683D01*
X117122061Y-66204152D01*
X117014275Y-66559476D01*
X116977880Y-66929000D01*
X111912000Y-66929000D01*
X111912000Y-55919000D01*
X117383928Y-55919000D01*
X117383928Y-57619000D01*
X117396188Y-57743482D01*
X117432498Y-57863180D01*
X117491463Y-57973494D01*
X117570815Y-58070185D01*
X117667506Y-58149537D01*
X117777820Y-58208502D01*
X117850380Y-58230513D01*
X117718525Y-58362368D01*
X117556010Y-58605589D01*
X117444068Y-58875842D01*
X117387000Y-59162740D01*
X117387000Y-59455260D01*
X117444068Y-59742158D01*
X117556010Y-60012411D01*
X117718525Y-60255632D01*
X117925368Y-60462475D01*
X118107534Y-60584195D01*
X117990645Y-60653822D01*
X117774412Y-60848731D01*
X117600359Y-61082080D01*
X117475175Y-61344901D01*
X117430524Y-61492110D01*
X117551845Y-61722000D01*
X118745000Y-61722000D01*
X118745000Y-61702000D01*
X118999000Y-61702000D01*
X118999000Y-61722000D01*
X120192155Y-61722000D01*
X120241301Y-61628872D01*
X151435000Y-61628872D01*
X151435000Y-62069128D01*
X151520890Y-62500925D01*
X151689369Y-62907669D01*
X151933962Y-63273729D01*
X152245271Y-63585038D01*
X152611331Y-63829631D01*
X153018075Y-63998110D01*
X153449872Y-64084000D01*
X153890128Y-64084000D01*
X154321925Y-63998110D01*
X154728669Y-63829631D01*
X155094729Y-63585038D01*
X155406038Y-63273729D01*
X155650631Y-62907669D01*
X155819110Y-62500925D01*
X155905000Y-62069128D01*
X155905000Y-61628872D01*
X155819110Y-61197075D01*
X155650631Y-60790331D01*
X155406038Y-60424271D01*
X155094729Y-60112962D01*
X154728669Y-59868369D01*
X154321925Y-59699890D01*
X153890128Y-59614000D01*
X153449872Y-59614000D01*
X153018075Y-59699890D01*
X152611331Y-59868369D01*
X152245271Y-60112962D01*
X151933962Y-60424271D01*
X151689369Y-60790331D01*
X151520890Y-61197075D01*
X151435000Y-61628872D01*
X120241301Y-61628872D01*
X120313476Y-61492110D01*
X120268825Y-61344901D01*
X120143641Y-61082080D01*
X119969588Y-60848731D01*
X119753355Y-60653822D01*
X119636466Y-60584195D01*
X119818632Y-60462475D01*
X120025475Y-60255632D01*
X120187990Y-60012411D01*
X120299932Y-59742158D01*
X120357000Y-59455260D01*
X120357000Y-59162740D01*
X120299932Y-58875842D01*
X120187990Y-58605589D01*
X120025475Y-58362368D01*
X119893620Y-58230513D01*
X119966180Y-58208502D01*
X120076494Y-58149537D01*
X120173185Y-58070185D01*
X120252537Y-57973494D01*
X120311502Y-57863180D01*
X120347812Y-57743482D01*
X120360072Y-57619000D01*
X120360072Y-55919000D01*
X120347812Y-55794518D01*
X120311502Y-55674820D01*
X120252537Y-55564506D01*
X120173185Y-55467815D01*
X120076494Y-55388463D01*
X119966180Y-55329498D01*
X119846482Y-55293188D01*
X119722000Y-55280928D01*
X118022000Y-55280928D01*
X117897518Y-55293188D01*
X117777820Y-55329498D01*
X117667506Y-55388463D01*
X117570815Y-55467815D01*
X117491463Y-55564506D01*
X117432498Y-55674820D01*
X117396188Y-55794518D01*
X117383928Y-55919000D01*
X111912000Y-55919000D01*
X111912000Y-45618000D01*
X192634001Y-45618000D01*
X192634000Y-159614000D01*
G37*
%TD.AperFunction*%
%TD*%
M02*
