%TF.GenerationSoftware,KiCad,Pcbnew,(5.1.10)-1*%
%TF.CreationDate,2021-05-20T21:40:56+02:00*%
%TF.ProjectId,potencia,706f7465-6e63-4696-912e-6b696361645f,rev?*%
%TF.SameCoordinates,Original*%
%TF.FileFunction,Copper,L1,Top*%
%TF.FilePolarity,Positive*%
%FSLAX46Y46*%
G04 Gerber Fmt 4.6, Leading zero omitted, Abs format (unit mm)*
G04 Created by KiCad (PCBNEW (5.1.10)-1) date 2021-05-20 21:40:56*
%MOMM*%
%LPD*%
G01*
G04 APERTURE LIST*
%TA.AperFunction,ComponentPad*%
%ADD10C,2.500000*%
%TD*%
%TA.AperFunction,ComponentPad*%
%ADD11R,1.700000X1.700000*%
%TD*%
%TA.AperFunction,ComponentPad*%
%ADD12O,1.700000X1.700000*%
%TD*%
%TA.AperFunction,ViaPad*%
%ADD13C,3.000000*%
%TD*%
%TA.AperFunction,Conductor*%
%ADD14C,2.500000*%
%TD*%
%TA.AperFunction,Conductor*%
%ADD15C,0.250000*%
%TD*%
G04 APERTURE END LIST*
D10*
%TO.P,5V    5V    5V   GND    12V    12V,6*%
%TO.N,12.2*%
X166370000Y-154305000D03*
%TO.P,5V    5V    5V   GND    12V    12V,1*%
%TO.N,5.1*%
X140970000Y-154305000D03*
%TO.P,5V    5V    5V   GND    12V    12V,2*%
%TO.N,5.2*%
X146050000Y-154305000D03*
%TO.P,5V    5V    5V   GND    12V    12V,4*%
%TO.N,GND*%
X156210000Y-154305000D03*
%TO.P,5V    5V    5V   GND    12V    12V,3*%
%TO.N,5.3*%
X151130000Y-154305000D03*
%TO.P,5V    5V    5V   GND    12V    12V,5*%
%TO.N,12.1*%
X161290000Y-154305000D03*
%TD*%
%TO.P,GND   5V   12V   GND,4*%
%TO.N,GND*%
X189230000Y-154305000D03*
%TO.P,GND   5V   12V   GND,2*%
%TO.N,5.2*%
X179070000Y-154305000D03*
%TO.P,GND   5V   12V   GND,3*%
%TO.N,12.2*%
X184150000Y-154305000D03*
%TO.P,GND   5V   12V   GND,1*%
%TO.N,GND*%
X173990000Y-154305000D03*
%TD*%
%TO.P,GND  GND   BAT  SETA,4*%
%TO.N,+15V*%
X133350000Y-154305000D03*
%TO.P,GND  GND   BAT  SETA,2*%
%TO.N,GND*%
X123190000Y-154305000D03*
%TO.P,GND  GND   BAT  SETA,3*%
%TO.N,+BATT*%
X128270000Y-154305000D03*
%TO.P,GND  GND   BAT  SETA,1*%
%TO.N,GND*%
X118110000Y-154305000D03*
%TD*%
D11*
%TO.P,NI12.1,1*%
%TO.N,GND*%
X188722000Y-90932000D03*
%TD*%
%TO.P,NI12.2,1*%
%TO.N,GND*%
X188722000Y-143891000D03*
%TD*%
%TO.P,NO12.1,1*%
%TO.N,GND*%
X188722000Y-50800000D03*
%TD*%
%TO.P,NO12.2,1*%
%TO.N,GND*%
X188722000Y-103759000D03*
%TD*%
%TO.P,PI12.1,1*%
%TO.N,+15V*%
X170688000Y-90932000D03*
%TD*%
%TO.P,PI12.2,1*%
%TO.N,+15V*%
X170688000Y-143891000D03*
%TD*%
%TO.P,PO12.2,1*%
%TO.N,12.1*%
X170688000Y-103759000D03*
%TD*%
%TO.P,PO12.1,1*%
%TO.N,12.2*%
X170688000Y-50800000D03*
%TD*%
%TO.P,Regulador5.3,1*%
%TO.N,+BATT*%
X118872000Y-56769000D03*
D12*
%TO.P,Regulador5.3,2*%
%TO.N,Net-(Regulador5.3-Pad2)*%
X118872000Y-59309000D03*
%TO.P,Regulador5.3,3*%
%TO.N,GND*%
X118872000Y-61849000D03*
%TO.P,Regulador5.3,4*%
%TO.N,Net-(Regulador5.3-Pad4)*%
X118872000Y-64389000D03*
%TO.P,Regulador5.3,5*%
%TO.N,5.3*%
X118872000Y-66929000D03*
%TD*%
%TO.P,Regulador5.1,5*%
%TO.N,5.1*%
X118364000Y-134239000D03*
%TO.P,Regulador5.1,4*%
%TO.N,Net-(Regulador5.1-Pad4)*%
X118364000Y-131699000D03*
%TO.P,Regulador5.1,3*%
%TO.N,GND*%
X118364000Y-129159000D03*
%TO.P,Regulador5.1,2*%
%TO.N,Net-(Regulador5.1-Pad2)*%
X118364000Y-126619000D03*
D11*
%TO.P,Regulador5.1,1*%
%TO.N,+BATT*%
X118364000Y-124079000D03*
%TD*%
%TO.P,Regulador5.2,1*%
%TO.N,+BATT*%
X154432000Y-100838000D03*
D12*
%TO.P,Regulador5.2,2*%
%TO.N,Net-(Regulador5.2-Pad2)*%
X154432000Y-98298000D03*
%TO.P,Regulador5.2,3*%
%TO.N,GND*%
X154432000Y-95758000D03*
%TO.P,Regulador5.2,4*%
%TO.N,Net-(Regulador5.2-Pad4)*%
X154432000Y-93218000D03*
%TO.P,Regulador5.2,5*%
%TO.N,5.2*%
X154432000Y-90678000D03*
%TD*%
D13*
%TO.N,+15V*%
X136994900Y-132537200D03*
X170688000Y-135648700D03*
%TO.N,+BATT*%
X129146300Y-87896700D03*
%TO.N,5.1*%
X122809000Y-138938000D03*
X136906000Y-138938000D03*
%TO.N,5.2*%
X179070000Y-139446000D03*
X142659100Y-99593400D03*
%TO.N,12.1*%
X162737800Y-104559100D03*
%TD*%
D14*
%TO.N,+15V*%
X170688000Y-135648700D02*
X167665400Y-132626100D01*
X167665400Y-132626100D02*
X163576000Y-132626100D01*
X163576000Y-132626100D02*
X159613600Y-136588500D01*
X159613600Y-136588500D02*
X149885400Y-136588500D01*
X145834100Y-132537200D02*
X136994900Y-132537200D01*
X149885400Y-136588500D02*
X145834100Y-132537200D01*
%TO.N,+BATT*%
X122222000Y-56769000D02*
X118872000Y-56769000D01*
X129146300Y-63693300D02*
X122222000Y-56769000D01*
X129146300Y-87896700D02*
X129146300Y-63693300D01*
X154432000Y-100838000D02*
X148120100Y-107149900D01*
X148120100Y-107149900D02*
X141224000Y-107149900D01*
X124294900Y-124079000D02*
X118364000Y-124079000D01*
X141224000Y-107149900D02*
X124294900Y-124079000D01*
D15*
%TO.N,5.1*%
X122809000Y-138938000D02*
X122809000Y-138938000D01*
D14*
X136906000Y-138938000D02*
X122809000Y-138938000D01*
%TO.N,5.2*%
X155296002Y-90678000D02*
X154432000Y-90678000D01*
X159264140Y-94646138D02*
X155296002Y-90678000D01*
X159264140Y-94646138D02*
X159264140Y-118154240D01*
X159264140Y-118154240D02*
X171456560Y-130346660D01*
X153229919Y-90678000D02*
X154432000Y-90678000D01*
X146050000Y-97857919D02*
X153229919Y-90678000D01*
X144394581Y-97857919D02*
X146050000Y-97857919D01*
X142659100Y-99593400D02*
X144394581Y-97857919D01*
X179070000Y-139446000D02*
X179070000Y-133642100D01*
X175774560Y-130346660D02*
X171456560Y-130346660D01*
X179070000Y-133642100D02*
X175774560Y-130346660D01*
%TO.N,12.1*%
X169887900Y-104559100D02*
X170688000Y-103759000D01*
X162737800Y-104559100D02*
X169887900Y-104559100D01*
%TD*%
M02*
